<svg xmlns="http://www.w3.org/2000/svg" xmlns:xlink="http://www.w3.org/1999/xlink" width="275" zoomAndPan="magnify" viewBox="0 0 206.25 30.000001" height="40" preserveAspectRatio="xMidYMid meet" version="1.0"><defs><g/><clipPath id="c6f0bdb802"><path d="M 2.964844 0 L 202.558594 0 L 202.558594 29.03125 L 2.964844 29.03125 Z M 2.964844 0 " clip-rule="nonzero"/></clipPath><clipPath id="26af055bca"><path d="M 10.363281 0 L 202.558594 0 L 202.558594 2 L 10.363281 2 Z M 10.363281 0 " clip-rule="nonzero"/></clipPath><clipPath id="afe6ce36d4"><path d="M 10.363281 3 L 202.558594 3 L 202.558594 3.628906 L 10.363281 3.628906 Z M 10.363281 3 " clip-rule="nonzero"/></clipPath><clipPath id="917cd216a1"><path d="M 10.363281 25.28125 L 202.558594 25.28125 L 202.558594 27 L 10.363281 27 Z M 10.363281 25.28125 " clip-rule="nonzero"/></clipPath><clipPath id="29b4bbe29b"><path d="M 10.363281 28 L 202.558594 28 L 202.558594 28.910156 L 10.363281 28.910156 Z M 10.363281 28 " clip-rule="nonzero"/></clipPath><clipPath id="caac347c74"><path d="M 5.988281 8.566406 L 17.066406 8.566406 L 17.066406 19.105469 L 5.988281 19.105469 Z M 5.988281 8.566406 " clip-rule="nonzero"/></clipPath><clipPath id="4bfa9576d5"><path d="M 11.519531 8.566406 L 12.824219 12.59375 L 17.046875 12.59375 L 13.628906 15.082031 L 14.9375 19.105469 L 11.519531 16.617188 L 8.101562 19.105469 L 9.40625 15.082031 L 5.988281 12.59375 L 10.214844 12.59375 Z M 11.519531 8.566406 " clip-rule="nonzero"/></clipPath><clipPath id="402e50a250"><path d="M 5.867188 12.214844 L 7.097656 12.214844 L 7.097656 13.445312 L 5.867188 13.445312 Z M 5.867188 12.214844 " clip-rule="nonzero"/></clipPath><clipPath id="925073b2b1"><path d="M 6.484375 12.214844 C 6.140625 12.214844 5.867188 12.492188 5.867188 12.832031 C 5.867188 13.171875 6.140625 13.445312 6.484375 13.445312 C 6.824219 13.445312 7.097656 13.171875 7.097656 12.832031 C 7.097656 12.492188 6.824219 12.214844 6.484375 12.214844 Z M 6.484375 12.214844 " clip-rule="nonzero"/></clipPath><clipPath id="7c3d64a075"><path d="M 16.074219 12.214844 L 17.304688 12.214844 L 17.304688 13.445312 L 16.074219 13.445312 Z M 16.074219 12.214844 " clip-rule="nonzero"/></clipPath><clipPath id="d1b144243d"><path d="M 16.6875 12.214844 C 16.347656 12.214844 16.074219 12.492188 16.074219 12.832031 C 16.074219 13.171875 16.347656 13.445312 16.6875 13.445312 C 17.03125 13.445312 17.304688 13.171875 17.304688 12.832031 C 17.304688 12.492188 17.03125 12.214844 16.6875 12.214844 Z M 16.6875 12.214844 " clip-rule="nonzero"/></clipPath><clipPath id="bc93089664"><path d="M 14.183594 18.316406 L 15.417969 18.316406 L 15.417969 19.546875 L 14.183594 19.546875 Z M 14.183594 18.316406 " clip-rule="nonzero"/></clipPath><clipPath id="a90a66824b"><path d="M 14.800781 18.316406 C 14.460938 18.316406 14.183594 18.59375 14.183594 18.933594 C 14.183594 19.273438 14.460938 19.546875 14.800781 19.546875 C 15.140625 19.546875 15.417969 19.273438 15.417969 18.933594 C 15.417969 18.59375 15.140625 18.316406 14.800781 18.316406 Z M 14.800781 18.316406 " clip-rule="nonzero"/></clipPath><clipPath id="64b0386e49"><path d="M 7.628906 18.316406 L 8.859375 18.316406 L 8.859375 19.546875 L 7.628906 19.546875 Z M 7.628906 18.316406 " clip-rule="nonzero"/></clipPath><clipPath id="7959b20709"><path d="M 8.242188 18.316406 C 7.902344 18.316406 7.628906 18.59375 7.628906 18.933594 C 7.628906 19.273438 7.902344 19.546875 8.242188 19.546875 C 8.582031 19.546875 8.859375 19.273438 8.859375 18.933594 C 8.859375 18.59375 8.582031 18.316406 8.242188 18.316406 Z M 8.242188 18.316406 " clip-rule="nonzero"/></clipPath><clipPath id="91c1acc1fe"><path d="M 10.902344 8.199219 L 12.132812 8.199219 L 12.132812 9.433594 L 10.902344 9.433594 Z M 10.902344 8.199219 " clip-rule="nonzero"/></clipPath><clipPath id="8b40863c74"><path d="M 11.519531 8.199219 C 11.179688 8.199219 10.902344 8.476562 10.902344 8.816406 C 10.902344 9.15625 11.179688 9.433594 11.519531 9.433594 C 11.859375 9.433594 12.132812 9.15625 12.132812 8.816406 C 12.132812 8.476562 11.859375 8.199219 11.519531 8.199219 Z M 11.519531 8.199219 " clip-rule="nonzero"/></clipPath><clipPath id="872d86e255"><path d="M 187.527344 8.566406 L 198.605469 8.566406 L 198.605469 19.105469 L 187.527344 19.105469 Z M 187.527344 8.566406 " clip-rule="nonzero"/></clipPath><clipPath id="1a04130590"><path d="M 193.058594 8.566406 L 194.363281 12.59375 L 198.585938 12.59375 L 195.167969 15.082031 L 196.476562 19.105469 L 193.058594 16.617188 L 189.640625 19.105469 L 190.945312 15.082031 L 187.527344 12.59375 L 191.753906 12.59375 Z M 193.058594 8.566406 " clip-rule="nonzero"/></clipPath><clipPath id="c08e799d65"><path d="M 187.40625 12.214844 L 188.636719 12.214844 L 188.636719 13.445312 L 187.40625 13.445312 Z M 187.40625 12.214844 " clip-rule="nonzero"/></clipPath><clipPath id="598db060c9"><path d="M 188.023438 12.214844 C 187.679688 12.214844 187.40625 12.492188 187.40625 12.832031 C 187.40625 13.171875 187.679688 13.445312 188.023438 13.445312 C 188.363281 13.445312 188.636719 13.171875 188.636719 12.832031 C 188.636719 12.492188 188.363281 12.214844 188.023438 12.214844 Z M 188.023438 12.214844 " clip-rule="nonzero"/></clipPath><clipPath id="625a1cae65"><path d="M 197.613281 12.214844 L 198.84375 12.214844 L 198.84375 13.445312 L 197.613281 13.445312 Z M 197.613281 12.214844 " clip-rule="nonzero"/></clipPath><clipPath id="f614370211"><path d="M 198.226562 12.214844 C 197.886719 12.214844 197.613281 12.492188 197.613281 12.832031 C 197.613281 13.171875 197.886719 13.445312 198.226562 13.445312 C 198.570312 13.445312 198.84375 13.171875 198.84375 12.832031 C 198.84375 12.492188 198.570312 12.214844 198.226562 12.214844 Z M 198.226562 12.214844 " clip-rule="nonzero"/></clipPath><clipPath id="bd23a7ef03"><path d="M 195.722656 18.316406 L 196.957031 18.316406 L 196.957031 19.546875 L 195.722656 19.546875 Z M 195.722656 18.316406 " clip-rule="nonzero"/></clipPath><clipPath id="b328b2d2c1"><path d="M 196.339844 18.316406 C 196 18.316406 195.722656 18.59375 195.722656 18.933594 C 195.722656 19.273438 196 19.546875 196.339844 19.546875 C 196.679688 19.546875 196.957031 19.273438 196.957031 18.933594 C 196.957031 18.59375 196.679688 18.316406 196.339844 18.316406 Z M 196.339844 18.316406 " clip-rule="nonzero"/></clipPath><clipPath id="3cf8b6d950"><path d="M 189.167969 18.316406 L 190.398438 18.316406 L 190.398438 19.546875 L 189.167969 19.546875 Z M 189.167969 18.316406 " clip-rule="nonzero"/></clipPath><clipPath id="1b79af121b"><path d="M 189.78125 18.316406 C 189.441406 18.316406 189.167969 18.59375 189.167969 18.933594 C 189.167969 19.273438 189.441406 19.546875 189.78125 19.546875 C 190.121094 19.546875 190.398438 19.273438 190.398438 18.933594 C 190.398438 18.59375 190.121094 18.316406 189.78125 18.316406 Z M 189.78125 18.316406 " clip-rule="nonzero"/></clipPath><clipPath id="0d1a98b2a9"><path d="M 192.441406 8.199219 L 193.671875 8.199219 L 193.671875 9.433594 L 192.441406 9.433594 Z M 192.441406 8.199219 " clip-rule="nonzero"/></clipPath><clipPath id="bae5642235"><path d="M 193.058594 8.199219 C 192.71875 8.199219 192.441406 8.476562 192.441406 8.816406 C 192.441406 9.15625 192.71875 9.433594 193.058594 9.433594 C 193.398438 9.433594 193.671875 9.15625 193.671875 8.816406 C 193.671875 8.476562 193.398438 8.199219 193.058594 8.199219 Z M 193.058594 8.199219 " clip-rule="nonzero"/></clipPath><clipPath id="347238265f"><path d="M 2.964844 25.28125 L 194.042969 25.28125 L 194.042969 27 L 2.964844 27 Z M 2.964844 25.28125 " clip-rule="nonzero"/></clipPath><clipPath id="0bc6d94793"><path d="M 2.964844 28 L 194.042969 28 L 194.042969 28.910156 L 2.964844 28.910156 Z M 2.964844 28 " clip-rule="nonzero"/></clipPath><clipPath id="c97d358372"><path d="M 2.964844 0 L 192.542969 0 L 192.542969 2 L 2.964844 2 Z M 2.964844 0 " clip-rule="nonzero"/></clipPath><clipPath id="fe2d7c0756"><path d="M 2.964844 3 L 192.542969 3 L 192.542969 3.628906 L 2.964844 3.628906 Z M 2.964844 3 " clip-rule="nonzero"/></clipPath></defs><g clip-path="url(#c6f0bdb802)"><path fill="#ffffff" d="M 2.964844 0 L 202.558594 0 L 202.558594 29.03125 L 2.964844 29.03125 Z M 2.964844 0 " fill-opacity="1" fill-rule="nonzero"/><path fill="#4d0733" d="M 2.964844 0 L 202.558594 0 L 202.558594 29.03125 L 2.964844 29.03125 Z M 2.964844 0 " fill-opacity="1" fill-rule="nonzero"/></g><g clip-path="url(#26af055bca)"><path fill="#f7838d" d="M 8.984375 -2.011719 L 205.679688 -2.011719 L 205.679688 1.636719 L 8.984375 1.636719 Z M 8.984375 -2.011719 " fill-opacity="1" fill-rule="nonzero"/></g><g clip-path="url(#afe6ce36d4)"><path fill="#f7838d" d="M 8.984375 3.132812 L 205.679688 3.132812 L 205.679688 4.113281 L 8.984375 4.113281 Z M 8.984375 3.132812 " fill-opacity="1" fill-rule="nonzero"/></g><g clip-path="url(#917cd216a1)"><path fill="#f7838d" d="M 8.984375 23.273438 L 205.679688 23.273438 L 205.679688 26.917969 L 8.984375 26.917969 Z M 8.984375 23.273438 " fill-opacity="1" fill-rule="nonzero"/></g><g clip-path="url(#29b4bbe29b)"><path fill="#f7838d" d="M 8.984375 28.414062 L 205.679688 28.414062 L 205.679688 29.394531 L 8.984375 29.394531 Z M 8.984375 28.414062 " fill-opacity="1" fill-rule="nonzero"/></g><g clip-path="url(#caac347c74)"><g clip-path="url(#4bfa9576d5)"><path fill="#f7838d" d="M 5.988281 8.566406 L 17.066406 8.566406 L 17.066406 19.105469 L 5.988281 19.105469 Z M 5.988281 8.566406 " fill-opacity="1" fill-rule="nonzero"/></g></g><g clip-path="url(#402e50a250)"><g clip-path="url(#925073b2b1)"><path fill="#f7838d" d="M 5.867188 12.214844 L 7.097656 12.214844 L 7.097656 13.445312 L 5.867188 13.445312 Z M 5.867188 12.214844 " fill-opacity="1" fill-rule="nonzero"/></g></g><g clip-path="url(#7c3d64a075)"><g clip-path="url(#d1b144243d)"><path fill="#f7838d" d="M 16.074219 12.214844 L 17.304688 12.214844 L 17.304688 13.445312 L 16.074219 13.445312 Z M 16.074219 12.214844 " fill-opacity="1" fill-rule="nonzero"/></g></g><g clip-path="url(#bc93089664)"><g clip-path="url(#a90a66824b)"><path fill="#f7838d" d="M 14.183594 18.316406 L 15.417969 18.316406 L 15.417969 19.546875 L 14.183594 19.546875 Z M 14.183594 18.316406 " fill-opacity="1" fill-rule="nonzero"/></g></g><g clip-path="url(#64b0386e49)"><g clip-path="url(#7959b20709)"><path fill="#f7838d" d="M 7.628906 18.316406 L 8.859375 18.316406 L 8.859375 19.546875 L 7.628906 19.546875 Z M 7.628906 18.316406 " fill-opacity="1" fill-rule="nonzero"/></g></g><g clip-path="url(#91c1acc1fe)"><g clip-path="url(#8b40863c74)"><path fill="#f7838d" d="M 10.902344 8.199219 L 12.132812 8.199219 L 12.132812 9.433594 L 10.902344 9.433594 Z M 10.902344 8.199219 " fill-opacity="1" fill-rule="nonzero"/></g></g><g clip-path="url(#872d86e255)"><g clip-path="url(#1a04130590)"><path fill="#f7838d" d="M 187.527344 8.566406 L 198.605469 8.566406 L 198.605469 19.105469 L 187.527344 19.105469 Z M 187.527344 8.566406 " fill-opacity="1" fill-rule="nonzero"/></g></g><g clip-path="url(#c08e799d65)"><g clip-path="url(#598db060c9)"><path fill="#f7838d" d="M 187.40625 12.214844 L 188.636719 12.214844 L 188.636719 13.445312 L 187.40625 13.445312 Z M 187.40625 12.214844 " fill-opacity="1" fill-rule="nonzero"/></g></g><g clip-path="url(#625a1cae65)"><g clip-path="url(#f614370211)"><path fill="#f7838d" d="M 197.613281 12.214844 L 198.84375 12.214844 L 198.84375 13.445312 L 197.613281 13.445312 Z M 197.613281 12.214844 " fill-opacity="1" fill-rule="nonzero"/></g></g><g clip-path="url(#bd23a7ef03)"><g clip-path="url(#b328b2d2c1)"><path fill="#f7838d" d="M 195.722656 18.316406 L 196.957031 18.316406 L 196.957031 19.546875 L 195.722656 19.546875 Z M 195.722656 18.316406 " fill-opacity="1" fill-rule="nonzero"/></g></g><g clip-path="url(#3cf8b6d950)"><g clip-path="url(#1b79af121b)"><path fill="#f7838d" d="M 189.167969 18.316406 L 190.398438 18.316406 L 190.398438 19.546875 L 189.167969 19.546875 Z M 189.167969 18.316406 " fill-opacity="1" fill-rule="nonzero"/></g></g><g clip-path="url(#0d1a98b2a9)"><g clip-path="url(#bae5642235)"><path fill="#f7838d" d="M 192.441406 8.199219 L 193.671875 8.199219 L 193.671875 9.433594 L 192.441406 9.433594 Z M 192.441406 8.199219 " fill-opacity="1" fill-rule="nonzero"/></g></g><g clip-path="url(#347238265f)"><path fill="#f7838d" d="M -0.398438 23.273438 L 196.296875 23.273438 L 196.296875 26.917969 L -0.398438 26.917969 Z M -0.398438 23.273438 " fill-opacity="1" fill-rule="nonzero"/></g><g clip-path="url(#0bc6d94793)"><path fill="#f7838d" d="M -0.398438 28.414062 L 196.296875 28.414062 L 196.296875 29.394531 L -0.398438 29.394531 Z M -0.398438 28.414062 " fill-opacity="1" fill-rule="nonzero"/></g><g clip-path="url(#c97d358372)"><path fill="#f7838d" d="M -1.902344 -2.011719 L 194.792969 -2.011719 L 194.792969 1.636719 L -1.902344 1.636719 Z M -1.902344 -2.011719 " fill-opacity="1" fill-rule="nonzero"/></g><g clip-path="url(#fe2d7c0756)"><path fill="#f7838d" d="M -1.902344 3.132812 L 194.792969 3.132812 L 194.792969 4.113281 L -1.902344 4.113281 Z M -1.902344 3.132812 " fill-opacity="1" fill-rule="nonzero"/></g><g fill="#ffffff" fill-opacity="1"><g transform="translate(77.733111, 18.593113)"><g><path d="M 4.078125 -0.078125 C 3.828125 0.0664062 3.546875 0.140625 3.234375 0.140625 C 2.929688 0.140625 2.671875 0.0625 2.453125 -0.09375 C 2.203125 0.0625 1.972656 0.140625 1.765625 0.140625 C 1.554688 0.140625 1.382812 0.117188 1.25 0.078125 C 1.113281 0.046875 0.992188 0 0.890625 -0.0625 C 0.679688 -0.1875 0.578125 -0.34375 0.578125 -0.53125 C 0.578125 -0.632812 0.601562 -0.722656 0.65625 -0.796875 C 0.757812 -0.710938 0.894531 -0.671875 1.0625 -0.671875 C 1.5 -0.671875 1.800781 -0.851562 1.96875 -1.21875 L 1.96875 -4.8125 C 1.96875 -5.1875 1.773438 -5.472656 1.390625 -5.671875 L 1.078125 -5.84375 C 1.503906 -6.039062 1.773438 -6.257812 1.890625 -6.5 C 1.941406 -6.601562 1.96875 -6.734375 1.96875 -6.890625 L 1.96875 -9.984375 C 1.800781 -10.359375 1.5 -10.546875 1.0625 -10.546875 C 0.894531 -10.546875 0.757812 -10.503906 0.65625 -10.421875 C 0.601562 -10.492188 0.578125 -10.578125 0.578125 -10.671875 C 0.578125 -10.773438 0.601562 -10.867188 0.65625 -10.953125 C 0.707031 -11.035156 0.785156 -11.101562 0.890625 -11.15625 C 1.109375 -11.289062 1.359375 -11.359375 1.640625 -11.359375 C 1.929688 -11.359375 2.203125 -11.28125 2.453125 -11.125 C 2.671875 -11.28125 2.9375 -11.359375 3.25 -11.359375 C 3.5625 -11.359375 3.835938 -11.28125 4.078125 -11.125 C 4.304688 -11.28125 4.5625 -11.359375 4.84375 -11.359375 C 5.257812 -11.359375 5.554688 -11.222656 5.734375 -10.953125 C 5.796875 -10.859375 5.828125 -10.757812 5.828125 -10.65625 C 5.828125 -10.5625 5.796875 -10.484375 5.734375 -10.421875 C 5.628906 -10.503906 5.492188 -10.546875 5.328125 -10.546875 C 4.953125 -10.546875 4.703125 -10.363281 4.578125 -10 L 4.578125 -6.125 L 8.046875 -6.125 L 8.046875 -10 C 7.921875 -10.363281 7.664062 -10.546875 7.28125 -10.546875 C 7.125 -10.546875 6.992188 -10.503906 6.890625 -10.421875 C 6.828125 -10.484375 6.796875 -10.5625 6.796875 -10.65625 C 6.796875 -10.757812 6.820312 -10.851562 6.875 -10.9375 C 6.9375 -11.03125 7.007812 -11.109375 7.09375 -11.171875 C 7.28125 -11.296875 7.503906 -11.359375 7.765625 -11.359375 C 8.054688 -11.359375 8.316406 -11.28125 8.546875 -11.125 C 8.796875 -11.28125 9.070312 -11.359375 9.375 -11.359375 C 9.675781 -11.359375 9.9375 -11.28125 10.15625 -11.125 C 10.394531 -11.28125 10.625 -11.359375 10.84375 -11.359375 C 11.0625 -11.359375 11.238281 -11.335938 11.375 -11.296875 C 11.507812 -11.265625 11.628906 -11.21875 11.734375 -11.15625 C 11.941406 -11.03125 12.046875 -10.875 12.046875 -10.6875 C 12.046875 -10.582031 12.019531 -10.492188 11.96875 -10.421875 C 11.851562 -10.503906 11.71875 -10.546875 11.5625 -10.546875 C 11.125 -10.546875 10.820312 -10.359375 10.65625 -9.984375 L 10.65625 -6.890625 C 10.65625 -6.503906 10.84375 -6.207031 11.21875 -6 C 11.320312 -5.945312 11.429688 -5.894531 11.546875 -5.84375 C 11.253906 -5.695312 11.054688 -5.582031 10.953125 -5.5 C 10.753906 -5.3125 10.65625 -5.082031 10.65625 -4.8125 L 10.65625 -1.21875 C 10.820312 -0.851562 11.125 -0.671875 11.5625 -0.671875 C 11.71875 -0.671875 11.851562 -0.710938 11.96875 -0.796875 C 12.019531 -0.722656 12.046875 -0.632812 12.046875 -0.53125 C 12.046875 -0.4375 12.015625 -0.347656 11.953125 -0.265625 C 11.898438 -0.179688 11.828125 -0.113281 11.734375 -0.0625 C 11.503906 0.0703125 11.242188 0.140625 10.953125 0.140625 C 10.660156 0.140625 10.394531 0.0625 10.15625 -0.09375 C 9.9375 0.0625 9.675781 0.140625 9.375 0.140625 C 9.070312 0.140625 8.796875 0.0625 8.546875 -0.09375 C 8.316406 0.0625 8.054688 0.140625 7.765625 0.140625 C 7.359375 0.140625 7.0625 0.00390625 6.875 -0.265625 C 6.820312 -0.359375 6.796875 -0.453125 6.796875 -0.546875 C 6.796875 -0.648438 6.828125 -0.734375 6.890625 -0.796875 C 6.992188 -0.710938 7.125 -0.671875 7.28125 -0.671875 C 7.664062 -0.671875 7.921875 -0.851562 8.046875 -1.21875 L 8.046875 -5.078125 L 4.578125 -5.078125 L 4.578125 -1.21875 C 4.703125 -0.851562 4.953125 -0.671875 5.328125 -0.671875 C 5.492188 -0.671875 5.628906 -0.710938 5.734375 -0.796875 C 5.796875 -0.734375 5.828125 -0.648438 5.828125 -0.546875 C 5.828125 -0.453125 5.796875 -0.359375 5.734375 -0.265625 C 5.679688 -0.179688 5.609375 -0.109375 5.515625 -0.046875 C 5.335938 0.078125 5.113281 0.140625 4.84375 0.140625 C 4.5625 0.140625 4.304688 0.0664062 4.078125 -0.078125 Z M 8.640625 -7.40625 C 8.640625 -6.882812 8.640625 -6.015625 8.640625 -4.796875 C 8.640625 -3.585938 8.660156 -2.878906 8.703125 -2.671875 C 8.765625 -2.253906 8.890625 -2.007812 9.078125 -1.9375 L 9.078125 -2.890625 C 9.078125 -4.191406 9.085938 -4.925781 9.109375 -5.09375 C 9.128906 -5.269531 9.148438 -5.390625 9.171875 -5.453125 C 9.210938 -5.628906 9.359375 -5.757812 9.609375 -5.84375 C 9.390625 -5.914062 9.242188 -6.054688 9.171875 -6.265625 C 9.109375 -6.492188 9.078125 -7.460938 9.078125 -9.171875 C 8.890625 -9.078125 8.769531 -8.898438 8.71875 -8.640625 C 8.675781 -8.347656 8.648438 -7.9375 8.640625 -7.40625 Z M 2.671875 -1.9375 C 2.898438 -2.03125 3.03125 -2.351562 3.0625 -2.90625 C 3.082031 -3.445312 3.09375 -4.203125 3.09375 -5.171875 C 3.09375 -6.140625 3.09375 -6.785156 3.09375 -7.109375 C 3.09375 -7.429688 3.09375 -7.6875 3.09375 -7.875 C 3.070312 -8.445312 3.015625 -8.796875 2.921875 -8.921875 C 2.835938 -9.046875 2.753906 -9.128906 2.671875 -9.171875 C 2.671875 -7.460938 2.640625 -6.492188 2.578125 -6.265625 C 2.515625 -6.066406 2.347656 -5.925781 2.078125 -5.84375 C 2.367188 -5.738281 2.535156 -5.613281 2.578125 -5.46875 C 2.640625 -5.238281 2.671875 -4.378906 2.671875 -2.890625 Z M 2.671875 -1.9375 "/></g></g></g><g fill="#ffffff" fill-opacity="1"><g transform="translate(90.341273, 18.593113)"><g><path d="M 2.5625 -1.078125 C 2.15625 -1.503906 1.828125 -2.007812 1.578125 -2.59375 C 1.328125 -3.1875 1.171875 -3.75 1.109375 -4.28125 C 1.054688 -4.8125 0.96875 -5.175781 0.84375 -5.375 C 0.726562 -5.582031 0.5625 -5.738281 0.34375 -5.84375 C 0.757812 -6.039062 1.003906 -6.453125 1.078125 -7.078125 C 1.160156 -7.703125 1.335938 -8.285156 1.609375 -8.828125 C 1.878906 -9.367188 2.21875 -9.832031 2.625 -10.21875 C 3.5 -11.03125 4.554688 -11.4375 5.796875 -11.4375 C 7.054688 -11.4375 8.101562 -11.0625 8.9375 -10.3125 C 9.800781 -9.53125 10.3125 -8.4375 10.46875 -7.03125 C 10.53125 -6.4375 10.773438 -6.039062 11.203125 -5.84375 C 10.785156 -5.632812 10.535156 -5.1875 10.453125 -4.5 C 10.378906 -3.820312 10.226562 -3.1875 10 -2.59375 C 9.769531 -2.007812 9.457031 -1.503906 9.0625 -1.078125 C 8.257812 -0.210938 7.171875 0.21875 5.796875 0.21875 C 4.484375 0.21875 3.40625 -0.210938 2.5625 -1.078125 Z M 4.96875 -5.84375 C 4.425781 -5.582031 4.15625 -5.160156 4.15625 -4.578125 L 4.15625 -2.390625 C 4.15625 -1.597656 4.484375 -1.085938 5.140625 -0.859375 C 5.335938 -0.796875 5.550781 -0.765625 5.78125 -0.765625 C 6.007812 -0.765625 6.21875 -0.796875 6.40625 -0.859375 C 6.601562 -0.929688 6.773438 -1.035156 6.921875 -1.171875 C 7.210938 -1.453125 7.359375 -1.859375 7.359375 -2.390625 L 7.359375 -4.578125 C 7.359375 -5.160156 7.09375 -5.582031 6.5625 -5.84375 C 7.09375 -6.082031 7.359375 -6.476562 7.359375 -7.03125 L 7.359375 -8.78125 C 7.359375 -9.320312 7.203125 -9.742188 6.890625 -10.046875 C 6.585938 -10.328125 6.21875 -10.46875 5.78125 -10.46875 C 5.03125 -10.46875 4.53125 -10.15625 4.28125 -9.53125 C 4.195312 -9.3125 4.15625 -9.0625 4.15625 -8.78125 L 4.15625 -7.03125 C 4.15625 -6.476562 4.425781 -6.082031 4.96875 -5.84375 Z M 8.03125 -9.171875 C 8.164062 -8.753906 8.234375 -8.046875 8.234375 -7.046875 C 8.234375 -6.484375 8.207031 -6.171875 8.15625 -6.109375 C 8.113281 -6.054688 8.066406 -6.015625 8.015625 -5.984375 C 7.929688 -5.921875 7.835938 -5.875 7.734375 -5.84375 C 8.023438 -5.707031 8.179688 -5.582031 8.203125 -5.46875 C 8.242188 -4.988281 8.265625 -4.570312 8.265625 -4.21875 C 8.265625 -3.863281 8.257812 -3.582031 8.25 -3.375 C 8.238281 -3.164062 8.226562 -2.96875 8.21875 -2.78125 C 8.175781 -2.394531 8.125 -2.113281 8.0625 -1.9375 C 8.445312 -2.0625 8.660156 -2.628906 8.703125 -3.640625 C 8.722656 -4.203125 8.734375 -4.832031 8.734375 -5.53125 C 8.734375 -6.226562 8.726562 -6.75 8.71875 -7.09375 C 8.707031 -7.445312 8.6875 -7.738281 8.65625 -7.96875 C 8.59375 -8.476562 8.46875 -8.835938 8.28125 -9.046875 C 8.226562 -9.097656 8.144531 -9.140625 8.03125 -9.171875 Z M 2.75 -1.9375 C 2.820312 -1.96875 2.859375 -2.019531 2.859375 -2.09375 C 2.859375 -2.207031 2.804688 -2.378906 2.703125 -2.609375 C 2.441406 -3.191406 2.3125 -4.269531 2.3125 -5.84375 C 2.3125 -6.988281 2.453125 -7.960938 2.734375 -8.765625 C 2.765625 -8.878906 2.78125 -8.96875 2.78125 -9.03125 C 2.78125 -9.101562 2.75 -9.148438 2.6875 -9.171875 C 2.457031 -8.878906 2.289062 -8.59375 2.1875 -8.3125 C 2.007812 -7.789062 1.867188 -7.085938 1.765625 -6.203125 C 1.742188 -6.078125 1.597656 -5.957031 1.328125 -5.84375 C 1.597656 -5.71875 1.742188 -5.59375 1.765625 -5.46875 C 1.941406 -3.957031 2.164062 -2.945312 2.4375 -2.4375 C 2.53125 -2.25 2.632812 -2.082031 2.75 -1.9375 Z M 2.75 -1.9375 "/></g></g></g><g fill="#ffffff" fill-opacity="1"><g transform="translate(101.87983, 18.593113)"><g><path d="M 1.875 -0.046875 C 1.6875 0.078125 1.476562 0.140625 1.25 0.140625 C 1.019531 0.140625 0.832031 0.0820312 0.6875 -0.03125 C 0.550781 -0.15625 0.484375 -0.296875 0.484375 -0.453125 C 0.484375 -0.609375 0.507812 -0.722656 0.5625 -0.796875 C 0.695312 -0.710938 0.921875 -0.671875 1.234375 -0.671875 C 1.359375 -0.671875 1.492188 -0.734375 1.640625 -0.859375 C 1.785156 -0.984375 1.898438 -1.15625 1.984375 -1.375 L 1.984375 -4.8125 C 1.984375 -5.039062 1.9375 -5.210938 1.84375 -5.328125 C 1.695312 -5.503906 1.445312 -5.675781 1.09375 -5.84375 C 1.445312 -6.007812 1.671875 -6.148438 1.765625 -6.265625 C 1.910156 -6.453125 1.984375 -6.660156 1.984375 -6.890625 L 2 -10.09375 C 1.875 -10.394531 1.613281 -10.546875 1.21875 -10.546875 C 1.007812 -10.546875 0.859375 -10.503906 0.765625 -10.421875 C 0.710938 -10.484375 0.6875 -10.566406 0.6875 -10.671875 C 0.6875 -10.773438 0.707031 -10.867188 0.75 -10.953125 C 0.800781 -11.035156 0.863281 -11.109375 0.9375 -11.171875 C 1.101562 -11.296875 1.328125 -11.359375 1.609375 -11.359375 C 1.890625 -11.359375 2.117188 -11.28125 2.296875 -11.125 C 2.453125 -11.28125 2.640625 -11.359375 2.859375 -11.359375 C 3.078125 -11.359375 3.257812 -11.269531 3.40625 -11.09375 C 3.59375 -11.269531 3.757812 -11.359375 3.90625 -11.359375 C 4.0625 -11.359375 4.175781 -11.347656 4.25 -11.328125 C 4.332031 -11.304688 4.410156 -11.257812 4.484375 -11.1875 C 4.640625 -11.0625 4.804688 -10.816406 4.984375 -10.453125 L 7.78125 -4.625 L 10.109375 -10.328125 L 10.3125 -10.8125 C 10.425781 -11.070312 10.535156 -11.226562 10.640625 -11.28125 C 10.753906 -11.332031 10.882812 -11.359375 11.03125 -11.359375 C 11.175781 -11.359375 11.320312 -11.304688 11.46875 -11.203125 C 11.65625 -11.304688 11.898438 -11.359375 12.203125 -11.359375 C 12.503906 -11.359375 12.765625 -11.28125 12.984375 -11.125 C 13.179688 -11.28125 13.382812 -11.359375 13.59375 -11.359375 C 13.8125 -11.359375 13.976562 -11.34375 14.09375 -11.3125 C 14.21875 -11.28125 14.320312 -11.234375 14.40625 -11.171875 C 14.59375 -11.035156 14.6875 -10.875 14.6875 -10.6875 C 14.6875 -10.582031 14.660156 -10.492188 14.609375 -10.421875 C 14.492188 -10.503906 14.351562 -10.546875 14.1875 -10.546875 C 13.820312 -10.546875 13.570312 -10.375 13.4375 -10.03125 L 13.4375 -6.890625 C 13.4375 -6.648438 13.488281 -6.472656 13.59375 -6.359375 C 13.75 -6.171875 13.992188 -6 14.328125 -5.84375 C 13.972656 -5.664062 13.75 -5.519531 13.65625 -5.40625 C 13.507812 -5.226562 13.4375 -5.03125 13.4375 -4.8125 L 13.4375 -1.21875 C 13.601562 -0.851562 13.90625 -0.671875 14.34375 -0.671875 C 14.507812 -0.671875 14.644531 -0.710938 14.75 -0.796875 C 14.800781 -0.722656 14.828125 -0.632812 14.828125 -0.53125 C 14.828125 -0.4375 14.796875 -0.347656 14.734375 -0.265625 C 14.679688 -0.179688 14.609375 -0.113281 14.515625 -0.0625 C 14.296875 0.0703125 14.039062 0.140625 13.75 0.140625 C 13.457031 0.140625 13.1875 0.0625 12.9375 -0.09375 C 12.707031 0.0625 12.445312 0.140625 12.15625 0.140625 C 11.84375 0.140625 11.566406 0.0625 11.328125 -0.09375 C 11.078125 0.0625 10.84375 0.140625 10.625 0.140625 C 10.414062 0.140625 10.242188 0.117188 10.109375 0.078125 C 9.972656 0.046875 9.851562 0 9.75 -0.0625 C 9.539062 -0.1875 9.4375 -0.34375 9.4375 -0.53125 C 9.4375 -0.632812 9.460938 -0.722656 9.515625 -0.796875 C 9.617188 -0.710938 9.753906 -0.671875 9.921875 -0.671875 C 10.359375 -0.671875 10.660156 -0.851562 10.828125 -1.21875 L 10.828125 -9.234375 L 7.96875 -2.15625 L 7.65625 -1.4375 C 7.5 -1.09375 7.390625 -0.898438 7.328125 -0.859375 C 7.273438 -0.816406 7.226562 -0.796875 7.1875 -0.796875 C 7.0625 -0.796875 6.972656 -0.804688 6.921875 -0.828125 L 3.015625 -8.546875 L 3.015625 -1.375 C 3.109375 -1.15625 3.234375 -0.984375 3.390625 -0.859375 C 3.554688 -0.734375 3.738281 -0.671875 3.9375 -0.671875 C 4.132812 -0.671875 4.304688 -0.710938 4.453125 -0.796875 C 4.503906 -0.703125 4.53125 -0.578125 4.53125 -0.421875 C 4.53125 -0.273438 4.453125 -0.144531 4.296875 -0.03125 C 4.148438 0.0820312 3.957031 0.140625 3.71875 0.140625 C 3.476562 0.140625 3.257812 0.0820312 3.0625 -0.03125 C 2.882812 0.0820312 2.679688 0.140625 2.453125 0.140625 C 2.222656 0.140625 2.03125 0.078125 1.875 -0.046875 Z M 4.046875 -9.171875 C 3.992188 -9.097656 3.96875 -8.992188 3.96875 -8.859375 C 3.96875 -8.460938 4.132812 -7.9375 4.46875 -7.28125 L 7.140625 -1.953125 C 7.171875 -1.992188 7.1875 -2.085938 7.1875 -2.234375 C 7.1875 -2.648438 6.984375 -3.269531 6.578125 -4.09375 Z M 11.53125 -1.9375 C 11.78125 -2.03125 11.914062 -2.351562 11.9375 -2.90625 C 11.96875 -3.445312 11.984375 -4.203125 11.984375 -5.171875 C 11.984375 -6.140625 11.976562 -6.785156 11.96875 -7.109375 C 11.96875 -7.429688 11.96875 -7.6875 11.96875 -7.875 C 11.945312 -8.457031 11.890625 -8.804688 11.796875 -8.921875 C 11.703125 -9.046875 11.613281 -9.128906 11.53125 -9.171875 Z M 2.90625 -1.84375 C 2.90625 -1.800781 2.910156 -1.773438 2.921875 -1.765625 Z M 2.09375 -1.84375 C 2.082031 -1.820312 2.078125 -1.796875 2.078125 -1.765625 Z M 2.09375 -1.84375 "/></g></g></g><g fill="#ffffff" fill-opacity="1"><g transform="translate(117.22061, 18.593113)"><g><path d="M 3.296875 0.140625 C 2.972656 0.140625 2.6875 0.0625 2.4375 -0.09375 C 2.1875 0.0625 1.957031 0.140625 1.75 0.140625 C 1.539062 0.140625 1.363281 0.117188 1.21875 0.078125 C 1.082031 0.046875 0.960938 0 0.859375 -0.0625 C 0.648438 -0.1875 0.546875 -0.34375 0.546875 -0.53125 C 0.546875 -0.632812 0.570312 -0.722656 0.625 -0.796875 C 0.738281 -0.710938 0.878906 -0.671875 1.046875 -0.671875 C 1.472656 -0.671875 1.769531 -0.851562 1.9375 -1.21875 L 1.9375 -4.8125 C 1.9375 -5.03125 1.890625 -5.195312 1.796875 -5.3125 C 1.648438 -5.488281 1.398438 -5.664062 1.046875 -5.84375 C 1.378906 -6 1.59375 -6.132812 1.6875 -6.25 C 1.851562 -6.4375 1.9375 -6.648438 1.9375 -6.890625 L 1.9375 -9.984375 C 1.769531 -10.359375 1.472656 -10.546875 1.046875 -10.546875 C 0.878906 -10.546875 0.738281 -10.503906 0.625 -10.421875 C 0.570312 -10.492188 0.546875 -10.578125 0.546875 -10.671875 C 0.546875 -10.773438 0.570312 -10.867188 0.625 -10.953125 C 0.6875 -11.035156 0.765625 -11.101562 0.859375 -11.15625 C 1.085938 -11.289062 1.347656 -11.359375 1.640625 -11.359375 C 1.929688 -11.359375 2.195312 -11.28125 2.4375 -11.125 C 2.695312 -11.28125 2.988281 -11.359375 3.3125 -11.359375 C 3.644531 -11.359375 3.941406 -11.265625 4.203125 -11.078125 C 4.722656 -11.265625 5.320312 -11.359375 6 -11.359375 C 6.507812 -11.359375 6.941406 -11.3125 7.296875 -11.21875 L 7.953125 -11.046875 C 8.023438 -11.023438 8.097656 -11.015625 8.171875 -11.015625 C 8.304688 -11.015625 8.375 -11.113281 8.375 -11.3125 C 8.375 -11.351562 8.359375 -11.4375 8.328125 -11.5625 C 8.460938 -11.582031 8.632812 -11.59375 8.84375 -11.59375 C 9.0625 -11.59375 9.242188 -11.519531 9.390625 -11.375 C 9.535156 -11.238281 9.609375 -11.039062 9.609375 -10.78125 C 9.609375 -10.519531 9.5625 -10.328125 9.46875 -10.203125 C 9.59375 -10.003906 9.65625 -9.765625 9.65625 -9.484375 C 9.65625 -9.203125 9.5625 -8.96875 9.375 -8.78125 C 9.4375 -8.632812 9.46875 -8.488281 9.46875 -8.34375 C 9.46875 -8.207031 9.441406 -8.082031 9.390625 -7.96875 C 9.347656 -7.851562 9.289062 -7.757812 9.21875 -7.6875 C 9.082031 -7.539062 8.945312 -7.46875 8.8125 -7.46875 C 8.601562 -7.46875 8.414062 -7.515625 8.25 -7.609375 C 8.3125 -7.722656 8.34375 -7.894531 8.34375 -8.125 C 8.34375 -8.664062 8.207031 -9.132812 7.9375 -9.53125 C 7.570312 -10.09375 7.019531 -10.375 6.28125 -10.375 C 5.90625 -10.375 5.566406 -10.28125 5.265625 -10.09375 C 4.972656 -9.914062 4.765625 -9.660156 4.640625 -9.328125 L 4.640625 -6.484375 C 4.804688 -6.378906 4.960938 -6.328125 5.109375 -6.328125 C 5.265625 -6.328125 5.378906 -6.328125 5.453125 -6.328125 C 5.535156 -6.335938 5.613281 -6.347656 5.6875 -6.359375 C 5.882812 -6.390625 6.039062 -6.429688 6.15625 -6.484375 C 6.351562 -6.578125 6.453125 -6.816406 6.453125 -7.203125 C 6.453125 -7.410156 6.40625 -7.578125 6.3125 -7.703125 C 6.40625 -7.765625 6.523438 -7.796875 6.671875 -7.796875 C 6.992188 -7.796875 7.234375 -7.664062 7.390625 -7.40625 C 7.441406 -7.3125 7.46875 -7.207031 7.46875 -7.09375 C 7.46875 -6.976562 7.4375 -6.835938 7.375 -6.671875 C 7.570312 -6.441406 7.671875 -6.171875 7.671875 -5.859375 C 7.671875 -5.546875 7.570312 -5.273438 7.375 -5.046875 C 7.4375 -4.878906 7.46875 -4.726562 7.46875 -4.59375 C 7.46875 -4.457031 7.4375 -4.328125 7.375 -4.203125 C 7.320312 -4.085938 7.257812 -3.992188 7.1875 -3.921875 C 7.03125 -3.773438 6.859375 -3.703125 6.671875 -3.703125 C 6.535156 -3.703125 6.414062 -3.742188 6.3125 -3.828125 C 6.40625 -3.992188 6.453125 -4.191406 6.453125 -4.421875 C 6.453125 -4.878906 6.328125 -5.160156 6.078125 -5.265625 C 5.859375 -5.359375 5.609375 -5.40625 5.328125 -5.40625 C 5.046875 -5.40625 4.816406 -5.351562 4.640625 -5.25 L 4.640625 -1.578125 C 4.921875 -1.078125 5.46875 -0.828125 6.28125 -0.828125 C 7.195312 -0.828125 7.820312 -1.113281 8.15625 -1.6875 C 8.539062 -2.332031 8.734375 -3.03125 8.734375 -3.78125 C 8.734375 -3.988281 8.71875 -4.15625 8.6875 -4.28125 C 8.800781 -4.394531 8.925781 -4.453125 9.0625 -4.453125 C 9.195312 -4.453125 9.296875 -4.429688 9.359375 -4.390625 C 9.429688 -4.359375 9.492188 -4.316406 9.546875 -4.265625 C 9.660156 -4.128906 9.71875 -3.992188 9.71875 -3.859375 L 9.671875 -3.5 C 9.671875 -3.40625 9.695312 -3.332031 9.75 -3.28125 C 9.84375 -3.175781 9.890625 -3.078125 9.890625 -2.984375 C 9.890625 -2.898438 9.863281 -2.789062 9.8125 -2.65625 C 9.925781 -2.59375 10.023438 -2.5 10.109375 -2.375 C 10.203125 -2.25 10.25 -2.125 10.25 -2 C 10.25 -1.71875 10.128906 -1.46875 9.890625 -1.25 C 9.992188 -1.101562 10.046875 -0.890625 10.046875 -0.609375 C 10.046875 -0.335938 9.96875 -0.109375 9.8125 0.078125 C 9.65625 0.273438 9.445312 0.375 9.1875 0.375 C 9.050781 0.375 8.910156 0.363281 8.765625 0.34375 C 8.785156 0.226562 8.796875 0.117188 8.796875 0.015625 C 8.796875 -0.210938 8.691406 -0.328125 8.484375 -0.328125 C 8.253906 -0.328125 8.023438 -0.28125 7.796875 -0.1875 C 7.253906 0.03125 6.632812 0.140625 5.9375 0.140625 C 5.25 0.140625 4.664062 0.0507812 4.1875 -0.125 C 3.9375 0.0507812 3.640625 0.140625 3.296875 0.140625 Z M 2.640625 -1.9375 C 2.890625 -2.03125 3.023438 -2.351562 3.046875 -2.90625 C 3.078125 -3.445312 3.09375 -4.203125 3.09375 -5.171875 C 3.09375 -6.140625 3.09375 -6.785156 3.09375 -7.109375 C 3.09375 -7.429688 3.085938 -7.6875 3.078125 -7.875 C 3.066406 -8.457031 3.007812 -8.804688 2.90625 -8.921875 C 2.8125 -9.046875 2.722656 -9.128906 2.640625 -9.171875 C 2.640625 -7.460938 2.613281 -6.492188 2.5625 -6.265625 C 2.488281 -6.066406 2.320312 -5.925781 2.0625 -5.84375 C 2.351562 -5.738281 2.519531 -5.613281 2.5625 -5.46875 C 2.613281 -5.238281 2.640625 -4.378906 2.640625 -2.890625 Z M 4.5 -2.015625 C 4.5 -2.003906 4.5 -1.992188 4.5 -1.984375 Z M 4.5 -2.015625 "/></g></g></g></svg>