<svg xmlns="http://www.w3.org/2000/svg" xmlns:xlink="http://www.w3.org/1999/xlink" width="275" zoomAndPan="magnify" viewBox="0 0 206.25 30.000001" height="40" preserveAspectRatio="xMidYMid meet" version="1.0"><defs><g/><clipPath id="d2a5a33d8a"><path d="M 2.964844 0 L 202.558594 0 L 202.558594 29.03125 L 2.964844 29.03125 Z M 2.964844 0 " clip-rule="nonzero"/></clipPath><clipPath id="d7fdb5030c"><path d="M 10.363281 0 L 202.558594 0 L 202.558594 2 L 10.363281 2 Z M 10.363281 0 " clip-rule="nonzero"/></clipPath><clipPath id="2e248b78ff"><path d="M 10.363281 3 L 202.558594 3 L 202.558594 3.628906 L 10.363281 3.628906 Z M 10.363281 3 " clip-rule="nonzero"/></clipPath><clipPath id="6ffcf7e1a7"><path d="M 10.363281 25.28125 L 202.558594 25.28125 L 202.558594 27 L 10.363281 27 Z M 10.363281 25.28125 " clip-rule="nonzero"/></clipPath><clipPath id="1d1786ba3a"><path d="M 10.363281 28 L 202.558594 28 L 202.558594 28.910156 L 10.363281 28.910156 Z M 10.363281 28 " clip-rule="nonzero"/></clipPath><clipPath id="293f6e12e8"><path d="M 5.988281 8.566406 L 17.066406 8.566406 L 17.066406 19.105469 L 5.988281 19.105469 Z M 5.988281 8.566406 " clip-rule="nonzero"/></clipPath><clipPath id="576c88b1c0"><path d="M 11.519531 8.566406 L 12.824219 12.59375 L 17.046875 12.59375 L 13.628906 15.082031 L 14.9375 19.105469 L 11.519531 16.617188 L 8.101562 19.105469 L 9.40625 15.082031 L 5.988281 12.59375 L 10.214844 12.59375 Z M 11.519531 8.566406 " clip-rule="nonzero"/></clipPath><clipPath id="ecf4799845"><path d="M 5.867188 12.214844 L 7.097656 12.214844 L 7.097656 13.445312 L 5.867188 13.445312 Z M 5.867188 12.214844 " clip-rule="nonzero"/></clipPath><clipPath id="cb8441328b"><path d="M 6.484375 12.214844 C 6.140625 12.214844 5.867188 12.492188 5.867188 12.832031 C 5.867188 13.171875 6.140625 13.445312 6.484375 13.445312 C 6.824219 13.445312 7.097656 13.171875 7.097656 12.832031 C 7.097656 12.492188 6.824219 12.214844 6.484375 12.214844 Z M 6.484375 12.214844 " clip-rule="nonzero"/></clipPath><clipPath id="faf7135c91"><path d="M 16.074219 12.214844 L 17.304688 12.214844 L 17.304688 13.445312 L 16.074219 13.445312 Z M 16.074219 12.214844 " clip-rule="nonzero"/></clipPath><clipPath id="25aa8bce5e"><path d="M 16.6875 12.214844 C 16.347656 12.214844 16.074219 12.492188 16.074219 12.832031 C 16.074219 13.171875 16.347656 13.445312 16.6875 13.445312 C 17.03125 13.445312 17.304688 13.171875 17.304688 12.832031 C 17.304688 12.492188 17.03125 12.214844 16.6875 12.214844 Z M 16.6875 12.214844 " clip-rule="nonzero"/></clipPath><clipPath id="df171d2e21"><path d="M 14.183594 18.316406 L 15.417969 18.316406 L 15.417969 19.546875 L 14.183594 19.546875 Z M 14.183594 18.316406 " clip-rule="nonzero"/></clipPath><clipPath id="269ff8a11a"><path d="M 14.800781 18.316406 C 14.460938 18.316406 14.183594 18.59375 14.183594 18.933594 C 14.183594 19.273438 14.460938 19.546875 14.800781 19.546875 C 15.140625 19.546875 15.417969 19.273438 15.417969 18.933594 C 15.417969 18.59375 15.140625 18.316406 14.800781 18.316406 Z M 14.800781 18.316406 " clip-rule="nonzero"/></clipPath><clipPath id="e9a1860e80"><path d="M 7.628906 18.316406 L 8.859375 18.316406 L 8.859375 19.546875 L 7.628906 19.546875 Z M 7.628906 18.316406 " clip-rule="nonzero"/></clipPath><clipPath id="09c6b07cc3"><path d="M 8.242188 18.316406 C 7.902344 18.316406 7.628906 18.59375 7.628906 18.933594 C 7.628906 19.273438 7.902344 19.546875 8.242188 19.546875 C 8.582031 19.546875 8.859375 19.273438 8.859375 18.933594 C 8.859375 18.59375 8.582031 18.316406 8.242188 18.316406 Z M 8.242188 18.316406 " clip-rule="nonzero"/></clipPath><clipPath id="2a8d6c5be1"><path d="M 10.902344 8.199219 L 12.132812 8.199219 L 12.132812 9.433594 L 10.902344 9.433594 Z M 10.902344 8.199219 " clip-rule="nonzero"/></clipPath><clipPath id="73a0438f61"><path d="M 11.519531 8.199219 C 11.179688 8.199219 10.902344 8.476562 10.902344 8.816406 C 10.902344 9.15625 11.179688 9.433594 11.519531 9.433594 C 11.859375 9.433594 12.132812 9.15625 12.132812 8.816406 C 12.132812 8.476562 11.859375 8.199219 11.519531 8.199219 Z M 11.519531 8.199219 " clip-rule="nonzero"/></clipPath><clipPath id="17908ee749"><path d="M 187.527344 8.566406 L 198.605469 8.566406 L 198.605469 19.105469 L 187.527344 19.105469 Z M 187.527344 8.566406 " clip-rule="nonzero"/></clipPath><clipPath id="98cc8f5101"><path d="M 193.058594 8.566406 L 194.363281 12.59375 L 198.585938 12.59375 L 195.167969 15.082031 L 196.476562 19.105469 L 193.058594 16.617188 L 189.640625 19.105469 L 190.945312 15.082031 L 187.527344 12.59375 L 191.753906 12.59375 Z M 193.058594 8.566406 " clip-rule="nonzero"/></clipPath><clipPath id="c9b5e888bd"><path d="M 187.40625 12.214844 L 188.636719 12.214844 L 188.636719 13.445312 L 187.40625 13.445312 Z M 187.40625 12.214844 " clip-rule="nonzero"/></clipPath><clipPath id="09f3ec5d61"><path d="M 188.023438 12.214844 C 187.679688 12.214844 187.40625 12.492188 187.40625 12.832031 C 187.40625 13.171875 187.679688 13.445312 188.023438 13.445312 C 188.363281 13.445312 188.636719 13.171875 188.636719 12.832031 C 188.636719 12.492188 188.363281 12.214844 188.023438 12.214844 Z M 188.023438 12.214844 " clip-rule="nonzero"/></clipPath><clipPath id="ef44ea68a6"><path d="M 197.613281 12.214844 L 198.84375 12.214844 L 198.84375 13.445312 L 197.613281 13.445312 Z M 197.613281 12.214844 " clip-rule="nonzero"/></clipPath><clipPath id="bea30259f2"><path d="M 198.226562 12.214844 C 197.886719 12.214844 197.613281 12.492188 197.613281 12.832031 C 197.613281 13.171875 197.886719 13.445312 198.226562 13.445312 C 198.570312 13.445312 198.84375 13.171875 198.84375 12.832031 C 198.84375 12.492188 198.570312 12.214844 198.226562 12.214844 Z M 198.226562 12.214844 " clip-rule="nonzero"/></clipPath><clipPath id="01c181a598"><path d="M 195.722656 18.316406 L 196.957031 18.316406 L 196.957031 19.546875 L 195.722656 19.546875 Z M 195.722656 18.316406 " clip-rule="nonzero"/></clipPath><clipPath id="d9fb779aaf"><path d="M 196.339844 18.316406 C 196 18.316406 195.722656 18.59375 195.722656 18.933594 C 195.722656 19.273438 196 19.546875 196.339844 19.546875 C 196.679688 19.546875 196.957031 19.273438 196.957031 18.933594 C 196.957031 18.59375 196.679688 18.316406 196.339844 18.316406 Z M 196.339844 18.316406 " clip-rule="nonzero"/></clipPath><clipPath id="121d0ee914"><path d="M 189.167969 18.316406 L 190.398438 18.316406 L 190.398438 19.546875 L 189.167969 19.546875 Z M 189.167969 18.316406 " clip-rule="nonzero"/></clipPath><clipPath id="782290b8c9"><path d="M 189.78125 18.316406 C 189.441406 18.316406 189.167969 18.59375 189.167969 18.933594 C 189.167969 19.273438 189.441406 19.546875 189.78125 19.546875 C 190.121094 19.546875 190.398438 19.273438 190.398438 18.933594 C 190.398438 18.59375 190.121094 18.316406 189.78125 18.316406 Z M 189.78125 18.316406 " clip-rule="nonzero"/></clipPath><clipPath id="f235b9eafa"><path d="M 192.441406 8.199219 L 193.671875 8.199219 L 193.671875 9.433594 L 192.441406 9.433594 Z M 192.441406 8.199219 " clip-rule="nonzero"/></clipPath><clipPath id="c1e2022e04"><path d="M 193.058594 8.199219 C 192.71875 8.199219 192.441406 8.476562 192.441406 8.816406 C 192.441406 9.15625 192.71875 9.433594 193.058594 9.433594 C 193.398438 9.433594 193.671875 9.15625 193.671875 8.816406 C 193.671875 8.476562 193.398438 8.199219 193.058594 8.199219 Z M 193.058594 8.199219 " clip-rule="nonzero"/></clipPath><clipPath id="72ca6aa45b"><path d="M 2.964844 25.28125 L 194.042969 25.28125 L 194.042969 27 L 2.964844 27 Z M 2.964844 25.28125 " clip-rule="nonzero"/></clipPath><clipPath id="bad100e1dc"><path d="M 2.964844 28 L 194.042969 28 L 194.042969 28.910156 L 2.964844 28.910156 Z M 2.964844 28 " clip-rule="nonzero"/></clipPath><clipPath id="61a64c94e8"><path d="M 2.964844 0 L 192.542969 0 L 192.542969 2 L 2.964844 2 Z M 2.964844 0 " clip-rule="nonzero"/></clipPath><clipPath id="bfb12155f6"><path d="M 2.964844 3 L 192.542969 3 L 192.542969 3.628906 L 2.964844 3.628906 Z M 2.964844 3 " clip-rule="nonzero"/></clipPath></defs><g clip-path="url(#d2a5a33d8a)"><path fill="#ffffff" d="M 2.964844 0 L 202.558594 0 L 202.558594 29.03125 L 2.964844 29.03125 Z M 2.964844 0 " fill-opacity="1" fill-rule="nonzero"/><path fill="#4d0733" d="M 2.964844 0 L 202.558594 0 L 202.558594 29.03125 L 2.964844 29.03125 Z M 2.964844 0 " fill-opacity="1" fill-rule="nonzero"/></g><g clip-path="url(#d7fdb5030c)"><path fill="#f7838d" d="M 8.984375 -2.011719 L 205.679688 -2.011719 L 205.679688 1.636719 L 8.984375 1.636719 Z M 8.984375 -2.011719 " fill-opacity="1" fill-rule="nonzero"/></g><g clip-path="url(#2e248b78ff)"><path fill="#f7838d" d="M 8.984375 3.132812 L 205.679688 3.132812 L 205.679688 4.113281 L 8.984375 4.113281 Z M 8.984375 3.132812 " fill-opacity="1" fill-rule="nonzero"/></g><g clip-path="url(#6ffcf7e1a7)"><path fill="#f7838d" d="M 8.984375 23.273438 L 205.679688 23.273438 L 205.679688 26.917969 L 8.984375 26.917969 Z M 8.984375 23.273438 " fill-opacity="1" fill-rule="nonzero"/></g><g clip-path="url(#1d1786ba3a)"><path fill="#f7838d" d="M 8.984375 28.414062 L 205.679688 28.414062 L 205.679688 29.394531 L 8.984375 29.394531 Z M 8.984375 28.414062 " fill-opacity="1" fill-rule="nonzero"/></g><g clip-path="url(#293f6e12e8)"><g clip-path="url(#576c88b1c0)"><path fill="#f7838d" d="M 5.988281 8.566406 L 17.066406 8.566406 L 17.066406 19.105469 L 5.988281 19.105469 Z M 5.988281 8.566406 " fill-opacity="1" fill-rule="nonzero"/></g></g><g clip-path="url(#ecf4799845)"><g clip-path="url(#cb8441328b)"><path fill="#f7838d" d="M 5.867188 12.214844 L 7.097656 12.214844 L 7.097656 13.445312 L 5.867188 13.445312 Z M 5.867188 12.214844 " fill-opacity="1" fill-rule="nonzero"/></g></g><g clip-path="url(#faf7135c91)"><g clip-path="url(#25aa8bce5e)"><path fill="#f7838d" d="M 16.074219 12.214844 L 17.304688 12.214844 L 17.304688 13.445312 L 16.074219 13.445312 Z M 16.074219 12.214844 " fill-opacity="1" fill-rule="nonzero"/></g></g><g clip-path="url(#df171d2e21)"><g clip-path="url(#269ff8a11a)"><path fill="#f7838d" d="M 14.183594 18.316406 L 15.417969 18.316406 L 15.417969 19.546875 L 14.183594 19.546875 Z M 14.183594 18.316406 " fill-opacity="1" fill-rule="nonzero"/></g></g><g clip-path="url(#e9a1860e80)"><g clip-path="url(#09c6b07cc3)"><path fill="#f7838d" d="M 7.628906 18.316406 L 8.859375 18.316406 L 8.859375 19.546875 L 7.628906 19.546875 Z M 7.628906 18.316406 " fill-opacity="1" fill-rule="nonzero"/></g></g><g clip-path="url(#2a8d6c5be1)"><g clip-path="url(#73a0438f61)"><path fill="#f7838d" d="M 10.902344 8.199219 L 12.132812 8.199219 L 12.132812 9.433594 L 10.902344 9.433594 Z M 10.902344 8.199219 " fill-opacity="1" fill-rule="nonzero"/></g></g><g clip-path="url(#17908ee749)"><g clip-path="url(#98cc8f5101)"><path fill="#f7838d" d="M 187.527344 8.566406 L 198.605469 8.566406 L 198.605469 19.105469 L 187.527344 19.105469 Z M 187.527344 8.566406 " fill-opacity="1" fill-rule="nonzero"/></g></g><g clip-path="url(#c9b5e888bd)"><g clip-path="url(#09f3ec5d61)"><path fill="#f7838d" d="M 187.40625 12.214844 L 188.636719 12.214844 L 188.636719 13.445312 L 187.40625 13.445312 Z M 187.40625 12.214844 " fill-opacity="1" fill-rule="nonzero"/></g></g><g clip-path="url(#ef44ea68a6)"><g clip-path="url(#bea30259f2)"><path fill="#f7838d" d="M 197.613281 12.214844 L 198.84375 12.214844 L 198.84375 13.445312 L 197.613281 13.445312 Z M 197.613281 12.214844 " fill-opacity="1" fill-rule="nonzero"/></g></g><g clip-path="url(#01c181a598)"><g clip-path="url(#d9fb779aaf)"><path fill="#f7838d" d="M 195.722656 18.316406 L 196.957031 18.316406 L 196.957031 19.546875 L 195.722656 19.546875 Z M 195.722656 18.316406 " fill-opacity="1" fill-rule="nonzero"/></g></g><g clip-path="url(#121d0ee914)"><g clip-path="url(#782290b8c9)"><path fill="#f7838d" d="M 189.167969 18.316406 L 190.398438 18.316406 L 190.398438 19.546875 L 189.167969 19.546875 Z M 189.167969 18.316406 " fill-opacity="1" fill-rule="nonzero"/></g></g><g clip-path="url(#f235b9eafa)"><g clip-path="url(#c1e2022e04)"><path fill="#f7838d" d="M 192.441406 8.199219 L 193.671875 8.199219 L 193.671875 9.433594 L 192.441406 9.433594 Z M 192.441406 8.199219 " fill-opacity="1" fill-rule="nonzero"/></g></g><g clip-path="url(#72ca6aa45b)"><path fill="#f7838d" d="M -0.398438 23.273438 L 196.296875 23.273438 L 196.296875 26.917969 L -0.398438 26.917969 Z M -0.398438 23.273438 " fill-opacity="1" fill-rule="nonzero"/></g><g clip-path="url(#bad100e1dc)"><path fill="#f7838d" d="M -0.398438 28.414062 L 196.296875 28.414062 L 196.296875 29.394531 L -0.398438 29.394531 Z M -0.398438 28.414062 " fill-opacity="1" fill-rule="nonzero"/></g><g clip-path="url(#61a64c94e8)"><path fill="#f7838d" d="M -1.902344 -2.011719 L 194.792969 -2.011719 L 194.792969 1.636719 L -1.902344 1.636719 Z M -1.902344 -2.011719 " fill-opacity="1" fill-rule="nonzero"/></g><g clip-path="url(#bfb12155f6)"><path fill="#f7838d" d="M -1.902344 3.132812 L 194.792969 3.132812 L 194.792969 4.113281 L -1.902344 4.113281 Z M -1.902344 3.132812 " fill-opacity="1" fill-rule="nonzero"/></g><g fill="#ffffff" fill-opacity="1"><g transform="translate(28.962953, 19.730209)"><g><path d="M 3.65625 -0.078125 C 3.4375 0.0546875 3.1875 0.125 2.90625 0.125 C 2.632812 0.125 2.398438 0.0546875 2.203125 -0.078125 C 1.972656 0.0546875 1.765625 0.125 1.578125 0.125 C 1.390625 0.125 1.234375 0.109375 1.109375 0.078125 C 0.984375 0.046875 0.875 0.00390625 0.78125 -0.046875 C 0.59375 -0.160156 0.5 -0.304688 0.5 -0.484375 C 0.5 -0.566406 0.519531 -0.644531 0.5625 -0.71875 C 0.664062 -0.644531 0.789062 -0.609375 0.9375 -0.609375 C 1.332031 -0.609375 1.601562 -0.773438 1.75 -1.109375 L 1.75 -4.34375 C 1.75 -4.6875 1.578125 -4.945312 1.234375 -5.125 L 0.953125 -5.265625 C 1.335938 -5.453125 1.582031 -5.648438 1.6875 -5.859375 C 1.726562 -5.953125 1.75 -6.070312 1.75 -6.21875 L 1.75 -9.015625 C 1.601562 -9.347656 1.332031 -9.515625 0.9375 -9.515625 C 0.789062 -9.515625 0.664062 -9.476562 0.5625 -9.40625 C 0.519531 -9.46875 0.5 -9.539062 0.5 -9.625 C 0.5 -9.71875 0.519531 -9.800781 0.5625 -9.875 C 0.613281 -9.945312 0.6875 -10.007812 0.78125 -10.0625 C 0.976562 -10.1875 1.207031 -10.25 1.46875 -10.25 C 1.726562 -10.25 1.972656 -10.179688 2.203125 -10.046875 C 2.398438 -10.179688 2.632812 -10.25 2.90625 -10.25 C 3.1875 -10.25 3.4375 -10.179688 3.65625 -10.046875 C 3.863281 -10.179688 4.097656 -10.25 4.359375 -10.25 C 4.734375 -10.25 5 -10.125 5.15625 -9.875 C 5.207031 -9.789062 5.234375 -9.703125 5.234375 -9.609375 C 5.234375 -9.523438 5.207031 -9.457031 5.15625 -9.40625 C 5.050781 -9.476562 4.925781 -9.515625 4.78125 -9.515625 C 4.445312 -9.515625 4.222656 -9.347656 4.109375 -9.015625 L 4.109375 -5.625 L 7.15625 -9.234375 C 7.15625 -9.429688 7.039062 -9.53125 6.8125 -9.53125 C 6.59375 -9.53125 6.410156 -9.488281 6.265625 -9.40625 C 6.222656 -9.476562 6.203125 -9.578125 6.203125 -9.703125 C 6.203125 -9.828125 6.265625 -9.945312 6.390625 -10.0625 C 6.523438 -10.1875 6.707031 -10.25 6.9375 -10.25 C 7.175781 -10.25 7.375 -10.191406 7.53125 -10.078125 C 7.6875 -10.191406 7.859375 -10.25 8.046875 -10.25 C 8.234375 -10.25 8.40625 -10.191406 8.5625 -10.078125 C 8.707031 -10.191406 8.859375 -10.25 9.015625 -10.25 C 9.171875 -10.25 9.289062 -10.234375 9.375 -10.203125 C 9.46875 -10.179688 9.550781 -10.144531 9.625 -10.09375 C 9.769531 -9.976562 9.84375 -9.847656 9.84375 -9.703125 C 9.84375 -9.566406 9.820312 -9.46875 9.78125 -9.40625 C 9.6875 -9.4375 9.582031 -9.453125 9.46875 -9.453125 C 9.226562 -9.453125 9.050781 -9.425781 8.9375 -9.375 C 8.820312 -9.320312 8.710938 -9.265625 8.609375 -9.203125 C 8.503906 -9.140625 8.398438 -9.070312 8.296875 -9 L 7.984375 -8.765625 C 7.890625 -8.691406 7.8125 -8.617188 7.75 -8.546875 L 6.234375 -6.78125 L 9.015625 -1.703125 C 9.359375 -1.085938 9.632812 -0.734375 9.84375 -0.640625 C 9.914062 -0.617188 10.007812 -0.609375 10.125 -0.609375 C 10.25 -0.609375 10.359375 -0.644531 10.453125 -0.71875 C 10.503906 -0.644531 10.53125 -0.566406 10.53125 -0.484375 C 10.53125 -0.398438 10.503906 -0.316406 10.453125 -0.234375 C 10.410156 -0.160156 10.347656 -0.0976562 10.265625 -0.046875 C 10.085938 0.0664062 9.859375 0.125 9.578125 0.125 C 9.296875 0.125 9.046875 0.0546875 8.828125 -0.078125 C 8.597656 0.0546875 8.335938 0.125 8.046875 0.125 C 7.765625 0.125 7.515625 0.0546875 7.296875 -0.078125 C 7.066406 0.0546875 6.816406 0.125 6.546875 0.125 C 6.285156 0.125 6.078125 0.0664062 5.921875 -0.046875 C 5.773438 -0.171875 5.703125 -0.316406 5.703125 -0.484375 C 5.703125 -0.566406 5.726562 -0.644531 5.78125 -0.71875 C 5.875 -0.644531 6 -0.609375 6.15625 -0.609375 C 6.425781 -0.609375 6.628906 -0.710938 6.765625 -0.921875 L 4.71875 -5.015625 L 4.109375 -4.296875 L 4.109375 -1.09375 C 4.222656 -0.769531 4.445312 -0.609375 4.78125 -0.609375 C 4.925781 -0.609375 5.050781 -0.644531 5.15625 -0.71875 C 5.207031 -0.65625 5.234375 -0.578125 5.234375 -0.484375 C 5.234375 -0.398438 5.207031 -0.316406 5.15625 -0.234375 C 5.101562 -0.160156 5.039062 -0.0976562 4.96875 -0.046875 C 4.789062 0.0664062 4.585938 0.125 4.359375 0.125 C 4.097656 0.125 3.863281 0.0546875 3.65625 -0.078125 Z M 2.375 -1.75 C 2.59375 -1.832031 2.710938 -2.125 2.734375 -2.625 C 2.765625 -3.113281 2.78125 -3.796875 2.78125 -4.671875 C 2.78125 -5.546875 2.773438 -6.125 2.765625 -6.40625 C 2.765625 -6.695312 2.765625 -6.929688 2.765625 -7.109375 C 2.753906 -7.628906 2.703125 -7.941406 2.609375 -8.046875 C 2.523438 -8.160156 2.445312 -8.234375 2.375 -8.265625 C 2.375 -6.734375 2.347656 -5.863281 2.296875 -5.65625 C 2.234375 -5.476562 2.082031 -5.347656 1.84375 -5.265625 C 2.113281 -5.179688 2.265625 -5.070312 2.296875 -4.9375 C 2.347656 -4.71875 2.375 -3.941406 2.375 -2.609375 Z M 7.03125 -1.75 C 7.09375 -1.820312 7.125 -1.925781 7.125 -2.0625 C 7.125 -2.363281 7.019531 -2.707031 6.8125 -3.09375 L 5.515625 -5.734375 L 5.21875 -5.421875 Z M 7.03125 -1.75 "/></g></g></g><g fill="#ffffff" fill-opacity="1"><g transform="translate(39.151631, 19.730209)"><g><path d="M 2.3125 -0.984375 C 1.945312 -1.359375 1.648438 -1.8125 1.421875 -2.34375 C 1.191406 -2.882812 1.050781 -3.390625 1 -3.859375 C 0.945312 -4.335938 0.867188 -4.664062 0.765625 -4.84375 C 0.660156 -5.03125 0.503906 -5.171875 0.296875 -5.265625 C 0.679688 -5.453125 0.90625 -5.828125 0.96875 -6.390625 C 1.039062 -6.953125 1.195312 -7.476562 1.4375 -7.96875 C 1.6875 -8.457031 2 -8.875 2.375 -9.21875 C 3.164062 -9.945312 4.113281 -10.3125 5.21875 -10.3125 C 6.363281 -10.3125 7.3125 -9.972656 8.0625 -9.296875 C 8.84375 -8.585938 9.300781 -7.601562 9.4375 -6.34375 C 9.5 -5.8125 9.722656 -5.453125 10.109375 -5.265625 C 9.722656 -5.078125 9.492188 -4.675781 9.421875 -4.0625 C 9.359375 -3.457031 9.222656 -2.882812 9.015625 -2.34375 C 8.804688 -1.8125 8.53125 -1.359375 8.1875 -0.984375 C 7.457031 -0.191406 6.472656 0.203125 5.234375 0.203125 C 4.046875 0.203125 3.070312 -0.191406 2.3125 -0.984375 Z M 4.484375 -5.265625 C 3.992188 -5.035156 3.75 -4.65625 3.75 -4.125 L 3.75 -2.15625 C 3.75 -1.4375 4.046875 -0.976562 4.640625 -0.78125 C 4.816406 -0.71875 5.007812 -0.6875 5.21875 -0.6875 C 5.425781 -0.6875 5.613281 -0.71875 5.78125 -0.78125 C 5.957031 -0.84375 6.113281 -0.9375 6.25 -1.0625 C 6.507812 -1.3125 6.640625 -1.675781 6.640625 -2.15625 L 6.640625 -4.125 C 6.640625 -4.65625 6.398438 -5.035156 5.921875 -5.265625 C 6.398438 -5.492188 6.640625 -5.851562 6.640625 -6.34375 L 6.640625 -7.921875 C 6.640625 -8.410156 6.5 -8.789062 6.21875 -9.0625 C 5.945312 -9.3125 5.613281 -9.4375 5.21875 -9.4375 C 4.539062 -9.4375 4.085938 -9.15625 3.859375 -8.59375 C 3.785156 -8.40625 3.75 -8.179688 3.75 -7.921875 L 3.75 -6.34375 C 3.75 -5.84375 3.992188 -5.484375 4.484375 -5.265625 Z M 7.25 -8.265625 C 7.375 -7.898438 7.4375 -7.265625 7.4375 -6.359375 C 7.4375 -5.847656 7.410156 -5.566406 7.359375 -5.515625 C 7.316406 -5.460938 7.273438 -5.421875 7.234375 -5.390625 C 7.160156 -5.335938 7.078125 -5.296875 6.984375 -5.265625 C 7.242188 -5.148438 7.378906 -5.035156 7.390625 -4.921875 C 7.441406 -4.492188 7.46875 -4.117188 7.46875 -3.796875 C 7.46875 -3.484375 7.460938 -3.234375 7.453125 -3.046875 C 7.441406 -2.859375 7.425781 -2.679688 7.40625 -2.515625 C 7.375 -2.160156 7.332031 -1.90625 7.28125 -1.75 C 7.625 -1.851562 7.816406 -2.363281 7.859375 -3.28125 C 7.878906 -3.789062 7.890625 -4.359375 7.890625 -4.984375 C 7.890625 -5.617188 7.878906 -6.09375 7.859375 -6.40625 C 7.847656 -6.71875 7.832031 -6.976562 7.8125 -7.1875 C 7.75 -7.65625 7.632812 -7.976562 7.46875 -8.15625 C 7.425781 -8.207031 7.351562 -8.242188 7.25 -8.265625 Z M 2.484375 -1.75 C 2.546875 -1.78125 2.578125 -1.828125 2.578125 -1.890625 C 2.578125 -1.984375 2.53125 -2.132812 2.4375 -2.34375 C 2.207031 -2.882812 2.09375 -3.859375 2.09375 -5.265625 C 2.09375 -6.296875 2.210938 -7.175781 2.453125 -7.90625 C 2.484375 -8.007812 2.5 -8.085938 2.5 -8.140625 C 2.5 -8.203125 2.472656 -8.242188 2.421875 -8.265625 C 2.210938 -8.003906 2.066406 -7.75 1.984375 -7.5 C 1.816406 -7.03125 1.6875 -6.394531 1.59375 -5.59375 C 1.570312 -5.476562 1.441406 -5.367188 1.203125 -5.265625 C 1.441406 -5.160156 1.570312 -5.050781 1.59375 -4.9375 C 1.75 -3.570312 1.953125 -2.660156 2.203125 -2.203125 C 2.285156 -2.035156 2.378906 -1.882812 2.484375 -1.75 Z M 2.484375 -1.75 "/></g></g></g><g fill="#ffffff" fill-opacity="1"><g transform="translate(49.565109, 19.730209)"><g><path d="M 1.6875 -0.046875 C 1.519531 0.0664062 1.332031 0.125 1.125 0.125 C 0.914062 0.125 0.75 0.0703125 0.625 -0.03125 C 0.5 -0.132812 0.4375 -0.253906 0.4375 -0.390625 C 0.4375 -0.535156 0.457031 -0.644531 0.5 -0.71875 C 0.625 -0.644531 0.820312 -0.609375 1.09375 -0.609375 C 1.375 -0.609375 1.601562 -0.796875 1.78125 -1.171875 L 1.78125 -4.34375 C 1.78125 -4.550781 1.738281 -4.703125 1.65625 -4.796875 C 1.519531 -4.960938 1.296875 -5.117188 0.984375 -5.265625 C 1.304688 -5.421875 1.507812 -5.550781 1.59375 -5.65625 C 1.71875 -5.820312 1.78125 -6.007812 1.78125 -6.21875 L 1.78125 -9.015625 C 1.632812 -9.347656 1.363281 -9.515625 0.96875 -9.515625 C 0.820312 -9.515625 0.703125 -9.476562 0.609375 -9.40625 C 0.554688 -9.46875 0.53125 -9.539062 0.53125 -9.625 C 0.53125 -9.71875 0.550781 -9.800781 0.59375 -9.875 C 0.632812 -9.957031 0.691406 -10.023438 0.765625 -10.078125 C 0.921875 -10.191406 1.128906 -10.25 1.390625 -10.25 C 1.648438 -10.25 1.875 -10.175781 2.0625 -10.03125 C 2.1875 -10.175781 2.351562 -10.25 2.5625 -10.25 C 2.78125 -10.25 2.957031 -10.175781 3.09375 -10.03125 C 3.21875 -10.175781 3.347656 -10.25 3.484375 -10.25 C 3.617188 -10.25 3.71875 -10.234375 3.78125 -10.203125 C 3.851562 -10.179688 3.914062 -10.148438 3.96875 -10.109375 C 4.039062 -10.046875 4.117188 -9.929688 4.203125 -9.765625 L 8.3125 -2.375 L 8.3125 -4.40625 C 8.3125 -4.59375 8.269531 -4.734375 8.1875 -4.828125 C 8.050781 -4.960938 7.820312 -5.109375 7.5 -5.265625 C 7.800781 -5.421875 8 -5.546875 8.09375 -5.640625 C 8.238281 -5.796875 8.3125 -5.96875 8.3125 -6.15625 L 8.3125 -8.921875 C 8.207031 -9.109375 8.082031 -9.253906 7.9375 -9.359375 C 7.789062 -9.460938 7.625 -9.515625 7.4375 -9.515625 C 7.25 -9.515625 7.085938 -9.476562 6.953125 -9.40625 C 6.910156 -9.488281 6.890625 -9.597656 6.890625 -9.734375 C 6.890625 -9.867188 6.957031 -9.988281 7.09375 -10.09375 C 7.226562 -10.195312 7.40625 -10.25 7.625 -10.25 C 7.84375 -10.25 8.039062 -10.191406 8.21875 -10.078125 C 8.375 -10.191406 8.550781 -10.25 8.75 -10.25 C 8.945312 -10.25 9.125 -10.191406 9.28125 -10.078125 C 9.445312 -10.191406 9.632812 -10.25 9.84375 -10.25 C 10.050781 -10.25 10.21875 -10.191406 10.34375 -10.078125 C 10.46875 -9.972656 10.53125 -9.847656 10.53125 -9.703125 C 10.53125 -9.566406 10.507812 -9.46875 10.46875 -9.40625 C 10.34375 -9.476562 10.140625 -9.515625 9.859375 -9.515625 C 9.578125 -9.515625 9.351562 -9.328125 9.1875 -8.953125 L 9.1875 -6.15625 C 9.1875 -5.96875 9.222656 -5.828125 9.296875 -5.734375 C 9.429688 -5.585938 9.660156 -5.429688 9.984375 -5.265625 C 9.628906 -5.078125 9.414062 -4.945312 9.34375 -4.875 C 9.238281 -4.75 9.1875 -4.59375 9.1875 -4.40625 L 9.296875 -1.03125 C 9.453125 -0.75 9.703125 -0.609375 10.046875 -0.609375 C 10.191406 -0.609375 10.316406 -0.644531 10.421875 -0.71875 C 10.460938 -0.644531 10.484375 -0.5625 10.484375 -0.46875 C 10.484375 -0.382812 10.460938 -0.304688 10.421875 -0.234375 C 10.378906 -0.160156 10.320312 -0.0976562 10.25 -0.046875 C 10.09375 0.0664062 9.90625 0.125 9.6875 0.125 C 9.46875 0.125 9.269531 0.0820312 9.09375 0 C 8.75 0.195312 8.394531 0.179688 8.03125 -0.046875 C 7.882812 0.0664062 7.75 0.125 7.625 0.125 C 7.5 0.125 7.40625 0.113281 7.34375 0.09375 C 7.28125 0.0703125 7.222656 0.0351562 7.171875 -0.015625 C 7.085938 -0.0976562 6.957031 -0.304688 6.78125 -0.640625 L 2.71875 -7.65625 L 2.71875 -1.171875 C 2.894531 -0.796875 3.117188 -0.609375 3.390625 -0.609375 C 3.671875 -0.609375 3.878906 -0.644531 4.015625 -0.71875 C 4.054688 -0.632812 4.078125 -0.519531 4.078125 -0.375 C 4.078125 -0.238281 4.007812 -0.117188 3.875 -0.015625 C 3.738281 0.078125 3.5625 0.125 3.34375 0.125 C 3.125 0.125 2.925781 0.0703125 2.75 -0.03125 C 2.59375 0.0703125 2.410156 0.125 2.203125 0.125 C 1.992188 0.125 1.820312 0.0664062 1.6875 -0.046875 Z M 6.859375 -1.75 C 6.890625 -1.789062 6.90625 -1.851562 6.90625 -1.9375 C 6.90625 -2.03125 6.890625 -2.128906 6.859375 -2.234375 C 6.835938 -2.335938 6.804688 -2.453125 6.765625 -2.578125 C 6.671875 -2.828125 6.546875 -3.09375 6.390625 -3.375 L 3.59375 -8.265625 C 3.5625 -8.222656 3.546875 -8.132812 3.546875 -8 C 3.546875 -7.726562 3.734375 -7.25 4.109375 -6.5625 Z M 6.859375 -1.75 "/></g></g></g><g fill="#ffffff" fill-opacity="1"><g transform="translate(60.52736, 19.730209)"><g><path d="M 5.765625 -0.09375 C 5.535156 0.0507812 5.28125 0.125 5 0.125 C 4.71875 0.125 4.457031 0.0507812 4.21875 -0.09375 C 3.976562 0.0507812 3.753906 0.125 3.546875 0.125 C 3.347656 0.125 3.1875 0.109375 3.0625 0.078125 C 2.9375 0.046875 2.828125 0.00390625 2.734375 -0.046875 C 2.546875 -0.160156 2.453125 -0.304688 2.453125 -0.484375 C 2.453125 -0.566406 2.476562 -0.644531 2.53125 -0.71875 C 2.625 -0.644531 2.75 -0.609375 2.90625 -0.609375 C 3.070312 -0.609375 3.238281 -0.648438 3.40625 -0.734375 C 3.570312 -0.816406 3.695312 -0.945312 3.78125 -1.125 L 3.78125 -4.34375 C 3.78125 -4.539062 3.738281 -4.6875 3.65625 -4.78125 C 3.519531 -4.945312 3.289062 -5.109375 2.96875 -5.265625 C 3.269531 -5.410156 3.460938 -5.535156 3.546875 -5.640625 C 3.703125 -5.804688 3.78125 -6 3.78125 -6.21875 L 3.78125 -9.28125 C 3.632812 -9.332031 3.457031 -9.359375 3.25 -9.359375 C 3.050781 -9.359375 2.84375 -9.304688 2.625 -9.203125 C 2.40625 -9.097656 2.207031 -8.945312 2.03125 -8.75 C 1.632812 -8.289062 1.4375 -7.691406 1.4375 -6.953125 C 1.4375 -6.515625 1.507812 -6.195312 1.65625 -6 C 1.601562 -5.882812 1.503906 -5.828125 1.359375 -5.828125 C 1.210938 -5.828125 1.082031 -5.859375 0.96875 -5.921875 C 0.851562 -5.992188 0.753906 -6.085938 0.671875 -6.203125 C 0.492188 -6.429688 0.40625 -6.675781 0.40625 -6.9375 C 0.40625 -7.207031 0.457031 -7.4375 0.5625 -7.625 C 0.394531 -7.8125 0.3125 -8.023438 0.3125 -8.265625 C 0.3125 -8.515625 0.378906 -8.722656 0.515625 -8.890625 C 0.328125 -9.085938 0.234375 -9.351562 0.234375 -9.6875 C 0.234375 -10.070312 0.410156 -10.332031 0.765625 -10.46875 C 0.867188 -10.507812 0.960938 -10.53125 1.046875 -10.53125 C 1.191406 -10.53125 1.300781 -10.492188 1.375 -10.421875 C 1.351562 -10.316406 1.34375 -10.242188 1.34375 -10.203125 C 1.34375 -10.023438 1.398438 -9.9375 1.515625 -9.9375 C 1.585938 -9.9375 1.65625 -9.945312 1.71875 -9.96875 L 2.03125 -10.046875 C 2.539062 -10.179688 2.96875 -10.25 3.3125 -10.25 C 3.65625 -10.25 3.957031 -10.175781 4.21875 -10.03125 C 4.445312 -10.175781 4.703125 -10.25 4.984375 -10.25 C 5.273438 -10.25 5.535156 -10.175781 5.765625 -10.03125 C 6.015625 -10.175781 6.273438 -10.25 6.546875 -10.25 C 6.972656 -10.25 7.347656 -10.207031 7.671875 -10.125 L 8.265625 -9.96875 C 8.335938 -9.945312 8.40625 -9.9375 8.46875 -9.9375 C 8.59375 -9.9375 8.65625 -10.023438 8.65625 -10.203125 C 8.65625 -10.242188 8.640625 -10.316406 8.609375 -10.421875 C 8.679688 -10.492188 8.773438 -10.53125 8.890625 -10.53125 C 9.003906 -10.53125 9.113281 -10.507812 9.21875 -10.46875 C 9.320312 -10.425781 9.414062 -10.367188 9.5 -10.296875 C 9.664062 -10.140625 9.75 -9.914062 9.75 -9.625 C 9.75 -9.332031 9.660156 -9.085938 9.484375 -8.890625 C 9.609375 -8.722656 9.671875 -8.519531 9.671875 -8.28125 C 9.671875 -8.039062 9.585938 -7.820312 9.421875 -7.625 C 9.523438 -7.4375 9.578125 -7.253906 9.578125 -7.078125 C 9.578125 -6.898438 9.554688 -6.738281 9.515625 -6.59375 C 9.472656 -6.445312 9.40625 -6.316406 9.3125 -6.203125 C 9.132812 -5.953125 8.910156 -5.828125 8.640625 -5.828125 C 8.484375 -5.828125 8.378906 -5.882812 8.328125 -6 C 8.472656 -6.195312 8.546875 -6.5 8.546875 -6.90625 C 8.546875 -7.320312 8.488281 -7.679688 8.375 -7.984375 C 8.269531 -8.285156 8.128906 -8.539062 7.953125 -8.75 C 7.597656 -9.15625 7.175781 -9.359375 6.6875 -9.359375 C 6.507812 -9.359375 6.351562 -9.332031 6.21875 -9.28125 L 6.21875 -6.21875 C 6.21875 -6 6.257812 -5.835938 6.34375 -5.734375 C 6.488281 -5.566406 6.710938 -5.410156 7.015625 -5.265625 C 6.691406 -5.109375 6.488281 -4.976562 6.40625 -4.875 C 6.28125 -4.71875 6.21875 -4.539062 6.21875 -4.34375 L 6.21875 -1.125 C 6.289062 -0.945312 6.410156 -0.816406 6.578125 -0.734375 C 6.742188 -0.648438 6.90625 -0.609375 7.0625 -0.609375 C 7.226562 -0.609375 7.363281 -0.644531 7.46875 -0.71875 C 7.507812 -0.644531 7.53125 -0.566406 7.53125 -0.484375 C 7.53125 -0.398438 7.503906 -0.316406 7.453125 -0.234375 C 7.398438 -0.160156 7.332031 -0.0976562 7.25 -0.046875 C 7.050781 0.0664062 6.8125 0.125 6.53125 0.125 C 6.257812 0.125 6.003906 0.0507812 5.765625 -0.09375 Z M 4.40625 -1.75 C 4.632812 -1.832031 4.757812 -2.125 4.78125 -2.625 C 4.800781 -3.113281 4.8125 -3.796875 4.8125 -4.671875 C 4.8125 -5.546875 4.8125 -6.125 4.8125 -6.40625 C 4.8125 -6.695312 4.804688 -6.929688 4.796875 -7.109375 C 4.785156 -7.628906 4.738281 -7.941406 4.65625 -8.046875 C 4.570312 -8.160156 4.488281 -8.234375 4.40625 -8.265625 C 4.40625 -6.734375 4.378906 -5.863281 4.328125 -5.65625 C 4.265625 -5.476562 4.117188 -5.347656 3.890625 -5.265625 C 4.148438 -5.179688 4.296875 -5.070312 4.328125 -4.9375 C 4.378906 -4.71875 4.40625 -3.941406 4.40625 -2.609375 Z M 4.40625 -1.75 "/></g></g></g><g fill="#ffffff" fill-opacity="1"><g transform="translate(70.511075, 19.730209)"><g><path d="M 3.734375 -0.078125 C 3.515625 0.0546875 3.257812 0.125 2.96875 0.125 C 2.6875 0.125 2.429688 0.0546875 2.203125 -0.078125 C 1.972656 0.0546875 1.765625 0.125 1.578125 0.125 C 1.390625 0.125 1.234375 0.109375 1.109375 0.078125 C 0.984375 0.046875 0.875 0.00390625 0.78125 -0.046875 C 0.59375 -0.160156 0.5 -0.304688 0.5 -0.484375 C 0.5 -0.566406 0.519531 -0.644531 0.5625 -0.71875 C 0.664062 -0.644531 0.789062 -0.609375 0.9375 -0.609375 C 1.332031 -0.609375 1.601562 -0.773438 1.75 -1.109375 L 1.75 -4.34375 C 1.75 -4.539062 1.707031 -4.6875 1.625 -4.78125 C 1.488281 -4.945312 1.265625 -5.109375 0.953125 -5.265625 C 1.242188 -5.410156 1.4375 -5.535156 1.53125 -5.640625 C 1.675781 -5.804688 1.75 -6 1.75 -6.21875 L 1.75 -9.015625 C 1.601562 -9.347656 1.332031 -9.515625 0.9375 -9.515625 C 0.789062 -9.515625 0.664062 -9.476562 0.5625 -9.40625 C 0.519531 -9.46875 0.5 -9.539062 0.5 -9.625 C 0.5 -9.71875 0.519531 -9.800781 0.5625 -9.875 C 0.613281 -9.945312 0.6875 -10.007812 0.78125 -10.0625 C 0.976562 -10.1875 1.207031 -10.25 1.46875 -10.25 C 1.738281 -10.25 1.984375 -10.175781 2.203125 -10.03125 C 2.429688 -10.175781 2.6875 -10.25 2.96875 -10.25 C 3.25 -10.25 3.503906 -10.175781 3.734375 -10.03125 C 4.234375 -10.21875 4.785156 -10.3125 5.390625 -10.3125 C 5.992188 -10.3125 6.5 -10.253906 6.90625 -10.140625 C 7.320312 -10.035156 7.679688 -9.882812 7.984375 -9.6875 C 8.578125 -9.269531 8.945312 -8.695312 9.09375 -7.96875 C 9.144531 -7.644531 9.351562 -7.398438 9.71875 -7.234375 C 9.375 -7.035156 9.148438 -6.722656 9.046875 -6.296875 C 8.828125 -5.429688 8.285156 -4.890625 7.421875 -4.671875 C 7.867188 -4.546875 8.234375 -4.300781 8.515625 -3.9375 C 8.804688 -3.550781 8.953125 -3.097656 8.953125 -2.578125 L 8.953125 -1.921875 C 8.953125 -1.285156 9.15625 -0.875 9.5625 -0.6875 C 9.6875 -0.632812 9.820312 -0.609375 9.96875 -0.609375 C 10.113281 -0.609375 10.234375 -0.644531 10.328125 -0.71875 C 10.378906 -0.644531 10.40625 -0.566406 10.40625 -0.484375 C 10.40625 -0.398438 10.378906 -0.316406 10.328125 -0.234375 C 10.285156 -0.160156 10.226562 -0.0976562 10.15625 -0.046875 C 10 0.0664062 9.8125 0.125 9.59375 0.125 C 9.382812 0.125 9.179688 0.0664062 8.984375 -0.046875 C 8.609375 0.160156 8.257812 0.179688 7.9375 0.015625 C 7.820312 0.0859375 7.691406 0.125 7.546875 0.125 C 7.410156 0.125 7.28125 0.09375 7.15625 0.03125 C 7.03125 -0.0195312 6.921875 -0.117188 6.828125 -0.265625 C 6.617188 -0.566406 6.515625 -1.035156 6.515625 -1.671875 L 6.515625 -2.15625 C 6.515625 -3.175781 6.222656 -3.835938 5.640625 -4.140625 C 5.441406 -4.242188 5.21875 -4.296875 4.96875 -4.296875 L 4.1875 -4.296875 L 4.1875 -1.078125 C 4.300781 -0.765625 4.53125 -0.609375 4.875 -0.609375 C 5.019531 -0.609375 5.140625 -0.644531 5.234375 -0.71875 C 5.285156 -0.644531 5.3125 -0.546875 5.3125 -0.421875 C 5.3125 -0.296875 5.238281 -0.171875 5.09375 -0.046875 C 4.957031 0.0664062 4.75 0.125 4.46875 0.125 C 4.195312 0.125 3.953125 0.0546875 3.734375 -0.078125 Z M 5.453125 -9.4375 C 4.609375 -9.4375 4.1875 -9.109375 4.1875 -8.453125 L 4.1875 -5.75 C 4.1875 -5.519531 4.273438 -5.363281 4.453125 -5.28125 C 4.628906 -5.207031 4.882812 -5.171875 5.21875 -5.171875 C 5.5625 -5.171875 5.796875 -5.1875 5.921875 -5.21875 C 6.054688 -5.257812 6.175781 -5.328125 6.28125 -5.421875 C 6.476562 -5.609375 6.578125 -5.925781 6.578125 -6.375 L 6.578125 -8.3125 C 6.578125 -8.863281 6.347656 -9.210938 5.890625 -9.359375 C 5.753906 -9.410156 5.609375 -9.4375 5.453125 -9.4375 Z M 7.015625 -9.015625 C 7.148438 -8.703125 7.21875 -8.207031 7.21875 -7.53125 C 7.21875 -6.363281 7.164062 -5.664062 7.0625 -5.4375 C 7.300781 -5.488281 7.472656 -5.8125 7.578125 -6.40625 L 7.640625 -6.6875 C 7.679688 -6.96875 7.820312 -7.148438 8.0625 -7.234375 C 7.882812 -7.285156 7.769531 -7.351562 7.71875 -7.4375 C 7.664062 -7.53125 7.617188 -7.6875 7.578125 -7.90625 C 7.535156 -8.125 7.492188 -8.300781 7.453125 -8.4375 C 7.410156 -8.582031 7.363281 -8.691406 7.3125 -8.765625 C 7.226562 -8.910156 7.128906 -8.992188 7.015625 -9.015625 Z M 2.390625 -1.75 C 2.609375 -1.832031 2.726562 -2.125 2.75 -2.625 C 2.78125 -3.113281 2.796875 -3.796875 2.796875 -4.671875 C 2.796875 -5.546875 2.789062 -6.125 2.78125 -6.40625 C 2.78125 -6.695312 2.78125 -6.929688 2.78125 -7.109375 C 2.769531 -7.628906 2.71875 -7.941406 2.625 -8.046875 C 2.539062 -8.160156 2.460938 -8.234375 2.390625 -8.265625 C 2.390625 -6.734375 2.363281 -5.863281 2.3125 -5.65625 C 2.25 -5.476562 2.097656 -5.347656 1.859375 -5.265625 C 2.117188 -5.179688 2.269531 -5.070312 2.3125 -4.9375 C 2.363281 -4.71875 2.390625 -3.941406 2.390625 -2.609375 Z M 6.953125 -3.5625 C 7.128906 -3.363281 7.21875 -3.125 7.21875 -2.84375 L 7.21875 -1.96875 C 7.21875 -1.226562 7.363281 -0.835938 7.65625 -0.796875 C 7.726562 -0.785156 7.804688 -0.785156 7.890625 -0.796875 C 7.722656 -1.046875 7.640625 -1.304688 7.640625 -1.578125 L 7.640625 -2.5 C 7.640625 -2.851562 7.59375 -3.101562 7.5 -3.25 C 7.332031 -3.5 7.148438 -3.601562 6.953125 -3.5625 Z M 6.953125 -3.5625 "/></g></g></g><g fill="#ffffff" fill-opacity="1"><g transform="translate(80.779094, 19.730209)"><g><path d="M 3.734375 -0.078125 C 3.515625 0.0546875 3.257812 0.125 2.96875 0.125 C 2.6875 0.125 2.429688 0.0546875 2.203125 -0.078125 C 1.972656 0.0546875 1.765625 0.125 1.578125 0.125 C 1.390625 0.125 1.234375 0.109375 1.109375 0.078125 C 0.984375 0.046875 0.875 0.00390625 0.78125 -0.046875 C 0.59375 -0.160156 0.5 -0.304688 0.5 -0.484375 C 0.5 -0.566406 0.519531 -0.644531 0.5625 -0.71875 C 0.664062 -0.644531 0.789062 -0.609375 0.9375 -0.609375 C 1.332031 -0.609375 1.601562 -0.773438 1.75 -1.109375 L 1.75 -4.34375 C 1.75 -4.539062 1.707031 -4.6875 1.625 -4.78125 C 1.488281 -4.945312 1.265625 -5.109375 0.953125 -5.265625 C 1.242188 -5.410156 1.4375 -5.535156 1.53125 -5.640625 C 1.675781 -5.804688 1.75 -6 1.75 -6.21875 L 1.75 -9.015625 C 1.601562 -9.347656 1.332031 -9.515625 0.9375 -9.515625 C 0.789062 -9.515625 0.664062 -9.476562 0.5625 -9.40625 C 0.519531 -9.46875 0.5 -9.539062 0.5 -9.625 C 0.5 -9.71875 0.519531 -9.800781 0.5625 -9.875 C 0.613281 -9.945312 0.6875 -10.007812 0.78125 -10.0625 C 0.976562 -10.1875 1.207031 -10.25 1.46875 -10.25 C 1.738281 -10.25 1.984375 -10.175781 2.203125 -10.03125 C 2.429688 -10.175781 2.6875 -10.25 2.96875 -10.25 C 3.25 -10.25 3.503906 -10.175781 3.734375 -10.03125 C 3.953125 -10.175781 4.160156 -10.25 4.359375 -10.25 C 4.554688 -10.25 4.710938 -10.234375 4.828125 -10.203125 C 4.953125 -10.171875 5.0625 -10.125 5.15625 -10.0625 C 5.34375 -9.945312 5.4375 -9.804688 5.4375 -9.640625 C 5.4375 -9.546875 5.414062 -9.46875 5.375 -9.40625 C 5.269531 -9.476562 5.144531 -9.515625 5 -9.515625 C 4.601562 -9.515625 4.332031 -9.347656 4.1875 -9.015625 L 4.1875 -6.21875 C 4.1875 -6 4.234375 -5.835938 4.328125 -5.734375 C 4.472656 -5.566406 4.695312 -5.410156 5 -5.265625 C 4.675781 -5.109375 4.46875 -4.976562 4.375 -4.875 C 4.25 -4.71875 4.1875 -4.539062 4.1875 -4.34375 L 4.1875 -1.109375 C 4.332031 -0.773438 4.601562 -0.609375 5 -0.609375 C 5.144531 -0.609375 5.269531 -0.644531 5.375 -0.71875 C 5.414062 -0.644531 5.4375 -0.566406 5.4375 -0.484375 C 5.4375 -0.398438 5.410156 -0.316406 5.359375 -0.234375 C 5.316406 -0.160156 5.25 -0.0976562 5.15625 -0.046875 C 4.957031 0.0664062 4.726562 0.125 4.46875 0.125 C 4.207031 0.125 3.960938 0.0546875 3.734375 -0.078125 Z M 2.390625 -1.75 C 2.609375 -1.832031 2.726562 -2.125 2.75 -2.625 C 2.78125 -3.113281 2.796875 -3.796875 2.796875 -4.671875 C 2.796875 -5.546875 2.789062 -6.125 2.78125 -6.40625 C 2.78125 -6.695312 2.78125 -6.929688 2.78125 -7.109375 C 2.769531 -7.628906 2.71875 -7.941406 2.625 -8.046875 C 2.539062 -8.160156 2.460938 -8.234375 2.390625 -8.265625 C 2.390625 -6.734375 2.363281 -5.863281 2.3125 -5.65625 C 2.25 -5.476562 2.097656 -5.347656 1.859375 -5.265625 C 2.117188 -5.179688 2.269531 -5.070312 2.3125 -4.9375 C 2.363281 -4.71875 2.390625 -3.941406 2.390625 -2.609375 Z M 2.390625 -1.75 "/></g></g></g><g fill="#ffffff" fill-opacity="1"><g transform="translate(86.716429, 19.730209)"><g><path d="M 2.984375 0.125 C 2.691406 0.125 2.429688 0.0546875 2.203125 -0.078125 C 1.972656 0.0546875 1.765625 0.125 1.578125 0.125 C 1.390625 0.125 1.234375 0.109375 1.109375 0.078125 C 0.984375 0.046875 0.875 0.00390625 0.78125 -0.046875 C 0.59375 -0.160156 0.5 -0.304688 0.5 -0.484375 C 0.5 -0.566406 0.519531 -0.644531 0.5625 -0.71875 C 0.664062 -0.644531 0.789062 -0.609375 0.9375 -0.609375 C 1.332031 -0.609375 1.601562 -0.773438 1.75 -1.109375 L 1.75 -4.34375 C 1.75 -4.539062 1.707031 -4.691406 1.625 -4.796875 C 1.488281 -4.960938 1.265625 -5.125 0.953125 -5.28125 C 1.242188 -5.414062 1.4375 -5.535156 1.53125 -5.640625 C 1.675781 -5.816406 1.75 -6.007812 1.75 -6.21875 L 1.75 -9.015625 C 1.601562 -9.347656 1.332031 -9.515625 0.9375 -9.515625 C 0.789062 -9.515625 0.664062 -9.476562 0.5625 -9.40625 C 0.519531 -9.46875 0.5 -9.539062 0.5 -9.625 C 0.5 -9.71875 0.519531 -9.800781 0.5625 -9.875 C 0.613281 -9.945312 0.6875 -10.007812 0.78125 -10.0625 C 0.976562 -10.1875 1.207031 -10.25 1.46875 -10.25 C 1.738281 -10.25 1.984375 -10.175781 2.203125 -10.03125 C 2.429688 -10.175781 2.6875 -10.25 2.96875 -10.25 C 3.28125 -10.25 3.550781 -10.171875 3.78125 -10.015625 C 4.269531 -10.210938 4.753906 -10.3125 5.234375 -10.3125 C 5.722656 -10.3125 6.164062 -10.265625 6.5625 -10.171875 C 6.957031 -10.078125 7.316406 -9.945312 7.640625 -9.78125 C 8.347656 -9.40625 8.785156 -8.921875 8.953125 -8.328125 C 9.054688 -8.003906 9.265625 -7.765625 9.578125 -7.609375 C 9.222656 -7.359375 9.003906 -7.078125 8.921875 -6.765625 C 8.734375 -6.066406 8.359375 -5.609375 7.796875 -5.390625 C 8.628906 -5.160156 9.171875 -4.617188 9.421875 -3.765625 C 9.503906 -3.460938 9.710938 -3.210938 10.046875 -3.015625 C 9.703125 -2.828125 9.472656 -2.539062 9.359375 -2.15625 C 9.242188 -1.78125 9.039062 -1.4375 8.75 -1.125 C 8.46875 -0.820312 8.132812 -0.570312 7.75 -0.375 C 7.007812 0.0078125 6.175781 0.203125 5.25 0.203125 C 4.6875 0.203125 4.1875 0.101562 3.75 -0.09375 C 3.519531 0.0507812 3.265625 0.125 2.984375 0.125 Z M 5.421875 -5.71875 C 5.804688 -5.71875 6.082031 -5.8125 6.25 -6 C 6.425781 -6.1875 6.515625 -6.507812 6.515625 -6.96875 L 6.515625 -8.5 C 6.515625 -8.769531 6.367188 -9 6.078125 -9.1875 C 5.835938 -9.34375 5.613281 -9.421875 5.40625 -9.421875 C 5.195312 -9.421875 5.023438 -9.394531 4.890625 -9.34375 C 4.753906 -9.300781 4.632812 -9.234375 4.53125 -9.140625 C 4.300781 -8.953125 4.1875 -8.726562 4.1875 -8.46875 L 4.1875 -5.71875 Z M 6.890625 -9.28125 C 7.035156 -8.9375 7.109375 -8.445312 7.109375 -7.8125 C 7.109375 -6.863281 7.046875 -6.242188 6.921875 -5.953125 C 7.109375 -5.992188 7.265625 -6.175781 7.390625 -6.5 C 7.441406 -6.613281 7.476562 -6.738281 7.5 -6.875 C 7.53125 -7.007812 7.550781 -7.113281 7.5625 -7.1875 C 7.582031 -7.257812 7.609375 -7.320312 7.640625 -7.375 C 7.703125 -7.476562 7.816406 -7.5625 7.984375 -7.625 C 7.804688 -7.675781 7.695312 -7.738281 7.65625 -7.8125 C 7.601562 -7.882812 7.554688 -8.019531 7.515625 -8.21875 C 7.484375 -8.414062 7.441406 -8.578125 7.390625 -8.703125 C 7.347656 -8.828125 7.296875 -8.929688 7.234375 -9.015625 C 7.128906 -9.171875 7.015625 -9.257812 6.890625 -9.28125 Z M 2.390625 -1.75 C 2.609375 -1.832031 2.726562 -2.125 2.75 -2.625 C 2.78125 -3.113281 2.796875 -3.796875 2.796875 -4.671875 C 2.796875 -5.546875 2.789062 -6.125 2.78125 -6.40625 C 2.78125 -6.695312 2.78125 -6.929688 2.78125 -7.109375 C 2.769531 -7.628906 2.71875 -7.941406 2.625 -8.046875 C 2.539062 -8.160156 2.460938 -8.234375 2.390625 -8.265625 C 2.390625 -6.734375 2.363281 -5.863281 2.3125 -5.65625 C 2.25 -5.476562 2.097656 -5.347656 1.859375 -5.265625 C 2.117188 -5.179688 2.269531 -5.070312 2.3125 -4.9375 C 2.363281 -4.71875 2.390625 -3.941406 2.390625 -2.609375 Z M 4.1875 -1.71875 C 4.1875 -1.414062 4.300781 -1.164062 4.53125 -0.96875 C 4.757812 -0.78125 5.03125 -0.6875 5.34375 -0.6875 C 5.644531 -0.6875 5.898438 -0.753906 6.109375 -0.890625 C 6.503906 -1.148438 6.703125 -1.445312 6.703125 -1.78125 L 6.703125 -3.71875 C 6.703125 -4.113281 6.570312 -4.414062 6.3125 -4.625 C 6.09375 -4.789062 5.804688 -4.875 5.453125 -4.875 L 4.1875 -4.875 Z M 7.15625 -4.671875 C 7.257812 -4.429688 7.3125 -3.878906 7.3125 -3.015625 C 7.3125 -1.921875 7.269531 -1.28125 7.1875 -1.09375 C 7.28125 -1.113281 7.375 -1.226562 7.46875 -1.4375 C 7.570312 -1.644531 7.640625 -1.859375 7.671875 -2.078125 C 7.710938 -2.296875 7.738281 -2.441406 7.75 -2.515625 C 7.769531 -2.597656 7.796875 -2.671875 7.828125 -2.734375 C 7.898438 -2.867188 8.019531 -2.960938 8.1875 -3.015625 C 7.925781 -3.109375 7.769531 -3.28125 7.71875 -3.53125 C 7.675781 -3.78125 7.628906 -3.972656 7.578125 -4.109375 C 7.535156 -4.242188 7.492188 -4.351562 7.453125 -4.4375 C 7.367188 -4.570312 7.269531 -4.648438 7.15625 -4.671875 Z M 7.15625 -4.671875 "/></g></g></g><g fill="#ffffff" fill-opacity="1"><g transform="translate(96.772873, 19.730209)"><g><path d="M 8.75 -2.15625 C 8.832031 -1.957031 8.992188 -1.769531 9.234375 -1.59375 C 9.078125 -1.53125 8.882812 -1.382812 8.65625 -1.15625 C 8.425781 -0.925781 8.164062 -0.71875 7.875 -0.53125 C 7.59375 -0.351562 7.3125 -0.210938 7.03125 -0.109375 C 6.507812 0.0976562 5.953125 0.203125 5.359375 0.203125 C 4.773438 0.203125 4.238281 0.132812 3.75 0 C 3.269531 -0.144531 2.867188 -0.34375 2.546875 -0.59375 C 1.929688 -1.070312 1.625 -1.707031 1.625 -2.5 L 1.625 -4.34375 C 1.625 -4.539062 1.582031 -4.6875 1.5 -4.78125 C 1.363281 -4.945312 1.132812 -5.109375 0.8125 -5.265625 C 1.113281 -5.410156 1.304688 -5.535156 1.390625 -5.640625 C 1.546875 -5.804688 1.625 -6 1.625 -6.21875 L 1.625 -9.015625 C 1.46875 -9.347656 1.195312 -9.515625 0.8125 -9.515625 C 0.65625 -9.515625 0.53125 -9.476562 0.4375 -9.40625 C 0.382812 -9.46875 0.359375 -9.539062 0.359375 -9.625 C 0.359375 -9.71875 0.382812 -9.800781 0.4375 -9.875 C 0.488281 -9.945312 0.554688 -10.007812 0.640625 -10.0625 C 0.847656 -10.1875 1.082031 -10.25 1.34375 -10.25 C 1.601562 -10.25 1.847656 -10.175781 2.078125 -10.03125 C 2.304688 -10.175781 2.5625 -10.25 2.84375 -10.25 C 3.125 -10.25 3.378906 -10.175781 3.609375 -10.03125 C 3.828125 -10.175781 4.03125 -10.25 4.21875 -10.25 C 4.414062 -10.25 4.578125 -10.234375 4.703125 -10.203125 C 4.828125 -10.171875 4.9375 -10.125 5.03125 -10.0625 C 5.21875 -9.945312 5.3125 -9.804688 5.3125 -9.640625 C 5.3125 -9.546875 5.285156 -9.46875 5.234375 -9.40625 C 5.140625 -9.476562 5.019531 -9.515625 4.875 -9.515625 C 4.476562 -9.515625 4.207031 -9.347656 4.0625 -9.015625 L 4.0625 -6.21875 C 4.0625 -6 4.101562 -5.835938 4.1875 -5.734375 C 4.332031 -5.566406 4.554688 -5.410156 4.859375 -5.265625 C 4.535156 -5.109375 4.332031 -4.976562 4.25 -4.875 C 4.125 -4.71875 4.0625 -4.539062 4.0625 -4.34375 L 4.0625 -2.5 C 4.0625 -1.957031 4.257812 -1.515625 4.65625 -1.171875 C 5.03125 -0.859375 5.453125 -0.703125 5.921875 -0.703125 C 6.410156 -0.703125 6.847656 -0.859375 7.234375 -1.171875 C 7.628906 -1.472656 7.828125 -1.84375 7.828125 -2.28125 L 7.828125 -4.40625 C 7.828125 -4.59375 7.785156 -4.734375 7.703125 -4.828125 C 7.566406 -4.960938 7.335938 -5.109375 7.015625 -5.265625 C 7.316406 -5.421875 7.515625 -5.546875 7.609375 -5.640625 C 7.753906 -5.796875 7.828125 -5.96875 7.828125 -6.15625 L 7.828125 -9.09375 C 7.640625 -9.375 7.40625 -9.515625 7.125 -9.515625 C 6.851562 -9.515625 6.65625 -9.476562 6.53125 -9.40625 C 6.476562 -9.488281 6.453125 -9.597656 6.453125 -9.734375 C 6.453125 -9.867188 6.519531 -9.988281 6.65625 -10.09375 C 6.789062 -10.195312 6.96875 -10.25 7.1875 -10.25 C 7.414062 -10.25 7.613281 -10.191406 7.78125 -10.078125 C 7.9375 -10.191406 8.113281 -10.25 8.3125 -10.25 C 8.519531 -10.25 8.695312 -10.191406 8.84375 -10.078125 C 9.019531 -10.191406 9.210938 -10.25 9.421875 -10.25 C 9.628906 -10.25 9.796875 -10.191406 9.921875 -10.078125 C 10.046875 -9.972656 10.109375 -9.847656 10.109375 -9.703125 C 10.109375 -9.566406 10.085938 -9.46875 10.046875 -9.40625 C 9.910156 -9.476562 9.703125 -9.515625 9.421875 -9.515625 C 9.148438 -9.515625 8.925781 -9.375 8.75 -9.09375 L 8.75 -6.15625 C 8.75 -5.957031 8.789062 -5.816406 8.875 -5.734375 C 9.007812 -5.585938 9.257812 -5.429688 9.625 -5.265625 C 9.238281 -5.078125 9.007812 -4.945312 8.9375 -4.875 C 8.8125 -4.757812 8.75 -4.601562 8.75 -4.40625 Z M 2.59375 -1.75 C 2.632812 -1.988281 2.65625 -2.753906 2.65625 -4.046875 C 2.65625 -5.335938 2.65625 -6.125 2.65625 -6.40625 C 2.65625 -6.695312 2.648438 -6.929688 2.640625 -7.109375 C 2.628906 -7.628906 2.582031 -7.941406 2.5 -8.046875 C 2.414062 -8.160156 2.332031 -8.234375 2.25 -8.265625 C 2.25 -6.734375 2.222656 -5.863281 2.171875 -5.65625 C 2.109375 -5.476562 1.957031 -5.347656 1.71875 -5.265625 C 1.988281 -5.179688 2.140625 -5.070312 2.171875 -4.9375 C 2.222656 -4.71875 2.25 -4.257812 2.25 -3.5625 C 2.25 -2.863281 2.257812 -2.445312 2.28125 -2.3125 C 2.300781 -2.1875 2.332031 -2.085938 2.375 -2.015625 C 2.425781 -1.867188 2.5 -1.78125 2.59375 -1.75 Z M 2.59375 -1.75 "/></g></g></g><g fill="#ffffff" fill-opacity="1"><g transform="translate(107.007834, 19.730209)"><g><path d="M 2.328125 -0.265625 C 1.972656 0.0859375 1.640625 0.265625 1.328125 0.265625 C 1.117188 0.265625 0.976562 0.191406 0.90625 0.046875 C 1.007812 -0.078125 1.0625 -0.265625 1.0625 -0.515625 L 1.0625 -0.609375 C 1.0625 -0.628906 1.0625 -0.65625 1.0625 -0.6875 C 0.84375 -0.882812 0.734375 -1.117188 0.734375 -1.390625 C 0.734375 -1.660156 0.859375 -1.9375 1.109375 -2.21875 C 1.035156 -2.363281 1 -2.519531 1 -2.6875 C 1 -2.863281 1.023438 -3.023438 1.078125 -3.171875 C 1.128906 -3.316406 1.195312 -3.445312 1.28125 -3.5625 C 1.46875 -3.800781 1.648438 -3.921875 1.828125 -3.921875 C 2.003906 -3.921875 2.128906 -3.847656 2.203125 -3.703125 C 2.046875 -3.535156 1.96875 -3.273438 1.96875 -2.921875 C 1.96875 -2.566406 2.019531 -2.253906 2.125 -1.984375 C 2.226562 -1.722656 2.375 -1.5 2.5625 -1.3125 C 2.96875 -0.894531 3.488281 -0.6875 4.125 -0.6875 C 4.539062 -0.6875 4.898438 -0.804688 5.203125 -1.046875 C 5.515625 -1.304688 5.671875 -1.660156 5.671875 -2.109375 C 5.671875 -2.429688 5.597656 -2.691406 5.453125 -2.890625 C 5.210938 -3.203125 4.847656 -3.53125 4.359375 -3.875 C 3.972656 -4.132812 3.664062 -4.265625 3.4375 -4.265625 C 3.195312 -4.265625 2.9375 -4.171875 2.65625 -3.984375 C 2.726562 -4.210938 2.765625 -4.421875 2.765625 -4.609375 C 2.765625 -4.660156 2.722656 -4.71875 2.640625 -4.78125 L 2.40625 -5 C 1.632812 -5.71875 1.175781 -6.378906 1.03125 -6.984375 C 0.976562 -7.191406 0.953125 -7.457031 0.953125 -7.78125 C 0.953125 -8.101562 1.03125 -8.425781 1.1875 -8.75 C 1.34375 -9.082031 1.5625 -9.363281 1.84375 -9.59375 C 2.40625 -10.070312 3.128906 -10.3125 4.015625 -10.3125 C 4.546875 -10.3125 5.035156 -10.226562 5.484375 -10.0625 C 5.671875 -9.988281 5.882812 -9.953125 6.125 -9.953125 C 6.226562 -9.953125 6.316406 -9.957031 6.390625 -9.96875 C 6.472656 -9.976562 6.546875 -10.019531 6.609375 -10.09375 C 6.671875 -10.175781 6.703125 -10.25 6.703125 -10.3125 C 6.703125 -10.382812 6.691406 -10.441406 6.671875 -10.484375 C 6.703125 -10.503906 6.742188 -10.515625 6.796875 -10.515625 C 6.859375 -10.515625 6.921875 -10.492188 6.984375 -10.453125 C 7.046875 -10.410156 7.101562 -10.359375 7.15625 -10.296875 C 7.28125 -10.148438 7.34375 -9.984375 7.34375 -9.796875 C 7.34375 -9.609375 7.289062 -9.460938 7.1875 -9.359375 C 7.332031 -9.234375 7.40625 -9.03125 7.40625 -8.75 C 7.40625 -8.476562 7.3125 -8.25 7.125 -8.0625 C 7.164062 -7.945312 7.1875 -7.835938 7.1875 -7.734375 C 7.1875 -7.640625 7.164062 -7.550781 7.125 -7.46875 C 7.09375 -7.382812 7.050781 -7.3125 7 -7.25 C 6.875 -7.113281 6.753906 -7.046875 6.640625 -7.046875 C 6.453125 -7.046875 6.296875 -7.078125 6.171875 -7.140625 C 6.253906 -7.316406 6.296875 -7.503906 6.296875 -7.703125 C 6.296875 -7.910156 6.25 -8.117188 6.15625 -8.328125 C 6.0625 -8.546875 5.9375 -8.734375 5.78125 -8.890625 C 5.4375 -9.210938 4.984375 -9.375 4.421875 -9.375 C 4.066406 -9.375 3.78125 -9.269531 3.5625 -9.0625 C 3.34375 -8.851562 3.234375 -8.609375 3.234375 -8.328125 C 3.234375 -8.109375 3.289062 -7.925781 3.40625 -7.78125 C 3.582031 -7.53125 3.875 -7.269531 4.28125 -7 L 4.59375 -6.78125 C 4.769531 -6.675781 4.890625 -6.625 4.953125 -6.625 C 5.015625 -6.625 5.078125 -6.628906 5.140625 -6.640625 C 5.203125 -6.648438 5.269531 -6.664062 5.34375 -6.6875 C 5.5 -6.75 5.65625 -6.828125 5.8125 -6.921875 L 5.71875 -6.546875 C 5.695312 -6.421875 5.6875 -6.332031 5.6875 -6.28125 C 5.6875 -6.1875 5.734375 -6.101562 5.828125 -6.03125 C 6.648438 -5.3125 7.195312 -4.710938 7.46875 -4.234375 C 7.71875 -3.816406 7.84375 -3.363281 7.84375 -2.875 C 7.84375 -2.394531 7.757812 -1.976562 7.59375 -1.625 C 7.4375 -1.28125 7.207031 -0.972656 6.90625 -0.703125 C 6.238281 -0.0976562 5.367188 0.203125 4.296875 0.203125 C 3.535156 0.203125 2.878906 0.046875 2.328125 -0.265625 Z M 1.875 -8.265625 C 1.707031 -8.191406 1.625 -8.007812 1.625 -7.71875 C 1.625 -7.113281 2.03125 -6.453125 2.84375 -5.734375 L 3.234375 -5.375 C 3.367188 -5.25 3.425781 -5.148438 3.40625 -5.078125 C 3.394531 -5.015625 3.382812 -4.960938 3.375 -4.921875 C 3.363281 -4.890625 3.351562 -4.851562 3.34375 -4.8125 C 3.332031 -4.78125 3.320312 -4.753906 3.3125 -4.734375 C 3.46875 -4.828125 3.59375 -4.875 3.6875 -4.875 C 3.882812 -4.875 4.066406 -4.820312 4.234375 -4.71875 C 5.085938 -4.1875 5.664062 -3.710938 5.96875 -3.296875 C 6.1875 -2.992188 6.300781 -2.613281 6.3125 -2.15625 C 6.3125 -2 6.300781 -1.863281 6.28125 -1.75 C 6.519531 -1.90625 6.640625 -2.144531 6.640625 -2.46875 C 6.640625 -2.78125 6.59375 -3.019531 6.5 -3.1875 C 6.414062 -3.363281 6.316406 -3.519531 6.203125 -3.65625 C 6.085938 -3.789062 5.9375 -3.9375 5.75 -4.09375 C 5.570312 -4.257812 5.347656 -4.429688 5.078125 -4.609375 L 4.140625 -5.265625 C 3.367188 -5.765625 2.78125 -6.296875 2.375 -6.859375 C 2.03125 -7.359375 1.863281 -7.828125 1.875 -8.265625 Z M 1.875 -8.265625 "/></g></g></g><g fill="#ffffff" fill-opacity="1"><g transform="translate(115.305557, 19.730209)"><g><path d="M 3.734375 -0.078125 C 3.515625 0.0546875 3.257812 0.125 2.96875 0.125 C 2.6875 0.125 2.429688 0.0546875 2.203125 -0.078125 C 1.972656 0.0546875 1.765625 0.125 1.578125 0.125 C 1.390625 0.125 1.234375 0.109375 1.109375 0.078125 C 0.984375 0.046875 0.875 0.00390625 0.78125 -0.046875 C 0.59375 -0.160156 0.5 -0.304688 0.5 -0.484375 C 0.5 -0.566406 0.519531 -0.644531 0.5625 -0.71875 C 0.664062 -0.644531 0.789062 -0.609375 0.9375 -0.609375 C 1.332031 -0.609375 1.601562 -0.773438 1.75 -1.109375 L 1.75 -4.34375 C 1.75 -4.539062 1.707031 -4.6875 1.625 -4.78125 C 1.488281 -4.945312 1.265625 -5.109375 0.953125 -5.265625 C 1.242188 -5.410156 1.4375 -5.535156 1.53125 -5.640625 C 1.675781 -5.804688 1.75 -6 1.75 -6.21875 L 1.75 -9.015625 C 1.601562 -9.347656 1.332031 -9.515625 0.9375 -9.515625 C 0.789062 -9.515625 0.664062 -9.476562 0.5625 -9.40625 C 0.519531 -9.46875 0.5 -9.539062 0.5 -9.625 C 0.5 -9.71875 0.519531 -9.800781 0.5625 -9.875 C 0.613281 -9.945312 0.6875 -10.007812 0.78125 -10.0625 C 0.976562 -10.1875 1.207031 -10.25 1.46875 -10.25 C 1.738281 -10.25 1.984375 -10.175781 2.203125 -10.03125 C 2.429688 -10.175781 2.6875 -10.25 2.96875 -10.25 C 3.25 -10.25 3.503906 -10.175781 3.734375 -10.03125 C 3.953125 -10.175781 4.160156 -10.25 4.359375 -10.25 C 4.554688 -10.25 4.710938 -10.234375 4.828125 -10.203125 C 4.953125 -10.171875 5.0625 -10.125 5.15625 -10.0625 C 5.34375 -9.945312 5.4375 -9.804688 5.4375 -9.640625 C 5.4375 -9.546875 5.414062 -9.46875 5.375 -9.40625 C 5.269531 -9.476562 5.144531 -9.515625 5 -9.515625 C 4.601562 -9.515625 4.332031 -9.347656 4.1875 -9.015625 L 4.1875 -6.21875 C 4.1875 -6 4.234375 -5.835938 4.328125 -5.734375 C 4.472656 -5.566406 4.695312 -5.410156 5 -5.265625 C 4.675781 -5.109375 4.46875 -4.976562 4.375 -4.875 C 4.25 -4.71875 4.1875 -4.539062 4.1875 -4.34375 L 4.1875 -1.109375 C 4.332031 -0.773438 4.601562 -0.609375 5 -0.609375 C 5.144531 -0.609375 5.269531 -0.644531 5.375 -0.71875 C 5.414062 -0.644531 5.4375 -0.566406 5.4375 -0.484375 C 5.4375 -0.398438 5.410156 -0.316406 5.359375 -0.234375 C 5.316406 -0.160156 5.25 -0.0976562 5.15625 -0.046875 C 4.957031 0.0664062 4.726562 0.125 4.46875 0.125 C 4.207031 0.125 3.960938 0.0546875 3.734375 -0.078125 Z M 2.390625 -1.75 C 2.609375 -1.832031 2.726562 -2.125 2.75 -2.625 C 2.78125 -3.113281 2.796875 -3.796875 2.796875 -4.671875 C 2.796875 -5.546875 2.789062 -6.125 2.78125 -6.40625 C 2.78125 -6.695312 2.78125 -6.929688 2.78125 -7.109375 C 2.769531 -7.628906 2.71875 -7.941406 2.625 -8.046875 C 2.539062 -8.160156 2.460938 -8.234375 2.390625 -8.265625 C 2.390625 -6.734375 2.363281 -5.863281 2.3125 -5.65625 C 2.25 -5.476562 2.097656 -5.347656 1.859375 -5.265625 C 2.117188 -5.179688 2.269531 -5.070312 2.3125 -4.9375 C 2.363281 -4.71875 2.390625 -3.941406 2.390625 -2.609375 Z M 2.390625 -1.75 "/></g></g></g><g fill="#ffffff" fill-opacity="1"><g transform="translate(121.242892, 19.730209)"><g/></g></g><g fill="#ffffff" fill-opacity="1"><g transform="translate(124.548758, 19.730209)"><g><path d="M 8.75 -2.15625 C 8.832031 -1.957031 8.992188 -1.769531 9.234375 -1.59375 C 9.078125 -1.53125 8.882812 -1.382812 8.65625 -1.15625 C 8.425781 -0.925781 8.164062 -0.71875 7.875 -0.53125 C 7.59375 -0.351562 7.3125 -0.210938 7.03125 -0.109375 C 6.507812 0.0976562 5.953125 0.203125 5.359375 0.203125 C 4.773438 0.203125 4.238281 0.132812 3.75 0 C 3.269531 -0.144531 2.867188 -0.34375 2.546875 -0.59375 C 1.929688 -1.070312 1.625 -1.707031 1.625 -2.5 L 1.625 -4.34375 C 1.625 -4.539062 1.582031 -4.6875 1.5 -4.78125 C 1.363281 -4.945312 1.132812 -5.109375 0.8125 -5.265625 C 1.113281 -5.410156 1.304688 -5.535156 1.390625 -5.640625 C 1.546875 -5.804688 1.625 -6 1.625 -6.21875 L 1.625 -9.015625 C 1.46875 -9.347656 1.195312 -9.515625 0.8125 -9.515625 C 0.65625 -9.515625 0.53125 -9.476562 0.4375 -9.40625 C 0.382812 -9.46875 0.359375 -9.539062 0.359375 -9.625 C 0.359375 -9.71875 0.382812 -9.800781 0.4375 -9.875 C 0.488281 -9.945312 0.554688 -10.007812 0.640625 -10.0625 C 0.847656 -10.1875 1.082031 -10.25 1.34375 -10.25 C 1.601562 -10.25 1.847656 -10.175781 2.078125 -10.03125 C 2.304688 -10.175781 2.5625 -10.25 2.84375 -10.25 C 3.125 -10.25 3.378906 -10.175781 3.609375 -10.03125 C 3.828125 -10.175781 4.03125 -10.25 4.21875 -10.25 C 4.414062 -10.25 4.578125 -10.234375 4.703125 -10.203125 C 4.828125 -10.171875 4.9375 -10.125 5.03125 -10.0625 C 5.21875 -9.945312 5.3125 -9.804688 5.3125 -9.640625 C 5.3125 -9.546875 5.285156 -9.46875 5.234375 -9.40625 C 5.140625 -9.476562 5.019531 -9.515625 4.875 -9.515625 C 4.476562 -9.515625 4.207031 -9.347656 4.0625 -9.015625 L 4.0625 -6.21875 C 4.0625 -6 4.101562 -5.835938 4.1875 -5.734375 C 4.332031 -5.566406 4.554688 -5.410156 4.859375 -5.265625 C 4.535156 -5.109375 4.332031 -4.976562 4.25 -4.875 C 4.125 -4.71875 4.0625 -4.539062 4.0625 -4.34375 L 4.0625 -2.5 C 4.0625 -1.957031 4.257812 -1.515625 4.65625 -1.171875 C 5.03125 -0.859375 5.453125 -0.703125 5.921875 -0.703125 C 6.410156 -0.703125 6.847656 -0.859375 7.234375 -1.171875 C 7.628906 -1.472656 7.828125 -1.84375 7.828125 -2.28125 L 7.828125 -4.40625 C 7.828125 -4.59375 7.785156 -4.734375 7.703125 -4.828125 C 7.566406 -4.960938 7.335938 -5.109375 7.015625 -5.265625 C 7.316406 -5.421875 7.515625 -5.546875 7.609375 -5.640625 C 7.753906 -5.796875 7.828125 -5.96875 7.828125 -6.15625 L 7.828125 -9.09375 C 7.640625 -9.375 7.40625 -9.515625 7.125 -9.515625 C 6.851562 -9.515625 6.65625 -9.476562 6.53125 -9.40625 C 6.476562 -9.488281 6.453125 -9.597656 6.453125 -9.734375 C 6.453125 -9.867188 6.519531 -9.988281 6.65625 -10.09375 C 6.789062 -10.195312 6.96875 -10.25 7.1875 -10.25 C 7.414062 -10.25 7.613281 -10.191406 7.78125 -10.078125 C 7.9375 -10.191406 8.113281 -10.25 8.3125 -10.25 C 8.519531 -10.25 8.695312 -10.191406 8.84375 -10.078125 C 9.019531 -10.191406 9.210938 -10.25 9.421875 -10.25 C 9.628906 -10.25 9.796875 -10.191406 9.921875 -10.078125 C 10.046875 -9.972656 10.109375 -9.847656 10.109375 -9.703125 C 10.109375 -9.566406 10.085938 -9.46875 10.046875 -9.40625 C 9.910156 -9.476562 9.703125 -9.515625 9.421875 -9.515625 C 9.148438 -9.515625 8.925781 -9.375 8.75 -9.09375 L 8.75 -6.15625 C 8.75 -5.957031 8.789062 -5.816406 8.875 -5.734375 C 9.007812 -5.585938 9.257812 -5.429688 9.625 -5.265625 C 9.238281 -5.078125 9.007812 -4.945312 8.9375 -4.875 C 8.8125 -4.757812 8.75 -4.601562 8.75 -4.40625 Z M 2.59375 -1.75 C 2.632812 -1.988281 2.65625 -2.753906 2.65625 -4.046875 C 2.65625 -5.335938 2.65625 -6.125 2.65625 -6.40625 C 2.65625 -6.695312 2.648438 -6.929688 2.640625 -7.109375 C 2.628906 -7.628906 2.582031 -7.941406 2.5 -8.046875 C 2.414062 -8.160156 2.332031 -8.234375 2.25 -8.265625 C 2.25 -6.734375 2.222656 -5.863281 2.171875 -5.65625 C 2.109375 -5.476562 1.957031 -5.347656 1.71875 -5.265625 C 1.988281 -5.179688 2.140625 -5.070312 2.171875 -4.9375 C 2.222656 -4.71875 2.25 -4.257812 2.25 -3.5625 C 2.25 -2.863281 2.257812 -2.445312 2.28125 -2.3125 C 2.300781 -2.1875 2.332031 -2.085938 2.375 -2.015625 C 2.425781 -1.867188 2.5 -1.78125 2.59375 -1.75 Z M 2.59375 -1.75 "/></g></g></g><g fill="#ffffff" fill-opacity="1"><g transform="translate(134.783718, 19.730209)"><g><path d="M 1.6875 -0.046875 C 1.519531 0.0664062 1.332031 0.125 1.125 0.125 C 0.914062 0.125 0.75 0.0703125 0.625 -0.03125 C 0.5 -0.132812 0.4375 -0.253906 0.4375 -0.390625 C 0.4375 -0.535156 0.457031 -0.644531 0.5 -0.71875 C 0.625 -0.644531 0.820312 -0.609375 1.09375 -0.609375 C 1.375 -0.609375 1.601562 -0.796875 1.78125 -1.171875 L 1.78125 -4.34375 C 1.78125 -4.550781 1.738281 -4.703125 1.65625 -4.796875 C 1.519531 -4.960938 1.296875 -5.117188 0.984375 -5.265625 C 1.304688 -5.421875 1.507812 -5.550781 1.59375 -5.65625 C 1.71875 -5.820312 1.78125 -6.007812 1.78125 -6.21875 L 1.78125 -9.015625 C 1.632812 -9.347656 1.363281 -9.515625 0.96875 -9.515625 C 0.820312 -9.515625 0.703125 -9.476562 0.609375 -9.40625 C 0.554688 -9.46875 0.53125 -9.539062 0.53125 -9.625 C 0.53125 -9.71875 0.550781 -9.800781 0.59375 -9.875 C 0.632812 -9.957031 0.691406 -10.023438 0.765625 -10.078125 C 0.921875 -10.191406 1.128906 -10.25 1.390625 -10.25 C 1.648438 -10.25 1.875 -10.175781 2.0625 -10.03125 C 2.1875 -10.175781 2.351562 -10.25 2.5625 -10.25 C 2.78125 -10.25 2.957031 -10.175781 3.09375 -10.03125 C 3.21875 -10.175781 3.347656 -10.25 3.484375 -10.25 C 3.617188 -10.25 3.71875 -10.234375 3.78125 -10.203125 C 3.851562 -10.179688 3.914062 -10.148438 3.96875 -10.109375 C 4.039062 -10.046875 4.117188 -9.929688 4.203125 -9.765625 L 8.3125 -2.375 L 8.3125 -4.40625 C 8.3125 -4.59375 8.269531 -4.734375 8.1875 -4.828125 C 8.050781 -4.960938 7.820312 -5.109375 7.5 -5.265625 C 7.800781 -5.421875 8 -5.546875 8.09375 -5.640625 C 8.238281 -5.796875 8.3125 -5.96875 8.3125 -6.15625 L 8.3125 -8.921875 C 8.207031 -9.109375 8.082031 -9.253906 7.9375 -9.359375 C 7.789062 -9.460938 7.625 -9.515625 7.4375 -9.515625 C 7.25 -9.515625 7.085938 -9.476562 6.953125 -9.40625 C 6.910156 -9.488281 6.890625 -9.597656 6.890625 -9.734375 C 6.890625 -9.867188 6.957031 -9.988281 7.09375 -10.09375 C 7.226562 -10.195312 7.40625 -10.25 7.625 -10.25 C 7.84375 -10.25 8.039062 -10.191406 8.21875 -10.078125 C 8.375 -10.191406 8.550781 -10.25 8.75 -10.25 C 8.945312 -10.25 9.125 -10.191406 9.28125 -10.078125 C 9.445312 -10.191406 9.632812 -10.25 9.84375 -10.25 C 10.050781 -10.25 10.21875 -10.191406 10.34375 -10.078125 C 10.46875 -9.972656 10.53125 -9.847656 10.53125 -9.703125 C 10.53125 -9.566406 10.507812 -9.46875 10.46875 -9.40625 C 10.34375 -9.476562 10.140625 -9.515625 9.859375 -9.515625 C 9.578125 -9.515625 9.351562 -9.328125 9.1875 -8.953125 L 9.1875 -6.15625 C 9.1875 -5.96875 9.222656 -5.828125 9.296875 -5.734375 C 9.429688 -5.585938 9.660156 -5.429688 9.984375 -5.265625 C 9.628906 -5.078125 9.414062 -4.945312 9.34375 -4.875 C 9.238281 -4.75 9.1875 -4.59375 9.1875 -4.40625 L 9.296875 -1.03125 C 9.453125 -0.75 9.703125 -0.609375 10.046875 -0.609375 C 10.191406 -0.609375 10.316406 -0.644531 10.421875 -0.71875 C 10.460938 -0.644531 10.484375 -0.5625 10.484375 -0.46875 C 10.484375 -0.382812 10.460938 -0.304688 10.421875 -0.234375 C 10.378906 -0.160156 10.320312 -0.0976562 10.25 -0.046875 C 10.09375 0.0664062 9.90625 0.125 9.6875 0.125 C 9.46875 0.125 9.269531 0.0820312 9.09375 0 C 8.75 0.195312 8.394531 0.179688 8.03125 -0.046875 C 7.882812 0.0664062 7.75 0.125 7.625 0.125 C 7.5 0.125 7.40625 0.113281 7.34375 0.09375 C 7.28125 0.0703125 7.222656 0.0351562 7.171875 -0.015625 C 7.085938 -0.0976562 6.957031 -0.304688 6.78125 -0.640625 L 2.71875 -7.65625 L 2.71875 -1.171875 C 2.894531 -0.796875 3.117188 -0.609375 3.390625 -0.609375 C 3.671875 -0.609375 3.878906 -0.644531 4.015625 -0.71875 C 4.054688 -0.632812 4.078125 -0.519531 4.078125 -0.375 C 4.078125 -0.238281 4.007812 -0.117188 3.875 -0.015625 C 3.738281 0.078125 3.5625 0.125 3.34375 0.125 C 3.125 0.125 2.925781 0.0703125 2.75 -0.03125 C 2.59375 0.0703125 2.410156 0.125 2.203125 0.125 C 1.992188 0.125 1.820312 0.0664062 1.6875 -0.046875 Z M 6.859375 -1.75 C 6.890625 -1.789062 6.90625 -1.851562 6.90625 -1.9375 C 6.90625 -2.03125 6.890625 -2.128906 6.859375 -2.234375 C 6.835938 -2.335938 6.804688 -2.453125 6.765625 -2.578125 C 6.671875 -2.828125 6.546875 -3.09375 6.390625 -3.375 L 3.59375 -8.265625 C 3.5625 -8.222656 3.546875 -8.132812 3.546875 -8 C 3.546875 -7.726562 3.734375 -7.25 4.109375 -6.5625 Z M 6.859375 -1.75 "/></g></g></g><g fill="#ffffff" fill-opacity="1"><g transform="translate(145.74597, 19.730209)"><g><path d="M 3.734375 -0.078125 C 3.515625 0.0546875 3.257812 0.125 2.96875 0.125 C 2.6875 0.125 2.429688 0.0546875 2.203125 -0.078125 C 1.972656 0.0546875 1.765625 0.125 1.578125 0.125 C 1.390625 0.125 1.234375 0.109375 1.109375 0.078125 C 0.984375 0.046875 0.875 0.00390625 0.78125 -0.046875 C 0.59375 -0.160156 0.5 -0.304688 0.5 -0.484375 C 0.5 -0.566406 0.519531 -0.644531 0.5625 -0.71875 C 0.664062 -0.644531 0.789062 -0.609375 0.9375 -0.609375 C 1.332031 -0.609375 1.601562 -0.773438 1.75 -1.109375 L 1.75 -4.34375 C 1.75 -4.539062 1.707031 -4.6875 1.625 -4.78125 C 1.488281 -4.945312 1.265625 -5.109375 0.953125 -5.265625 C 1.242188 -5.410156 1.4375 -5.535156 1.53125 -5.640625 C 1.675781 -5.804688 1.75 -6 1.75 -6.21875 L 1.75 -9.015625 C 1.601562 -9.347656 1.332031 -9.515625 0.9375 -9.515625 C 0.789062 -9.515625 0.664062 -9.476562 0.5625 -9.40625 C 0.519531 -9.46875 0.5 -9.539062 0.5 -9.625 C 0.5 -9.71875 0.519531 -9.800781 0.5625 -9.875 C 0.613281 -9.945312 0.6875 -10.007812 0.78125 -10.0625 C 0.976562 -10.1875 1.207031 -10.25 1.46875 -10.25 C 1.738281 -10.25 1.984375 -10.175781 2.203125 -10.03125 C 2.429688 -10.175781 2.6875 -10.25 2.96875 -10.25 C 3.25 -10.25 3.503906 -10.175781 3.734375 -10.03125 C 3.953125 -10.175781 4.160156 -10.25 4.359375 -10.25 C 4.554688 -10.25 4.710938 -10.234375 4.828125 -10.203125 C 4.953125 -10.171875 5.0625 -10.125 5.15625 -10.0625 C 5.34375 -9.945312 5.4375 -9.804688 5.4375 -9.640625 C 5.4375 -9.546875 5.414062 -9.46875 5.375 -9.40625 C 5.269531 -9.476562 5.144531 -9.515625 5 -9.515625 C 4.601562 -9.515625 4.332031 -9.347656 4.1875 -9.015625 L 4.1875 -6.21875 C 4.1875 -6 4.234375 -5.835938 4.328125 -5.734375 C 4.472656 -5.566406 4.695312 -5.410156 5 -5.265625 C 4.675781 -5.109375 4.46875 -4.976562 4.375 -4.875 C 4.25 -4.71875 4.1875 -4.539062 4.1875 -4.34375 L 4.1875 -1.109375 C 4.332031 -0.773438 4.601562 -0.609375 5 -0.609375 C 5.144531 -0.609375 5.269531 -0.644531 5.375 -0.71875 C 5.414062 -0.644531 5.4375 -0.566406 5.4375 -0.484375 C 5.4375 -0.398438 5.410156 -0.316406 5.359375 -0.234375 C 5.316406 -0.160156 5.25 -0.0976562 5.15625 -0.046875 C 4.957031 0.0664062 4.726562 0.125 4.46875 0.125 C 4.207031 0.125 3.960938 0.0546875 3.734375 -0.078125 Z M 2.390625 -1.75 C 2.609375 -1.832031 2.726562 -2.125 2.75 -2.625 C 2.78125 -3.113281 2.796875 -3.796875 2.796875 -4.671875 C 2.796875 -5.546875 2.789062 -6.125 2.78125 -6.40625 C 2.78125 -6.695312 2.78125 -6.929688 2.78125 -7.109375 C 2.769531 -7.628906 2.71875 -7.941406 2.625 -8.046875 C 2.539062 -8.160156 2.460938 -8.234375 2.390625 -8.265625 C 2.390625 -6.734375 2.363281 -5.863281 2.3125 -5.65625 C 2.25 -5.476562 2.097656 -5.347656 1.859375 -5.265625 C 2.117188 -5.179688 2.269531 -5.070312 2.3125 -4.9375 C 2.363281 -4.71875 2.390625 -3.941406 2.390625 -2.609375 Z M 2.390625 -1.75 "/></g></g></g><g fill="#ffffff" fill-opacity="1"><g transform="translate(151.683305, 19.730209)"><g><path d="M 6.84375 -1.140625 C 7.019531 -1.296875 7.160156 -1.488281 7.265625 -1.71875 C 7.367188 -1.957031 7.421875 -2.207031 7.421875 -2.46875 C 7.421875 -2.738281 7.367188 -2.945312 7.265625 -3.09375 C 7.335938 -3.21875 7.484375 -3.28125 7.703125 -3.28125 C 7.929688 -3.28125 8.101562 -3.207031 8.21875 -3.0625 C 8.34375 -2.914062 8.40625 -2.691406 8.40625 -2.390625 C 8.40625 -2.085938 8.320312 -1.769531 8.15625 -1.4375 C 8 -1.113281 7.773438 -0.832031 7.484375 -0.59375 C 6.835938 -0.0625 6.035156 0.203125 5.078125 0.203125 C 3.921875 0.203125 2.972656 -0.160156 2.234375 -0.890625 C 1.484375 -1.628906 1.03125 -2.6875 0.875 -4.0625 C 0.800781 -4.6875 0.578125 -5.085938 0.203125 -5.265625 C 0.410156 -5.367188 0.550781 -5.472656 0.625 -5.578125 C 0.75 -5.753906 0.832031 -6 0.875 -6.3125 C 0.914062 -6.625 0.988281 -6.945312 1.09375 -7.28125 C 1.195312 -7.613281 1.332031 -7.929688 1.5 -8.234375 C 1.675781 -8.535156 1.882812 -8.8125 2.125 -9.0625 C 2.375 -9.320312 2.65625 -9.546875 2.96875 -9.734375 C 3.632812 -10.117188 4.40625 -10.3125 5.28125 -10.3125 C 6.144531 -10.3125 6.859375 -10.097656 7.421875 -9.671875 C 7.929688 -9.273438 8.257812 -8.738281 8.40625 -8.0625 C 8.476562 -7.726562 8.566406 -7.523438 8.671875 -7.453125 C 8.722656 -7.410156 8.78125 -7.375 8.84375 -7.34375 C 8.707031 -7.125 8.503906 -7.003906 8.234375 -6.984375 C 8.117188 -6.960938 7.992188 -6.988281 7.859375 -7.0625 C 7.617188 -6.644531 7.273438 -6.421875 6.828125 -6.390625 C 6.734375 -6.390625 6.664062 -6.410156 6.625 -6.453125 C 6.738281 -6.609375 6.789062 -6.789062 6.78125 -7 C 6.78125 -7.039062 6.773438 -7.082031 6.765625 -7.125 C 6.566406 -7.082031 6.394531 -7.097656 6.25 -7.171875 C 6.019531 -7.304688 5.898438 -7.453125 5.890625 -7.609375 C 5.890625 -7.640625 5.894531 -7.675781 5.90625 -7.71875 C 6.1875 -7.632812 6.445312 -7.691406 6.6875 -7.890625 C 6.863281 -8.035156 6.945312 -8.191406 6.9375 -8.359375 C 6.925781 -8.535156 6.882812 -8.6875 6.8125 -8.8125 C 6.738281 -8.9375 6.640625 -9.050781 6.515625 -9.15625 C 6.210938 -9.394531 5.835938 -9.515625 5.390625 -9.515625 C 4.617188 -9.515625 4.117188 -9.171875 3.890625 -8.484375 C 3.816406 -8.253906 3.78125 -7.984375 3.78125 -7.671875 L 3.78125 -6.34375 C 3.78125 -5.84375 4.019531 -5.484375 4.5 -5.265625 C 4.019531 -5.035156 3.78125 -4.65625 3.78125 -4.125 L 3.78125 -2.5 C 3.78125 -1.65625 4.113281 -1.097656 4.78125 -0.828125 C 4.988281 -0.742188 5.222656 -0.703125 5.484375 -0.703125 C 5.742188 -0.703125 5.988281 -0.738281 6.21875 -0.8125 C 6.457031 -0.882812 6.664062 -0.992188 6.84375 -1.140625 Z M 2.375 -1.75 C 2.4375 -1.78125 2.46875 -1.828125 2.46875 -1.890625 C 2.46875 -1.984375 2.421875 -2.132812 2.328125 -2.34375 C 2.097656 -2.882812 1.984375 -3.859375 1.984375 -5.265625 C 1.984375 -6.296875 2.109375 -7.175781 2.359375 -7.90625 C 2.390625 -8.007812 2.40625 -8.085938 2.40625 -8.140625 C 2.40625 -8.203125 2.375 -8.242188 2.3125 -8.265625 C 2.101562 -8.003906 1.957031 -7.75 1.875 -7.5 C 1.707031 -7.03125 1.578125 -6.394531 1.484375 -5.59375 C 1.472656 -5.476562 1.34375 -5.367188 1.09375 -5.265625 C 1.34375 -5.160156 1.472656 -5.050781 1.484375 -4.9375 C 1.640625 -3.570312 1.84375 -2.660156 2.09375 -2.203125 C 2.175781 -2.035156 2.269531 -1.882812 2.375 -1.75 Z M 2.375 -1.75 "/></g></g></g><g fill="#ffffff" fill-opacity="1"><g transform="translate(160.41079, 19.730209)"><g><path d="M 2.984375 0.125 C 2.691406 0.125 2.429688 0.0546875 2.203125 -0.078125 C 1.972656 0.0546875 1.765625 0.125 1.578125 0.125 C 1.390625 0.125 1.234375 0.109375 1.109375 0.078125 C 0.984375 0.046875 0.875 0.00390625 0.78125 -0.046875 C 0.59375 -0.160156 0.5 -0.304688 0.5 -0.484375 C 0.5 -0.566406 0.519531 -0.644531 0.5625 -0.71875 C 0.664062 -0.644531 0.789062 -0.609375 0.9375 -0.609375 C 1.332031 -0.609375 1.601562 -0.773438 1.75 -1.109375 L 1.75 -4.34375 C 1.75 -4.539062 1.707031 -4.6875 1.625 -4.78125 C 1.488281 -4.945312 1.265625 -5.109375 0.953125 -5.265625 C 1.242188 -5.410156 1.4375 -5.535156 1.53125 -5.640625 C 1.675781 -5.804688 1.75 -6 1.75 -6.21875 L 1.75 -9.015625 C 1.601562 -9.347656 1.332031 -9.515625 0.9375 -9.515625 C 0.789062 -9.515625 0.664062 -9.476562 0.5625 -9.40625 C 0.519531 -9.46875 0.5 -9.539062 0.5 -9.625 C 0.5 -9.71875 0.519531 -9.800781 0.5625 -9.875 C 0.613281 -9.945312 0.6875 -10.007812 0.78125 -10.0625 C 0.976562 -10.1875 1.207031 -10.25 1.46875 -10.25 C 1.738281 -10.25 1.984375 -10.175781 2.203125 -10.03125 C 2.429688 -10.175781 2.691406 -10.25 2.984375 -10.25 C 3.285156 -10.25 3.554688 -10.164062 3.796875 -10 C 4.265625 -10.164062 4.804688 -10.25 5.421875 -10.25 C 5.867188 -10.25 6.253906 -10.207031 6.578125 -10.125 L 7.171875 -9.96875 C 7.242188 -9.945312 7.3125 -9.9375 7.375 -9.9375 C 7.5 -9.9375 7.5625 -10.023438 7.5625 -10.203125 C 7.5625 -10.242188 7.546875 -10.316406 7.515625 -10.421875 C 7.640625 -10.441406 7.796875 -10.453125 7.984375 -10.453125 C 8.171875 -10.453125 8.332031 -10.390625 8.46875 -10.265625 C 8.601562 -10.140625 8.671875 -9.957031 8.671875 -9.71875 C 8.671875 -9.488281 8.628906 -9.316406 8.546875 -9.203125 C 8.660156 -9.023438 8.71875 -8.8125 8.71875 -8.5625 C 8.71875 -8.3125 8.628906 -8.097656 8.453125 -7.921875 C 8.515625 -7.785156 8.546875 -7.65625 8.546875 -7.53125 C 8.546875 -7.40625 8.519531 -7.289062 8.46875 -7.1875 C 8.425781 -7.082031 8.378906 -7 8.328125 -6.9375 C 8.203125 -6.800781 8.070312 -6.734375 7.9375 -6.734375 C 7.757812 -6.734375 7.59375 -6.773438 7.4375 -6.859375 C 7.488281 -6.960938 7.515625 -7.117188 7.515625 -7.328125 C 7.515625 -7.816406 7.394531 -8.242188 7.15625 -8.609375 C 6.820312 -9.109375 6.328125 -9.359375 5.671875 -9.359375 C 5.335938 -9.359375 5.035156 -9.273438 4.765625 -9.109375 C 4.492188 -8.953125 4.300781 -8.71875 4.1875 -8.40625 L 4.1875 -5.859375 C 4.34375 -5.753906 4.488281 -5.703125 4.625 -5.703125 C 4.757812 -5.703125 4.859375 -5.703125 4.921875 -5.703125 C 4.992188 -5.710938 5.066406 -5.722656 5.140625 -5.734375 C 5.316406 -5.765625 5.453125 -5.800781 5.546875 -5.84375 C 5.734375 -5.9375 5.828125 -6.15625 5.828125 -6.5 C 5.828125 -6.6875 5.78125 -6.835938 5.6875 -6.953125 C 5.78125 -7.003906 5.890625 -7.03125 6.015625 -7.03125 C 6.316406 -7.03125 6.53125 -6.914062 6.65625 -6.6875 C 6.707031 -6.601562 6.734375 -6.507812 6.734375 -6.40625 C 6.734375 -6.300781 6.707031 -6.175781 6.65625 -6.03125 C 6.832031 -5.820312 6.921875 -5.570312 6.921875 -5.28125 C 6.921875 -5 6.832031 -4.753906 6.65625 -4.546875 C 6.707031 -4.398438 6.734375 -4.265625 6.734375 -4.140625 C 6.734375 -4.023438 6.707031 -3.910156 6.65625 -3.796875 C 6.613281 -3.679688 6.554688 -3.59375 6.484375 -3.53125 C 6.347656 -3.40625 6.191406 -3.34375 6.015625 -3.34375 C 5.890625 -3.34375 5.78125 -3.378906 5.6875 -3.453125 C 5.78125 -3.609375 5.828125 -3.789062 5.828125 -4 C 5.828125 -4.40625 5.710938 -4.65625 5.484375 -4.75 C 5.285156 -4.832031 5.054688 -4.875 4.796875 -4.875 C 4.546875 -4.875 4.34375 -4.828125 4.1875 -4.734375 L 4.1875 -1.421875 C 4.445312 -0.972656 4.941406 -0.75 5.671875 -0.75 C 6.492188 -0.75 7.054688 -1.003906 7.359375 -1.515625 C 7.710938 -2.109375 7.890625 -2.738281 7.890625 -3.40625 C 7.890625 -3.601562 7.867188 -3.753906 7.828125 -3.859375 C 7.941406 -3.960938 8.054688 -4.015625 8.171875 -4.015625 C 8.296875 -4.015625 8.390625 -4 8.453125 -3.96875 C 8.515625 -3.9375 8.566406 -3.894531 8.609375 -3.84375 C 8.710938 -3.726562 8.765625 -3.609375 8.765625 -3.484375 L 8.734375 -3.15625 C 8.734375 -3.070312 8.753906 -3.003906 8.796875 -2.953125 C 8.890625 -2.859375 8.9375 -2.769531 8.9375 -2.6875 C 8.9375 -2.613281 8.90625 -2.519531 8.84375 -2.40625 C 8.945312 -2.34375 9.039062 -2.253906 9.125 -2.140625 C 9.207031 -2.035156 9.25 -1.921875 9.25 -1.796875 C 9.25 -1.546875 9.144531 -1.320312 8.9375 -1.125 C 9.019531 -0.988281 9.0625 -0.796875 9.0625 -0.546875 C 9.0625 -0.296875 8.988281 -0.0859375 8.84375 0.078125 C 8.707031 0.253906 8.523438 0.34375 8.296875 0.34375 C 8.171875 0.34375 8.039062 0.328125 7.90625 0.296875 C 7.925781 0.203125 7.9375 0.109375 7.9375 0.015625 C 7.9375 -0.191406 7.84375 -0.296875 7.65625 -0.296875 C 7.445312 -0.296875 7.238281 -0.253906 7.03125 -0.171875 C 6.539062 0.0234375 5.984375 0.125 5.359375 0.125 C 4.742188 0.125 4.21875 0.046875 3.78125 -0.109375 C 3.550781 0.046875 3.285156 0.125 2.984375 0.125 Z M 2.390625 -1.75 C 2.609375 -1.832031 2.726562 -2.125 2.75 -2.625 C 2.78125 -3.113281 2.796875 -3.796875 2.796875 -4.671875 C 2.796875 -5.546875 2.789062 -6.125 2.78125 -6.40625 C 2.78125 -6.695312 2.78125 -6.929688 2.78125 -7.109375 C 2.769531 -7.628906 2.71875 -7.941406 2.625 -8.046875 C 2.539062 -8.160156 2.460938 -8.234375 2.390625 -8.265625 C 2.390625 -6.734375 2.363281 -5.863281 2.3125 -5.65625 C 2.25 -5.476562 2.097656 -5.347656 1.859375 -5.265625 C 2.117188 -5.179688 2.269531 -5.070312 2.3125 -4.9375 C 2.363281 -4.71875 2.390625 -3.941406 2.390625 -2.609375 Z M 4.0625 -1.8125 C 4.0625 -1.800781 4.0625 -1.789062 4.0625 -1.78125 Z M 4.0625 -1.8125 "/></g></g></g><g fill="#ffffff" fill-opacity="1"><g transform="translate(169.938296, 19.730209)"><g><path d="M 3.828125 -0.078125 C 3.597656 0.0546875 3.332031 0.125 3.03125 0.125 C 2.738281 0.125 2.476562 0.0546875 2.25 -0.078125 C 2.019531 0.0546875 1.8125 0.125 1.625 0.125 C 1.4375 0.125 1.28125 0.109375 1.15625 0.078125 C 1.03125 0.046875 0.921875 0.00390625 0.828125 -0.046875 C 0.640625 -0.160156 0.546875 -0.304688 0.546875 -0.484375 C 0.546875 -0.566406 0.566406 -0.644531 0.609375 -0.71875 C 0.710938 -0.644531 0.835938 -0.609375 0.984375 -0.609375 C 1.378906 -0.609375 1.648438 -0.773438 1.796875 -1.109375 L 1.796875 -4.34375 C 1.796875 -4.539062 1.757812 -4.6875 1.6875 -4.78125 C 1.539062 -4.945312 1.3125 -5.109375 1 -5.265625 C 1.289062 -5.410156 1.484375 -5.535156 1.578125 -5.640625 C 1.722656 -5.804688 1.796875 -6 1.796875 -6.21875 L 1.796875 -9.015625 C 1.648438 -9.347656 1.378906 -9.515625 0.984375 -9.515625 C 0.804688 -9.515625 0.664062 -9.476562 0.5625 -9.40625 C 0.519531 -9.46875 0.5 -9.539062 0.5 -9.625 C 0.5 -9.71875 0.523438 -9.800781 0.578125 -9.875 C 0.628906 -9.945312 0.707031 -10.007812 0.8125 -10.0625 C 1.019531 -10.1875 1.253906 -10.25 1.515625 -10.25 C 1.785156 -10.25 2.03125 -10.175781 2.25 -10.03125 C 2.476562 -10.175781 2.738281 -10.25 3.03125 -10.25 C 3.332031 -10.25 3.601562 -10.160156 3.84375 -9.984375 C 4.332031 -10.160156 4.914062 -10.25 5.59375 -10.25 C 6.019531 -10.25 6.382812 -10.207031 6.6875 -10.125 L 7.265625 -9.96875 C 7.335938 -9.945312 7.40625 -9.9375 7.46875 -9.9375 C 7.59375 -9.9375 7.65625 -10.023438 7.65625 -10.203125 C 7.65625 -10.242188 7.640625 -10.316406 7.609375 -10.421875 C 7.734375 -10.441406 7.890625 -10.453125 8.078125 -10.453125 C 8.265625 -10.453125 8.425781 -10.390625 8.5625 -10.265625 C 8.695312 -10.140625 8.765625 -9.953125 8.765625 -9.703125 C 8.765625 -9.460938 8.710938 -9.273438 8.609375 -9.140625 C 8.742188 -8.941406 8.8125 -8.707031 8.8125 -8.4375 C 8.8125 -8.164062 8.722656 -7.925781 8.546875 -7.71875 C 8.597656 -7.582031 8.625 -7.441406 8.625 -7.296875 C 8.625 -7.148438 8.601562 -7.019531 8.5625 -6.90625 C 8.53125 -6.800781 8.484375 -6.710938 8.421875 -6.640625 C 8.296875 -6.492188 8.148438 -6.421875 7.984375 -6.421875 C 7.828125 -6.421875 7.675781 -6.457031 7.53125 -6.53125 C 7.59375 -6.644531 7.625 -6.785156 7.625 -6.953125 C 7.625 -7.117188 7.613281 -7.257812 7.59375 -7.375 C 7.582031 -7.488281 7.5625 -7.601562 7.53125 -7.71875 C 7.46875 -8 7.363281 -8.273438 7.21875 -8.546875 C 6.925781 -9.085938 6.46875 -9.359375 5.84375 -9.359375 C 5.070312 -9.359375 4.535156 -9.160156 4.234375 -8.765625 L 4.234375 -5.703125 C 4.367188 -5.617188 4.492188 -5.578125 4.609375 -5.578125 C 4.734375 -5.578125 4.832031 -5.578125 4.90625 -5.578125 C 4.988281 -5.585938 5.066406 -5.597656 5.140625 -5.609375 C 5.328125 -5.628906 5.46875 -5.664062 5.5625 -5.71875 C 5.757812 -5.800781 5.859375 -6 5.859375 -6.3125 C 5.859375 -6.625 5.8125 -6.859375 5.71875 -7.015625 C 5.789062 -7.078125 5.898438 -7.109375 6.046875 -7.109375 C 6.335938 -7.109375 6.550781 -6.953125 6.6875 -6.640625 C 6.738281 -6.535156 6.765625 -6.421875 6.765625 -6.296875 C 6.765625 -6.179688 6.738281 -6.046875 6.6875 -5.890625 C 6.863281 -5.679688 6.953125 -5.4375 6.953125 -5.15625 C 6.953125 -4.875 6.863281 -4.628906 6.6875 -4.421875 C 6.738281 -4.265625 6.765625 -4.125 6.765625 -4 C 6.765625 -3.882812 6.738281 -3.769531 6.6875 -3.65625 C 6.632812 -3.550781 6.578125 -3.46875 6.515625 -3.40625 C 6.367188 -3.28125 6.210938 -3.21875 6.046875 -3.21875 C 5.921875 -3.21875 5.8125 -3.253906 5.71875 -3.328125 C 5.8125 -3.472656 5.859375 -3.648438 5.859375 -3.859375 C 5.859375 -4.273438 5.742188 -4.53125 5.515625 -4.625 C 5.328125 -4.695312 5.097656 -4.734375 4.828125 -4.734375 C 4.566406 -4.734375 4.367188 -4.691406 4.234375 -4.609375 L 4.234375 -1.125 C 4.398438 -0.78125 4.710938 -0.609375 5.171875 -0.609375 C 5.328125 -0.609375 5.453125 -0.644531 5.546875 -0.71875 C 5.597656 -0.644531 5.625 -0.566406 5.625 -0.484375 C 5.625 -0.398438 5.597656 -0.316406 5.546875 -0.234375 C 5.492188 -0.160156 5.421875 -0.0976562 5.328125 -0.046875 C 5.128906 0.0664062 4.890625 0.125 4.609375 0.125 C 4.335938 0.125 4.078125 0.0546875 3.828125 -0.078125 Z M 2.4375 -1.75 C 2.65625 -1.832031 2.773438 -2.125 2.796875 -2.625 C 2.828125 -3.113281 2.84375 -3.796875 2.84375 -4.671875 C 2.84375 -5.546875 2.835938 -6.125 2.828125 -6.40625 C 2.828125 -6.695312 2.828125 -6.929688 2.828125 -7.109375 C 2.804688 -7.628906 2.753906 -7.941406 2.671875 -8.046875 C 2.585938 -8.160156 2.507812 -8.234375 2.4375 -8.265625 C 2.4375 -6.734375 2.410156 -5.863281 2.359375 -5.65625 C 2.296875 -5.476562 2.144531 -5.347656 1.90625 -5.265625 C 2.164062 -5.179688 2.316406 -5.070312 2.359375 -4.9375 C 2.410156 -4.71875 2.4375 -3.941406 2.4375 -2.609375 Z M 2.4375 -1.75 "/></g></g></g></svg>