<svg xmlns="http://www.w3.org/2000/svg" xmlns:xlink="http://www.w3.org/1999/xlink" width="275" zoomAndPan="magnify" viewBox="0 0 206.25 30.000001" height="40" preserveAspectRatio="xMidYMid meet" version="1.0"><defs><g/><clipPath id="14e502c5fd"><path d="M 2.964844 0 L 202.558594 0 L 202.558594 29.03125 L 2.964844 29.03125 Z M 2.964844 0 " clip-rule="nonzero"/></clipPath><clipPath id="6d1e50d1f1"><path d="M 10.363281 0 L 202.558594 0 L 202.558594 2 L 10.363281 2 Z M 10.363281 0 " clip-rule="nonzero"/></clipPath><clipPath id="2cd5d3bf05"><path d="M 10.363281 3 L 202.558594 3 L 202.558594 3.628906 L 10.363281 3.628906 Z M 10.363281 3 " clip-rule="nonzero"/></clipPath><clipPath id="5cdf2a685d"><path d="M 10.363281 25.28125 L 202.558594 25.28125 L 202.558594 27 L 10.363281 27 Z M 10.363281 25.28125 " clip-rule="nonzero"/></clipPath><clipPath id="1b2f420814"><path d="M 10.363281 28 L 202.558594 28 L 202.558594 28.910156 L 10.363281 28.910156 Z M 10.363281 28 " clip-rule="nonzero"/></clipPath><clipPath id="8e1f59c91d"><path d="M 5.988281 8.566406 L 17.066406 8.566406 L 17.066406 19.105469 L 5.988281 19.105469 Z M 5.988281 8.566406 " clip-rule="nonzero"/></clipPath><clipPath id="e35735d082"><path d="M 11.519531 8.566406 L 12.824219 12.59375 L 17.046875 12.59375 L 13.628906 15.082031 L 14.9375 19.105469 L 11.519531 16.617188 L 8.101562 19.105469 L 9.40625 15.082031 L 5.988281 12.59375 L 10.214844 12.59375 Z M 11.519531 8.566406 " clip-rule="nonzero"/></clipPath><clipPath id="0b23e1b22e"><path d="M 5.867188 12.214844 L 7.097656 12.214844 L 7.097656 13.445312 L 5.867188 13.445312 Z M 5.867188 12.214844 " clip-rule="nonzero"/></clipPath><clipPath id="9fbd7ffe8b"><path d="M 6.484375 12.214844 C 6.140625 12.214844 5.867188 12.492188 5.867188 12.832031 C 5.867188 13.171875 6.140625 13.445312 6.484375 13.445312 C 6.824219 13.445312 7.097656 13.171875 7.097656 12.832031 C 7.097656 12.492188 6.824219 12.214844 6.484375 12.214844 Z M 6.484375 12.214844 " clip-rule="nonzero"/></clipPath><clipPath id="c845a594fc"><path d="M 16.074219 12.214844 L 17.304688 12.214844 L 17.304688 13.445312 L 16.074219 13.445312 Z M 16.074219 12.214844 " clip-rule="nonzero"/></clipPath><clipPath id="f9c4343358"><path d="M 16.6875 12.214844 C 16.347656 12.214844 16.074219 12.492188 16.074219 12.832031 C 16.074219 13.171875 16.347656 13.445312 16.6875 13.445312 C 17.03125 13.445312 17.304688 13.171875 17.304688 12.832031 C 17.304688 12.492188 17.03125 12.214844 16.6875 12.214844 Z M 16.6875 12.214844 " clip-rule="nonzero"/></clipPath><clipPath id="6bec667ed5"><path d="M 14.183594 18.316406 L 15.417969 18.316406 L 15.417969 19.546875 L 14.183594 19.546875 Z M 14.183594 18.316406 " clip-rule="nonzero"/></clipPath><clipPath id="895fb6bcb6"><path d="M 14.800781 18.316406 C 14.460938 18.316406 14.183594 18.59375 14.183594 18.933594 C 14.183594 19.273438 14.460938 19.546875 14.800781 19.546875 C 15.140625 19.546875 15.417969 19.273438 15.417969 18.933594 C 15.417969 18.59375 15.140625 18.316406 14.800781 18.316406 Z M 14.800781 18.316406 " clip-rule="nonzero"/></clipPath><clipPath id="4791aa6a4a"><path d="M 7.628906 18.316406 L 8.859375 18.316406 L 8.859375 19.546875 L 7.628906 19.546875 Z M 7.628906 18.316406 " clip-rule="nonzero"/></clipPath><clipPath id="fbd2a369b2"><path d="M 8.242188 18.316406 C 7.902344 18.316406 7.628906 18.59375 7.628906 18.933594 C 7.628906 19.273438 7.902344 19.546875 8.242188 19.546875 C 8.582031 19.546875 8.859375 19.273438 8.859375 18.933594 C 8.859375 18.59375 8.582031 18.316406 8.242188 18.316406 Z M 8.242188 18.316406 " clip-rule="nonzero"/></clipPath><clipPath id="e530cf1370"><path d="M 10.902344 8.199219 L 12.132812 8.199219 L 12.132812 9.433594 L 10.902344 9.433594 Z M 10.902344 8.199219 " clip-rule="nonzero"/></clipPath><clipPath id="589f4f79b9"><path d="M 11.519531 8.199219 C 11.179688 8.199219 10.902344 8.476562 10.902344 8.816406 C 10.902344 9.15625 11.179688 9.433594 11.519531 9.433594 C 11.859375 9.433594 12.132812 9.15625 12.132812 8.816406 C 12.132812 8.476562 11.859375 8.199219 11.519531 8.199219 Z M 11.519531 8.199219 " clip-rule="nonzero"/></clipPath><clipPath id="429e40aa32"><path d="M 187.527344 8.566406 L 198.605469 8.566406 L 198.605469 19.105469 L 187.527344 19.105469 Z M 187.527344 8.566406 " clip-rule="nonzero"/></clipPath><clipPath id="a7da35a575"><path d="M 193.058594 8.566406 L 194.363281 12.59375 L 198.585938 12.59375 L 195.167969 15.082031 L 196.476562 19.105469 L 193.058594 16.617188 L 189.640625 19.105469 L 190.945312 15.082031 L 187.527344 12.59375 L 191.753906 12.59375 Z M 193.058594 8.566406 " clip-rule="nonzero"/></clipPath><clipPath id="e533d43364"><path d="M 187.40625 12.214844 L 188.636719 12.214844 L 188.636719 13.445312 L 187.40625 13.445312 Z M 187.40625 12.214844 " clip-rule="nonzero"/></clipPath><clipPath id="8dc5c008ae"><path d="M 188.023438 12.214844 C 187.679688 12.214844 187.40625 12.492188 187.40625 12.832031 C 187.40625 13.171875 187.679688 13.445312 188.023438 13.445312 C 188.363281 13.445312 188.636719 13.171875 188.636719 12.832031 C 188.636719 12.492188 188.363281 12.214844 188.023438 12.214844 Z M 188.023438 12.214844 " clip-rule="nonzero"/></clipPath><clipPath id="7af53925ba"><path d="M 197.613281 12.214844 L 198.84375 12.214844 L 198.84375 13.445312 L 197.613281 13.445312 Z M 197.613281 12.214844 " clip-rule="nonzero"/></clipPath><clipPath id="8a3cbf84e9"><path d="M 198.226562 12.214844 C 197.886719 12.214844 197.613281 12.492188 197.613281 12.832031 C 197.613281 13.171875 197.886719 13.445312 198.226562 13.445312 C 198.570312 13.445312 198.84375 13.171875 198.84375 12.832031 C 198.84375 12.492188 198.570312 12.214844 198.226562 12.214844 Z M 198.226562 12.214844 " clip-rule="nonzero"/></clipPath><clipPath id="d43d5903da"><path d="M 195.722656 18.316406 L 196.957031 18.316406 L 196.957031 19.546875 L 195.722656 19.546875 Z M 195.722656 18.316406 " clip-rule="nonzero"/></clipPath><clipPath id="eaee287480"><path d="M 196.339844 18.316406 C 196 18.316406 195.722656 18.59375 195.722656 18.933594 C 195.722656 19.273438 196 19.546875 196.339844 19.546875 C 196.679688 19.546875 196.957031 19.273438 196.957031 18.933594 C 196.957031 18.59375 196.679688 18.316406 196.339844 18.316406 Z M 196.339844 18.316406 " clip-rule="nonzero"/></clipPath><clipPath id="d4e0599a14"><path d="M 189.167969 18.316406 L 190.398438 18.316406 L 190.398438 19.546875 L 189.167969 19.546875 Z M 189.167969 18.316406 " clip-rule="nonzero"/></clipPath><clipPath id="fd2b97eb75"><path d="M 189.78125 18.316406 C 189.441406 18.316406 189.167969 18.59375 189.167969 18.933594 C 189.167969 19.273438 189.441406 19.546875 189.78125 19.546875 C 190.121094 19.546875 190.398438 19.273438 190.398438 18.933594 C 190.398438 18.59375 190.121094 18.316406 189.78125 18.316406 Z M 189.78125 18.316406 " clip-rule="nonzero"/></clipPath><clipPath id="8095b9b383"><path d="M 192.441406 8.199219 L 193.671875 8.199219 L 193.671875 9.433594 L 192.441406 9.433594 Z M 192.441406 8.199219 " clip-rule="nonzero"/></clipPath><clipPath id="c032421544"><path d="M 193.058594 8.199219 C 192.71875 8.199219 192.441406 8.476562 192.441406 8.816406 C 192.441406 9.15625 192.71875 9.433594 193.058594 9.433594 C 193.398438 9.433594 193.671875 9.15625 193.671875 8.816406 C 193.671875 8.476562 193.398438 8.199219 193.058594 8.199219 Z M 193.058594 8.199219 " clip-rule="nonzero"/></clipPath><clipPath id="8b8c363d20"><path d="M 2.964844 25.28125 L 194.042969 25.28125 L 194.042969 27 L 2.964844 27 Z M 2.964844 25.28125 " clip-rule="nonzero"/></clipPath><clipPath id="5c0ebd147a"><path d="M 2.964844 28 L 194.042969 28 L 194.042969 28.910156 L 2.964844 28.910156 Z M 2.964844 28 " clip-rule="nonzero"/></clipPath><clipPath id="3abb123ce4"><path d="M 2.964844 0 L 192.542969 0 L 192.542969 2 L 2.964844 2 Z M 2.964844 0 " clip-rule="nonzero"/></clipPath><clipPath id="b6917f382d"><path d="M 2.964844 3 L 192.542969 3 L 192.542969 3.628906 L 2.964844 3.628906 Z M 2.964844 3 " clip-rule="nonzero"/></clipPath></defs><g clip-path="url(#14e502c5fd)"><path fill="#ffffff" d="M 2.964844 0 L 202.558594 0 L 202.558594 29.03125 L 2.964844 29.03125 Z M 2.964844 0 " fill-opacity="1" fill-rule="nonzero"/><path fill="#4d0733" d="M 2.964844 0 L 202.558594 0 L 202.558594 29.03125 L 2.964844 29.03125 Z M 2.964844 0 " fill-opacity="1" fill-rule="nonzero"/></g><g clip-path="url(#6d1e50d1f1)"><path fill="#f7838d" d="M 8.984375 -2.011719 L 205.679688 -2.011719 L 205.679688 1.636719 L 8.984375 1.636719 Z M 8.984375 -2.011719 " fill-opacity="1" fill-rule="nonzero"/></g><g clip-path="url(#2cd5d3bf05)"><path fill="#f7838d" d="M 8.984375 3.132812 L 205.679688 3.132812 L 205.679688 4.113281 L 8.984375 4.113281 Z M 8.984375 3.132812 " fill-opacity="1" fill-rule="nonzero"/></g><g clip-path="url(#5cdf2a685d)"><path fill="#f7838d" d="M 8.984375 23.273438 L 205.679688 23.273438 L 205.679688 26.917969 L 8.984375 26.917969 Z M 8.984375 23.273438 " fill-opacity="1" fill-rule="nonzero"/></g><g clip-path="url(#1b2f420814)"><path fill="#f7838d" d="M 8.984375 28.414062 L 205.679688 28.414062 L 205.679688 29.394531 L 8.984375 29.394531 Z M 8.984375 28.414062 " fill-opacity="1" fill-rule="nonzero"/></g><g clip-path="url(#8e1f59c91d)"><g clip-path="url(#e35735d082)"><path fill="#f7838d" d="M 5.988281 8.566406 L 17.066406 8.566406 L 17.066406 19.105469 L 5.988281 19.105469 Z M 5.988281 8.566406 " fill-opacity="1" fill-rule="nonzero"/></g></g><g clip-path="url(#0b23e1b22e)"><g clip-path="url(#9fbd7ffe8b)"><path fill="#f7838d" d="M 5.867188 12.214844 L 7.097656 12.214844 L 7.097656 13.445312 L 5.867188 13.445312 Z M 5.867188 12.214844 " fill-opacity="1" fill-rule="nonzero"/></g></g><g clip-path="url(#c845a594fc)"><g clip-path="url(#f9c4343358)"><path fill="#f7838d" d="M 16.074219 12.214844 L 17.304688 12.214844 L 17.304688 13.445312 L 16.074219 13.445312 Z M 16.074219 12.214844 " fill-opacity="1" fill-rule="nonzero"/></g></g><g clip-path="url(#6bec667ed5)"><g clip-path="url(#895fb6bcb6)"><path fill="#f7838d" d="M 14.183594 18.316406 L 15.417969 18.316406 L 15.417969 19.546875 L 14.183594 19.546875 Z M 14.183594 18.316406 " fill-opacity="1" fill-rule="nonzero"/></g></g><g clip-path="url(#4791aa6a4a)"><g clip-path="url(#fbd2a369b2)"><path fill="#f7838d" d="M 7.628906 18.316406 L 8.859375 18.316406 L 8.859375 19.546875 L 7.628906 19.546875 Z M 7.628906 18.316406 " fill-opacity="1" fill-rule="nonzero"/></g></g><g clip-path="url(#e530cf1370)"><g clip-path="url(#589f4f79b9)"><path fill="#f7838d" d="M 10.902344 8.199219 L 12.132812 8.199219 L 12.132812 9.433594 L 10.902344 9.433594 Z M 10.902344 8.199219 " fill-opacity="1" fill-rule="nonzero"/></g></g><g clip-path="url(#429e40aa32)"><g clip-path="url(#a7da35a575)"><path fill="#f7838d" d="M 187.527344 8.566406 L 198.605469 8.566406 L 198.605469 19.105469 L 187.527344 19.105469 Z M 187.527344 8.566406 " fill-opacity="1" fill-rule="nonzero"/></g></g><g clip-path="url(#e533d43364)"><g clip-path="url(#8dc5c008ae)"><path fill="#f7838d" d="M 187.40625 12.214844 L 188.636719 12.214844 L 188.636719 13.445312 L 187.40625 13.445312 Z M 187.40625 12.214844 " fill-opacity="1" fill-rule="nonzero"/></g></g><g clip-path="url(#7af53925ba)"><g clip-path="url(#8a3cbf84e9)"><path fill="#f7838d" d="M 197.613281 12.214844 L 198.84375 12.214844 L 198.84375 13.445312 L 197.613281 13.445312 Z M 197.613281 12.214844 " fill-opacity="1" fill-rule="nonzero"/></g></g><g clip-path="url(#d43d5903da)"><g clip-path="url(#eaee287480)"><path fill="#f7838d" d="M 195.722656 18.316406 L 196.957031 18.316406 L 196.957031 19.546875 L 195.722656 19.546875 Z M 195.722656 18.316406 " fill-opacity="1" fill-rule="nonzero"/></g></g><g clip-path="url(#d4e0599a14)"><g clip-path="url(#fd2b97eb75)"><path fill="#f7838d" d="M 189.167969 18.316406 L 190.398438 18.316406 L 190.398438 19.546875 L 189.167969 19.546875 Z M 189.167969 18.316406 " fill-opacity="1" fill-rule="nonzero"/></g></g><g clip-path="url(#8095b9b383)"><g clip-path="url(#c032421544)"><path fill="#f7838d" d="M 192.441406 8.199219 L 193.671875 8.199219 L 193.671875 9.433594 L 192.441406 9.433594 Z M 192.441406 8.199219 " fill-opacity="1" fill-rule="nonzero"/></g></g><g clip-path="url(#8b8c363d20)"><path fill="#f7838d" d="M -0.398438 23.273438 L 196.296875 23.273438 L 196.296875 26.917969 L -0.398438 26.917969 Z M -0.398438 23.273438 " fill-opacity="1" fill-rule="nonzero"/></g><g clip-path="url(#5c0ebd147a)"><path fill="#f7838d" d="M -0.398438 28.414062 L 196.296875 28.414062 L 196.296875 29.394531 L -0.398438 29.394531 Z M -0.398438 28.414062 " fill-opacity="1" fill-rule="nonzero"/></g><g clip-path="url(#3abb123ce4)"><path fill="#f7838d" d="M -1.902344 -2.011719 L 194.792969 -2.011719 L 194.792969 1.636719 L -1.902344 1.636719 Z M -1.902344 -2.011719 " fill-opacity="1" fill-rule="nonzero"/></g><g clip-path="url(#b6917f382d)"><path fill="#f7838d" d="M -1.902344 3.132812 L 194.792969 3.132812 L 194.792969 4.113281 L -1.902344 4.113281 Z M -1.902344 3.132812 " fill-opacity="1" fill-rule="nonzero"/></g><g fill="#ffffff" fill-opacity="1"><g transform="translate(29.10757, 18.146003)"><g><path d="M 3.203125 -0.078125 C 3.003906 0.046875 2.78125 0.109375 2.53125 0.109375 C 2.289062 0.109375 2.078125 0.0507812 1.890625 -0.0625 C 1.691406 0.0507812 1.507812 0.109375 1.34375 0.109375 C 1.1875 0.109375 1.050781 0.09375 0.9375 0.0625 C 0.832031 0.0390625 0.742188 0.00390625 0.671875 -0.046875 C 0.503906 -0.140625 0.421875 -0.257812 0.421875 -0.40625 C 0.421875 -0.488281 0.441406 -0.554688 0.484375 -0.609375 C 0.566406 -0.546875 0.675781 -0.515625 0.8125 -0.515625 C 1.144531 -0.515625 1.375 -0.660156 1.5 -0.953125 L 1.5 -3.71875 C 1.5 -3.894531 1.460938 -4.023438 1.390625 -4.109375 C 1.273438 -4.242188 1.082031 -4.378906 0.8125 -4.515625 C 1.070312 -4.628906 1.238281 -4.734375 1.3125 -4.828125 C 1.4375 -4.972656 1.5 -5.140625 1.5 -5.328125 L 1.5 -7.71875 C 1.375 -8.007812 1.144531 -8.15625 0.8125 -8.15625 C 0.675781 -8.15625 0.566406 -8.125 0.484375 -8.0625 C 0.441406 -8.113281 0.421875 -8.175781 0.421875 -8.25 C 0.421875 -8.320312 0.441406 -8.390625 0.484375 -8.453125 C 0.535156 -8.523438 0.597656 -8.582031 0.671875 -8.625 C 0.835938 -8.726562 1.035156 -8.78125 1.265625 -8.78125 C 1.492188 -8.78125 1.703125 -8.71875 1.890625 -8.59375 C 2.085938 -8.71875 2.304688 -8.78125 2.546875 -8.78125 C 2.785156 -8.78125 3 -8.722656 3.1875 -8.609375 C 3.5625 -8.765625 3.984375 -8.84375 4.453125 -8.84375 C 4.929688 -8.84375 5.34375 -8.785156 5.6875 -8.671875 C 6.03125 -8.566406 6.335938 -8.414062 6.609375 -8.21875 C 7.179688 -7.8125 7.5625 -7.273438 7.75 -6.609375 C 7.820312 -6.347656 8 -6.132812 8.28125 -5.96875 C 7.988281 -5.800781 7.796875 -5.550781 7.703125 -5.21875 C 7.609375 -4.894531 7.445312 -4.59375 7.21875 -4.3125 C 6.988281 -4.03125 6.722656 -3.796875 6.421875 -3.609375 C 5.828125 -3.222656 5.191406 -3.03125 4.515625 -3.03125 C 4.210938 -3.03125 3.90625 -3.066406 3.59375 -3.140625 L 3.59375 -0.96875 C 3.6875 -0.75 3.894531 -0.609375 4.21875 -0.546875 C 4.300781 -0.523438 4.390625 -0.515625 4.484375 -0.515625 C 4.585938 -0.515625 4.679688 -0.546875 4.765625 -0.609375 C 4.804688 -0.554688 4.828125 -0.492188 4.828125 -0.421875 C 4.828125 -0.347656 4.800781 -0.273438 4.75 -0.203125 C 4.695312 -0.140625 4.625 -0.0859375 4.53125 -0.046875 C 4.332031 0.0546875 4.113281 0.109375 3.875 0.109375 C 3.632812 0.109375 3.410156 0.046875 3.203125 -0.078125 Z M 3.59375 -4.625 C 3.59375 -4.363281 3.6875 -4.15625 3.875 -4 C 4.039062 -3.851562 4.265625 -3.78125 4.546875 -3.78125 C 4.960938 -3.78125 5.257812 -3.941406 5.4375 -4.265625 C 5.5 -4.367188 5.53125 -4.503906 5.53125 -4.671875 L 5.53125 -7.234375 C 5.53125 -7.503906 5.425781 -7.71875 5.21875 -7.875 C 5.03125 -8.007812 4.84375 -8.078125 4.65625 -8.078125 C 4.46875 -8.078125 4.316406 -8.054688 4.203125 -8.015625 C 4.085938 -7.984375 3.984375 -7.9375 3.890625 -7.875 C 3.691406 -7.707031 3.59375 -7.484375 3.59375 -7.203125 Z M 5.90625 -4.03125 C 5.988281 -4.050781 6.078125 -4.15625 6.171875 -4.34375 C 6.265625 -4.539062 6.332031 -4.773438 6.375 -5.046875 C 6.425781 -5.316406 6.488281 -5.515625 6.5625 -5.640625 C 6.632812 -5.765625 6.75 -5.851562 6.90625 -5.90625 C 6.644531 -5.988281 6.476562 -6.21875 6.40625 -6.59375 C 6.34375 -6.976562 6.265625 -7.257812 6.171875 -7.4375 C 6.078125 -7.613281 5.988281 -7.707031 5.90625 -7.71875 C 6.039062 -7.40625 6.109375 -6.800781 6.109375 -5.90625 C 6.109375 -5.3125 6.078125 -4.863281 6.015625 -4.5625 C 5.960938 -4.257812 5.925781 -4.082031 5.90625 -4.03125 Z M 2.046875 -1.5 C 2.234375 -1.570312 2.335938 -1.820312 2.359375 -2.25 C 2.378906 -2.664062 2.390625 -3.25 2.390625 -4 C 2.390625 -4.75 2.390625 -5.242188 2.390625 -5.484375 C 2.390625 -5.734375 2.382812 -5.9375 2.375 -6.09375 C 2.363281 -6.539062 2.320312 -6.8125 2.25 -6.90625 C 2.175781 -7 2.109375 -7.054688 2.046875 -7.078125 C 2.046875 -5.765625 2.023438 -5.019531 1.984375 -4.84375 C 1.929688 -4.6875 1.800781 -4.578125 1.59375 -4.515625 C 1.820312 -4.441406 1.953125 -4.347656 1.984375 -4.234375 C 2.023438 -4.046875 2.046875 -3.378906 2.046875 -2.234375 Z M 2.046875 -1.5 "/></g></g></g><g fill="#ffffff" fill-opacity="1"><g transform="translate(37.174281, 18.146003)"><g><path d="M 2.546875 0.109375 C 2.296875 0.109375 2.078125 0.0507812 1.890625 -0.0625 C 1.691406 0.0507812 1.507812 0.109375 1.34375 0.109375 C 1.1875 0.109375 1.050781 0.09375 0.9375 0.0625 C 0.832031 0.0390625 0.742188 0.00390625 0.671875 -0.046875 C 0.503906 -0.140625 0.421875 -0.257812 0.421875 -0.40625 C 0.421875 -0.488281 0.441406 -0.554688 0.484375 -0.609375 C 0.566406 -0.546875 0.675781 -0.515625 0.8125 -0.515625 C 1.144531 -0.515625 1.375 -0.660156 1.5 -0.953125 L 1.5 -3.71875 C 1.5 -3.894531 1.460938 -4.023438 1.390625 -4.109375 C 1.273438 -4.242188 1.082031 -4.378906 0.8125 -4.515625 C 1.070312 -4.628906 1.238281 -4.734375 1.3125 -4.828125 C 1.4375 -4.972656 1.5 -5.140625 1.5 -5.328125 L 1.5 -7.71875 C 1.375 -8.007812 1.144531 -8.15625 0.8125 -8.15625 C 0.675781 -8.15625 0.566406 -8.125 0.484375 -8.0625 C 0.441406 -8.113281 0.421875 -8.175781 0.421875 -8.25 C 0.421875 -8.320312 0.441406 -8.390625 0.484375 -8.453125 C 0.535156 -8.523438 0.597656 -8.582031 0.671875 -8.625 C 0.835938 -8.726562 1.035156 -8.78125 1.265625 -8.78125 C 1.492188 -8.78125 1.703125 -8.71875 1.890625 -8.59375 C 2.085938 -8.71875 2.3125 -8.78125 2.5625 -8.78125 C 2.8125 -8.78125 3.039062 -8.707031 3.25 -8.5625 C 3.65625 -8.707031 4.117188 -8.78125 4.640625 -8.78125 C 5.023438 -8.78125 5.359375 -8.742188 5.640625 -8.671875 L 6.140625 -8.53125 C 6.203125 -8.519531 6.265625 -8.515625 6.328125 -8.515625 C 6.429688 -8.515625 6.484375 -8.585938 6.484375 -8.734375 C 6.484375 -8.773438 6.46875 -8.84375 6.4375 -8.9375 C 6.539062 -8.957031 6.671875 -8.96875 6.828125 -8.96875 C 6.992188 -8.96875 7.132812 -8.910156 7.25 -8.796875 C 7.363281 -8.691406 7.421875 -8.535156 7.421875 -8.328125 C 7.421875 -8.128906 7.382812 -7.984375 7.3125 -7.890625 C 7.414062 -7.734375 7.46875 -7.546875 7.46875 -7.328125 C 7.46875 -7.117188 7.394531 -6.941406 7.25 -6.796875 C 7.289062 -6.679688 7.3125 -6.566406 7.3125 -6.453125 C 7.3125 -6.347656 7.289062 -6.25 7.25 -6.15625 C 7.21875 -6.070312 7.175781 -6 7.125 -5.9375 C 7.019531 -5.832031 6.914062 -5.78125 6.8125 -5.78125 C 6.644531 -5.78125 6.5 -5.8125 6.375 -5.875 C 6.414062 -5.96875 6.4375 -6.101562 6.4375 -6.28125 C 6.4375 -6.695312 6.335938 -7.0625 6.140625 -7.375 C 5.847656 -7.800781 5.421875 -8.015625 4.859375 -8.015625 C 4.566406 -8.015625 4.304688 -7.945312 4.078125 -7.8125 C 3.847656 -7.675781 3.6875 -7.472656 3.59375 -7.203125 L 3.59375 -5.015625 C 3.71875 -4.929688 3.835938 -4.890625 3.953125 -4.890625 C 4.066406 -4.890625 4.15625 -4.890625 4.21875 -4.890625 C 4.28125 -4.898438 4.34375 -4.910156 4.40625 -4.921875 C 4.550781 -4.941406 4.664062 -4.972656 4.75 -5.015625 C 4.914062 -5.085938 5 -5.269531 5 -5.5625 C 5 -5.726562 4.957031 -5.859375 4.875 -5.953125 C 4.945312 -6.003906 5.039062 -6.03125 5.15625 -6.03125 C 5.40625 -6.03125 5.585938 -5.925781 5.703125 -5.71875 C 5.742188 -5.65625 5.765625 -5.578125 5.765625 -5.484375 C 5.765625 -5.398438 5.742188 -5.296875 5.703125 -5.171875 C 5.859375 -4.984375 5.9375 -4.769531 5.9375 -4.53125 C 5.9375 -4.289062 5.859375 -4.082031 5.703125 -3.90625 C 5.742188 -3.769531 5.765625 -3.648438 5.765625 -3.546875 C 5.765625 -3.441406 5.742188 -3.34375 5.703125 -3.25 C 5.660156 -3.15625 5.613281 -3.082031 5.5625 -3.03125 C 5.4375 -2.925781 5.300781 -2.875 5.15625 -2.875 C 5.050781 -2.875 4.957031 -2.898438 4.875 -2.953125 C 4.957031 -3.085938 5 -3.242188 5 -3.421875 C 5 -3.773438 4.898438 -3.992188 4.703125 -4.078125 C 4.535156 -4.140625 4.34375 -4.171875 4.125 -4.171875 C 3.90625 -4.171875 3.726562 -4.132812 3.59375 -4.0625 L 3.59375 -1.21875 C 3.8125 -0.832031 4.234375 -0.640625 4.859375 -0.640625 C 5.566406 -0.640625 6.050781 -0.859375 6.3125 -1.296875 C 6.601562 -1.804688 6.75 -2.347656 6.75 -2.921875 C 6.75 -3.085938 6.738281 -3.21875 6.71875 -3.3125 C 6.8125 -3.40625 6.90625 -3.453125 7 -3.453125 C 7.101562 -3.453125 7.179688 -3.4375 7.234375 -3.40625 C 7.285156 -3.375 7.332031 -3.335938 7.375 -3.296875 C 7.46875 -3.191406 7.515625 -3.085938 7.515625 -2.984375 L 7.484375 -2.703125 C 7.484375 -2.640625 7.503906 -2.582031 7.546875 -2.53125 C 7.617188 -2.457031 7.65625 -2.382812 7.65625 -2.3125 C 7.65625 -2.238281 7.628906 -2.15625 7.578125 -2.0625 C 7.671875 -2.007812 7.75 -1.929688 7.8125 -1.828125 C 7.882812 -1.734375 7.921875 -1.640625 7.921875 -1.546875 C 7.921875 -1.328125 7.832031 -1.132812 7.65625 -0.96875 C 7.726562 -0.851562 7.765625 -0.6875 7.765625 -0.46875 C 7.765625 -0.257812 7.703125 -0.0820312 7.578125 0.0625 C 7.460938 0.21875 7.304688 0.296875 7.109375 0.296875 C 7.003906 0.296875 6.894531 0.285156 6.78125 0.265625 C 6.789062 0.179688 6.796875 0.0976562 6.796875 0.015625 C 6.796875 -0.160156 6.71875 -0.25 6.5625 -0.25 C 6.382812 -0.25 6.207031 -0.210938 6.03125 -0.140625 C 5.613281 0.0234375 5.132812 0.109375 4.59375 0.109375 C 4.0625 0.109375 3.609375 0.0390625 3.234375 -0.09375 C 3.035156 0.0390625 2.804688 0.109375 2.546875 0.109375 Z M 2.046875 -1.5 C 2.234375 -1.570312 2.335938 -1.820312 2.359375 -2.25 C 2.378906 -2.664062 2.390625 -3.25 2.390625 -4 C 2.390625 -4.75 2.390625 -5.242188 2.390625 -5.484375 C 2.390625 -5.734375 2.382812 -5.9375 2.375 -6.09375 C 2.363281 -6.539062 2.320312 -6.8125 2.25 -6.90625 C 2.175781 -7 2.109375 -7.054688 2.046875 -7.078125 C 2.046875 -5.765625 2.023438 -5.019531 1.984375 -4.84375 C 1.929688 -4.6875 1.800781 -4.578125 1.59375 -4.515625 C 1.820312 -4.441406 1.953125 -4.347656 1.984375 -4.234375 C 2.023438 -4.046875 2.046875 -3.378906 2.046875 -2.234375 Z M 3.46875 -1.5625 C 3.46875 -1.550781 3.472656 -1.539062 3.484375 -1.53125 Z M 3.46875 -1.5625 "/></g></g></g><g fill="#ffffff" fill-opacity="1"><g transform="translate(45.3373, 18.146003)"><g><path d="M 1.4375 -0.046875 C 1.300781 0.0546875 1.140625 0.109375 0.953125 0.109375 C 0.773438 0.109375 0.632812 0.0625 0.53125 -0.03125 C 0.425781 -0.125 0.375 -0.226562 0.375 -0.34375 C 0.375 -0.46875 0.390625 -0.554688 0.421875 -0.609375 C 0.535156 -0.546875 0.707031 -0.515625 0.9375 -0.515625 C 1.175781 -0.515625 1.375 -0.675781 1.53125 -1 L 1.53125 -3.71875 C 1.53125 -3.894531 1.492188 -4.023438 1.421875 -4.109375 C 1.304688 -4.242188 1.113281 -4.378906 0.84375 -4.515625 C 1.113281 -4.648438 1.285156 -4.757812 1.359375 -4.84375 C 1.472656 -4.988281 1.53125 -5.148438 1.53125 -5.328125 L 1.53125 -7.71875 C 1.40625 -8.007812 1.171875 -8.15625 0.828125 -8.15625 C 0.703125 -8.15625 0.597656 -8.125 0.515625 -8.0625 C 0.472656 -8.113281 0.453125 -8.175781 0.453125 -8.25 C 0.453125 -8.332031 0.46875 -8.40625 0.5 -8.46875 C 0.539062 -8.53125 0.59375 -8.585938 0.65625 -8.640625 C 0.789062 -8.734375 0.96875 -8.78125 1.1875 -8.78125 C 1.414062 -8.78125 1.609375 -8.71875 1.765625 -8.59375 C 1.867188 -8.71875 2.015625 -8.78125 2.203125 -8.78125 C 2.390625 -8.78125 2.539062 -8.71875 2.65625 -8.59375 C 2.757812 -8.71875 2.867188 -8.78125 2.984375 -8.78125 C 3.097656 -8.78125 3.1875 -8.769531 3.25 -8.75 C 3.3125 -8.726562 3.363281 -8.695312 3.40625 -8.65625 C 3.457031 -8.613281 3.523438 -8.519531 3.609375 -8.375 L 7.125 -2.046875 L 7.125 -3.765625 C 7.125 -3.929688 7.085938 -4.054688 7.015625 -4.140625 C 6.898438 -4.253906 6.703125 -4.378906 6.421875 -4.515625 C 6.679688 -4.640625 6.851562 -4.742188 6.9375 -4.828125 C 7.0625 -4.960938 7.125 -5.109375 7.125 -5.265625 L 7.125 -7.640625 C 7.03125 -7.804688 6.921875 -7.929688 6.796875 -8.015625 C 6.671875 -8.109375 6.523438 -8.15625 6.359375 -8.15625 C 6.203125 -8.15625 6.070312 -8.125 5.96875 -8.0625 C 5.925781 -8.125 5.90625 -8.210938 5.90625 -8.328125 C 5.90625 -8.453125 5.960938 -8.554688 6.078125 -8.640625 C 6.191406 -8.734375 6.34375 -8.78125 6.53125 -8.78125 C 6.71875 -8.78125 6.890625 -8.734375 7.046875 -8.640625 C 7.171875 -8.734375 7.316406 -8.78125 7.484375 -8.78125 C 7.660156 -8.78125 7.816406 -8.734375 7.953125 -8.640625 C 8.097656 -8.734375 8.257812 -8.78125 8.4375 -8.78125 C 8.613281 -8.78125 8.753906 -8.734375 8.859375 -8.640625 C 8.972656 -8.554688 9.03125 -8.453125 9.03125 -8.328125 C 9.03125 -8.203125 9.007812 -8.113281 8.96875 -8.0625 C 8.863281 -8.125 8.6875 -8.15625 8.4375 -8.15625 C 8.195312 -8.15625 8.007812 -7.992188 7.875 -7.671875 L 7.875 -5.265625 C 7.875 -5.109375 7.90625 -4.992188 7.96875 -4.921875 C 8.082031 -4.796875 8.28125 -4.660156 8.5625 -4.515625 C 8.25 -4.347656 8.066406 -4.234375 8.015625 -4.171875 C 7.921875 -4.066406 7.875 -3.929688 7.875 -3.765625 L 7.96875 -0.890625 C 8.101562 -0.640625 8.316406 -0.515625 8.609375 -0.515625 C 8.734375 -0.515625 8.835938 -0.546875 8.921875 -0.609375 C 8.960938 -0.554688 8.984375 -0.488281 8.984375 -0.40625 C 8.984375 -0.332031 8.960938 -0.265625 8.921875 -0.203125 C 8.890625 -0.140625 8.84375 -0.0820312 8.78125 -0.03125 C 8.65625 0.0625 8.492188 0.109375 8.296875 0.109375 C 8.109375 0.109375 7.941406 0.0703125 7.796875 0 C 7.492188 0.164062 7.1875 0.148438 6.875 -0.046875 C 6.757812 0.0546875 6.644531 0.109375 6.53125 0.109375 C 6.425781 0.109375 6.347656 0.0976562 6.296875 0.078125 C 6.242188 0.0664062 6.191406 0.0351562 6.140625 -0.015625 C 6.066406 -0.0859375 5.957031 -0.269531 5.8125 -0.5625 L 2.328125 -6.5625 L 2.328125 -1 C 2.484375 -0.675781 2.675781 -0.515625 2.90625 -0.515625 C 3.144531 -0.515625 3.320312 -0.546875 3.4375 -0.609375 C 3.476562 -0.546875 3.5 -0.453125 3.5 -0.328125 C 3.5 -0.210938 3.4375 -0.109375 3.3125 -0.015625 C 3.195312 0.0664062 3.046875 0.109375 2.859375 0.109375 C 2.679688 0.109375 2.515625 0.0625 2.359375 -0.03125 C 2.222656 0.0625 2.066406 0.109375 1.890625 0.109375 C 1.710938 0.109375 1.5625 0.0546875 1.4375 -0.046875 Z M 5.875 -1.5 C 5.894531 -1.53125 5.90625 -1.582031 5.90625 -1.65625 C 5.90625 -1.738281 5.894531 -1.820312 5.875 -1.90625 C 5.851562 -2 5.828125 -2.097656 5.796875 -2.203125 C 5.710938 -2.421875 5.609375 -2.648438 5.484375 -2.890625 L 3.078125 -7.078125 C 3.046875 -7.046875 3.03125 -6.972656 3.03125 -6.859375 C 3.03125 -6.617188 3.191406 -6.207031 3.515625 -5.625 Z M 5.875 -1.5 "/></g></g></g><g fill="#ffffff" fill-opacity="1"><g transform="translate(54.729581, 18.146003)"><g><path d="M 6.390625 -0.140625 C 5.804688 0.0664062 5.226562 0.171875 4.65625 0.171875 C 4.082031 0.171875 3.582031 0.0859375 3.15625 -0.078125 C 2.738281 -0.242188 2.367188 -0.484375 2.046875 -0.796875 C 1.347656 -1.453125 0.9375 -2.367188 0.8125 -3.546875 C 0.75 -4.035156 0.554688 -4.359375 0.234375 -4.515625 C 0.554688 -4.671875 0.75 -4.992188 0.8125 -5.484375 C 0.875 -5.984375 1.015625 -6.441406 1.234375 -6.859375 C 1.460938 -7.285156 1.753906 -7.648438 2.109375 -7.953125 C 2.835938 -8.546875 3.75 -8.84375 4.84375 -8.84375 C 5.59375 -8.84375 6.222656 -8.671875 6.734375 -8.328125 C 7.203125 -8.003906 7.492188 -7.585938 7.609375 -7.078125 C 7.671875 -6.796875 7.75 -6.617188 7.84375 -6.546875 C 7.882812 -6.515625 7.929688 -6.488281 7.984375 -6.46875 C 7.765625 -6.132812 7.539062 -5.992188 7.3125 -6.046875 C 7.25 -6.066406 7.191406 -6.082031 7.140625 -6.09375 C 7.066406 -5.925781 6.960938 -5.785156 6.828125 -5.671875 C 6.691406 -5.566406 6.539062 -5.503906 6.375 -5.484375 C 6.21875 -5.472656 6.117188 -5.488281 6.078125 -5.53125 C 6.171875 -5.664062 6.21875 -5.84375 6.21875 -6.0625 C 6.21875 -6.082031 6.210938 -6.113281 6.203125 -6.15625 C 6.179688 -6.15625 6.164062 -6.15625 6.15625 -6.15625 C 6.144531 -6.15625 6.117188 -6.148438 6.078125 -6.140625 C 6.035156 -6.140625 5.972656 -6.15625 5.890625 -6.1875 C 5.816406 -6.21875 5.75 -6.257812 5.6875 -6.3125 C 5.539062 -6.425781 5.460938 -6.550781 5.453125 -6.6875 C 5.453125 -6.71875 5.457031 -6.75 5.46875 -6.78125 C 5.707031 -6.707031 5.929688 -6.757812 6.140625 -6.9375 C 6.285156 -7.0625 6.351562 -7.191406 6.34375 -7.328125 C 6.34375 -7.472656 6.304688 -7.59375 6.234375 -7.6875 C 6.160156 -7.78125 6.0625 -7.859375 5.9375 -7.921875 C 5.644531 -8.078125 5.273438 -8.15625 4.828125 -8.15625 C 3.804688 -8.15625 3.296875 -7.5625 3.296875 -6.375 L 3.296875 -5.4375 C 3.296875 -5.007812 3.503906 -4.703125 3.921875 -4.515625 C 3.503906 -4.316406 3.296875 -3.988281 3.296875 -3.53125 L 3.296875 -2.015625 C 3.296875 -1.535156 3.382812 -1.175781 3.5625 -0.9375 C 3.75 -0.707031 4.035156 -0.59375 4.421875 -0.59375 C 4.890625 -0.59375 5.195312 -0.800781 5.34375 -1.21875 C 5.394531 -1.351562 5.421875 -1.507812 5.421875 -1.6875 L 5.421875 -3 C 5.347656 -3.070312 5.25 -3.109375 5.125 -3.109375 C 5 -3.109375 4.894531 -3.078125 4.8125 -3.015625 C 4.769531 -3.054688 4.75 -3.132812 4.75 -3.25 C 4.75 -3.363281 4.796875 -3.472656 4.890625 -3.578125 C 4.992188 -3.679688 5.144531 -3.734375 5.34375 -3.734375 C 5.539062 -3.734375 5.707031 -3.679688 5.84375 -3.578125 C 6.019531 -3.679688 6.210938 -3.734375 6.421875 -3.734375 C 6.628906 -3.734375 6.820312 -3.679688 7 -3.578125 C 7.15625 -3.679688 7.300781 -3.734375 7.4375 -3.734375 C 7.582031 -3.734375 7.691406 -3.71875 7.765625 -3.6875 C 7.847656 -3.664062 7.921875 -3.632812 7.984375 -3.59375 C 8.117188 -3.488281 8.1875 -3.363281 8.1875 -3.21875 C 8.1875 -3.125 8.164062 -3.054688 8.125 -3.015625 C 8.039062 -3.078125 7.925781 -3.109375 7.78125 -3.109375 C 7.644531 -3.109375 7.515625 -2.984375 7.390625 -2.734375 L 7.390625 -0.875 C 7.460938 -0.632812 7.617188 -0.515625 7.859375 -0.515625 C 7.953125 -0.515625 8.039062 -0.546875 8.125 -0.609375 C 8.164062 -0.554688 8.1875 -0.488281 8.1875 -0.40625 C 8.1875 -0.257812 8.097656 -0.132812 7.921875 -0.03125 C 7.753906 0.0625 7.515625 0.109375 7.203125 0.109375 C 6.890625 0.109375 6.617188 0.0234375 6.390625 -0.140625 Z M 2.09375 -1.5 C 2.144531 -1.519531 2.171875 -1.5625 2.171875 -1.625 C 2.171875 -1.707031 2.128906 -1.835938 2.046875 -2.015625 C 1.972656 -2.191406 1.898438 -2.492188 1.828125 -2.921875 C 1.765625 -3.359375 1.734375 -3.859375 1.734375 -4.421875 C 1.734375 -5.335938 1.84375 -6.125 2.0625 -6.78125 C 2.09375 -6.875 2.109375 -6.941406 2.109375 -6.984375 C 2.109375 -7.035156 2.082031 -7.066406 2.03125 -7.078125 C 1.851562 -6.859375 1.726562 -6.640625 1.65625 -6.421875 C 1.519531 -6.023438 1.410156 -5.484375 1.328125 -4.796875 C 1.304688 -4.691406 1.191406 -4.597656 0.984375 -4.515625 C 1.191406 -4.421875 1.304688 -4.328125 1.328125 -4.234375 C 1.460938 -3.054688 1.632812 -2.269531 1.84375 -1.875 C 1.914062 -1.738281 2 -1.613281 2.09375 -1.5 Z M 6.015625 -1.15625 C 6.234375 -1.289062 6.34375 -1.53125 6.34375 -1.875 L 6.34375 -2.203125 C 6.34375 -2.523438 6.234375 -2.734375 6.015625 -2.828125 Z M 7.34375 -1.0625 L 7.328125 -1.171875 Z M 7.34375 -1.0625 "/></g></g></g><g fill="#ffffff" fill-opacity="1"><g transform="translate(63.073874, 18.146003)"><g><path d="M 2.546875 0.109375 C 2.296875 0.109375 2.078125 0.0507812 1.890625 -0.0625 C 1.691406 0.0507812 1.507812 0.109375 1.34375 0.109375 C 1.1875 0.109375 1.050781 0.09375 0.9375 0.0625 C 0.832031 0.0390625 0.742188 0.00390625 0.671875 -0.046875 C 0.503906 -0.140625 0.421875 -0.257812 0.421875 -0.40625 C 0.421875 -0.488281 0.441406 -0.554688 0.484375 -0.609375 C 0.566406 -0.546875 0.675781 -0.515625 0.8125 -0.515625 C 1.144531 -0.515625 1.375 -0.660156 1.5 -0.953125 L 1.5 -3.71875 C 1.5 -3.894531 1.460938 -4.023438 1.390625 -4.109375 C 1.273438 -4.242188 1.082031 -4.378906 0.8125 -4.515625 C 1.070312 -4.628906 1.238281 -4.734375 1.3125 -4.828125 C 1.4375 -4.972656 1.5 -5.140625 1.5 -5.328125 L 1.5 -7.71875 C 1.375 -8.007812 1.144531 -8.15625 0.8125 -8.15625 C 0.675781 -8.15625 0.566406 -8.125 0.484375 -8.0625 C 0.441406 -8.113281 0.421875 -8.175781 0.421875 -8.25 C 0.421875 -8.320312 0.441406 -8.390625 0.484375 -8.453125 C 0.535156 -8.523438 0.597656 -8.582031 0.671875 -8.625 C 0.835938 -8.726562 1.035156 -8.78125 1.265625 -8.78125 C 1.492188 -8.78125 1.703125 -8.71875 1.890625 -8.59375 C 2.085938 -8.71875 2.3125 -8.78125 2.5625 -8.78125 C 2.8125 -8.78125 3.039062 -8.707031 3.25 -8.5625 C 3.65625 -8.707031 4.117188 -8.78125 4.640625 -8.78125 C 5.023438 -8.78125 5.359375 -8.742188 5.640625 -8.671875 L 6.140625 -8.53125 C 6.203125 -8.519531 6.265625 -8.515625 6.328125 -8.515625 C 6.429688 -8.515625 6.484375 -8.585938 6.484375 -8.734375 C 6.484375 -8.773438 6.46875 -8.84375 6.4375 -8.9375 C 6.539062 -8.957031 6.671875 -8.96875 6.828125 -8.96875 C 6.992188 -8.96875 7.132812 -8.910156 7.25 -8.796875 C 7.363281 -8.691406 7.421875 -8.535156 7.421875 -8.328125 C 7.421875 -8.128906 7.382812 -7.984375 7.3125 -7.890625 C 7.414062 -7.734375 7.46875 -7.546875 7.46875 -7.328125 C 7.46875 -7.117188 7.394531 -6.941406 7.25 -6.796875 C 7.289062 -6.679688 7.3125 -6.566406 7.3125 -6.453125 C 7.3125 -6.347656 7.289062 -6.25 7.25 -6.15625 C 7.21875 -6.070312 7.175781 -6 7.125 -5.9375 C 7.019531 -5.832031 6.914062 -5.78125 6.8125 -5.78125 C 6.644531 -5.78125 6.5 -5.8125 6.375 -5.875 C 6.414062 -5.96875 6.4375 -6.101562 6.4375 -6.28125 C 6.4375 -6.695312 6.335938 -7.0625 6.140625 -7.375 C 5.847656 -7.800781 5.421875 -8.015625 4.859375 -8.015625 C 4.566406 -8.015625 4.304688 -7.945312 4.078125 -7.8125 C 3.847656 -7.675781 3.6875 -7.472656 3.59375 -7.203125 L 3.59375 -5.015625 C 3.71875 -4.929688 3.835938 -4.890625 3.953125 -4.890625 C 4.066406 -4.890625 4.15625 -4.890625 4.21875 -4.890625 C 4.28125 -4.898438 4.34375 -4.910156 4.40625 -4.921875 C 4.550781 -4.941406 4.664062 -4.972656 4.75 -5.015625 C 4.914062 -5.085938 5 -5.269531 5 -5.5625 C 5 -5.726562 4.957031 -5.859375 4.875 -5.953125 C 4.945312 -6.003906 5.039062 -6.03125 5.15625 -6.03125 C 5.40625 -6.03125 5.585938 -5.925781 5.703125 -5.71875 C 5.742188 -5.65625 5.765625 -5.578125 5.765625 -5.484375 C 5.765625 -5.398438 5.742188 -5.296875 5.703125 -5.171875 C 5.859375 -4.984375 5.9375 -4.769531 5.9375 -4.53125 C 5.9375 -4.289062 5.859375 -4.082031 5.703125 -3.90625 C 5.742188 -3.769531 5.765625 -3.648438 5.765625 -3.546875 C 5.765625 -3.441406 5.742188 -3.34375 5.703125 -3.25 C 5.660156 -3.15625 5.613281 -3.082031 5.5625 -3.03125 C 5.4375 -2.925781 5.300781 -2.875 5.15625 -2.875 C 5.050781 -2.875 4.957031 -2.898438 4.875 -2.953125 C 4.957031 -3.085938 5 -3.242188 5 -3.421875 C 5 -3.773438 4.898438 -3.992188 4.703125 -4.078125 C 4.535156 -4.140625 4.34375 -4.171875 4.125 -4.171875 C 3.90625 -4.171875 3.726562 -4.132812 3.59375 -4.0625 L 3.59375 -1.21875 C 3.8125 -0.832031 4.234375 -0.640625 4.859375 -0.640625 C 5.566406 -0.640625 6.050781 -0.859375 6.3125 -1.296875 C 6.601562 -1.804688 6.75 -2.347656 6.75 -2.921875 C 6.75 -3.085938 6.738281 -3.21875 6.71875 -3.3125 C 6.8125 -3.40625 6.90625 -3.453125 7 -3.453125 C 7.101562 -3.453125 7.179688 -3.4375 7.234375 -3.40625 C 7.285156 -3.375 7.332031 -3.335938 7.375 -3.296875 C 7.46875 -3.191406 7.515625 -3.085938 7.515625 -2.984375 L 7.484375 -2.703125 C 7.484375 -2.640625 7.503906 -2.582031 7.546875 -2.53125 C 7.617188 -2.457031 7.65625 -2.382812 7.65625 -2.3125 C 7.65625 -2.238281 7.628906 -2.15625 7.578125 -2.0625 C 7.671875 -2.007812 7.75 -1.929688 7.8125 -1.828125 C 7.882812 -1.734375 7.921875 -1.640625 7.921875 -1.546875 C 7.921875 -1.328125 7.832031 -1.132812 7.65625 -0.96875 C 7.726562 -0.851562 7.765625 -0.6875 7.765625 -0.46875 C 7.765625 -0.257812 7.703125 -0.0820312 7.578125 0.0625 C 7.460938 0.21875 7.304688 0.296875 7.109375 0.296875 C 7.003906 0.296875 6.894531 0.285156 6.78125 0.265625 C 6.789062 0.179688 6.796875 0.0976562 6.796875 0.015625 C 6.796875 -0.160156 6.71875 -0.25 6.5625 -0.25 C 6.382812 -0.25 6.207031 -0.210938 6.03125 -0.140625 C 5.613281 0.0234375 5.132812 0.109375 4.59375 0.109375 C 4.0625 0.109375 3.609375 0.0390625 3.234375 -0.09375 C 3.035156 0.0390625 2.804688 0.109375 2.546875 0.109375 Z M 2.046875 -1.5 C 2.234375 -1.570312 2.335938 -1.820312 2.359375 -2.25 C 2.378906 -2.664062 2.390625 -3.25 2.390625 -4 C 2.390625 -4.75 2.390625 -5.242188 2.390625 -5.484375 C 2.390625 -5.734375 2.382812 -5.9375 2.375 -6.09375 C 2.363281 -6.539062 2.320312 -6.8125 2.25 -6.90625 C 2.175781 -7 2.109375 -7.054688 2.046875 -7.078125 C 2.046875 -5.765625 2.023438 -5.019531 1.984375 -4.84375 C 1.929688 -4.6875 1.800781 -4.578125 1.59375 -4.515625 C 1.820312 -4.441406 1.953125 -4.347656 1.984375 -4.234375 C 2.023438 -4.046875 2.046875 -3.378906 2.046875 -2.234375 Z M 3.46875 -1.5625 C 3.46875 -1.550781 3.472656 -1.539062 3.484375 -1.53125 Z M 3.46875 -1.5625 "/></g></g></g><g fill="#ffffff" fill-opacity="1"><g transform="translate(71.236893, 18.146003)"><g><path d="M 3.203125 -0.0625 C 3.003906 0.0507812 2.78125 0.109375 2.53125 0.109375 C 2.289062 0.109375 2.078125 0.0507812 1.890625 -0.0625 C 1.691406 0.0507812 1.507812 0.109375 1.34375 0.109375 C 1.1875 0.109375 1.050781 0.09375 0.9375 0.0625 C 0.832031 0.0390625 0.742188 0.00390625 0.671875 -0.046875 C 0.503906 -0.140625 0.421875 -0.257812 0.421875 -0.40625 C 0.421875 -0.488281 0.441406 -0.554688 0.484375 -0.609375 C 0.566406 -0.546875 0.675781 -0.515625 0.8125 -0.515625 C 1.144531 -0.515625 1.375 -0.660156 1.5 -0.953125 L 1.5 -3.71875 C 1.5 -3.894531 1.460938 -4.023438 1.390625 -4.109375 C 1.273438 -4.242188 1.082031 -4.378906 0.8125 -4.515625 C 1.070312 -4.628906 1.238281 -4.734375 1.3125 -4.828125 C 1.4375 -4.972656 1.5 -5.140625 1.5 -5.328125 L 1.5 -7.71875 C 1.375 -8.007812 1.144531 -8.15625 0.8125 -8.15625 C 0.675781 -8.15625 0.566406 -8.125 0.484375 -8.0625 C 0.441406 -8.113281 0.421875 -8.175781 0.421875 -8.25 C 0.421875 -8.320312 0.441406 -8.390625 0.484375 -8.453125 C 0.535156 -8.523438 0.597656 -8.582031 0.671875 -8.625 C 0.835938 -8.726562 1.035156 -8.78125 1.265625 -8.78125 C 1.492188 -8.78125 1.703125 -8.71875 1.890625 -8.59375 C 2.085938 -8.71875 2.304688 -8.78125 2.546875 -8.78125 C 2.785156 -8.78125 3.003906 -8.71875 3.203125 -8.59375 C 3.628906 -8.757812 4.101562 -8.84375 4.625 -8.84375 C 5.144531 -8.84375 5.578125 -8.796875 5.921875 -8.703125 C 6.273438 -8.609375 6.582031 -8.472656 6.84375 -8.296875 C 7.351562 -7.941406 7.664062 -7.453125 7.78125 -6.828125 C 7.832031 -6.546875 8.015625 -6.335938 8.328125 -6.203125 C 8.035156 -6.035156 7.84375 -5.769531 7.75 -5.40625 C 7.5625 -4.65625 7.097656 -4.1875 6.359375 -4 C 6.742188 -3.894531 7.054688 -3.6875 7.296875 -3.375 C 7.546875 -3.039062 7.671875 -2.648438 7.671875 -2.203125 L 7.671875 -1.640625 C 7.671875 -1.097656 7.847656 -0.75 8.203125 -0.59375 C 8.304688 -0.539062 8.421875 -0.515625 8.546875 -0.515625 C 8.671875 -0.515625 8.773438 -0.546875 8.859375 -0.609375 C 8.898438 -0.554688 8.921875 -0.492188 8.921875 -0.421875 C 8.921875 -0.347656 8.898438 -0.273438 8.859375 -0.203125 C 8.816406 -0.140625 8.765625 -0.0859375 8.703125 -0.046875 C 8.566406 0.0546875 8.40625 0.109375 8.21875 0.109375 C 8.039062 0.109375 7.867188 0.0625 7.703125 -0.03125 C 7.378906 0.144531 7.082031 0.160156 6.8125 0.015625 C 6.707031 0.078125 6.59375 0.109375 6.46875 0.109375 C 6.351562 0.109375 6.238281 0.0820312 6.125 0.03125 C 6.019531 -0.0195312 5.925781 -0.109375 5.84375 -0.234375 C 5.664062 -0.492188 5.578125 -0.890625 5.578125 -1.421875 L 5.578125 -1.84375 C 5.578125 -2.71875 5.328125 -3.285156 4.828125 -3.546875 C 4.660156 -3.628906 4.46875 -3.671875 4.25 -3.671875 L 3.59375 -3.671875 L 3.59375 -0.921875 C 3.6875 -0.648438 3.878906 -0.515625 4.171875 -0.515625 C 4.296875 -0.515625 4.398438 -0.546875 4.484375 -0.609375 C 4.523438 -0.554688 4.546875 -0.472656 4.546875 -0.359375 C 4.546875 -0.253906 4.484375 -0.148438 4.359375 -0.046875 C 4.242188 0.0546875 4.066406 0.109375 3.828125 0.109375 C 3.597656 0.109375 3.390625 0.0507812 3.203125 -0.0625 Z M 4.671875 -8.09375 C 3.953125 -8.09375 3.59375 -7.8125 3.59375 -7.25 L 3.59375 -4.921875 C 3.59375 -4.722656 3.671875 -4.59375 3.828125 -4.53125 C 3.972656 -4.46875 4.1875 -4.4375 4.46875 -4.4375 C 4.757812 -4.4375 4.960938 -4.453125 5.078125 -4.484375 C 5.191406 -4.515625 5.289062 -4.566406 5.375 -4.640625 C 5.550781 -4.804688 5.640625 -5.082031 5.640625 -5.46875 L 5.640625 -7.125 C 5.640625 -7.59375 5.441406 -7.894531 5.046875 -8.03125 C 4.929688 -8.070312 4.804688 -8.09375 4.671875 -8.09375 Z M 6.015625 -7.71875 C 6.128906 -7.457031 6.1875 -7.035156 6.1875 -6.453125 C 6.1875 -5.453125 6.140625 -4.851562 6.046875 -4.65625 C 6.253906 -4.695312 6.40625 -4.976562 6.5 -5.5 L 6.546875 -5.71875 C 6.585938 -5.96875 6.707031 -6.128906 6.90625 -6.203125 C 6.757812 -6.242188 6.664062 -6.300781 6.625 -6.375 C 6.570312 -6.445312 6.523438 -6.578125 6.484375 -6.765625 C 6.453125 -6.960938 6.414062 -7.117188 6.375 -7.234375 C 6.34375 -7.359375 6.304688 -7.453125 6.265625 -7.515625 C 6.191406 -7.640625 6.109375 -7.707031 6.015625 -7.71875 Z M 2.046875 -1.5 C 2.234375 -1.570312 2.335938 -1.820312 2.359375 -2.25 C 2.378906 -2.664062 2.390625 -3.25 2.390625 -4 C 2.390625 -4.75 2.390625 -5.242188 2.390625 -5.484375 C 2.390625 -5.734375 2.382812 -5.9375 2.375 -6.09375 C 2.363281 -6.539062 2.320312 -6.8125 2.25 -6.90625 C 2.175781 -7 2.109375 -7.054688 2.046875 -7.078125 C 2.046875 -5.765625 2.023438 -5.019531 1.984375 -4.84375 C 1.929688 -4.6875 1.800781 -4.578125 1.59375 -4.515625 C 1.820312 -4.441406 1.953125 -4.347656 1.984375 -4.234375 C 2.023438 -4.046875 2.046875 -3.378906 2.046875 -2.234375 Z M 5.953125 -3.0625 C 6.109375 -2.882812 6.1875 -2.675781 6.1875 -2.4375 L 6.1875 -1.6875 C 6.1875 -1.0625 6.3125 -0.726562 6.5625 -0.6875 C 6.625 -0.664062 6.6875 -0.664062 6.75 -0.6875 C 6.613281 -0.894531 6.546875 -1.117188 6.546875 -1.359375 L 6.546875 -2.140625 C 6.546875 -2.441406 6.503906 -2.65625 6.421875 -2.78125 C 6.285156 -2.988281 6.128906 -3.082031 5.953125 -3.0625 Z M 5.953125 -3.0625 "/></g></g></g><g fill="#ffffff" fill-opacity="1"><g transform="translate(80.034372, 18.146003)"><g><path d="M 4.9375 -0.078125 C 4.738281 0.046875 4.519531 0.109375 4.28125 0.109375 C 4.039062 0.109375 3.816406 0.046875 3.609375 -0.078125 C 3.410156 0.046875 3.222656 0.109375 3.046875 0.109375 C 2.867188 0.109375 2.726562 0.09375 2.625 0.0625 C 2.519531 0.0390625 2.425781 0.00390625 2.34375 -0.046875 C 2.1875 -0.140625 2.109375 -0.257812 2.109375 -0.40625 C 2.109375 -0.488281 2.128906 -0.554688 2.171875 -0.609375 C 2.253906 -0.546875 2.363281 -0.515625 2.5 -0.515625 C 2.632812 -0.515625 2.769531 -0.550781 2.90625 -0.625 C 3.050781 -0.695312 3.160156 -0.804688 3.234375 -0.953125 L 3.234375 -3.71875 C 3.234375 -3.894531 3.195312 -4.023438 3.125 -4.109375 C 3.007812 -4.242188 2.816406 -4.378906 2.546875 -4.515625 C 2.804688 -4.628906 2.972656 -4.734375 3.046875 -4.828125 C 3.171875 -4.972656 3.234375 -5.140625 3.234375 -5.328125 L 3.234375 -7.953125 C 3.109375 -8.003906 2.957031 -8.03125 2.78125 -8.03125 C 2.613281 -8.03125 2.4375 -7.984375 2.25 -7.890625 C 2.0625 -7.796875 1.890625 -7.664062 1.734375 -7.5 C 1.398438 -7.101562 1.234375 -6.585938 1.234375 -5.953125 C 1.234375 -5.585938 1.296875 -5.316406 1.421875 -5.140625 C 1.367188 -5.046875 1.28125 -5 1.15625 -5 C 1.03125 -5 0.921875 -5.023438 0.828125 -5.078125 C 0.734375 -5.140625 0.648438 -5.21875 0.578125 -5.3125 C 0.421875 -5.507812 0.34375 -5.722656 0.34375 -5.953125 C 0.34375 -6.179688 0.382812 -6.375 0.46875 -6.53125 C 0.332031 -6.695312 0.265625 -6.882812 0.265625 -7.09375 C 0.265625 -7.300781 0.320312 -7.472656 0.4375 -7.609375 C 0.28125 -7.785156 0.203125 -8.015625 0.203125 -8.296875 C 0.203125 -8.628906 0.351562 -8.851562 0.65625 -8.96875 C 0.75 -9 0.828125 -9.015625 0.890625 -9.015625 C 1.023438 -9.015625 1.125 -8.988281 1.1875 -8.9375 C 1.15625 -8.84375 1.140625 -8.773438 1.140625 -8.734375 C 1.140625 -8.585938 1.191406 -8.515625 1.296875 -8.515625 C 1.359375 -8.515625 1.421875 -8.519531 1.484375 -8.53125 L 1.734375 -8.609375 C 2.171875 -8.722656 2.535156 -8.78125 2.828125 -8.78125 C 3.128906 -8.78125 3.390625 -8.71875 3.609375 -8.59375 C 3.804688 -8.71875 4.023438 -8.78125 4.265625 -8.78125 C 4.515625 -8.78125 4.738281 -8.71875 4.9375 -8.59375 C 5.15625 -8.71875 5.378906 -8.78125 5.609375 -8.78125 C 5.972656 -8.78125 6.296875 -8.742188 6.578125 -8.671875 L 7.078125 -8.53125 C 7.140625 -8.519531 7.195312 -8.515625 7.25 -8.515625 C 7.363281 -8.515625 7.421875 -8.585938 7.421875 -8.734375 C 7.421875 -8.773438 7.40625 -8.84375 7.375 -8.9375 C 7.4375 -8.988281 7.515625 -9.015625 7.609375 -9.015625 C 7.710938 -9.015625 7.804688 -9 7.890625 -8.96875 C 7.984375 -8.9375 8.066406 -8.890625 8.140625 -8.828125 C 8.285156 -8.691406 8.359375 -8.5 8.359375 -8.25 C 8.359375 -8 8.28125 -7.785156 8.125 -7.609375 C 8.238281 -7.472656 8.296875 -7.300781 8.296875 -7.09375 C 8.296875 -6.882812 8.222656 -6.695312 8.078125 -6.53125 C 8.160156 -6.375 8.203125 -6.21875 8.203125 -6.0625 C 8.203125 -5.90625 8.179688 -5.765625 8.140625 -5.640625 C 8.109375 -5.515625 8.054688 -5.40625 7.984375 -5.3125 C 7.828125 -5.101562 7.632812 -5 7.40625 -5 C 7.269531 -5 7.179688 -5.046875 7.140625 -5.140625 C 7.265625 -5.316406 7.328125 -5.578125 7.328125 -5.921875 C 7.328125 -6.273438 7.28125 -6.582031 7.1875 -6.84375 C 7.09375 -7.101562 6.96875 -7.320312 6.8125 -7.5 C 6.507812 -7.851562 6.148438 -8.03125 5.734375 -8.03125 C 5.578125 -8.03125 5.441406 -8.003906 5.328125 -7.953125 L 5.328125 -5.328125 C 5.328125 -5.140625 5.363281 -5.003906 5.4375 -4.921875 C 5.5625 -4.765625 5.753906 -4.628906 6.015625 -4.515625 C 5.734375 -4.378906 5.554688 -4.269531 5.484375 -4.1875 C 5.378906 -4.050781 5.328125 -3.894531 5.328125 -3.71875 L 5.328125 -0.953125 C 5.390625 -0.804688 5.488281 -0.695312 5.625 -0.625 C 5.769531 -0.550781 5.910156 -0.515625 6.046875 -0.515625 C 6.191406 -0.515625 6.304688 -0.546875 6.390625 -0.609375 C 6.429688 -0.554688 6.453125 -0.492188 6.453125 -0.421875 C 6.453125 -0.347656 6.429688 -0.273438 6.390625 -0.203125 C 6.347656 -0.140625 6.289062 -0.0859375 6.21875 -0.046875 C 6.039062 0.0546875 5.832031 0.109375 5.59375 0.109375 C 5.363281 0.109375 5.144531 0.046875 4.9375 -0.078125 Z M 3.78125 -1.5 C 3.96875 -1.570312 4.070312 -1.820312 4.09375 -2.25 C 4.113281 -2.664062 4.125 -3.25 4.125 -4 C 4.125 -4.75 4.125 -5.242188 4.125 -5.484375 C 4.125 -5.734375 4.117188 -5.9375 4.109375 -6.09375 C 4.097656 -6.539062 4.054688 -6.8125 3.984375 -6.90625 C 3.910156 -7 3.84375 -7.054688 3.78125 -7.078125 C 3.78125 -5.765625 3.757812 -5.019531 3.71875 -4.84375 C 3.664062 -4.6875 3.535156 -4.578125 3.328125 -4.515625 C 3.554688 -4.441406 3.6875 -4.347656 3.71875 -4.234375 C 3.757812 -4.046875 3.78125 -3.378906 3.78125 -2.234375 Z M 3.78125 -1.5 "/></g></g></g><g fill="#ffffff" fill-opacity="1"><g transform="translate(88.588259, 18.146003)"><g><path d="M 3.203125 -0.0625 C 3.003906 0.0507812 2.78125 0.109375 2.53125 0.109375 C 2.289062 0.109375 2.078125 0.0507812 1.890625 -0.0625 C 1.691406 0.0507812 1.507812 0.109375 1.34375 0.109375 C 1.1875 0.109375 1.050781 0.09375 0.9375 0.0625 C 0.832031 0.0390625 0.742188 0.00390625 0.671875 -0.046875 C 0.503906 -0.140625 0.421875 -0.257812 0.421875 -0.40625 C 0.421875 -0.488281 0.441406 -0.554688 0.484375 -0.609375 C 0.566406 -0.546875 0.675781 -0.515625 0.8125 -0.515625 C 1.144531 -0.515625 1.375 -0.660156 1.5 -0.953125 L 1.5 -3.71875 C 1.5 -3.894531 1.460938 -4.023438 1.390625 -4.109375 C 1.273438 -4.242188 1.082031 -4.378906 0.8125 -4.515625 C 1.070312 -4.628906 1.238281 -4.734375 1.3125 -4.828125 C 1.4375 -4.972656 1.5 -5.140625 1.5 -5.328125 L 1.5 -7.71875 C 1.375 -8.007812 1.144531 -8.15625 0.8125 -8.15625 C 0.675781 -8.15625 0.566406 -8.125 0.484375 -8.0625 C 0.441406 -8.113281 0.421875 -8.175781 0.421875 -8.25 C 0.421875 -8.320312 0.441406 -8.390625 0.484375 -8.453125 C 0.535156 -8.523438 0.597656 -8.582031 0.671875 -8.625 C 0.835938 -8.726562 1.035156 -8.78125 1.265625 -8.78125 C 1.492188 -8.78125 1.703125 -8.71875 1.890625 -8.59375 C 2.085938 -8.71875 2.304688 -8.78125 2.546875 -8.78125 C 2.785156 -8.78125 3.003906 -8.71875 3.203125 -8.59375 C 3.390625 -8.71875 3.566406 -8.78125 3.734375 -8.78125 C 3.898438 -8.78125 4.035156 -8.765625 4.140625 -8.734375 C 4.242188 -8.710938 4.335938 -8.675781 4.421875 -8.625 C 4.585938 -8.53125 4.671875 -8.410156 4.671875 -8.265625 C 4.671875 -8.179688 4.648438 -8.113281 4.609375 -8.0625 C 4.523438 -8.125 4.414062 -8.15625 4.28125 -8.15625 C 3.945312 -8.15625 3.71875 -8.007812 3.59375 -7.71875 L 3.59375 -5.328125 C 3.59375 -5.140625 3.628906 -5.003906 3.703125 -4.921875 C 3.828125 -4.765625 4.019531 -4.628906 4.28125 -4.515625 C 4 -4.378906 3.820312 -4.269531 3.75 -4.1875 C 3.644531 -4.050781 3.59375 -3.894531 3.59375 -3.71875 L 3.59375 -0.953125 C 3.71875 -0.660156 3.945312 -0.515625 4.28125 -0.515625 C 4.414062 -0.515625 4.523438 -0.546875 4.609375 -0.609375 C 4.648438 -0.554688 4.671875 -0.492188 4.671875 -0.421875 C 4.671875 -0.347656 4.644531 -0.273438 4.59375 -0.203125 C 4.550781 -0.140625 4.492188 -0.0859375 4.421875 -0.046875 C 4.242188 0.0546875 4.039062 0.109375 3.8125 0.109375 C 3.59375 0.109375 3.390625 0.0507812 3.203125 -0.0625 Z M 2.046875 -1.5 C 2.234375 -1.570312 2.335938 -1.820312 2.359375 -2.25 C 2.378906 -2.664062 2.390625 -3.25 2.390625 -4 C 2.390625 -4.75 2.390625 -5.242188 2.390625 -5.484375 C 2.390625 -5.734375 2.382812 -5.9375 2.375 -6.09375 C 2.363281 -6.539062 2.320312 -6.8125 2.25 -6.90625 C 2.175781 -7 2.109375 -7.054688 2.046875 -7.078125 C 2.046875 -5.765625 2.023438 -5.019531 1.984375 -4.84375 C 1.929688 -4.6875 1.800781 -4.578125 1.59375 -4.515625 C 1.820312 -4.441406 1.953125 -4.347656 1.984375 -4.234375 C 2.023438 -4.046875 2.046875 -3.378906 2.046875 -2.234375 Z M 2.046875 -1.5 "/></g></g></g><g fill="#ffffff" fill-opacity="1"><g transform="translate(93.675272, 18.146003)"><g><path d="M 0.671875 -0.046875 C 0.535156 0.0546875 0.375 0.109375 0.1875 0.109375 C 0.0078125 0.109375 -0.128906 0.0625 -0.234375 -0.03125 C -0.335938 -0.125 -0.390625 -0.226562 -0.390625 -0.34375 C -0.390625 -0.46875 -0.375 -0.554688 -0.34375 -0.609375 C -0.226562 -0.546875 -0.09375 -0.515625 0.0625 -0.515625 C 0.226562 -0.515625 0.347656 -0.535156 0.421875 -0.578125 C 0.503906 -0.617188 0.582031 -0.679688 0.65625 -0.765625 L 1.46875 -3.140625 L 1.578125 -3.53125 C 1.609375 -3.65625 1.625 -3.765625 1.625 -3.859375 C 1.625 -4.203125 1.460938 -4.421875 1.140625 -4.515625 C 1.441406 -4.628906 1.65625 -4.753906 1.78125 -4.890625 C 1.96875 -5.097656 2.113281 -5.367188 2.21875 -5.703125 L 2.84375 -7.796875 C 2.726562 -7.960938 2.585938 -8.046875 2.421875 -8.046875 C 2.253906 -8.046875 2.097656 -8.007812 1.953125 -7.9375 C 1.910156 -8 1.890625 -8.070312 1.890625 -8.15625 C 1.890625 -8.25 1.90625 -8.332031 1.9375 -8.40625 C 1.976562 -8.476562 2.03125 -8.546875 2.09375 -8.609375 C 2.238281 -8.722656 2.441406 -8.78125 2.703125 -8.78125 C 2.972656 -8.78125 3.203125 -8.703125 3.390625 -8.546875 C 3.578125 -8.703125 3.8125 -8.78125 4.09375 -8.78125 C 4.375 -8.78125 4.597656 -8.707031 4.765625 -8.5625 C 5.003906 -8.707031 5.25 -8.78125 5.5 -8.78125 C 5.75 -8.78125 5.941406 -8.734375 6.078125 -8.640625 C 6.210938 -8.546875 6.28125 -8.421875 6.28125 -8.265625 C 6.28125 -8.179688 6.257812 -8.113281 6.21875 -8.0625 C 6.132812 -8.125 6.03125 -8.15625 5.90625 -8.15625 C 5.65625 -8.15625 5.492188 -7.984375 5.421875 -7.640625 L 6.140625 -5.328125 C 6.234375 -5.035156 6.460938 -4.804688 6.828125 -4.640625 C 6.929688 -4.597656 7.035156 -4.554688 7.140625 -4.515625 C 6.753906 -4.390625 6.5625 -4.203125 6.5625 -3.953125 C 6.5625 -3.859375 6.578125 -3.773438 6.609375 -3.703125 L 7.703125 -0.8125 C 7.867188 -0.632812 8.035156 -0.546875 8.203125 -0.546875 C 8.367188 -0.546875 8.5 -0.578125 8.59375 -0.640625 C 8.632812 -0.609375 8.65625 -0.550781 8.65625 -0.46875 C 8.65625 -0.382812 8.640625 -0.304688 8.609375 -0.234375 C 8.585938 -0.171875 8.550781 -0.113281 8.5 -0.0625 C 8.375 0.0507812 8.191406 0.109375 7.953125 0.109375 C 7.722656 0.109375 7.523438 0.046875 7.359375 -0.078125 C 7.160156 0.046875 6.9375 0.109375 6.6875 0.109375 C 6.4375 0.109375 6.222656 0.046875 6.046875 -0.078125 C 5.878906 0.046875 5.679688 0.109375 5.453125 0.109375 C 5.222656 0.109375 5.03125 0.0625 4.875 -0.03125 C 4.71875 -0.125 4.640625 -0.257812 4.640625 -0.4375 C 4.640625 -0.539062 4.660156 -0.609375 4.703125 -0.640625 C 4.804688 -0.578125 4.910156 -0.546875 5.015625 -0.546875 C 5.234375 -0.546875 5.390625 -0.59375 5.484375 -0.6875 L 5.046875 -2.125 L 1.984375 -2.125 L 1.609375 -0.875 C 1.765625 -0.632812 1.953125 -0.515625 2.171875 -0.515625 C 2.390625 -0.515625 2.554688 -0.546875 2.671875 -0.609375 C 2.710938 -0.546875 2.734375 -0.453125 2.734375 -0.328125 C 2.734375 -0.210938 2.671875 -0.109375 2.546875 -0.015625 C 2.429688 0.0664062 2.28125 0.109375 2.09375 0.109375 C 1.914062 0.109375 1.75 0.0625 1.59375 -0.03125 C 1.457031 0.0625 1.300781 0.109375 1.125 0.109375 C 0.945312 0.109375 0.796875 0.0546875 0.671875 -0.046875 Z M 4.8125 -2.890625 L 3.5 -7.265625 L 2.203125 -2.890625 Z M 5.90625 -1.5 C 5.96875 -1.5 6 -1.578125 6 -1.734375 C 6 -1.992188 5.960938 -2.25 5.890625 -2.5 L 5.671875 -3.15625 C 5.515625 -3.65625 5.4375 -3.972656 5.4375 -4.109375 C 5.4375 -4.316406 5.53125 -4.457031 5.71875 -4.53125 C 5.457031 -4.582031 5.300781 -4.660156 5.25 -4.765625 C 5.21875 -4.804688 5.191406 -4.84375 5.171875 -4.875 C 5.160156 -4.90625 5.144531 -4.9375 5.125 -4.96875 C 5.113281 -5 5.09375 -5.039062 5.0625 -5.09375 C 5.039062 -5.15625 5.015625 -5.238281 4.984375 -5.34375 L 4.625 -6.40625 C 4.539062 -6.675781 4.414062 -6.878906 4.25 -7.015625 C 4.207031 -7.054688 4.164062 -7.078125 4.125 -7.078125 C 4.375 -6.171875 4.539062 -5.585938 4.625 -5.328125 C 5.164062 -3.640625 5.492188 -2.640625 5.609375 -2.328125 Z M 7.578125 -0.984375 L 7.578125 -0.953125 Z M 7.578125 -0.984375 "/></g></g></g><g fill="#ffffff" fill-opacity="1"><g transform="translate(101.934587, 18.146003)"><g><path d="M 1.4375 -0.046875 C 1.300781 0.0546875 1.140625 0.109375 0.953125 0.109375 C 0.773438 0.109375 0.632812 0.0625 0.53125 -0.03125 C 0.425781 -0.125 0.375 -0.226562 0.375 -0.34375 C 0.375 -0.46875 0.390625 -0.554688 0.421875 -0.609375 C 0.535156 -0.546875 0.707031 -0.515625 0.9375 -0.515625 C 1.175781 -0.515625 1.375 -0.675781 1.53125 -1 L 1.53125 -3.71875 C 1.53125 -3.894531 1.492188 -4.023438 1.421875 -4.109375 C 1.304688 -4.242188 1.113281 -4.378906 0.84375 -4.515625 C 1.113281 -4.648438 1.285156 -4.757812 1.359375 -4.84375 C 1.472656 -4.988281 1.53125 -5.148438 1.53125 -5.328125 L 1.53125 -7.71875 C 1.40625 -8.007812 1.171875 -8.15625 0.828125 -8.15625 C 0.703125 -8.15625 0.597656 -8.125 0.515625 -8.0625 C 0.472656 -8.113281 0.453125 -8.175781 0.453125 -8.25 C 0.453125 -8.332031 0.46875 -8.40625 0.5 -8.46875 C 0.539062 -8.53125 0.59375 -8.585938 0.65625 -8.640625 C 0.789062 -8.734375 0.96875 -8.78125 1.1875 -8.78125 C 1.414062 -8.78125 1.609375 -8.71875 1.765625 -8.59375 C 1.867188 -8.71875 2.015625 -8.78125 2.203125 -8.78125 C 2.390625 -8.78125 2.539062 -8.71875 2.65625 -8.59375 C 2.757812 -8.71875 2.867188 -8.78125 2.984375 -8.78125 C 3.097656 -8.78125 3.1875 -8.769531 3.25 -8.75 C 3.3125 -8.726562 3.363281 -8.695312 3.40625 -8.65625 C 3.457031 -8.613281 3.523438 -8.519531 3.609375 -8.375 L 7.125 -2.046875 L 7.125 -3.765625 C 7.125 -3.929688 7.085938 -4.054688 7.015625 -4.140625 C 6.898438 -4.253906 6.703125 -4.378906 6.421875 -4.515625 C 6.679688 -4.640625 6.851562 -4.742188 6.9375 -4.828125 C 7.0625 -4.960938 7.125 -5.109375 7.125 -5.265625 L 7.125 -7.640625 C 7.03125 -7.804688 6.921875 -7.929688 6.796875 -8.015625 C 6.671875 -8.109375 6.523438 -8.15625 6.359375 -8.15625 C 6.203125 -8.15625 6.070312 -8.125 5.96875 -8.0625 C 5.925781 -8.125 5.90625 -8.210938 5.90625 -8.328125 C 5.90625 -8.453125 5.960938 -8.554688 6.078125 -8.640625 C 6.191406 -8.734375 6.34375 -8.78125 6.53125 -8.78125 C 6.71875 -8.78125 6.890625 -8.734375 7.046875 -8.640625 C 7.171875 -8.734375 7.316406 -8.78125 7.484375 -8.78125 C 7.660156 -8.78125 7.816406 -8.734375 7.953125 -8.640625 C 8.097656 -8.734375 8.257812 -8.78125 8.4375 -8.78125 C 8.613281 -8.78125 8.753906 -8.734375 8.859375 -8.640625 C 8.972656 -8.554688 9.03125 -8.453125 9.03125 -8.328125 C 9.03125 -8.203125 9.007812 -8.113281 8.96875 -8.0625 C 8.863281 -8.125 8.6875 -8.15625 8.4375 -8.15625 C 8.195312 -8.15625 8.007812 -7.992188 7.875 -7.671875 L 7.875 -5.265625 C 7.875 -5.109375 7.90625 -4.992188 7.96875 -4.921875 C 8.082031 -4.796875 8.28125 -4.660156 8.5625 -4.515625 C 8.25 -4.347656 8.066406 -4.234375 8.015625 -4.171875 C 7.921875 -4.066406 7.875 -3.929688 7.875 -3.765625 L 7.96875 -0.890625 C 8.101562 -0.640625 8.316406 -0.515625 8.609375 -0.515625 C 8.734375 -0.515625 8.835938 -0.546875 8.921875 -0.609375 C 8.960938 -0.554688 8.984375 -0.488281 8.984375 -0.40625 C 8.984375 -0.332031 8.960938 -0.265625 8.921875 -0.203125 C 8.890625 -0.140625 8.84375 -0.0820312 8.78125 -0.03125 C 8.65625 0.0625 8.492188 0.109375 8.296875 0.109375 C 8.109375 0.109375 7.941406 0.0703125 7.796875 0 C 7.492188 0.164062 7.1875 0.148438 6.875 -0.046875 C 6.757812 0.0546875 6.644531 0.109375 6.53125 0.109375 C 6.425781 0.109375 6.347656 0.0976562 6.296875 0.078125 C 6.242188 0.0664062 6.191406 0.0351562 6.140625 -0.015625 C 6.066406 -0.0859375 5.957031 -0.269531 5.8125 -0.5625 L 2.328125 -6.5625 L 2.328125 -1 C 2.484375 -0.675781 2.675781 -0.515625 2.90625 -0.515625 C 3.144531 -0.515625 3.320312 -0.546875 3.4375 -0.609375 C 3.476562 -0.546875 3.5 -0.453125 3.5 -0.328125 C 3.5 -0.210938 3.4375 -0.109375 3.3125 -0.015625 C 3.195312 0.0664062 3.046875 0.109375 2.859375 0.109375 C 2.679688 0.109375 2.515625 0.0625 2.359375 -0.03125 C 2.222656 0.0625 2.066406 0.109375 1.890625 0.109375 C 1.710938 0.109375 1.5625 0.0546875 1.4375 -0.046875 Z M 5.875 -1.5 C 5.894531 -1.53125 5.90625 -1.582031 5.90625 -1.65625 C 5.90625 -1.738281 5.894531 -1.820312 5.875 -1.90625 C 5.851562 -2 5.828125 -2.097656 5.796875 -2.203125 C 5.710938 -2.421875 5.609375 -2.648438 5.484375 -2.890625 L 3.078125 -7.078125 C 3.046875 -7.046875 3.03125 -6.972656 3.03125 -6.859375 C 3.03125 -6.617188 3.191406 -6.207031 3.515625 -5.625 Z M 5.875 -1.5 "/></g></g></g><g fill="#ffffff" fill-opacity="1"><g transform="translate(111.326868, 18.146003)"><g/></g></g><g fill="#ffffff" fill-opacity="1"><g transform="translate(114.159281, 18.146003)"><g><path d="M 2 -0.21875 C 1.695312 0.0820312 1.410156 0.234375 1.140625 0.234375 C 0.960938 0.234375 0.84375 0.171875 0.78125 0.046875 C 0.863281 -0.0664062 0.90625 -0.226562 0.90625 -0.4375 L 0.90625 -0.515625 C 0.90625 -0.546875 0.90625 -0.566406 0.90625 -0.578125 C 0.71875 -0.753906 0.625 -0.957031 0.625 -1.1875 C 0.625 -1.414062 0.734375 -1.65625 0.953125 -1.90625 C 0.890625 -2.03125 0.859375 -2.164062 0.859375 -2.3125 C 0.859375 -2.457031 0.878906 -2.59375 0.921875 -2.71875 C 0.960938 -2.84375 1.019531 -2.953125 1.09375 -3.046875 C 1.257812 -3.253906 1.414062 -3.359375 1.5625 -3.359375 C 1.71875 -3.359375 1.828125 -3.300781 1.890625 -3.1875 C 1.753906 -3.039062 1.6875 -2.8125 1.6875 -2.5 C 1.6875 -2.195312 1.726562 -1.929688 1.8125 -1.703125 C 1.90625 -1.472656 2.035156 -1.28125 2.203125 -1.125 C 2.546875 -0.769531 2.988281 -0.59375 3.53125 -0.59375 C 3.894531 -0.59375 4.203125 -0.695312 4.453125 -0.90625 C 4.722656 -1.125 4.859375 -1.425781 4.859375 -1.8125 C 4.859375 -2.082031 4.796875 -2.304688 4.671875 -2.484375 C 4.472656 -2.742188 4.160156 -3.019531 3.734375 -3.3125 C 3.398438 -3.539062 3.132812 -3.65625 2.9375 -3.65625 C 2.738281 -3.65625 2.519531 -3.578125 2.28125 -3.421875 C 2.34375 -3.609375 2.375 -3.785156 2.375 -3.953125 C 2.375 -3.992188 2.335938 -4.046875 2.265625 -4.109375 L 2.0625 -4.296875 C 1.394531 -4.898438 1.003906 -5.460938 0.890625 -5.984375 C 0.847656 -6.171875 0.828125 -6.398438 0.828125 -6.671875 C 0.828125 -6.941406 0.890625 -7.21875 1.015625 -7.5 C 1.148438 -7.78125 1.335938 -8.019531 1.578125 -8.21875 C 2.066406 -8.632812 2.6875 -8.84375 3.4375 -8.84375 C 3.894531 -8.84375 4.3125 -8.769531 4.6875 -8.625 C 4.851562 -8.5625 5.039062 -8.53125 5.25 -8.53125 C 5.332031 -8.53125 5.410156 -8.53125 5.484375 -8.53125 C 5.554688 -8.539062 5.617188 -8.582031 5.671875 -8.65625 C 5.722656 -8.726562 5.75 -8.789062 5.75 -8.84375 C 5.75 -8.90625 5.738281 -8.953125 5.71875 -8.984375 C 5.75 -8.992188 5.785156 -9 5.828125 -9 C 5.878906 -9 5.929688 -8.984375 5.984375 -8.953125 C 6.046875 -8.921875 6.097656 -8.878906 6.140625 -8.828125 C 6.242188 -8.703125 6.296875 -8.554688 6.296875 -8.390625 C 6.296875 -8.234375 6.25 -8.113281 6.15625 -8.03125 C 6.28125 -7.914062 6.34375 -7.738281 6.34375 -7.5 C 6.34375 -7.257812 6.265625 -7.0625 6.109375 -6.90625 C 6.140625 -6.800781 6.15625 -6.707031 6.15625 -6.625 C 6.15625 -6.550781 6.140625 -6.476562 6.109375 -6.40625 C 6.085938 -6.332031 6.050781 -6.269531 6 -6.21875 C 5.882812 -6.09375 5.78125 -6.03125 5.6875 -6.03125 C 5.53125 -6.03125 5.398438 -6.054688 5.296875 -6.109375 C 5.359375 -6.265625 5.390625 -6.425781 5.390625 -6.59375 C 5.390625 -6.769531 5.347656 -6.953125 5.265625 -7.140625 C 5.191406 -7.328125 5.085938 -7.488281 4.953125 -7.625 C 4.648438 -7.894531 4.265625 -8.03125 3.796875 -8.03125 C 3.492188 -8.03125 3.242188 -7.941406 3.046875 -7.765625 C 2.867188 -7.585938 2.78125 -7.375 2.78125 -7.125 C 2.78125 -6.945312 2.820312 -6.796875 2.90625 -6.671875 C 3.070312 -6.453125 3.328125 -6.226562 3.671875 -6 L 3.9375 -5.8125 C 4.09375 -5.71875 4.195312 -5.671875 4.25 -5.671875 C 4.300781 -5.671875 4.351562 -5.675781 4.40625 -5.6875 C 4.457031 -5.695312 4.515625 -5.710938 4.578125 -5.734375 C 4.710938 -5.785156 4.847656 -5.847656 4.984375 -5.921875 L 4.90625 -5.609375 C 4.882812 -5.503906 4.875 -5.425781 4.875 -5.375 C 4.875 -5.300781 4.910156 -5.234375 4.984375 -5.171875 C 5.691406 -4.554688 6.164062 -4.039062 6.40625 -3.625 C 6.613281 -3.269531 6.71875 -2.882812 6.71875 -2.46875 C 6.71875 -2.050781 6.648438 -1.691406 6.515625 -1.390625 C 6.378906 -1.097656 6.179688 -0.832031 5.921875 -0.59375 C 5.347656 -0.0820312 4.597656 0.171875 3.671875 0.171875 C 3.023438 0.171875 2.46875 0.0390625 2 -0.21875 Z M 1.609375 -7.078125 C 1.460938 -7.023438 1.390625 -6.867188 1.390625 -6.609375 C 1.390625 -6.097656 1.738281 -5.53125 2.4375 -4.90625 L 2.765625 -4.609375 C 2.890625 -4.492188 2.941406 -4.410156 2.921875 -4.359375 C 2.910156 -4.304688 2.898438 -4.257812 2.890625 -4.21875 C 2.878906 -4.1875 2.867188 -4.15625 2.859375 -4.125 C 2.847656 -4.09375 2.84375 -4.070312 2.84375 -4.0625 C 2.96875 -4.132812 3.070312 -4.171875 3.15625 -4.171875 C 3.320312 -4.171875 3.484375 -4.128906 3.640625 -4.046875 C 4.367188 -3.585938 4.863281 -3.179688 5.125 -2.828125 C 5.3125 -2.566406 5.40625 -2.242188 5.40625 -1.859375 C 5.40625 -1.710938 5.398438 -1.59375 5.390625 -1.5 C 5.585938 -1.625 5.6875 -1.828125 5.6875 -2.109375 C 5.6875 -2.378906 5.648438 -2.585938 5.578125 -2.734375 C 5.503906 -2.890625 5.414062 -3.023438 5.3125 -3.140625 C 5.21875 -3.253906 5.09375 -3.378906 4.9375 -3.515625 C 4.78125 -3.648438 4.585938 -3.796875 4.359375 -3.953125 L 3.546875 -4.5 C 2.890625 -4.9375 2.390625 -5.398438 2.046875 -5.890625 C 1.742188 -6.316406 1.597656 -6.710938 1.609375 -7.078125 Z M 1.609375 -7.078125 "/></g></g></g><g fill="#ffffff" fill-opacity="1"><g transform="translate(121.268642, 18.146003)"><g><path d="M 2.546875 0.109375 C 2.296875 0.109375 2.078125 0.0507812 1.890625 -0.0625 C 1.691406 0.0507812 1.507812 0.109375 1.34375 0.109375 C 1.1875 0.109375 1.050781 0.09375 0.9375 0.0625 C 0.832031 0.0390625 0.742188 0.00390625 0.671875 -0.046875 C 0.503906 -0.140625 0.421875 -0.257812 0.421875 -0.40625 C 0.421875 -0.488281 0.441406 -0.554688 0.484375 -0.609375 C 0.566406 -0.546875 0.675781 -0.515625 0.8125 -0.515625 C 1.144531 -0.515625 1.375 -0.660156 1.5 -0.953125 L 1.5 -3.71875 C 1.5 -3.894531 1.460938 -4.023438 1.390625 -4.109375 C 1.273438 -4.242188 1.082031 -4.378906 0.8125 -4.515625 C 1.070312 -4.628906 1.238281 -4.734375 1.3125 -4.828125 C 1.4375 -4.972656 1.5 -5.140625 1.5 -5.328125 L 1.5 -7.71875 C 1.375 -8.007812 1.144531 -8.15625 0.8125 -8.15625 C 0.675781 -8.15625 0.566406 -8.125 0.484375 -8.0625 C 0.441406 -8.113281 0.421875 -8.175781 0.421875 -8.25 C 0.421875 -8.320312 0.441406 -8.390625 0.484375 -8.453125 C 0.535156 -8.523438 0.597656 -8.582031 0.671875 -8.625 C 0.835938 -8.726562 1.035156 -8.78125 1.265625 -8.78125 C 1.492188 -8.78125 1.703125 -8.71875 1.890625 -8.59375 C 2.085938 -8.71875 2.296875 -8.78125 2.515625 -8.78125 C 2.734375 -8.78125 2.9375 -8.734375 3.125 -8.640625 C 3.570312 -8.773438 3.984375 -8.84375 4.359375 -8.84375 C 4.742188 -8.84375 5.082031 -8.820312 5.375 -8.78125 C 5.675781 -8.738281 5.957031 -8.664062 6.21875 -8.5625 C 6.488281 -8.457031 6.742188 -8.316406 6.984375 -8.140625 C 7.222656 -7.972656 7.4375 -7.757812 7.625 -7.5 C 8.007812 -6.945312 8.257812 -6.21875 8.375 -5.3125 C 8.394531 -5.09375 8.441406 -4.9375 8.515625 -4.84375 C 8.640625 -4.695312 8.800781 -4.585938 9 -4.515625 C 8.78125 -4.429688 8.640625 -4.347656 8.578125 -4.265625 C 8.460938 -4.117188 8.394531 -3.9375 8.375 -3.71875 C 8.25 -2.46875 7.828125 -1.5 7.109375 -0.8125 C 6.421875 -0.15625 5.523438 0.171875 4.421875 0.171875 C 3.972656 0.171875 3.570312 0.101562 3.21875 -0.03125 C 3.050781 0.0625 2.828125 0.109375 2.546875 0.109375 Z M 3.59375 -0.890625 C 3.769531 -0.679688 4.007812 -0.578125 4.3125 -0.578125 C 4.613281 -0.578125 4.875 -0.632812 5.09375 -0.75 C 5.3125 -0.875 5.5 -1.0625 5.65625 -1.3125 C 5.957031 -1.820312 6.109375 -2.625 6.109375 -3.71875 C 6.109375 -3.957031 6.070312 -4.117188 6 -4.203125 C 5.894531 -4.328125 5.726562 -4.429688 5.5 -4.515625 C 5.726562 -4.597656 5.875 -4.675781 5.9375 -4.75 C 6.050781 -4.882812 6.109375 -5.054688 6.109375 -5.265625 C 6.109375 -5.484375 6.09375 -5.695312 6.0625 -5.90625 C 6.03125 -6.113281 5.984375 -6.316406 5.921875 -6.515625 C 5.859375 -6.722656 5.773438 -6.921875 5.671875 -7.109375 C 5.566406 -7.296875 5.445312 -7.460938 5.3125 -7.609375 C 5.007812 -7.921875 4.648438 -8.078125 4.234375 -8.078125 C 4.097656 -8.078125 3.96875 -8.070312 3.84375 -8.0625 C 3.726562 -8.0625 3.644531 -8.023438 3.59375 -7.953125 Z M 6.40625 -7.078125 C 6.6875 -6.296875 6.828125 -5.625 6.828125 -5.0625 C 6.828125 -4.863281 6.8125 -4.75 6.78125 -4.71875 C 6.75 -4.6875 6.710938 -4.65625 6.671875 -4.625 C 6.609375 -4.582031 6.535156 -4.546875 6.453125 -4.515625 C 6.679688 -4.410156 6.800781 -4.3125 6.8125 -4.21875 C 6.820312 -4.175781 6.828125 -4.132812 6.828125 -4.09375 L 6.828125 -3.953125 C 6.828125 -3.441406 6.769531 -2.945312 6.65625 -2.46875 C 6.550781 -1.988281 6.472656 -1.664062 6.421875 -1.5 C 6.597656 -1.550781 6.722656 -1.664062 6.796875 -1.84375 C 6.878906 -2.019531 6.945312 -2.207031 7 -2.40625 C 7.050781 -2.601562 7.09375 -2.816406 7.125 -3.046875 C 7.207031 -3.515625 7.25 -4 7.25 -4.5 C 7.25 -5.40625 7.113281 -6.140625 6.84375 -6.703125 C 6.726562 -6.921875 6.582031 -7.046875 6.40625 -7.078125 Z M 2.046875 -1.5 C 2.234375 -1.570312 2.335938 -1.820312 2.359375 -2.25 C 2.378906 -2.664062 2.390625 -3.25 2.390625 -4 C 2.390625 -4.75 2.390625 -5.242188 2.390625 -5.484375 C 2.390625 -5.734375 2.382812 -5.9375 2.375 -6.09375 C 2.363281 -6.539062 2.320312 -6.8125 2.25 -6.90625 C 2.175781 -7 2.109375 -7.054688 2.046875 -7.078125 C 2.046875 -5.765625 2.023438 -5.019531 1.984375 -4.84375 C 1.929688 -4.6875 1.800781 -4.578125 1.59375 -4.515625 C 1.820312 -4.441406 1.953125 -4.347656 1.984375 -4.234375 C 2.023438 -4.046875 2.046875 -3.378906 2.046875 -2.234375 Z M 2.046875 -1.5 "/></g></g></g><g fill="#ffffff" fill-opacity="1"><g transform="translate(130.275714, 18.146003)"><g><path d="M 6.390625 -0.140625 C 5.804688 0.0664062 5.226562 0.171875 4.65625 0.171875 C 4.082031 0.171875 3.582031 0.0859375 3.15625 -0.078125 C 2.738281 -0.242188 2.367188 -0.484375 2.046875 -0.796875 C 1.347656 -1.453125 0.9375 -2.367188 0.8125 -3.546875 C 0.75 -4.035156 0.554688 -4.359375 0.234375 -4.515625 C 0.554688 -4.671875 0.75 -4.992188 0.8125 -5.484375 C 0.875 -5.984375 1.015625 -6.441406 1.234375 -6.859375 C 1.460938 -7.285156 1.753906 -7.648438 2.109375 -7.953125 C 2.835938 -8.546875 3.75 -8.84375 4.84375 -8.84375 C 5.59375 -8.84375 6.222656 -8.671875 6.734375 -8.328125 C 7.203125 -8.003906 7.492188 -7.585938 7.609375 -7.078125 C 7.671875 -6.796875 7.75 -6.617188 7.84375 -6.546875 C 7.882812 -6.515625 7.929688 -6.488281 7.984375 -6.46875 C 7.765625 -6.132812 7.539062 -5.992188 7.3125 -6.046875 C 7.25 -6.066406 7.191406 -6.082031 7.140625 -6.09375 C 7.066406 -5.925781 6.960938 -5.785156 6.828125 -5.671875 C 6.691406 -5.566406 6.539062 -5.503906 6.375 -5.484375 C 6.21875 -5.472656 6.117188 -5.488281 6.078125 -5.53125 C 6.171875 -5.664062 6.21875 -5.84375 6.21875 -6.0625 C 6.21875 -6.082031 6.210938 -6.113281 6.203125 -6.15625 C 6.179688 -6.15625 6.164062 -6.15625 6.15625 -6.15625 C 6.144531 -6.15625 6.117188 -6.148438 6.078125 -6.140625 C 6.035156 -6.140625 5.972656 -6.15625 5.890625 -6.1875 C 5.816406 -6.21875 5.75 -6.257812 5.6875 -6.3125 C 5.539062 -6.425781 5.460938 -6.550781 5.453125 -6.6875 C 5.453125 -6.71875 5.457031 -6.75 5.46875 -6.78125 C 5.707031 -6.707031 5.929688 -6.757812 6.140625 -6.9375 C 6.285156 -7.0625 6.351562 -7.191406 6.34375 -7.328125 C 6.34375 -7.472656 6.304688 -7.59375 6.234375 -7.6875 C 6.160156 -7.78125 6.0625 -7.859375 5.9375 -7.921875 C 5.644531 -8.078125 5.273438 -8.15625 4.828125 -8.15625 C 3.804688 -8.15625 3.296875 -7.5625 3.296875 -6.375 L 3.296875 -5.4375 C 3.296875 -5.007812 3.503906 -4.703125 3.921875 -4.515625 C 3.503906 -4.316406 3.296875 -3.988281 3.296875 -3.53125 L 3.296875 -2.015625 C 3.296875 -1.535156 3.382812 -1.175781 3.5625 -0.9375 C 3.75 -0.707031 4.035156 -0.59375 4.421875 -0.59375 C 4.890625 -0.59375 5.195312 -0.800781 5.34375 -1.21875 C 5.394531 -1.351562 5.421875 -1.507812 5.421875 -1.6875 L 5.421875 -3 C 5.347656 -3.070312 5.25 -3.109375 5.125 -3.109375 C 5 -3.109375 4.894531 -3.078125 4.8125 -3.015625 C 4.769531 -3.054688 4.75 -3.132812 4.75 -3.25 C 4.75 -3.363281 4.796875 -3.472656 4.890625 -3.578125 C 4.992188 -3.679688 5.144531 -3.734375 5.34375 -3.734375 C 5.539062 -3.734375 5.707031 -3.679688 5.84375 -3.578125 C 6.019531 -3.679688 6.210938 -3.734375 6.421875 -3.734375 C 6.628906 -3.734375 6.820312 -3.679688 7 -3.578125 C 7.15625 -3.679688 7.300781 -3.734375 7.4375 -3.734375 C 7.582031 -3.734375 7.691406 -3.71875 7.765625 -3.6875 C 7.847656 -3.664062 7.921875 -3.632812 7.984375 -3.59375 C 8.117188 -3.488281 8.1875 -3.363281 8.1875 -3.21875 C 8.1875 -3.125 8.164062 -3.054688 8.125 -3.015625 C 8.039062 -3.078125 7.925781 -3.109375 7.78125 -3.109375 C 7.644531 -3.109375 7.515625 -2.984375 7.390625 -2.734375 L 7.390625 -0.875 C 7.460938 -0.632812 7.617188 -0.515625 7.859375 -0.515625 C 7.953125 -0.515625 8.039062 -0.546875 8.125 -0.609375 C 8.164062 -0.554688 8.1875 -0.488281 8.1875 -0.40625 C 8.1875 -0.257812 8.097656 -0.132812 7.921875 -0.03125 C 7.753906 0.0625 7.515625 0.109375 7.203125 0.109375 C 6.890625 0.109375 6.617188 0.0234375 6.390625 -0.140625 Z M 2.09375 -1.5 C 2.144531 -1.519531 2.171875 -1.5625 2.171875 -1.625 C 2.171875 -1.707031 2.128906 -1.835938 2.046875 -2.015625 C 1.972656 -2.191406 1.898438 -2.492188 1.828125 -2.921875 C 1.765625 -3.359375 1.734375 -3.859375 1.734375 -4.421875 C 1.734375 -5.335938 1.84375 -6.125 2.0625 -6.78125 C 2.09375 -6.875 2.109375 -6.941406 2.109375 -6.984375 C 2.109375 -7.035156 2.082031 -7.066406 2.03125 -7.078125 C 1.851562 -6.859375 1.726562 -6.640625 1.65625 -6.421875 C 1.519531 -6.023438 1.410156 -5.484375 1.328125 -4.796875 C 1.304688 -4.691406 1.191406 -4.597656 0.984375 -4.515625 C 1.191406 -4.421875 1.304688 -4.328125 1.328125 -4.234375 C 1.460938 -3.054688 1.632812 -2.269531 1.84375 -1.875 C 1.914062 -1.738281 2 -1.613281 2.09375 -1.5 Z M 6.015625 -1.15625 C 6.234375 -1.289062 6.34375 -1.53125 6.34375 -1.875 L 6.34375 -2.203125 C 6.34375 -2.523438 6.234375 -2.734375 6.015625 -2.828125 Z M 7.34375 -1.0625 L 7.328125 -1.171875 Z M 7.34375 -1.0625 "/></g></g></g><g fill="#ffffff" fill-opacity="1"><g transform="translate(138.620008, 18.146003)"><g><path d="M 2 -0.21875 C 1.695312 0.0820312 1.410156 0.234375 1.140625 0.234375 C 0.960938 0.234375 0.84375 0.171875 0.78125 0.046875 C 0.863281 -0.0664062 0.90625 -0.226562 0.90625 -0.4375 L 0.90625 -0.515625 C 0.90625 -0.546875 0.90625 -0.566406 0.90625 -0.578125 C 0.71875 -0.753906 0.625 -0.957031 0.625 -1.1875 C 0.625 -1.414062 0.734375 -1.65625 0.953125 -1.90625 C 0.890625 -2.03125 0.859375 -2.164062 0.859375 -2.3125 C 0.859375 -2.457031 0.878906 -2.59375 0.921875 -2.71875 C 0.960938 -2.84375 1.019531 -2.953125 1.09375 -3.046875 C 1.257812 -3.253906 1.414062 -3.359375 1.5625 -3.359375 C 1.71875 -3.359375 1.828125 -3.300781 1.890625 -3.1875 C 1.753906 -3.039062 1.6875 -2.8125 1.6875 -2.5 C 1.6875 -2.195312 1.726562 -1.929688 1.8125 -1.703125 C 1.90625 -1.472656 2.035156 -1.28125 2.203125 -1.125 C 2.546875 -0.769531 2.988281 -0.59375 3.53125 -0.59375 C 3.894531 -0.59375 4.203125 -0.695312 4.453125 -0.90625 C 4.722656 -1.125 4.859375 -1.425781 4.859375 -1.8125 C 4.859375 -2.082031 4.796875 -2.304688 4.671875 -2.484375 C 4.472656 -2.742188 4.160156 -3.019531 3.734375 -3.3125 C 3.398438 -3.539062 3.132812 -3.65625 2.9375 -3.65625 C 2.738281 -3.65625 2.519531 -3.578125 2.28125 -3.421875 C 2.34375 -3.609375 2.375 -3.785156 2.375 -3.953125 C 2.375 -3.992188 2.335938 -4.046875 2.265625 -4.109375 L 2.0625 -4.296875 C 1.394531 -4.898438 1.003906 -5.460938 0.890625 -5.984375 C 0.847656 -6.171875 0.828125 -6.398438 0.828125 -6.671875 C 0.828125 -6.941406 0.890625 -7.21875 1.015625 -7.5 C 1.148438 -7.78125 1.335938 -8.019531 1.578125 -8.21875 C 2.066406 -8.632812 2.6875 -8.84375 3.4375 -8.84375 C 3.894531 -8.84375 4.3125 -8.769531 4.6875 -8.625 C 4.851562 -8.5625 5.039062 -8.53125 5.25 -8.53125 C 5.332031 -8.53125 5.410156 -8.53125 5.484375 -8.53125 C 5.554688 -8.539062 5.617188 -8.582031 5.671875 -8.65625 C 5.722656 -8.726562 5.75 -8.789062 5.75 -8.84375 C 5.75 -8.90625 5.738281 -8.953125 5.71875 -8.984375 C 5.75 -8.992188 5.785156 -9 5.828125 -9 C 5.878906 -9 5.929688 -8.984375 5.984375 -8.953125 C 6.046875 -8.921875 6.097656 -8.878906 6.140625 -8.828125 C 6.242188 -8.703125 6.296875 -8.554688 6.296875 -8.390625 C 6.296875 -8.234375 6.25 -8.113281 6.15625 -8.03125 C 6.28125 -7.914062 6.34375 -7.738281 6.34375 -7.5 C 6.34375 -7.257812 6.265625 -7.0625 6.109375 -6.90625 C 6.140625 -6.800781 6.15625 -6.707031 6.15625 -6.625 C 6.15625 -6.550781 6.140625 -6.476562 6.109375 -6.40625 C 6.085938 -6.332031 6.050781 -6.269531 6 -6.21875 C 5.882812 -6.09375 5.78125 -6.03125 5.6875 -6.03125 C 5.53125 -6.03125 5.398438 -6.054688 5.296875 -6.109375 C 5.359375 -6.265625 5.390625 -6.425781 5.390625 -6.59375 C 5.390625 -6.769531 5.347656 -6.953125 5.265625 -7.140625 C 5.191406 -7.328125 5.085938 -7.488281 4.953125 -7.625 C 4.648438 -7.894531 4.265625 -8.03125 3.796875 -8.03125 C 3.492188 -8.03125 3.242188 -7.941406 3.046875 -7.765625 C 2.867188 -7.585938 2.78125 -7.375 2.78125 -7.125 C 2.78125 -6.945312 2.820312 -6.796875 2.90625 -6.671875 C 3.070312 -6.453125 3.328125 -6.226562 3.671875 -6 L 3.9375 -5.8125 C 4.09375 -5.71875 4.195312 -5.671875 4.25 -5.671875 C 4.300781 -5.671875 4.351562 -5.675781 4.40625 -5.6875 C 4.457031 -5.695312 4.515625 -5.710938 4.578125 -5.734375 C 4.710938 -5.785156 4.847656 -5.847656 4.984375 -5.921875 L 4.90625 -5.609375 C 4.882812 -5.503906 4.875 -5.425781 4.875 -5.375 C 4.875 -5.300781 4.910156 -5.234375 4.984375 -5.171875 C 5.691406 -4.554688 6.164062 -4.039062 6.40625 -3.625 C 6.613281 -3.269531 6.71875 -2.882812 6.71875 -2.46875 C 6.71875 -2.050781 6.648438 -1.691406 6.515625 -1.390625 C 6.378906 -1.097656 6.179688 -0.832031 5.921875 -0.59375 C 5.347656 -0.0820312 4.597656 0.171875 3.671875 0.171875 C 3.023438 0.171875 2.46875 0.0390625 2 -0.21875 Z M 1.609375 -7.078125 C 1.460938 -7.023438 1.390625 -6.867188 1.390625 -6.609375 C 1.390625 -6.097656 1.738281 -5.53125 2.4375 -4.90625 L 2.765625 -4.609375 C 2.890625 -4.492188 2.941406 -4.410156 2.921875 -4.359375 C 2.910156 -4.304688 2.898438 -4.257812 2.890625 -4.21875 C 2.878906 -4.1875 2.867188 -4.15625 2.859375 -4.125 C 2.847656 -4.09375 2.84375 -4.070312 2.84375 -4.0625 C 2.96875 -4.132812 3.070312 -4.171875 3.15625 -4.171875 C 3.320312 -4.171875 3.484375 -4.128906 3.640625 -4.046875 C 4.367188 -3.585938 4.863281 -3.179688 5.125 -2.828125 C 5.3125 -2.566406 5.40625 -2.242188 5.40625 -1.859375 C 5.40625 -1.710938 5.398438 -1.59375 5.390625 -1.5 C 5.585938 -1.625 5.6875 -1.828125 5.6875 -2.109375 C 5.6875 -2.378906 5.648438 -2.585938 5.578125 -2.734375 C 5.503906 -2.890625 5.414062 -3.023438 5.3125 -3.140625 C 5.21875 -3.253906 5.09375 -3.378906 4.9375 -3.515625 C 4.78125 -3.648438 4.585938 -3.796875 4.359375 -3.953125 L 3.546875 -4.5 C 2.890625 -4.9375 2.390625 -5.398438 2.046875 -5.890625 C 1.742188 -6.316406 1.597656 -6.710938 1.609375 -7.078125 Z M 1.609375 -7.078125 "/></g></g></g><g fill="#ffffff" fill-opacity="1"><g transform="translate(145.729369, 18.146003)"><g><path d="M 0.859375 1.515625 C 0.535156 1.515625 0.375 1.328125 0.375 0.953125 C 0.375 0.796875 0.414062 0.59375 0.5 0.34375 L 3.515625 -9 C 3.578125 -9.039062 3.65625 -9.0625 3.75 -9.0625 C 4.070312 -9.0625 4.234375 -8.875 4.234375 -8.5 C 4.234375 -8.351562 4.191406 -8.148438 4.109375 -7.890625 L 1.09375 1.4375 C 1.03125 1.488281 0.953125 1.515625 0.859375 1.515625 Z M 0.859375 1.515625 "/></g></g></g><g fill="#ffffff" fill-opacity="1"><g transform="translate(150.357537, 18.146003)"><g><path d="M 4.9375 -0.078125 C 4.738281 0.046875 4.519531 0.109375 4.28125 0.109375 C 4.039062 0.109375 3.816406 0.046875 3.609375 -0.078125 C 3.410156 0.046875 3.222656 0.109375 3.046875 0.109375 C 2.867188 0.109375 2.726562 0.09375 2.625 0.0625 C 2.519531 0.0390625 2.425781 0.00390625 2.34375 -0.046875 C 2.1875 -0.140625 2.109375 -0.257812 2.109375 -0.40625 C 2.109375 -0.488281 2.128906 -0.554688 2.171875 -0.609375 C 2.253906 -0.546875 2.363281 -0.515625 2.5 -0.515625 C 2.632812 -0.515625 2.769531 -0.550781 2.90625 -0.625 C 3.050781 -0.695312 3.160156 -0.804688 3.234375 -0.953125 L 3.234375 -3.71875 C 3.234375 -3.894531 3.195312 -4.023438 3.125 -4.109375 C 3.007812 -4.242188 2.816406 -4.378906 2.546875 -4.515625 C 2.804688 -4.628906 2.972656 -4.734375 3.046875 -4.828125 C 3.171875 -4.972656 3.234375 -5.140625 3.234375 -5.328125 L 3.234375 -7.953125 C 3.109375 -8.003906 2.957031 -8.03125 2.78125 -8.03125 C 2.613281 -8.03125 2.4375 -7.984375 2.25 -7.890625 C 2.0625 -7.796875 1.890625 -7.664062 1.734375 -7.5 C 1.398438 -7.101562 1.234375 -6.585938 1.234375 -5.953125 C 1.234375 -5.585938 1.296875 -5.316406 1.421875 -5.140625 C 1.367188 -5.046875 1.28125 -5 1.15625 -5 C 1.03125 -5 0.921875 -5.023438 0.828125 -5.078125 C 0.734375 -5.140625 0.648438 -5.21875 0.578125 -5.3125 C 0.421875 -5.507812 0.34375 -5.722656 0.34375 -5.953125 C 0.34375 -6.179688 0.382812 -6.375 0.46875 -6.53125 C 0.332031 -6.695312 0.265625 -6.882812 0.265625 -7.09375 C 0.265625 -7.300781 0.320312 -7.472656 0.4375 -7.609375 C 0.28125 -7.785156 0.203125 -8.015625 0.203125 -8.296875 C 0.203125 -8.628906 0.351562 -8.851562 0.65625 -8.96875 C 0.75 -9 0.828125 -9.015625 0.890625 -9.015625 C 1.023438 -9.015625 1.125 -8.988281 1.1875 -8.9375 C 1.15625 -8.84375 1.140625 -8.773438 1.140625 -8.734375 C 1.140625 -8.585938 1.191406 -8.515625 1.296875 -8.515625 C 1.359375 -8.515625 1.421875 -8.519531 1.484375 -8.53125 L 1.734375 -8.609375 C 2.171875 -8.722656 2.535156 -8.78125 2.828125 -8.78125 C 3.128906 -8.78125 3.390625 -8.71875 3.609375 -8.59375 C 3.804688 -8.71875 4.023438 -8.78125 4.265625 -8.78125 C 4.515625 -8.78125 4.738281 -8.71875 4.9375 -8.59375 C 5.15625 -8.71875 5.378906 -8.78125 5.609375 -8.78125 C 5.972656 -8.78125 6.296875 -8.742188 6.578125 -8.671875 L 7.078125 -8.53125 C 7.140625 -8.519531 7.195312 -8.515625 7.25 -8.515625 C 7.363281 -8.515625 7.421875 -8.585938 7.421875 -8.734375 C 7.421875 -8.773438 7.40625 -8.84375 7.375 -8.9375 C 7.4375 -8.988281 7.515625 -9.015625 7.609375 -9.015625 C 7.710938 -9.015625 7.804688 -9 7.890625 -8.96875 C 7.984375 -8.9375 8.066406 -8.890625 8.140625 -8.828125 C 8.285156 -8.691406 8.359375 -8.5 8.359375 -8.25 C 8.359375 -8 8.28125 -7.785156 8.125 -7.609375 C 8.238281 -7.472656 8.296875 -7.300781 8.296875 -7.09375 C 8.296875 -6.882812 8.222656 -6.695312 8.078125 -6.53125 C 8.160156 -6.375 8.203125 -6.21875 8.203125 -6.0625 C 8.203125 -5.90625 8.179688 -5.765625 8.140625 -5.640625 C 8.109375 -5.515625 8.054688 -5.40625 7.984375 -5.3125 C 7.828125 -5.101562 7.632812 -5 7.40625 -5 C 7.269531 -5 7.179688 -5.046875 7.140625 -5.140625 C 7.265625 -5.316406 7.328125 -5.578125 7.328125 -5.921875 C 7.328125 -6.273438 7.28125 -6.582031 7.1875 -6.84375 C 7.09375 -7.101562 6.96875 -7.320312 6.8125 -7.5 C 6.507812 -7.851562 6.148438 -8.03125 5.734375 -8.03125 C 5.578125 -8.03125 5.441406 -8.003906 5.328125 -7.953125 L 5.328125 -5.328125 C 5.328125 -5.140625 5.363281 -5.003906 5.4375 -4.921875 C 5.5625 -4.765625 5.753906 -4.628906 6.015625 -4.515625 C 5.734375 -4.378906 5.554688 -4.269531 5.484375 -4.1875 C 5.378906 -4.050781 5.328125 -3.894531 5.328125 -3.71875 L 5.328125 -0.953125 C 5.390625 -0.804688 5.488281 -0.695312 5.625 -0.625 C 5.769531 -0.550781 5.910156 -0.515625 6.046875 -0.515625 C 6.191406 -0.515625 6.304688 -0.546875 6.390625 -0.609375 C 6.429688 -0.554688 6.453125 -0.492188 6.453125 -0.421875 C 6.453125 -0.347656 6.429688 -0.273438 6.390625 -0.203125 C 6.347656 -0.140625 6.289062 -0.0859375 6.21875 -0.046875 C 6.039062 0.0546875 5.832031 0.109375 5.59375 0.109375 C 5.363281 0.109375 5.144531 0.046875 4.9375 -0.078125 Z M 3.78125 -1.5 C 3.96875 -1.570312 4.070312 -1.820312 4.09375 -2.25 C 4.113281 -2.664062 4.125 -3.25 4.125 -4 C 4.125 -4.75 4.125 -5.242188 4.125 -5.484375 C 4.125 -5.734375 4.117188 -5.9375 4.109375 -6.09375 C 4.097656 -6.539062 4.054688 -6.8125 3.984375 -6.90625 C 3.910156 -7 3.84375 -7.054688 3.78125 -7.078125 C 3.78125 -5.765625 3.757812 -5.019531 3.71875 -4.84375 C 3.664062 -4.6875 3.535156 -4.578125 3.328125 -4.515625 C 3.554688 -4.441406 3.6875 -4.347656 3.71875 -4.234375 C 3.757812 -4.046875 3.78125 -3.378906 3.78125 -2.234375 Z M 3.78125 -1.5 "/></g></g></g><g fill="#ffffff" fill-opacity="1"><g transform="translate(158.911423, 18.146003)"><g><path d="M 3.203125 -0.078125 C 3.003906 0.046875 2.78125 0.109375 2.53125 0.109375 C 2.289062 0.109375 2.078125 0.0507812 1.890625 -0.0625 C 1.691406 0.0507812 1.507812 0.109375 1.34375 0.109375 C 1.1875 0.109375 1.050781 0.09375 0.9375 0.0625 C 0.832031 0.0390625 0.742188 0.00390625 0.671875 -0.046875 C 0.503906 -0.140625 0.421875 -0.257812 0.421875 -0.40625 C 0.421875 -0.488281 0.441406 -0.554688 0.484375 -0.609375 C 0.566406 -0.546875 0.675781 -0.515625 0.8125 -0.515625 C 1.144531 -0.515625 1.375 -0.660156 1.5 -0.953125 L 1.5 -3.71875 C 1.5 -3.894531 1.460938 -4.023438 1.390625 -4.109375 C 1.273438 -4.242188 1.082031 -4.378906 0.8125 -4.515625 C 1.070312 -4.628906 1.238281 -4.734375 1.3125 -4.828125 C 1.4375 -4.972656 1.5 -5.140625 1.5 -5.328125 L 1.5 -7.71875 C 1.375 -8.007812 1.144531 -8.15625 0.8125 -8.15625 C 0.675781 -8.15625 0.566406 -8.125 0.484375 -8.0625 C 0.441406 -8.113281 0.421875 -8.175781 0.421875 -8.25 C 0.421875 -8.320312 0.441406 -8.390625 0.484375 -8.453125 C 0.535156 -8.523438 0.597656 -8.582031 0.671875 -8.625 C 0.835938 -8.726562 1.035156 -8.78125 1.265625 -8.78125 C 1.492188 -8.78125 1.703125 -8.71875 1.890625 -8.59375 C 2.085938 -8.71875 2.304688 -8.78125 2.546875 -8.78125 C 2.785156 -8.78125 3 -8.722656 3.1875 -8.609375 C 3.5625 -8.765625 3.984375 -8.84375 4.453125 -8.84375 C 4.929688 -8.84375 5.34375 -8.785156 5.6875 -8.671875 C 6.03125 -8.566406 6.335938 -8.414062 6.609375 -8.21875 C 7.179688 -7.8125 7.5625 -7.273438 7.75 -6.609375 C 7.820312 -6.347656 8 -6.132812 8.28125 -5.96875 C 7.988281 -5.800781 7.796875 -5.550781 7.703125 -5.21875 C 7.609375 -4.894531 7.445312 -4.59375 7.21875 -4.3125 C 6.988281 -4.03125 6.722656 -3.796875 6.421875 -3.609375 C 5.828125 -3.222656 5.191406 -3.03125 4.515625 -3.03125 C 4.210938 -3.03125 3.90625 -3.066406 3.59375 -3.140625 L 3.59375 -0.96875 C 3.6875 -0.75 3.894531 -0.609375 4.21875 -0.546875 C 4.300781 -0.523438 4.390625 -0.515625 4.484375 -0.515625 C 4.585938 -0.515625 4.679688 -0.546875 4.765625 -0.609375 C 4.804688 -0.554688 4.828125 -0.492188 4.828125 -0.421875 C 4.828125 -0.347656 4.800781 -0.273438 4.75 -0.203125 C 4.695312 -0.140625 4.625 -0.0859375 4.53125 -0.046875 C 4.332031 0.0546875 4.113281 0.109375 3.875 0.109375 C 3.632812 0.109375 3.410156 0.046875 3.203125 -0.078125 Z M 3.59375 -4.625 C 3.59375 -4.363281 3.6875 -4.15625 3.875 -4 C 4.039062 -3.851562 4.265625 -3.78125 4.546875 -3.78125 C 4.960938 -3.78125 5.257812 -3.941406 5.4375 -4.265625 C 5.5 -4.367188 5.53125 -4.503906 5.53125 -4.671875 L 5.53125 -7.234375 C 5.53125 -7.503906 5.425781 -7.71875 5.21875 -7.875 C 5.03125 -8.007812 4.84375 -8.078125 4.65625 -8.078125 C 4.46875 -8.078125 4.316406 -8.054688 4.203125 -8.015625 C 4.085938 -7.984375 3.984375 -7.9375 3.890625 -7.875 C 3.691406 -7.707031 3.59375 -7.484375 3.59375 -7.203125 Z M 5.90625 -4.03125 C 5.988281 -4.050781 6.078125 -4.15625 6.171875 -4.34375 C 6.265625 -4.539062 6.332031 -4.773438 6.375 -5.046875 C 6.425781 -5.316406 6.488281 -5.515625 6.5625 -5.640625 C 6.632812 -5.765625 6.75 -5.851562 6.90625 -5.90625 C 6.644531 -5.988281 6.476562 -6.21875 6.40625 -6.59375 C 6.34375 -6.976562 6.265625 -7.257812 6.171875 -7.4375 C 6.078125 -7.613281 5.988281 -7.707031 5.90625 -7.71875 C 6.039062 -7.40625 6.109375 -6.800781 6.109375 -5.90625 C 6.109375 -5.3125 6.078125 -4.863281 6.015625 -4.5625 C 5.960938 -4.257812 5.925781 -4.082031 5.90625 -4.03125 Z M 2.046875 -1.5 C 2.234375 -1.570312 2.335938 -1.820312 2.359375 -2.25 C 2.378906 -2.664062 2.390625 -3.25 2.390625 -4 C 2.390625 -4.75 2.390625 -5.242188 2.390625 -5.484375 C 2.390625 -5.734375 2.382812 -5.9375 2.375 -6.09375 C 2.363281 -6.539062 2.320312 -6.8125 2.25 -6.90625 C 2.175781 -7 2.109375 -7.054688 2.046875 -7.078125 C 2.046875 -5.765625 2.023438 -5.019531 1.984375 -4.84375 C 1.929688 -4.6875 1.800781 -4.578125 1.59375 -4.515625 C 1.820312 -4.441406 1.953125 -4.347656 1.984375 -4.234375 C 2.023438 -4.046875 2.046875 -3.378906 2.046875 -2.234375 Z M 2.046875 -1.5 "/></g></g></g><g fill="#ffffff" fill-opacity="1"><g transform="translate(166.978135, 18.146003)"><g><path d="M 2.546875 0.109375 C 2.296875 0.109375 2.078125 0.0507812 1.890625 -0.0625 C 1.691406 0.0507812 1.507812 0.109375 1.34375 0.109375 C 1.1875 0.109375 1.050781 0.09375 0.9375 0.0625 C 0.832031 0.0390625 0.742188 0.00390625 0.671875 -0.046875 C 0.503906 -0.140625 0.421875 -0.257812 0.421875 -0.40625 C 0.421875 -0.488281 0.441406 -0.554688 0.484375 -0.609375 C 0.566406 -0.546875 0.675781 -0.515625 0.8125 -0.515625 C 1.144531 -0.515625 1.375 -0.660156 1.5 -0.953125 L 1.5 -3.71875 C 1.5 -3.882812 1.460938 -4.015625 1.390625 -4.109375 C 1.273438 -4.253906 1.082031 -4.394531 0.8125 -4.53125 C 1.0625 -4.644531 1.226562 -4.742188 1.3125 -4.828125 C 1.4375 -4.984375 1.5 -5.148438 1.5 -5.328125 L 1.5 -7.71875 C 1.375 -8.007812 1.144531 -8.15625 0.8125 -8.15625 C 0.675781 -8.15625 0.566406 -8.125 0.484375 -8.0625 C 0.441406 -8.113281 0.421875 -8.175781 0.421875 -8.25 C 0.421875 -8.320312 0.441406 -8.390625 0.484375 -8.453125 C 0.535156 -8.523438 0.597656 -8.582031 0.671875 -8.625 C 0.835938 -8.726562 1.035156 -8.78125 1.265625 -8.78125 C 1.492188 -8.78125 1.703125 -8.71875 1.890625 -8.59375 C 2.085938 -8.71875 2.304688 -8.78125 2.546875 -8.78125 C 2.804688 -8.78125 3.035156 -8.710938 3.234375 -8.578125 C 3.648438 -8.753906 4.066406 -8.84375 4.484375 -8.84375 C 4.898438 -8.84375 5.28125 -8.800781 5.625 -8.71875 C 5.96875 -8.632812 6.273438 -8.519531 6.546875 -8.375 C 7.148438 -8.0625 7.523438 -7.648438 7.671875 -7.140625 C 7.753906 -6.859375 7.9375 -6.648438 8.21875 -6.515625 C 7.90625 -6.304688 7.710938 -6.066406 7.640625 -5.796875 C 7.484375 -5.191406 7.164062 -4.800781 6.6875 -4.625 C 7.394531 -4.425781 7.859375 -3.960938 8.078125 -3.234375 C 8.148438 -2.972656 8.328125 -2.757812 8.609375 -2.59375 C 8.316406 -2.425781 8.117188 -2.175781 8.015625 -1.84375 C 7.921875 -1.519531 7.75 -1.226562 7.5 -0.96875 C 7.257812 -0.707031 6.972656 -0.488281 6.640625 -0.3125 C 6.003906 0.0078125 5.289062 0.171875 4.5 0.171875 C 4.019531 0.171875 3.59375 0.0859375 3.21875 -0.078125 C 3.019531 0.046875 2.796875 0.109375 2.546875 0.109375 Z M 4.640625 -4.890625 C 4.972656 -4.890625 5.210938 -4.972656 5.359375 -5.140625 C 5.503906 -5.296875 5.578125 -5.570312 5.578125 -5.96875 L 5.578125 -7.28125 C 5.578125 -7.507812 5.457031 -7.707031 5.21875 -7.875 C 5 -8.007812 4.800781 -8.078125 4.625 -8.078125 C 4.445312 -8.078125 4.300781 -8.054688 4.1875 -8.015625 C 4.070312 -7.972656 3.96875 -7.910156 3.875 -7.828125 C 3.6875 -7.671875 3.59375 -7.484375 3.59375 -7.265625 L 3.59375 -4.890625 Z M 5.90625 -7.953125 C 6.03125 -7.660156 6.09375 -7.238281 6.09375 -6.6875 C 6.09375 -5.875 6.039062 -5.347656 5.9375 -5.109375 C 6.09375 -5.140625 6.226562 -5.289062 6.34375 -5.5625 C 6.382812 -5.664062 6.414062 -5.773438 6.4375 -5.890625 C 6.457031 -6.003906 6.472656 -6.09375 6.484375 -6.15625 C 6.492188 -6.21875 6.515625 -6.269531 6.546875 -6.3125 C 6.597656 -6.40625 6.695312 -6.476562 6.84375 -6.53125 C 6.695312 -6.582031 6.601562 -6.632812 6.5625 -6.6875 C 6.507812 -6.75 6.46875 -6.863281 6.4375 -7.03125 C 6.414062 -7.207031 6.382812 -7.347656 6.34375 -7.453125 C 6.300781 -7.566406 6.253906 -7.65625 6.203125 -7.71875 C 6.109375 -7.851562 6.007812 -7.929688 5.90625 -7.953125 Z M 2.046875 -1.5 C 2.234375 -1.570312 2.335938 -1.820312 2.359375 -2.25 C 2.378906 -2.664062 2.390625 -3.25 2.390625 -4 C 2.390625 -4.75 2.390625 -5.242188 2.390625 -5.484375 C 2.390625 -5.734375 2.382812 -5.9375 2.375 -6.09375 C 2.363281 -6.539062 2.320312 -6.8125 2.25 -6.90625 C 2.175781 -7 2.109375 -7.054688 2.046875 -7.078125 C 2.046875 -5.765625 2.023438 -5.019531 1.984375 -4.84375 C 1.929688 -4.6875 1.800781 -4.578125 1.59375 -4.515625 C 1.820312 -4.441406 1.953125 -4.347656 1.984375 -4.234375 C 2.023438 -4.046875 2.046875 -3.378906 2.046875 -2.234375 Z M 3.59375 -1.484375 C 3.59375 -1.210938 3.691406 -0.992188 3.890625 -0.828125 C 4.078125 -0.671875 4.304688 -0.59375 4.578125 -0.59375 C 4.835938 -0.59375 5.054688 -0.648438 5.234375 -0.765625 C 5.578125 -0.984375 5.75 -1.238281 5.75 -1.53125 L 5.75 -3.1875 C 5.75 -3.53125 5.632812 -3.789062 5.40625 -3.96875 C 5.21875 -4.113281 4.972656 -4.1875 4.671875 -4.1875 L 3.59375 -4.1875 Z M 6.125 -4 C 6.21875 -3.800781 6.265625 -3.332031 6.265625 -2.59375 C 6.265625 -1.65625 6.226562 -1.101562 6.15625 -0.9375 C 6.238281 -0.957031 6.320312 -1.054688 6.40625 -1.234375 C 6.488281 -1.410156 6.546875 -1.59375 6.578125 -1.78125 C 6.609375 -1.96875 6.628906 -2.09375 6.640625 -2.15625 C 6.660156 -2.226562 6.6875 -2.289062 6.71875 -2.34375 C 6.769531 -2.457031 6.867188 -2.539062 7.015625 -2.59375 C 6.785156 -2.664062 6.648438 -2.804688 6.609375 -3.015625 C 6.578125 -3.234375 6.539062 -3.398438 6.5 -3.515625 C 6.457031 -3.640625 6.421875 -3.734375 6.390625 -3.796875 C 6.316406 -3.921875 6.226562 -3.988281 6.125 -4 Z M 6.125 -4 "/></g></g></g></svg>