<svg xmlns="http://www.w3.org/2000/svg" xmlns:xlink="http://www.w3.org/1999/xlink" width="550" zoomAndPan="magnify" viewBox="0 0 412.5 44.999999" height="60" preserveAspectRatio="xMidYMid meet" version="1.0"><defs><g/><clipPath id="e01ccf1c99"><path d="M 0 0.0273438 L 412 0.0273438 L 412 44.972656 L 0 44.972656 Z M 0 0.0273438 " clip-rule="nonzero"/></clipPath><linearGradient x1="0" gradientTransform="matrix(0.749092, 0, 0, 0.749092, 0, 0.0272392)" y1="30" x2="549.999977" gradientUnits="userSpaceOnUse" y2="30" id="b1767b59d4"><stop stop-opacity="1" stop-color="rgb(100%, 85.499573%, 90.99884%)" offset="0"/><stop stop-opacity="1" stop-color="rgb(99.923706%, 85.256958%, 90.829468%)" offset="0.00390625"/><stop stop-opacity="1" stop-color="rgb(99.848938%, 85.014343%, 90.660095%)" offset="0.0078125"/><stop stop-opacity="1" stop-color="rgb(99.77417%, 84.771729%, 90.489197%)" offset="0.0117187"/><stop stop-opacity="1" stop-color="rgb(99.699402%, 84.53064%, 90.319824%)" offset="0.015625"/><stop stop-opacity="1" stop-color="rgb(99.624634%, 84.288025%, 90.148926%)" offset="0.0195312"/><stop stop-opacity="1" stop-color="rgb(99.549866%, 84.04541%, 89.979553%)" offset="0.0234375"/><stop stop-opacity="1" stop-color="rgb(99.473572%, 83.802795%, 89.808655%)" offset="0.0273438"/><stop stop-opacity="1" stop-color="rgb(99.398804%, 83.561707%, 89.639282%)" offset="0.03125"/><stop stop-opacity="1" stop-color="rgb(99.324036%, 83.319092%, 89.46991%)" offset="0.0351562"/><stop stop-opacity="1" stop-color="rgb(99.249268%, 83.078003%, 89.300537%)" offset="0.0390625"/><stop stop-opacity="1" stop-color="rgb(99.1745%, 82.835388%, 89.129639%)" offset="0.0429687"/><stop stop-opacity="1" stop-color="rgb(99.099731%, 82.592773%, 88.960266%)" offset="0.046875"/><stop stop-opacity="1" stop-color="rgb(99.023438%, 82.350159%, 88.789368%)" offset="0.0507812"/><stop stop-opacity="1" stop-color="rgb(98.948669%, 82.10907%, 88.619995%)" offset="0.0546875"/><stop stop-opacity="1" stop-color="rgb(98.873901%, 81.866455%, 88.450623%)" offset="0.0585938"/><stop stop-opacity="1" stop-color="rgb(98.799133%, 81.62384%, 88.28125%)" offset="0.0625"/><stop stop-opacity="1" stop-color="rgb(98.724365%, 81.381226%, 88.110352%)" offset="0.0664062"/><stop stop-opacity="1" stop-color="rgb(98.649597%, 81.140137%, 87.940979%)" offset="0.0703125"/><stop stop-opacity="1" stop-color="rgb(98.573303%, 80.897522%, 87.770081%)" offset="0.0742187"/><stop stop-opacity="1" stop-color="rgb(98.498535%, 80.654907%, 87.600708%)" offset="0.078125"/><stop stop-opacity="1" stop-color="rgb(98.423767%, 80.412292%, 87.42981%)" offset="0.0820312"/><stop stop-opacity="1" stop-color="rgb(98.348999%, 80.171204%, 87.260437%)" offset="0.0859375"/><stop stop-opacity="1" stop-color="rgb(98.274231%, 79.928589%, 87.091064%)" offset="0.0898437"/><stop stop-opacity="1" stop-color="rgb(98.199463%, 79.6875%, 86.921692%)" offset="0.09375"/><stop stop-opacity="1" stop-color="rgb(98.124695%, 79.444885%, 86.750793%)" offset="0.0976562"/><stop stop-opacity="1" stop-color="rgb(98.049927%, 79.202271%, 86.581421%)" offset="0.101562"/><stop stop-opacity="1" stop-color="rgb(97.973633%, 78.959656%, 86.410522%)" offset="0.105469"/><stop stop-opacity="1" stop-color="rgb(97.898865%, 78.718567%, 86.24115%)" offset="0.109375"/><stop stop-opacity="1" stop-color="rgb(97.824097%, 78.475952%, 86.070251%)" offset="0.113281"/><stop stop-opacity="1" stop-color="rgb(97.749329%, 78.233337%, 85.900879%)" offset="0.117188"/><stop stop-opacity="1" stop-color="rgb(97.674561%, 77.990723%, 85.731506%)" offset="0.121094"/><stop stop-opacity="1" stop-color="rgb(97.599792%, 77.749634%, 85.562134%)" offset="0.125"/><stop stop-opacity="1" stop-color="rgb(97.523499%, 77.507019%, 85.391235%)" offset="0.128906"/><stop stop-opacity="1" stop-color="rgb(97.44873%, 77.264404%, 85.221863%)" offset="0.132812"/><stop stop-opacity="1" stop-color="rgb(97.373962%, 77.02179%, 85.050964%)" offset="0.136719"/><stop stop-opacity="1" stop-color="rgb(97.299194%, 76.780701%, 84.881592%)" offset="0.140625"/><stop stop-opacity="1" stop-color="rgb(97.224426%, 76.538086%, 84.712219%)" offset="0.144531"/><stop stop-opacity="1" stop-color="rgb(97.149658%, 76.295471%, 84.542847%)" offset="0.148437"/><stop stop-opacity="1" stop-color="rgb(97.073364%, 76.052856%, 84.371948%)" offset="0.152344"/><stop stop-opacity="1" stop-color="rgb(96.998596%, 75.811768%, 84.202576%)" offset="0.15625"/><stop stop-opacity="1" stop-color="rgb(96.923828%, 75.569153%, 84.031677%)" offset="0.160156"/><stop stop-opacity="1" stop-color="rgb(96.84906%, 75.328064%, 83.862305%)" offset="0.164062"/><stop stop-opacity="1" stop-color="rgb(96.774292%, 75.085449%, 83.691406%)" offset="0.167969"/><stop stop-opacity="1" stop-color="rgb(96.699524%, 74.842834%, 83.522034%)" offset="0.171875"/><stop stop-opacity="1" stop-color="rgb(96.624756%, 74.60022%, 83.352661%)" offset="0.175781"/><stop stop-opacity="1" stop-color="rgb(96.549988%, 74.359131%, 83.183289%)" offset="0.179687"/><stop stop-opacity="1" stop-color="rgb(96.473694%, 74.116516%, 83.01239%)" offset="0.183594"/><stop stop-opacity="1" stop-color="rgb(96.398926%, 73.873901%, 82.843018%)" offset="0.1875"/><stop stop-opacity="1" stop-color="rgb(96.324158%, 73.631287%, 82.672119%)" offset="0.191406"/><stop stop-opacity="1" stop-color="rgb(96.24939%, 73.390198%, 82.502747%)" offset="0.195312"/><stop stop-opacity="1" stop-color="rgb(96.174622%, 73.147583%, 82.333374%)" offset="0.199219"/><stop stop-opacity="1" stop-color="rgb(96.099854%, 72.904968%, 82.164001%)" offset="0.203125"/><stop stop-opacity="1" stop-color="rgb(96.02356%, 72.662354%, 81.993103%)" offset="0.207031"/><stop stop-opacity="1" stop-color="rgb(95.948792%, 72.421265%, 81.82373%)" offset="0.210938"/><stop stop-opacity="1" stop-color="rgb(95.874023%, 72.17865%, 81.652832%)" offset="0.214844"/><stop stop-opacity="1" stop-color="rgb(95.799255%, 71.936035%, 81.483459%)" offset="0.21875"/><stop stop-opacity="1" stop-color="rgb(95.724487%, 71.69342%, 81.312561%)" offset="0.222656"/><stop stop-opacity="1" stop-color="rgb(95.649719%, 71.452332%, 81.143188%)" offset="0.226562"/><stop stop-opacity="1" stop-color="rgb(95.573425%, 71.209717%, 80.973816%)" offset="0.230469"/><stop stop-opacity="1" stop-color="rgb(95.498657%, 70.968628%, 80.804443%)" offset="0.234375"/><stop stop-opacity="1" stop-color="rgb(95.423889%, 70.726013%, 80.633545%)" offset="0.238281"/><stop stop-opacity="1" stop-color="rgb(95.349121%, 70.483398%, 80.464172%)" offset="0.242188"/><stop stop-opacity="1" stop-color="rgb(95.274353%, 70.240784%, 80.293274%)" offset="0.246094"/><stop stop-opacity="1" stop-color="rgb(95.199585%, 69.999695%, 80.123901%)" offset="0.25"/><stop stop-opacity="1" stop-color="rgb(95.123291%, 69.75708%, 79.954529%)" offset="0.253906"/><stop stop-opacity="1" stop-color="rgb(95.048523%, 69.514465%, 79.785156%)" offset="0.257812"/><stop stop-opacity="1" stop-color="rgb(94.973755%, 69.271851%, 79.614258%)" offset="0.261719"/><stop stop-opacity="1" stop-color="rgb(94.898987%, 69.030762%, 79.444885%)" offset="0.265625"/><stop stop-opacity="1" stop-color="rgb(94.824219%, 68.788147%, 79.273987%)" offset="0.269531"/><stop stop-opacity="1" stop-color="rgb(94.749451%, 68.545532%, 79.104614%)" offset="0.273437"/><stop stop-opacity="1" stop-color="rgb(94.674683%, 68.302917%, 78.933716%)" offset="0.277344"/><stop stop-opacity="1" stop-color="rgb(94.599915%, 68.061829%, 78.764343%)" offset="0.28125"/><stop stop-opacity="1" stop-color="rgb(94.523621%, 67.819214%, 78.594971%)" offset="0.285156"/><stop stop-opacity="1" stop-color="rgb(94.448853%, 67.578125%, 78.425598%)" offset="0.289062"/><stop stop-opacity="1" stop-color="rgb(94.374084%, 67.33551%, 78.2547%)" offset="0.292969"/><stop stop-opacity="1" stop-color="rgb(94.299316%, 67.092896%, 78.085327%)" offset="0.296875"/><stop stop-opacity="1" stop-color="rgb(94.224548%, 66.850281%, 77.914429%)" offset="0.300781"/><stop stop-opacity="1" stop-color="rgb(94.14978%, 66.609192%, 77.745056%)" offset="0.304687"/><stop stop-opacity="1" stop-color="rgb(94.073486%, 66.366577%, 77.574158%)" offset="0.308594"/><stop stop-opacity="1" stop-color="rgb(93.998718%, 66.123962%, 77.404785%)" offset="0.3125"/><stop stop-opacity="1" stop-color="rgb(93.92395%, 65.881348%, 77.235413%)" offset="0.316406"/><stop stop-opacity="1" stop-color="rgb(93.849182%, 65.640259%, 77.06604%)" offset="0.320312"/><stop stop-opacity="1" stop-color="rgb(93.774414%, 65.397644%, 76.895142%)" offset="0.324219"/><stop stop-opacity="1" stop-color="rgb(93.699646%, 65.155029%, 76.725769%)" offset="0.328125"/><stop stop-opacity="1" stop-color="rgb(93.623352%, 64.912415%, 76.554871%)" offset="0.332031"/><stop stop-opacity="1" stop-color="rgb(93.548584%, 64.671326%, 76.385498%)" offset="0.335937"/><stop stop-opacity="1" stop-color="rgb(93.473816%, 64.428711%, 76.216125%)" offset="0.339844"/><stop stop-opacity="1" stop-color="rgb(93.399048%, 64.186096%, 76.046753%)" offset="0.34375"/><stop stop-opacity="1" stop-color="rgb(93.32428%, 63.943481%, 75.875854%)" offset="0.347656"/><stop stop-opacity="1" stop-color="rgb(93.249512%, 63.702393%, 75.706482%)" offset="0.351562"/><stop stop-opacity="1" stop-color="rgb(93.174744%, 63.459778%, 75.535583%)" offset="0.355469"/><stop stop-opacity="1" stop-color="rgb(93.099976%, 63.218689%, 75.366211%)" offset="0.359375"/><stop stop-opacity="1" stop-color="rgb(93.023682%, 62.976074%, 75.195312%)" offset="0.363281"/><stop stop-opacity="1" stop-color="rgb(92.948914%, 62.733459%, 75.02594%)" offset="0.367187"/><stop stop-opacity="1" stop-color="rgb(92.874146%, 62.490845%, 74.856567%)" offset="0.371094"/><stop stop-opacity="1" stop-color="rgb(92.799377%, 62.249756%, 74.687195%)" offset="0.375"/><stop stop-opacity="1" stop-color="rgb(92.724609%, 62.007141%, 74.516296%)" offset="0.378906"/><stop stop-opacity="1" stop-color="rgb(92.649841%, 61.764526%, 74.346924%)" offset="0.382812"/><stop stop-opacity="1" stop-color="rgb(92.573547%, 61.521912%, 74.176025%)" offset="0.386719"/><stop stop-opacity="1" stop-color="rgb(92.498779%, 61.280823%, 74.006653%)" offset="0.390625"/><stop stop-opacity="1" stop-color="rgb(92.424011%, 61.038208%, 73.83728%)" offset="0.394531"/><stop stop-opacity="1" stop-color="rgb(92.349243%, 60.795593%, 73.667908%)" offset="0.398438"/><stop stop-opacity="1" stop-color="rgb(92.274475%, 60.552979%, 73.497009%)" offset="0.402344"/><stop stop-opacity="1" stop-color="rgb(92.199707%, 60.31189%, 73.327637%)" offset="0.40625"/><stop stop-opacity="1" stop-color="rgb(92.123413%, 60.069275%, 73.156738%)" offset="0.410156"/><stop stop-opacity="1" stop-color="rgb(92.048645%, 59.82666%, 72.987366%)" offset="0.414062"/><stop stop-opacity="1" stop-color="rgb(91.973877%, 59.584045%, 72.816467%)" offset="0.417969"/><stop stop-opacity="1" stop-color="rgb(91.899109%, 59.342957%, 72.647095%)" offset="0.421875"/><stop stop-opacity="1" stop-color="rgb(91.824341%, 59.100342%, 72.477722%)" offset="0.425781"/><stop stop-opacity="1" stop-color="rgb(91.749573%, 58.859253%, 72.30835%)" offset="0.429688"/><stop stop-opacity="1" stop-color="rgb(91.673279%, 58.616638%, 72.137451%)" offset="0.433594"/><stop stop-opacity="1" stop-color="rgb(91.598511%, 58.374023%, 71.968079%)" offset="0.4375"/><stop stop-opacity="1" stop-color="rgb(91.523743%, 58.131409%, 71.79718%)" offset="0.441406"/><stop stop-opacity="1" stop-color="rgb(91.448975%, 57.89032%, 71.627808%)" offset="0.445312"/><stop stop-opacity="1" stop-color="rgb(91.374207%, 57.647705%, 71.458435%)" offset="0.449219"/><stop stop-opacity="1" stop-color="rgb(91.299438%, 57.40509%, 71.289062%)" offset="0.453125"/><stop stop-opacity="1" stop-color="rgb(91.22467%, 57.162476%, 71.118164%)" offset="0.457031"/><stop stop-opacity="1" stop-color="rgb(91.149902%, 56.921387%, 70.948792%)" offset="0.460938"/><stop stop-opacity="1" stop-color="rgb(91.073608%, 56.678772%, 70.777893%)" offset="0.464844"/><stop stop-opacity="1" stop-color="rgb(90.99884%, 56.436157%, 70.608521%)" offset="0.46875"/><stop stop-opacity="1" stop-color="rgb(90.924072%, 56.193542%, 70.437622%)" offset="0.472656"/><stop stop-opacity="1" stop-color="rgb(90.849304%, 55.952454%, 70.26825%)" offset="0.476562"/><stop stop-opacity="1" stop-color="rgb(90.774536%, 55.709839%, 70.098877%)" offset="0.480469"/><stop stop-opacity="1" stop-color="rgb(90.699768%, 55.46875%, 69.929504%)" offset="0.484375"/><stop stop-opacity="1" stop-color="rgb(90.623474%, 55.226135%, 69.758606%)" offset="0.488281"/><stop stop-opacity="1" stop-color="rgb(90.548706%, 54.983521%, 69.589233%)" offset="0.492188"/><stop stop-opacity="1" stop-color="rgb(90.473938%, 54.740906%, 69.418335%)" offset="0.496094"/><stop stop-opacity="1" stop-color="rgb(90.39917%, 54.499817%, 69.248962%)" offset="0.5"/><stop stop-opacity="1" stop-color="rgb(90.324402%, 54.257202%, 69.078064%)" offset="0.503906"/><stop stop-opacity="1" stop-color="rgb(90.249634%, 54.014587%, 68.908691%)" offset="0.507812"/><stop stop-opacity="1" stop-color="rgb(90.17334%, 53.771973%, 68.739319%)" offset="0.511719"/><stop stop-opacity="1" stop-color="rgb(90.098572%, 53.530884%, 68.569946%)" offset="0.515625"/><stop stop-opacity="1" stop-color="rgb(90.023804%, 53.288269%, 68.399048%)" offset="0.519531"/><stop stop-opacity="1" stop-color="rgb(89.949036%, 53.045654%, 68.229675%)" offset="0.523437"/><stop stop-opacity="1" stop-color="rgb(89.874268%, 52.80304%, 68.058777%)" offset="0.527344"/><stop stop-opacity="1" stop-color="rgb(89.7995%, 52.561951%, 67.889404%)" offset="0.53125"/><stop stop-opacity="1" stop-color="rgb(89.724731%, 52.319336%, 67.720032%)" offset="0.535156"/><stop stop-opacity="1" stop-color="rgb(89.649963%, 52.076721%, 67.550659%)" offset="0.539062"/><stop stop-opacity="1" stop-color="rgb(89.573669%, 51.834106%, 67.379761%)" offset="0.542969"/><stop stop-opacity="1" stop-color="rgb(89.498901%, 51.593018%, 67.210388%)" offset="0.546875"/><stop stop-opacity="1" stop-color="rgb(89.424133%, 51.350403%, 67.03949%)" offset="0.550781"/><stop stop-opacity="1" stop-color="rgb(89.349365%, 51.109314%, 66.870117%)" offset="0.554687"/><stop stop-opacity="1" stop-color="rgb(89.274597%, 50.866699%, 66.699219%)" offset="0.558594"/><stop stop-opacity="1" stop-color="rgb(89.199829%, 50.624084%, 66.529846%)" offset="0.5625"/><stop stop-opacity="1" stop-color="rgb(89.123535%, 50.38147%, 66.360474%)" offset="0.566406"/><stop stop-opacity="1" stop-color="rgb(89.048767%, 50.140381%, 66.191101%)" offset="0.570312"/><stop stop-opacity="1" stop-color="rgb(88.973999%, 49.897766%, 66.020203%)" offset="0.574219"/><stop stop-opacity="1" stop-color="rgb(88.899231%, 49.655151%, 65.85083%)" offset="0.578125"/><stop stop-opacity="1" stop-color="rgb(88.824463%, 49.412537%, 65.679932%)" offset="0.582031"/><stop stop-opacity="1" stop-color="rgb(88.749695%, 49.171448%, 65.510559%)" offset="0.585937"/><stop stop-opacity="1" stop-color="rgb(88.673401%, 48.928833%, 65.341187%)" offset="0.589844"/><stop stop-opacity="1" stop-color="rgb(88.598633%, 48.686218%, 65.171814%)" offset="0.59375"/><stop stop-opacity="1" stop-color="rgb(88.523865%, 48.443604%, 65.000916%)" offset="0.597656"/><stop stop-opacity="1" stop-color="rgb(88.449097%, 48.202515%, 64.831543%)" offset="0.601562"/><stop stop-opacity="1" stop-color="rgb(88.374329%, 47.9599%, 64.660645%)" offset="0.605469"/><stop stop-opacity="1" stop-color="rgb(88.299561%, 47.717285%, 64.491272%)" offset="0.609375"/><stop stop-opacity="1" stop-color="rgb(88.223267%, 47.47467%, 64.320374%)" offset="0.613281"/><stop stop-opacity="1" stop-color="rgb(88.148499%, 47.233582%, 64.151001%)" offset="0.617187"/><stop stop-opacity="1" stop-color="rgb(88.07373%, 46.990967%, 63.981628%)" offset="0.621094"/><stop stop-opacity="1" stop-color="rgb(87.998962%, 46.749878%, 63.812256%)" offset="0.625"/><stop stop-opacity="1" stop-color="rgb(87.924194%, 46.507263%, 63.641357%)" offset="0.628906"/><stop stop-opacity="1" stop-color="rgb(87.849426%, 46.264648%, 63.471985%)" offset="0.632812"/><stop stop-opacity="1" stop-color="rgb(87.774658%, 46.022034%, 63.301086%)" offset="0.636719"/><stop stop-opacity="1" stop-color="rgb(87.69989%, 45.780945%, 63.131714%)" offset="0.640625"/><stop stop-opacity="1" stop-color="rgb(87.623596%, 45.53833%, 62.962341%)" offset="0.644531"/><stop stop-opacity="1" stop-color="rgb(87.548828%, 45.295715%, 62.792969%)" offset="0.648437"/><stop stop-opacity="1" stop-color="rgb(87.47406%, 45.053101%, 62.62207%)" offset="0.652344"/><stop stop-opacity="1" stop-color="rgb(87.399292%, 44.812012%, 62.452698%)" offset="0.65625"/><stop stop-opacity="1" stop-color="rgb(87.324524%, 44.569397%, 62.281799%)" offset="0.660156"/><stop stop-opacity="1" stop-color="rgb(87.249756%, 44.326782%, 62.112427%)" offset="0.664062"/><stop stop-opacity="1" stop-color="rgb(87.173462%, 44.084167%, 61.941528%)" offset="0.667969"/><stop stop-opacity="1" stop-color="rgb(87.098694%, 43.843079%, 61.772156%)" offset="0.671875"/><stop stop-opacity="1" stop-color="rgb(87.023926%, 43.600464%, 61.602783%)" offset="0.675781"/><stop stop-opacity="1" stop-color="rgb(86.949158%, 43.359375%, 61.433411%)" offset="0.679687"/><stop stop-opacity="1" stop-color="rgb(86.87439%, 43.11676%, 61.262512%)" offset="0.683594"/><stop stop-opacity="1" stop-color="rgb(86.799622%, 42.874146%, 61.09314%)" offset="0.6875"/><stop stop-opacity="1" stop-color="rgb(86.723328%, 42.631531%, 60.922241%)" offset="0.691406"/><stop stop-opacity="1" stop-color="rgb(86.64856%, 42.390442%, 60.752869%)" offset="0.695312"/><stop stop-opacity="1" stop-color="rgb(86.573792%, 42.147827%, 60.58197%)" offset="0.699219"/><stop stop-opacity="1" stop-color="rgb(86.499023%, 41.905212%, 60.412598%)" offset="0.703125"/><stop stop-opacity="1" stop-color="rgb(86.424255%, 41.662598%, 60.243225%)" offset="0.707031"/><stop stop-opacity="1" stop-color="rgb(86.349487%, 41.421509%, 60.073853%)" offset="0.710937"/><stop stop-opacity="1" stop-color="rgb(86.274719%, 41.178894%, 59.902954%)" offset="0.714844"/><stop stop-opacity="1" stop-color="rgb(86.199951%, 40.936279%, 59.733582%)" offset="0.71875"/><stop stop-opacity="1" stop-color="rgb(86.123657%, 40.693665%, 59.562683%)" offset="0.722656"/><stop stop-opacity="1" stop-color="rgb(86.048889%, 40.452576%, 59.393311%)" offset="0.726562"/><stop stop-opacity="1" stop-color="rgb(85.974121%, 40.209961%, 59.223938%)" offset="0.730469"/><stop stop-opacity="1" stop-color="rgb(85.899353%, 39.967346%, 59.054565%)" offset="0.734375"/><stop stop-opacity="1" stop-color="rgb(85.824585%, 39.724731%, 58.883667%)" offset="0.738281"/><stop stop-opacity="1" stop-color="rgb(85.749817%, 39.483643%, 58.714294%)" offset="0.742187"/><stop stop-opacity="1" stop-color="rgb(85.673523%, 39.241028%, 58.543396%)" offset="0.746094"/><stop stop-opacity="1" stop-color="rgb(85.598755%, 38.999939%, 58.374023%)" offset="0.75"/><stop stop-opacity="1" stop-color="rgb(85.523987%, 38.757324%, 58.203125%)" offset="0.753906"/><stop stop-opacity="1" stop-color="rgb(85.449219%, 38.514709%, 58.033752%)" offset="0.757812"/><stop stop-opacity="1" stop-color="rgb(85.374451%, 38.272095%, 57.86438%)" offset="0.761719"/><stop stop-opacity="1" stop-color="rgb(85.299683%, 38.031006%, 57.695007%)" offset="0.765625"/><stop stop-opacity="1" stop-color="rgb(85.223389%, 37.788391%, 57.524109%)" offset="0.769531"/><stop stop-opacity="1" stop-color="rgb(85.148621%, 37.545776%, 57.354736%)" offset="0.773438"/><stop stop-opacity="1" stop-color="rgb(85.073853%, 37.303162%, 57.183838%)" offset="0.777344"/><stop stop-opacity="1" stop-color="rgb(84.999084%, 37.062073%, 57.014465%)" offset="0.78125"/><stop stop-opacity="1" stop-color="rgb(84.924316%, 36.819458%, 56.845093%)" offset="0.785156"/><stop stop-opacity="1" stop-color="rgb(84.849548%, 36.576843%, 56.67572%)" offset="0.789062"/><stop stop-opacity="1" stop-color="rgb(84.773254%, 36.334229%, 56.504822%)" offset="0.792969"/><stop stop-opacity="1" stop-color="rgb(84.698486%, 36.09314%, 56.335449%)" offset="0.796875"/><stop stop-opacity="1" stop-color="rgb(84.623718%, 35.850525%, 56.164551%)" offset="0.800781"/><stop stop-opacity="1" stop-color="rgb(84.54895%, 35.60791%, 55.995178%)" offset="0.804688"/><stop stop-opacity="1" stop-color="rgb(84.474182%, 35.365295%, 55.82428%)" offset="0.808594"/><stop stop-opacity="1" stop-color="rgb(84.399414%, 35.124207%, 55.654907%)" offset="0.8125"/><stop stop-opacity="1" stop-color="rgb(84.324646%, 34.881592%, 55.485535%)" offset="0.816406"/><stop stop-opacity="1" stop-color="rgb(84.249878%, 34.640503%, 55.316162%)" offset="0.820312"/><stop stop-opacity="1" stop-color="rgb(84.173584%, 34.397888%, 55.145264%)" offset="0.824219"/><stop stop-opacity="1" stop-color="rgb(84.098816%, 34.155273%, 54.975891%)" offset="0.828125"/><stop stop-opacity="1" stop-color="rgb(84.024048%, 33.912659%, 54.804993%)" offset="0.832031"/><stop stop-opacity="1" stop-color="rgb(83.94928%, 33.67157%, 54.63562%)" offset="0.835938"/><stop stop-opacity="1" stop-color="rgb(83.874512%, 33.428955%, 54.466248%)" offset="0.839844"/><stop stop-opacity="1" stop-color="rgb(83.799744%, 33.18634%, 54.296875%)" offset="0.84375"/><stop stop-opacity="1" stop-color="rgb(83.72345%, 32.943726%, 54.125977%)" offset="0.847656"/><stop stop-opacity="1" stop-color="rgb(83.648682%, 32.702637%, 53.956604%)" offset="0.851562"/><stop stop-opacity="1" stop-color="rgb(83.573914%, 32.460022%, 53.785706%)" offset="0.855469"/><stop stop-opacity="1" stop-color="rgb(83.499146%, 32.217407%, 53.616333%)" offset="0.859375"/><stop stop-opacity="1" stop-color="rgb(83.424377%, 31.974792%, 53.445435%)" offset="0.863281"/><stop stop-opacity="1" stop-color="rgb(83.349609%, 31.733704%, 53.276062%)" offset="0.867188"/><stop stop-opacity="1" stop-color="rgb(83.273315%, 31.491089%, 53.106689%)" offset="0.871094"/><stop stop-opacity="1" stop-color="rgb(83.198547%, 31.25%, 52.937317%)" offset="0.875"/><stop stop-opacity="1" stop-color="rgb(83.123779%, 31.007385%, 52.766418%)" offset="0.878906"/><stop stop-opacity="1" stop-color="rgb(83.049011%, 30.764771%, 52.597046%)" offset="0.882812"/><stop stop-opacity="1" stop-color="rgb(82.974243%, 30.522156%, 52.426147%)" offset="0.886719"/><stop stop-opacity="1" stop-color="rgb(82.899475%, 30.281067%, 52.256775%)" offset="0.890625"/><stop stop-opacity="1" stop-color="rgb(82.824707%, 30.038452%, 52.085876%)" offset="0.894531"/><stop stop-opacity="1" stop-color="rgb(82.749939%, 29.795837%, 51.916504%)" offset="0.898438"/><stop stop-opacity="1" stop-color="rgb(82.673645%, 29.553223%, 51.747131%)" offset="0.902344"/><stop stop-opacity="1" stop-color="rgb(82.598877%, 29.312134%, 51.577759%)" offset="0.90625"/><stop stop-opacity="1" stop-color="rgb(82.524109%, 29.069519%, 51.40686%)" offset="0.910156"/><stop stop-opacity="1" stop-color="rgb(82.449341%, 28.826904%, 51.237488%)" offset="0.914062"/><stop stop-opacity="1" stop-color="rgb(82.374573%, 28.58429%, 51.066589%)" offset="0.917969"/><stop stop-opacity="1" stop-color="rgb(82.299805%, 28.343201%, 50.897217%)" offset="0.921875"/><stop stop-opacity="1" stop-color="rgb(82.223511%, 28.100586%, 50.727844%)" offset="0.925781"/><stop stop-opacity="1" stop-color="rgb(82.148743%, 27.857971%, 50.558472%)" offset="0.929688"/><stop stop-opacity="1" stop-color="rgb(82.073975%, 27.615356%, 50.387573%)" offset="0.933594"/><stop stop-opacity="1" stop-color="rgb(81.999207%, 27.374268%, 50.218201%)" offset="0.9375"/><stop stop-opacity="1" stop-color="rgb(81.924438%, 27.131653%, 50.047302%)" offset="0.941406"/><stop stop-opacity="1" stop-color="rgb(81.84967%, 26.890564%, 49.87793%)" offset="0.945312"/><stop stop-opacity="1" stop-color="rgb(81.773376%, 26.647949%, 49.707031%)" offset="0.949219"/><stop stop-opacity="1" stop-color="rgb(81.698608%, 26.405334%, 49.537659%)" offset="0.953125"/><stop stop-opacity="1" stop-color="rgb(81.62384%, 26.16272%, 49.368286%)" offset="0.957031"/><stop stop-opacity="1" stop-color="rgb(81.549072%, 25.921631%, 49.198914%)" offset="0.960938"/><stop stop-opacity="1" stop-color="rgb(81.474304%, 25.679016%, 49.028015%)" offset="0.964844"/><stop stop-opacity="1" stop-color="rgb(81.399536%, 25.436401%, 48.858643%)" offset="0.96875"/><stop stop-opacity="1" stop-color="rgb(81.324768%, 25.193787%, 48.687744%)" offset="0.972656"/><stop stop-opacity="1" stop-color="rgb(81.25%, 24.952698%, 48.518372%)" offset="0.976562"/><stop stop-opacity="1" stop-color="rgb(81.173706%, 24.710083%, 48.348999%)" offset="0.980469"/><stop stop-opacity="1" stop-color="rgb(81.098938%, 24.467468%, 48.179626%)" offset="0.984375"/><stop stop-opacity="1" stop-color="rgb(81.02417%, 24.224854%, 48.008728%)" offset="0.988281"/><stop stop-opacity="1" stop-color="rgb(80.949402%, 23.983765%, 47.839355%)" offset="0.992188"/><stop stop-opacity="1" stop-color="rgb(80.874634%, 23.74115%, 47.668457%)" offset="0.996094"/><stop stop-opacity="1" stop-color="rgb(80.799866%, 23.498535%, 47.499084%)" offset="1"/></linearGradient><clipPath id="b91e10ac3e"><path d="M 11 3.1875 L 55.644531 3.1875 L 55.644531 3.832031 L 11 3.832031 Z M 11 3.1875 " clip-rule="nonzero"/></clipPath><clipPath id="3f133e355c"><path d="M 0 3.1875 L 43.773438 3.1875 L 43.773438 3.832031 L 0 3.832031 Z M 0 3.1875 " clip-rule="nonzero"/></clipPath><clipPath id="d803c2bb11"><path d="M 67 3.1875 L 111.597656 3.1875 L 111.597656 3.832031 L 67 3.832031 Z M 67 3.1875 " clip-rule="nonzero"/></clipPath><clipPath id="bd3eb665c1"><path d="M 55 3.1875 L 99.726562 3.1875 L 99.726562 3.832031 L 55 3.832031 Z M 55 3.1875 " clip-rule="nonzero"/></clipPath><clipPath id="bb80e53f37"><path d="M 116.285156 3.1875 L 161.347656 3.1875 L 161.347656 3.832031 L 116.285156 3.832031 Z M 116.285156 3.1875 " clip-rule="nonzero"/></clipPath><clipPath id="1ff62abe53"><path d="M 104.417969 3.1875 L 149.480469 3.1875 L 149.480469 3.832031 L 104.417969 3.832031 Z M 104.417969 3.1875 " clip-rule="nonzero"/></clipPath><clipPath id="5e4b2ea545"><path d="M 169.367188 3.1875 L 214.429688 3.1875 L 214.429688 3.832031 L 169.367188 3.832031 Z M 169.367188 3.1875 " clip-rule="nonzero"/></clipPath><clipPath id="f9a881f229"><path d="M 157.5 3.1875 L 202.5625 3.1875 L 202.5625 3.832031 L 157.5 3.832031 Z M 157.5 3.1875 " clip-rule="nonzero"/></clipPath><clipPath id="5ab1c12903"><path d="M 225.246094 3.1875 L 270.308594 3.1875 L 270.308594 3.832031 L 225.246094 3.832031 Z M 225.246094 3.1875 " clip-rule="nonzero"/></clipPath><clipPath id="37661ba852"><path d="M 213.375 3.1875 L 258.4375 3.1875 L 258.4375 3.832031 L 213.375 3.832031 Z M 213.375 3.1875 " clip-rule="nonzero"/></clipPath><clipPath id="a166cacabb"><path d="M 253 3.1875 L 297.855469 3.1875 L 297.855469 3.832031 L 253 3.832031 Z M 253 3.1875 " clip-rule="nonzero"/></clipPath><clipPath id="3b1ad8e0d0"><path d="M 241 3.1875 L 285.984375 3.1875 L 285.984375 3.832031 L 241 3.832031 Z M 241 3.1875 " clip-rule="nonzero"/></clipPath><clipPath id="d74ff9196a"><path d="M 309 3.1875 L 353.804688 3.1875 L 353.804688 3.832031 L 309 3.832031 Z M 309 3.1875 " clip-rule="nonzero"/></clipPath><clipPath id="2b7de403a0"><path d="M 297 3.1875 L 341.9375 3.1875 L 341.9375 3.832031 L 297 3.832031 Z M 297 3.1875 " clip-rule="nonzero"/></clipPath><clipPath id="69f7d5d3ed"><path d="M 358.496094 3.1875 L 403.558594 3.1875 L 403.558594 3.832031 L 358.496094 3.832031 Z M 358.496094 3.1875 " clip-rule="nonzero"/></clipPath><clipPath id="f1f44c0234"><path d="M 347 3.1875 L 391.6875 3.1875 L 391.6875 3.832031 L 347 3.832031 Z M 347 3.1875 " clip-rule="nonzero"/></clipPath><clipPath id="48aec3bc44"><path d="M 400 3.1875 L 412 3.1875 L 412 3.832031 L 400 3.832031 Z M 400 3.1875 " clip-rule="nonzero"/></clipPath><clipPath id="9c0a8f7ddb"><path d="M 3 6.207031 L 23.160156 6.207031 L 23.160156 38.417969 L 3 38.417969 Z M 3 6.207031 " clip-rule="nonzero"/></clipPath><clipPath id="f8905c1c85"><path d="M 21.980469 6.207031 L 70.261719 6.207031 L 70.261719 38.394531 L 21.980469 38.394531 Z M 21.980469 6.207031 " clip-rule="nonzero"/></clipPath><clipPath id="dfef14e2c0"><path d="M 68.832031 6.207031 L 117.117188 6.207031 L 117.117188 38.394531 L 68.832031 38.394531 Z M 68.832031 6.207031 " clip-rule="nonzero"/></clipPath><clipPath id="babec8c8cc"><path d="M 114.414062 6.207031 L 162.699219 6.207031 L 162.699219 38.394531 L 114.414062 38.394531 Z M 114.414062 6.207031 " clip-rule="nonzero"/></clipPath><clipPath id="ae514f51b4"><path d="M 161.269531 6.207031 L 209.550781 6.207031 L 209.550781 38.394531 L 161.269531 38.394531 Z M 161.269531 6.207031 " clip-rule="nonzero"/></clipPath><clipPath id="b20590d79c"><path d="M 206.992188 6.277344 L 255.273438 6.277344 L 255.273438 38.464844 L 206.992188 38.464844 Z M 206.992188 6.277344 " clip-rule="nonzero"/></clipPath><clipPath id="5a1f47b2c7"><path d="M 253.847656 6.277344 L 302.128906 6.277344 L 302.128906 38.464844 L 253.847656 38.464844 Z M 253.847656 6.277344 " clip-rule="nonzero"/></clipPath><clipPath id="eee616f60b"><path d="M 300.054688 6.3125 L 348.335938 6.3125 L 348.335938 38.5 L 300.054688 38.5 Z M 300.054688 6.3125 " clip-rule="nonzero"/></clipPath><clipPath id="a994877eba"><path d="M 346.910156 6.3125 L 395.191406 6.3125 L 395.191406 38.5 L 346.910156 38.5 Z M 346.910156 6.3125 " clip-rule="nonzero"/></clipPath><clipPath id="b73434e7e3"><path d="M 7.847656 10.988281 L 402.285156 10.988281 L 402.285156 33.941406 L 7.847656 33.941406 Z M 7.847656 10.988281 " clip-rule="nonzero"/></clipPath><clipPath id="0d1bd6ebb9"><path d="M 8.089844 41.261719 L 53.152344 41.261719 L 53.152344 41.90625 L 8.089844 41.90625 Z M 8.089844 41.261719 " clip-rule="nonzero"/></clipPath><clipPath id="8cbad3fde5"><path d="M 0 41.261719 L 41.28125 41.261719 L 41.28125 41.90625 L 0 41.90625 Z M 0 41.261719 " clip-rule="nonzero"/></clipPath><clipPath id="cfd37711fd"><path d="M 64.039062 41.261719 L 109.101562 41.261719 L 109.101562 41.90625 L 64.039062 41.90625 Z M 64.039062 41.261719 " clip-rule="nonzero"/></clipPath><clipPath id="4dcf246200"><path d="M 52.171875 41.261719 L 97.234375 41.261719 L 97.234375 41.90625 L 52.171875 41.90625 Z M 52.171875 41.261719 " clip-rule="nonzero"/></clipPath><clipPath id="53268df68b"><path d="M 114 41.261719 L 158.855469 41.261719 L 158.855469 41.90625 L 114 41.90625 Z M 114 41.261719 " clip-rule="nonzero"/></clipPath><clipPath id="b0a8917922"><path d="M 102 41.261719 L 146.984375 41.261719 L 146.984375 41.90625 L 102 41.90625 Z M 102 41.261719 " clip-rule="nonzero"/></clipPath><clipPath id="a51e133af1"><path d="M 167 41.261719 L 211.9375 41.261719 L 211.9375 41.90625 L 167 41.90625 Z M 167 41.261719 " clip-rule="nonzero"/></clipPath><clipPath id="58e5cecd14"><path d="M 155.003906 41.261719 L 200.066406 41.261719 L 200.066406 41.90625 L 155.003906 41.90625 Z M 155.003906 41.261719 " clip-rule="nonzero"/></clipPath><clipPath id="33dbf000dc"><path d="M 223 41.261719 L 267.816406 41.261719 L 267.816406 41.90625 L 223 41.90625 Z M 223 41.261719 " clip-rule="nonzero"/></clipPath><clipPath id="5b03ff1800"><path d="M 211 41.261719 L 255.945312 41.261719 L 255.945312 41.90625 L 211 41.90625 Z M 211 41.261719 " clip-rule="nonzero"/></clipPath><clipPath id="fa3aa8b18b"><path d="M 250.296875 41.261719 L 295.359375 41.261719 L 295.359375 41.90625 L 250.296875 41.90625 Z M 250.296875 41.261719 " clip-rule="nonzero"/></clipPath><clipPath id="bd3fdc068b"><path d="M 238.429688 41.261719 L 283.492188 41.261719 L 283.492188 41.90625 L 238.429688 41.90625 Z M 238.429688 41.261719 " clip-rule="nonzero"/></clipPath><clipPath id="c1b1c9b5bc"><path d="M 306.25 41.261719 L 351.3125 41.261719 L 351.3125 41.90625 L 306.25 41.90625 Z M 306.25 41.261719 " clip-rule="nonzero"/></clipPath><clipPath id="04e957e5c8"><path d="M 294.378906 41.261719 L 339.441406 41.261719 L 339.441406 41.90625 L 294.378906 41.90625 Z M 294.378906 41.261719 " clip-rule="nonzero"/></clipPath><clipPath id="3162c23960"><path d="M 356 41.261719 L 401.0625 41.261719 L 401.0625 41.90625 L 356 41.90625 Z M 356 41.261719 " clip-rule="nonzero"/></clipPath><clipPath id="f5dddc4f9a"><path d="M 344.132812 41.261719 L 389.195312 41.261719 L 389.195312 41.90625 L 344.132812 41.90625 Z M 344.132812 41.261719 " clip-rule="nonzero"/></clipPath><clipPath id="58ff89f563"><path d="M 409.082031 41.261719 L 412 41.261719 L 412 41.90625 L 409.082031 41.90625 Z M 409.082031 41.261719 " clip-rule="nonzero"/></clipPath><clipPath id="894b6ca66a"><path d="M 397.214844 41.261719 L 412 41.261719 L 412 41.90625 L 397.214844 41.90625 Z M 397.214844 41.261719 " clip-rule="nonzero"/></clipPath><clipPath id="4de0fb606b"><path d="M 387.125 6.277344 L 407 6.277344 L 407 38.488281 L 387.125 38.488281 Z M 387.125 6.277344 " clip-rule="nonzero"/></clipPath><clipPath id="6435103deb"><path d="M 268.515625 13.339844 L 294.730469 13.339844 L 294.730469 32.816406 L 268.515625 32.816406 Z M 268.515625 13.339844 " clip-rule="nonzero"/></clipPath><clipPath id="7057df0c25"><path d="M 127.117188 12.769531 L 147.34375 12.769531 L 147.34375 32.246094 L 127.117188 32.246094 Z M 127.117188 12.769531 " clip-rule="nonzero"/></clipPath></defs><g clip-path="url(#e01ccf1c99)"><path fill="#ffffff" d="M 0 0.0273438 L 412 0.0273438 L 412 44.972656 L 0 44.972656 Z M 0 0.0273438 " fill-opacity="1" fill-rule="nonzero"/><path fill="url(#b1767b59d4)" d="M 0 0.0273438 L 0 44.972656 L 412 44.972656 L 412 0.0273438 Z M 0 0.0273438 " fill-rule="nonzero"/></g><g clip-path="url(#b91e10ac3e)"><path fill="#390726" d="M 11.050781 3.164062 L 224.996094 3.164062 L 224.996094 3.78125 L 11.050781 3.78125 Z M 11.050781 3.164062 " fill-opacity="1" fill-rule="nonzero"/></g><g clip-path="url(#3f133e355c)"><path fill="#390726" d="M -0.820312 3.164062 L 213.125 3.164062 L 213.125 3.78125 L -0.820312 3.78125 Z M -0.820312 3.164062 " fill-opacity="1" fill-rule="nonzero"/></g><g clip-path="url(#d803c2bb11)"><path fill="#390726" d="M 67 3.164062 L 280.945312 3.164062 L 280.945312 3.78125 L 67 3.78125 Z M 67 3.164062 " fill-opacity="1" fill-rule="nonzero"/></g><g clip-path="url(#bd3eb665c1)"><path fill="#390726" d="M 55.132812 3.164062 L 269.078125 3.164062 L 269.078125 3.78125 L 55.132812 3.78125 Z M 55.132812 3.164062 " fill-opacity="1" fill-rule="nonzero"/></g><g clip-path="url(#bb80e53f37)"><path fill="#390726" d="M 116.753906 3.164062 L 330.699219 3.164062 L 330.699219 3.78125 L 116.753906 3.78125 Z M 116.753906 3.164062 " fill-opacity="1" fill-rule="nonzero"/></g><g clip-path="url(#1ff62abe53)"><path fill="#390726" d="M 104.882812 3.164062 L 318.832031 3.164062 L 318.832031 3.78125 L 104.882812 3.78125 Z M 104.882812 3.164062 " fill-opacity="1" fill-rule="nonzero"/></g><g clip-path="url(#5e4b2ea545)"><path fill="#390726" d="M 169.835938 3.164062 L 383.78125 3.164062 L 383.78125 3.78125 L 169.835938 3.78125 Z M 169.835938 3.164062 " fill-opacity="1" fill-rule="nonzero"/></g><g clip-path="url(#f9a881f229)"><path fill="#390726" d="M 157.964844 3.164062 L 371.914062 3.164062 L 371.914062 3.78125 L 157.964844 3.78125 Z M 157.964844 3.164062 " fill-opacity="1" fill-rule="nonzero"/></g><g clip-path="url(#5ab1c12903)"><path fill="#390726" d="M 225.710938 3.164062 L 439.660156 3.164062 L 439.660156 3.78125 L 225.710938 3.78125 Z M 225.710938 3.164062 " fill-opacity="1" fill-rule="nonzero"/></g><g clip-path="url(#37661ba852)"><path fill="#390726" d="M 213.84375 3.164062 L 427.789062 3.164062 L 427.789062 3.78125 L 213.84375 3.78125 Z M 213.84375 3.164062 " fill-opacity="1" fill-rule="nonzero"/></g><g clip-path="url(#a166cacabb)"><path fill="#390726" d="M 253.257812 3.164062 L 467.207031 3.164062 L 467.207031 3.78125 L 253.257812 3.78125 Z M 253.257812 3.164062 " fill-opacity="1" fill-rule="nonzero"/></g><g clip-path="url(#3b1ad8e0d0)"><path fill="#390726" d="M 241.390625 3.164062 L 455.335938 3.164062 L 455.335938 3.78125 L 241.390625 3.78125 Z M 241.390625 3.164062 " fill-opacity="1" fill-rule="nonzero"/></g><g clip-path="url(#d74ff9196a)"><path fill="#390726" d="M 309.210938 3.164062 L 523.15625 3.164062 L 523.15625 3.78125 L 309.210938 3.78125 Z M 309.210938 3.164062 " fill-opacity="1" fill-rule="nonzero"/></g><g clip-path="url(#2b7de403a0)"><path fill="#390726" d="M 297.339844 3.164062 L 511.285156 3.164062 L 511.285156 3.78125 L 297.339844 3.78125 Z M 297.339844 3.164062 " fill-opacity="1" fill-rule="nonzero"/></g><g clip-path="url(#69f7d5d3ed)"><path fill="#390726" d="M 358.960938 3.164062 L 572.910156 3.164062 L 572.910156 3.78125 L 358.960938 3.78125 Z M 358.960938 3.164062 " fill-opacity="1" fill-rule="nonzero"/></g><g clip-path="url(#f1f44c0234)"><path fill="#390726" d="M 347.09375 3.164062 L 561.039062 3.164062 L 561.039062 3.78125 L 347.09375 3.78125 Z M 347.09375 3.164062 " fill-opacity="1" fill-rule="nonzero"/></g><g clip-path="url(#48aec3bc44)"><path fill="#390726" d="M 400.175781 3.164062 L 614.121094 3.164062 L 614.121094 3.78125 L 400.175781 3.78125 Z M 400.175781 3.164062 " fill-opacity="1" fill-rule="nonzero"/></g><g clip-path="url(#9c0a8f7ddb)"><path fill="#390726" d="M 65.253906 38.792969 L 66.113281 38.792969 L 66.113281 6.121094 L 3.304688 6.121094 L 3.304688 38.792969 Z M 4.773438 37.933594 L 8.519531 34.1875 L 60.902344 34.1875 L 64.644531 37.933594 Z M 8.769531 33.328125 L 8.769531 11.585938 C 8.769531 11.585938 60.648438 11.585938 60.648438 11.585938 L 60.648438 33.328125 Z M 65.253906 37.324219 L 61.507812 33.578125 L 61.507812 11.332031 L 65.253906 7.585938 Z M 64.644531 6.980469 L 60.902344 10.726562 L 8.519531 10.726562 L 4.773438 6.980469 Z M 4.164062 6.980469 Z M 4.164062 7.585938 L 7.910156 11.332031 L 7.910156 33.578125 L 4.164062 37.324219 Z M 4.164062 7.585938 " fill-opacity="1" fill-rule="nonzero"/></g><g clip-path="url(#f8905c1c85)"><path fill="#390726" d="M 76.796875 38.789062 L 77.65625 38.789062 L 77.65625 6.121094 L 14.855469 6.121094 L 14.855469 38.789062 Z M 16.320312 37.929688 L 20.066406 34.183594 L 72.441406 34.183594 L 76.1875 37.929688 Z M 20.316406 33.324219 L 20.316406 11.582031 C 20.316406 11.582031 72.191406 11.582031 72.191406 11.582031 L 72.191406 33.324219 Z M 76.796875 37.320312 L 73.050781 33.574219 L 73.050781 11.332031 L 76.796875 7.585938 Z M 76.1875 6.980469 L 72.441406 10.726562 L 20.066406 10.726562 L 16.320312 6.980469 Z M 15.714844 6.980469 Z M 15.714844 7.585938 L 19.457031 11.332031 L 19.457031 33.574219 L 15.714844 37.320312 Z M 15.714844 7.585938 " fill-opacity="1" fill-rule="nonzero"/></g><g clip-path="url(#dfef14e2c0)"><path fill="#390726" d="M 123.648438 38.789062 L 124.507812 38.789062 L 124.507812 6.121094 L 61.707031 6.121094 L 61.707031 38.789062 Z M 63.175781 37.929688 L 66.921875 34.183594 L 119.296875 34.183594 L 123.042969 37.929688 Z M 67.171875 33.324219 L 67.171875 11.582031 C 67.171875 11.582031 119.046875 11.582031 119.046875 11.582031 L 119.046875 33.324219 Z M 123.648438 37.320312 L 119.90625 33.574219 L 119.90625 11.332031 L 123.648438 7.585938 Z M 123.042969 6.980469 L 119.296875 10.726562 L 66.921875 10.726562 L 63.175781 6.980469 Z M 62.566406 6.980469 Z M 62.566406 7.585938 L 66.3125 11.332031 L 66.3125 33.574219 L 62.566406 37.320312 Z M 62.566406 7.585938 " fill-opacity="1" fill-rule="nonzero"/></g><g clip-path="url(#babec8c8cc)"><path fill="#390726" d="M 169.230469 38.789062 L 170.089844 38.789062 L 170.089844 6.121094 L 107.289062 6.121094 L 107.289062 38.789062 Z M 108.757812 37.929688 L 112.503906 34.183594 L 164.878906 34.183594 L 168.625 37.929688 Z M 112.753906 33.324219 L 112.753906 11.582031 C 112.753906 11.582031 164.628906 11.582031 164.628906 11.582031 L 164.628906 33.324219 Z M 169.230469 37.320312 L 165.488281 33.574219 L 165.488281 11.332031 L 169.230469 7.585938 Z M 168.625 6.980469 L 164.878906 10.726562 L 112.503906 10.726562 L 108.757812 6.980469 Z M 108.148438 6.980469 Z M 108.148438 7.585938 L 111.894531 11.332031 L 111.894531 33.574219 L 108.148438 37.320312 Z M 108.148438 7.585938 " fill-opacity="1" fill-rule="nonzero"/></g><g clip-path="url(#ae514f51b4)"><path fill="#390726" d="M 216.085938 38.789062 L 216.945312 38.789062 L 216.945312 6.121094 L 154.144531 6.121094 L 154.144531 38.789062 Z M 155.609375 37.929688 L 159.355469 34.183594 L 211.734375 34.183594 L 215.480469 37.929688 Z M 159.609375 33.324219 L 159.609375 11.582031 C 159.609375 11.582031 211.480469 11.582031 211.480469 11.582031 L 211.480469 33.324219 Z M 216.085938 37.320312 L 212.339844 33.574219 L 212.339844 11.332031 L 216.085938 7.585938 Z M 215.480469 6.980469 L 211.734375 10.726562 L 159.355469 10.726562 L 155.609375 6.980469 Z M 155.003906 6.980469 Z M 155.003906 7.585938 L 158.75 11.332031 L 158.75 33.574219 L 155.003906 37.320312 Z M 155.003906 7.585938 " fill-opacity="1" fill-rule="nonzero"/></g><g clip-path="url(#b20590d79c)"><path fill="#390726" d="M 261.808594 38.859375 L 262.667969 38.859375 L 262.667969 6.191406 L 199.867188 6.191406 L 199.867188 38.859375 Z M 201.335938 38 L 205.078125 34.253906 L 257.457031 34.253906 L 261.203125 38 Z M 205.332031 33.394531 L 205.332031 11.652344 C 205.332031 11.652344 257.207031 11.652344 257.207031 11.652344 L 257.207031 33.394531 Z M 261.808594 37.390625 L 258.0625 33.644531 L 258.0625 11.402344 L 261.808594 7.65625 Z M 261.203125 7.050781 L 257.457031 10.796875 L 205.078125 10.796875 L 201.335938 7.050781 Z M 200.726562 7.050781 Z M 200.726562 7.65625 L 204.472656 11.402344 L 204.472656 33.644531 L 200.726562 37.390625 Z M 200.726562 7.65625 " fill-opacity="1" fill-rule="nonzero"/></g><g clip-path="url(#5a1f47b2c7)"><path fill="#390726" d="M 308.664062 38.859375 L 309.523438 38.859375 L 309.523438 6.191406 L 246.722656 6.191406 L 246.722656 38.859375 Z M 248.1875 38 L 251.933594 34.253906 L 304.3125 34.253906 L 308.054688 38 Z M 252.183594 33.394531 L 252.183594 11.652344 C 252.183594 11.652344 304.058594 11.652344 304.058594 11.652344 L 304.058594 33.394531 Z M 308.664062 37.390625 L 304.917969 33.644531 L 304.917969 11.402344 L 308.664062 7.65625 Z M 308.054688 7.050781 L 304.3125 10.796875 L 251.933594 10.796875 L 248.1875 7.050781 Z M 247.582031 7.050781 Z M 247.582031 7.65625 L 251.328125 11.402344 L 251.328125 33.644531 L 247.582031 37.390625 Z M 247.582031 7.65625 " fill-opacity="1" fill-rule="nonzero"/></g><g clip-path="url(#eee616f60b)"><path fill="#390726" d="M 354.871094 38.890625 L 355.730469 38.890625 L 355.730469 6.222656 L 292.929688 6.222656 L 292.929688 38.890625 Z M 294.398438 38.03125 L 298.140625 34.289062 L 350.519531 34.289062 L 354.265625 38.03125 Z M 298.394531 33.429688 L 298.394531 11.6875 C 298.394531 11.6875 350.269531 11.6875 350.269531 11.6875 L 350.269531 33.429688 Z M 354.871094 37.425781 L 351.125 33.679688 L 351.125 11.4375 L 354.871094 7.691406 Z M 354.265625 7.082031 L 350.519531 10.828125 L 298.140625 10.828125 L 294.398438 7.082031 Z M 293.789062 7.082031 Z M 293.789062 7.691406 L 297.535156 11.4375 L 297.535156 33.679688 L 293.789062 37.425781 Z M 293.789062 7.691406 " fill-opacity="1" fill-rule="nonzero"/></g><g clip-path="url(#a994877eba)"><path fill="#390726" d="M 401.726562 38.890625 L 402.585938 38.890625 L 402.585938 6.222656 L 339.785156 6.222656 L 339.785156 38.890625 Z M 341.25 38.03125 L 344.996094 34.289062 L 397.375 34.289062 L 401.117188 38.03125 Z M 345.246094 33.429688 L 345.246094 11.6875 C 345.246094 11.6875 397.121094 11.6875 397.121094 11.6875 L 397.121094 33.429688 Z M 401.726562 37.425781 L 397.980469 33.679688 L 397.980469 11.4375 L 401.726562 7.691406 Z M 401.117188 7.082031 L 397.375 10.828125 L 344.996094 10.828125 L 341.25 7.082031 Z M 340.644531 7.082031 Z M 340.644531 7.691406 L 344.390625 11.4375 L 344.390625 33.679688 L 340.644531 37.425781 Z M 340.644531 7.691406 " fill-opacity="1" fill-rule="nonzero"/></g><g clip-path="url(#b73434e7e3)"><path fill="#390726" d="M 7.847656 10.988281 L 402.320312 10.988281 L 402.320312 33.941406 L 7.847656 33.941406 Z M 7.847656 10.988281 " fill-opacity="1" fill-rule="nonzero"/></g><g fill="#f0ddba" fill-opacity="1"><g transform="translate(155.54317, 26.859865)"><g><path d="M 8.875 -10.125 C 9.1875 -10.125 9.414062 -10.09375 9.5625 -10.03125 C 9.707031 -9.96875 9.78125 -9.859375 9.78125 -9.703125 C 9.78125 -9.660156 9.773438 -9.625 9.765625 -9.59375 L 9.359375 -7.3125 C 9.328125 -7.113281 9.242188 -6.972656 9.109375 -6.890625 C 8.972656 -6.816406 8.769531 -6.78125 8.5 -6.78125 C 8.3125 -6.78125 8.164062 -6.800781 8.0625 -6.84375 C 7.96875 -6.882812 7.898438 -6.953125 7.859375 -7.046875 C 7.671875 -7.460938 7.390625 -7.78125 7.015625 -8 C 6.640625 -8.226562 6.179688 -8.34375 5.640625 -8.34375 C 5.316406 -8.34375 5.039062 -8.273438 4.8125 -8.140625 C 4.582031 -8.015625 4.410156 -7.859375 4.296875 -7.671875 C 4.179688 -7.484375 4.125 -7.296875 4.125 -7.109375 C 4.125 -6.960938 4.171875 -6.84375 4.265625 -6.75 C 4.367188 -6.65625 4.515625 -6.570312 4.703125 -6.5 C 4.828125 -6.445312 4.988281 -6.394531 5.1875 -6.34375 C 5.394531 -6.289062 5.601562 -6.242188 5.8125 -6.203125 C 6.332031 -6.085938 6.773438 -5.96875 7.140625 -5.84375 C 7.515625 -5.726562 7.847656 -5.566406 8.140625 -5.359375 C 8.753906 -4.910156 9.0625 -4.273438 9.0625 -3.453125 C 9.0625 -2.804688 8.925781 -2.207031 8.65625 -1.65625 C 8.382812 -1.101562 7.953125 -0.65625 7.359375 -0.3125 C 6.765625 0.0195312 6.007812 0.1875 5.09375 0.1875 C 4.632812 0.1875 4.203125 0.109375 3.796875 -0.046875 C 3.398438 -0.203125 3.066406 -0.421875 2.796875 -0.703125 L 2.734375 -0.34375 C 2.703125 -0.15625 2.609375 -0.0195312 2.453125 0.0625 C 2.304688 0.144531 2.054688 0.1875 1.703125 0.1875 C 1.378906 0.1875 1.144531 0.148438 1 0.078125 C 0.863281 0.015625 0.796875 -0.0859375 0.796875 -0.234375 C 0.796875 -0.273438 0.796875 -0.3125 0.796875 -0.34375 L 1.296875 -3.140625 C 1.328125 -3.328125 1.410156 -3.460938 1.546875 -3.546875 C 1.679688 -3.628906 1.882812 -3.671875 2.15625 -3.671875 C 2.351562 -3.671875 2.503906 -3.644531 2.609375 -3.59375 C 2.710938 -3.539062 2.785156 -3.453125 2.828125 -3.328125 C 3.035156 -2.753906 3.320312 -2.320312 3.6875 -2.03125 C 4.050781 -1.738281 4.507812 -1.59375 5.0625 -1.59375 C 5.476562 -1.59375 5.8125 -1.660156 6.0625 -1.796875 C 6.320312 -1.941406 6.507812 -2.113281 6.625 -2.3125 C 6.738281 -2.507812 6.796875 -2.71875 6.796875 -2.9375 C 6.796875 -3.132812 6.734375 -3.300781 6.609375 -3.4375 C 6.492188 -3.582031 6.328125 -3.703125 6.109375 -3.796875 C 5.953125 -3.867188 5.773438 -3.929688 5.578125 -3.984375 C 5.390625 -4.046875 5.140625 -4.113281 4.828125 -4.1875 C 4.296875 -4.320312 3.859375 -4.445312 3.515625 -4.5625 C 3.171875 -4.6875 2.867188 -4.851562 2.609375 -5.0625 C 2.128906 -5.445312 1.890625 -5.972656 1.890625 -6.640625 C 1.890625 -7.273438 2.039062 -7.859375 2.34375 -8.390625 C 2.65625 -8.921875 3.09375 -9.34375 3.65625 -9.65625 C 4.226562 -9.96875 4.882812 -10.125 5.625 -10.125 C 6.070312 -10.125 6.484375 -10.046875 6.859375 -9.890625 C 7.234375 -9.734375 7.539062 -9.519531 7.78125 -9.25 L 7.84375 -9.59375 C 7.882812 -9.789062 7.976562 -9.925781 8.125 -10 C 8.269531 -10.082031 8.519531 -10.125 8.875 -10.125 Z M 8.875 -10.125 "/></g></g></g><g fill="#f0ddba" fill-opacity="1"><g transform="translate(165.832458, 26.859865)"><g><path d="M 5.96875 -9.9375 C 6.8125 -9.9375 7.535156 -9.78125 8.140625 -9.46875 C 8.753906 -9.15625 9.222656 -8.703125 9.546875 -8.109375 C 9.867188 -7.523438 10.03125 -6.828125 10.03125 -6.015625 C 10.03125 -5.128906 9.867188 -4.226562 9.546875 -3.3125 C 9.234375 -2.40625 8.664062 -1.625 7.84375 -0.96875 C 7.03125 -0.320312 5.9375 0 4.5625 0 L 0.4375 0 C 0.289062 0 0.179688 -0.03125 0.109375 -0.09375 C 0.046875 -0.15625 0.015625 -0.265625 0.015625 -0.421875 C 0.015625 -0.566406 0.03125 -0.710938 0.0625 -0.859375 C 0.125 -1.191406 0.203125 -1.414062 0.296875 -1.53125 C 0.398438 -1.65625 0.550781 -1.71875 0.75 -1.71875 L 1.5625 -1.71875 L 2.703125 -8.21875 L 1.890625 -8.21875 C 1.742188 -8.21875 1.632812 -8.25 1.5625 -8.3125 C 1.5 -8.375 1.46875 -8.484375 1.46875 -8.640625 C 1.46875 -8.765625 1.484375 -8.910156 1.515625 -9.078125 C 1.554688 -9.316406 1.601562 -9.492188 1.65625 -9.609375 C 1.71875 -9.734375 1.789062 -9.816406 1.875 -9.859375 C 1.957031 -9.910156 2.0625 -9.9375 2.1875 -9.9375 Z M 3.671875 -1.796875 L 4.546875 -1.796875 C 5.316406 -1.796875 5.941406 -2.003906 6.421875 -2.421875 C 6.910156 -2.847656 7.265625 -3.375 7.484375 -4 C 7.703125 -4.632812 7.8125 -5.289062 7.8125 -5.96875 C 7.8125 -6.6875 7.628906 -7.226562 7.265625 -7.59375 C 6.910156 -7.957031 6.375 -8.140625 5.65625 -8.140625 L 4.78125 -8.140625 Z M 3.671875 -1.796875 "/></g></g></g><g fill="#f0ddba" fill-opacity="1"><g transform="translate(176.121746, 26.859865)"><g><path d="M 9.375 -10.125 C 9.675781 -10.125 9.890625 -10.09375 10.015625 -10.03125 C 10.140625 -9.96875 10.203125 -9.867188 10.203125 -9.734375 C 10.203125 -9.710938 10.195312 -9.664062 10.1875 -9.59375 L 9.671875 -6.71875 C 9.640625 -6.53125 9.53125 -6.394531 9.34375 -6.3125 C 9.164062 -6.226562 8.878906 -6.1875 8.484375 -6.1875 C 8.140625 -6.1875 7.898438 -6.21875 7.765625 -6.28125 C 7.628906 -6.34375 7.5625 -6.441406 7.5625 -6.578125 C 7.5625 -6.609375 7.566406 -6.65625 7.578125 -6.71875 C 7.597656 -6.832031 7.609375 -6.945312 7.609375 -7.0625 C 7.609375 -7.4375 7.484375 -7.722656 7.234375 -7.921875 C 6.984375 -8.117188 6.601562 -8.21875 6.09375 -8.21875 C 5.363281 -8.21875 4.769531 -7.988281 4.3125 -7.53125 C 3.863281 -7.070312 3.539062 -6.515625 3.34375 -5.859375 C 3.144531 -5.210938 3.046875 -4.585938 3.046875 -3.984375 C 3.046875 -3.253906 3.210938 -2.691406 3.546875 -2.296875 C 3.890625 -1.910156 4.382812 -1.71875 5.03125 -1.71875 C 5.644531 -1.71875 6.242188 -1.800781 6.828125 -1.96875 L 7.0625 -3.375 L 5.453125 -3.375 C 5.304688 -3.375 5.195312 -3.398438 5.125 -3.453125 C 5.0625 -3.515625 5.03125 -3.625 5.03125 -3.78125 C 5.03125 -3.90625 5.046875 -4.050781 5.078125 -4.21875 C 5.140625 -4.5625 5.21875 -4.789062 5.3125 -4.90625 C 5.414062 -5.019531 5.566406 -5.078125 5.765625 -5.078125 L 9.734375 -5.078125 C 9.878906 -5.078125 9.984375 -5.046875 10.046875 -4.984375 C 10.117188 -4.929688 10.15625 -4.828125 10.15625 -4.671875 C 10.15625 -4.554688 10.140625 -4.40625 10.109375 -4.21875 C 10.066406 -3.988281 10.015625 -3.8125 9.953125 -3.6875 C 9.898438 -3.5625 9.832031 -3.476562 9.75 -3.4375 C 9.664062 -3.394531 9.554688 -3.375 9.421875 -3.375 L 9.171875 -3.375 L 8.765625 -1.109375 C 8.742188 -0.972656 8.695312 -0.851562 8.625 -0.75 C 8.550781 -0.65625 8.46875 -0.582031 8.375 -0.53125 C 7.3125 -0.0507812 6.113281 0.1875 4.78125 0.1875 C 3.976562 0.1875 3.28125 0.0195312 2.6875 -0.3125 C 2.09375 -0.65625 1.632812 -1.140625 1.3125 -1.765625 C 0.988281 -2.390625 0.828125 -3.117188 0.828125 -3.953125 C 0.828125 -4.960938 1.03125 -5.941406 1.4375 -6.890625 C 1.84375 -7.835938 2.441406 -8.613281 3.234375 -9.21875 C 4.035156 -9.820312 4.988281 -10.125 6.09375 -10.125 C 6.59375 -10.125 7.019531 -10.03125 7.375 -9.84375 C 7.738281 -9.664062 8.003906 -9.414062 8.171875 -9.09375 L 8.265625 -9.59375 C 8.296875 -9.789062 8.398438 -9.925781 8.578125 -10 C 8.753906 -10.082031 9.019531 -10.125 9.375 -10.125 Z M 9.375 -10.125 "/></g></g></g><g fill="#f0ddba" fill-opacity="1"><g transform="translate(186.411034, 26.859865)"><g><path d="M 8.875 -10.125 C 9.1875 -10.125 9.414062 -10.09375 9.5625 -10.03125 C 9.707031 -9.96875 9.78125 -9.859375 9.78125 -9.703125 C 9.78125 -9.660156 9.773438 -9.625 9.765625 -9.59375 L 9.359375 -7.3125 C 9.328125 -7.113281 9.242188 -6.972656 9.109375 -6.890625 C 8.972656 -6.816406 8.769531 -6.78125 8.5 -6.78125 C 8.3125 -6.78125 8.164062 -6.800781 8.0625 -6.84375 C 7.96875 -6.882812 7.898438 -6.953125 7.859375 -7.046875 C 7.671875 -7.460938 7.390625 -7.78125 7.015625 -8 C 6.640625 -8.226562 6.179688 -8.34375 5.640625 -8.34375 C 5.316406 -8.34375 5.039062 -8.273438 4.8125 -8.140625 C 4.582031 -8.015625 4.410156 -7.859375 4.296875 -7.671875 C 4.179688 -7.484375 4.125 -7.296875 4.125 -7.109375 C 4.125 -6.960938 4.171875 -6.84375 4.265625 -6.75 C 4.367188 -6.65625 4.515625 -6.570312 4.703125 -6.5 C 4.828125 -6.445312 4.988281 -6.394531 5.1875 -6.34375 C 5.394531 -6.289062 5.601562 -6.242188 5.8125 -6.203125 C 6.332031 -6.085938 6.773438 -5.96875 7.140625 -5.84375 C 7.515625 -5.726562 7.847656 -5.566406 8.140625 -5.359375 C 8.753906 -4.910156 9.0625 -4.273438 9.0625 -3.453125 C 9.0625 -2.804688 8.925781 -2.207031 8.65625 -1.65625 C 8.382812 -1.101562 7.953125 -0.65625 7.359375 -0.3125 C 6.765625 0.0195312 6.007812 0.1875 5.09375 0.1875 C 4.632812 0.1875 4.203125 0.109375 3.796875 -0.046875 C 3.398438 -0.203125 3.066406 -0.421875 2.796875 -0.703125 L 2.734375 -0.34375 C 2.703125 -0.15625 2.609375 -0.0195312 2.453125 0.0625 C 2.304688 0.144531 2.054688 0.1875 1.703125 0.1875 C 1.378906 0.1875 1.144531 0.148438 1 0.078125 C 0.863281 0.015625 0.796875 -0.0859375 0.796875 -0.234375 C 0.796875 -0.273438 0.796875 -0.3125 0.796875 -0.34375 L 1.296875 -3.140625 C 1.328125 -3.328125 1.410156 -3.460938 1.546875 -3.546875 C 1.679688 -3.628906 1.882812 -3.671875 2.15625 -3.671875 C 2.351562 -3.671875 2.503906 -3.644531 2.609375 -3.59375 C 2.710938 -3.539062 2.785156 -3.453125 2.828125 -3.328125 C 3.035156 -2.753906 3.320312 -2.320312 3.6875 -2.03125 C 4.050781 -1.738281 4.507812 -1.59375 5.0625 -1.59375 C 5.476562 -1.59375 5.8125 -1.660156 6.0625 -1.796875 C 6.320312 -1.941406 6.507812 -2.113281 6.625 -2.3125 C 6.738281 -2.507812 6.796875 -2.71875 6.796875 -2.9375 C 6.796875 -3.132812 6.734375 -3.300781 6.609375 -3.4375 C 6.492188 -3.582031 6.328125 -3.703125 6.109375 -3.796875 C 5.953125 -3.867188 5.773438 -3.929688 5.578125 -3.984375 C 5.390625 -4.046875 5.140625 -4.113281 4.828125 -4.1875 C 4.296875 -4.320312 3.859375 -4.445312 3.515625 -4.5625 C 3.171875 -4.6875 2.867188 -4.851562 2.609375 -5.0625 C 2.128906 -5.445312 1.890625 -5.972656 1.890625 -6.640625 C 1.890625 -7.273438 2.039062 -7.859375 2.34375 -8.390625 C 2.65625 -8.921875 3.09375 -9.34375 3.65625 -9.65625 C 4.226562 -9.96875 4.882812 -10.125 5.625 -10.125 C 6.070312 -10.125 6.484375 -10.046875 6.859375 -9.890625 C 7.234375 -9.734375 7.539062 -9.519531 7.78125 -9.25 L 7.84375 -9.59375 C 7.882812 -9.789062 7.976562 -9.925781 8.125 -10 C 8.269531 -10.082031 8.519531 -10.125 8.875 -10.125 Z M 8.875 -10.125 "/></g></g></g><g fill="#f0ddba" fill-opacity="1"><g transform="translate(196.700323, 26.859865)"><g/></g></g><g fill="#f0ddba" fill-opacity="1"><g transform="translate(206.989611, 26.859865)"><g><path d="M 8.984375 -11.71875 C 9.296875 -11.71875 9.582031 -11.648438 9.84375 -11.515625 C 10.113281 -11.378906 10.25 -11.207031 10.25 -11 C 10.25 -10.90625 10.21875 -10.816406 10.15625 -10.734375 L 2.390625 2.734375 C 2.285156 2.921875 2.046875 3.015625 1.671875 3.015625 C 1.359375 3.015625 1.066406 2.945312 0.796875 2.8125 C 0.535156 2.675781 0.40625 2.503906 0.40625 2.296875 C 0.40625 2.210938 0.429688 2.125 0.484375 2.03125 L 8.25 -11.4375 C 8.351562 -11.625 8.597656 -11.71875 8.984375 -11.71875 Z M 8.984375 -11.71875 "/></g></g></g><g fill="#f0ddba" fill-opacity="1"><g transform="translate(217.278899, 26.859865)"><g/></g></g><g fill="#f0ddba" fill-opacity="1"><g transform="translate(227.568187, 26.859865)"><g><path d="M 10.09375 -9.9375 C 10.25 -9.9375 10.363281 -9.90625 10.4375 -9.84375 C 10.507812 -9.789062 10.546875 -9.703125 10.546875 -9.578125 C 10.546875 -9.546875 10.539062 -9.488281 10.53125 -9.40625 L 9.90625 -5.859375 C 9.875 -5.679688 9.773438 -5.550781 9.609375 -5.46875 C 9.441406 -5.382812 9.195312 -5.34375 8.875 -5.34375 C 8.601562 -5.34375 8.410156 -5.367188 8.296875 -5.421875 C 8.191406 -5.484375 8.140625 -5.582031 8.140625 -5.71875 C 8.140625 -5.75 8.144531 -5.796875 8.15625 -5.859375 L 8.546875 -8.140625 L 7.03125 -8.140625 L 5.90625 -1.71875 L 7.796875 -1.71875 C 7.941406 -1.71875 8.046875 -1.6875 8.109375 -1.625 C 8.179688 -1.570312 8.21875 -1.460938 8.21875 -1.296875 C 8.21875 -1.179688 8.203125 -1.035156 8.171875 -0.859375 C 8.128906 -0.617188 8.078125 -0.4375 8.015625 -0.3125 C 7.960938 -0.195312 7.894531 -0.113281 7.8125 -0.0625 C 7.738281 -0.0195312 7.632812 0 7.5 0 L 1.78125 0 C 1.632812 0 1.523438 -0.03125 1.453125 -0.09375 C 1.390625 -0.15625 1.359375 -0.265625 1.359375 -0.421875 C 1.359375 -0.566406 1.375 -0.710938 1.40625 -0.859375 C 1.457031 -1.191406 1.535156 -1.414062 1.640625 -1.53125 C 1.742188 -1.65625 1.890625 -1.71875 2.078125 -1.71875 L 3.8125 -1.71875 L 4.9375 -8.140625 L 3.421875 -8.140625 L 3.03125 -5.859375 C 2.988281 -5.679688 2.882812 -5.550781 2.71875 -5.46875 C 2.550781 -5.382812 2.3125 -5.34375 2 -5.34375 C 1.71875 -5.34375 1.519531 -5.367188 1.40625 -5.421875 C 1.300781 -5.484375 1.25 -5.582031 1.25 -5.71875 C 1.25 -5.75 1.253906 -5.796875 1.265625 -5.859375 L 1.890625 -9.40625 C 1.921875 -9.59375 1.984375 -9.726562 2.078125 -9.8125 C 2.179688 -9.894531 2.332031 -9.9375 2.53125 -9.9375 Z M 10.09375 -9.9375 "/></g></g></g><g fill="#f0ddba" fill-opacity="1"><g transform="translate(237.857476, 26.859865)"><g><path d="M 6.6875 -9.9375 C 7.8125 -9.9375 8.664062 -9.691406 9.25 -9.203125 C 9.832031 -8.722656 10.125 -8.046875 10.125 -7.171875 C 10.125 -6.679688 10.046875 -6.191406 9.890625 -5.703125 C 9.734375 -5.210938 9.5 -4.789062 9.1875 -4.4375 C 8.445312 -3.613281 7.273438 -3.203125 5.671875 -3.203125 L 4.328125 -3.203125 L 4.078125 -1.71875 L 5.890625 -1.71875 C 6.035156 -1.71875 6.140625 -1.6875 6.203125 -1.625 C 6.273438 -1.570312 6.3125 -1.460938 6.3125 -1.296875 C 6.3125 -1.179688 6.289062 -1.035156 6.25 -0.859375 C 6.21875 -0.617188 6.171875 -0.4375 6.109375 -0.3125 C 6.054688 -0.195312 5.988281 -0.113281 5.90625 -0.0625 C 5.820312 -0.0195312 5.71875 0 5.59375 0 L 0.4375 0 C 0.289062 0 0.179688 -0.03125 0.109375 -0.09375 C 0.046875 -0.15625 0.015625 -0.265625 0.015625 -0.421875 C 0.015625 -0.566406 0.03125 -0.710938 0.0625 -0.859375 C 0.125 -1.191406 0.203125 -1.414062 0.296875 -1.53125 C 0.398438 -1.65625 0.550781 -1.71875 0.75 -1.71875 L 1.984375 -1.71875 L 3.125 -8.21875 L 1.890625 -8.21875 C 1.742188 -8.21875 1.632812 -8.25 1.5625 -8.3125 C 1.5 -8.375 1.46875 -8.484375 1.46875 -8.640625 C 1.46875 -8.765625 1.484375 -8.910156 1.515625 -9.078125 C 1.554688 -9.316406 1.601562 -9.492188 1.65625 -9.609375 C 1.71875 -9.734375 1.789062 -9.816406 1.875 -9.859375 C 1.957031 -9.910156 2.0625 -9.9375 2.1875 -9.9375 Z M 4.65625 -5 L 5.640625 -5 C 6.492188 -5 7.113281 -5.207031 7.5 -5.625 C 7.644531 -5.789062 7.757812 -5.988281 7.84375 -6.21875 C 7.925781 -6.457031 7.96875 -6.695312 7.96875 -6.9375 C 7.96875 -7.738281 7.378906 -8.140625 6.203125 -8.140625 L 5.203125 -8.140625 Z M 4.65625 -5 "/></g></g></g><g fill="#f0ddba" fill-opacity="1"><g transform="translate(248.146764, 26.859865)"><g><path d="M 6.46875 -9.9375 C 7.507812 -9.9375 8.296875 -9.722656 8.828125 -9.296875 C 9.359375 -8.878906 9.625 -8.300781 9.625 -7.5625 C 9.625 -7.039062 9.476562 -6.578125 9.1875 -6.171875 C 8.90625 -5.773438 8.492188 -5.460938 7.953125 -5.234375 C 8.429688 -5.085938 8.804688 -4.84375 9.078125 -4.5 C 9.347656 -4.164062 9.484375 -3.738281 9.484375 -3.21875 C 9.484375 -2.59375 9.332031 -2.039062 9.03125 -1.5625 C 8.738281 -1.082031 8.28125 -0.703125 7.65625 -0.421875 C 7.039062 -0.140625 6.273438 0 5.359375 0 L 0.53125 0 C 0.375 0 0.257812 -0.03125 0.1875 -0.09375 C 0.125 -0.15625 0.09375 -0.265625 0.09375 -0.421875 C 0.09375 -0.566406 0.109375 -0.710938 0.140625 -0.859375 C 0.203125 -1.191406 0.28125 -1.414062 0.375 -1.53125 C 0.476562 -1.65625 0.628906 -1.71875 0.828125 -1.71875 L 1.71875 -1.71875 L 2.875 -8.21875 L 1.984375 -8.21875 C 1.828125 -8.21875 1.710938 -8.25 1.640625 -8.3125 C 1.578125 -8.375 1.546875 -8.484375 1.546875 -8.640625 C 1.546875 -8.765625 1.5625 -8.910156 1.59375 -9.078125 C 1.632812 -9.316406 1.679688 -9.492188 1.734375 -9.609375 C 1.796875 -9.734375 1.867188 -9.816406 1.953125 -9.859375 C 2.035156 -9.910156 2.144531 -9.9375 2.28125 -9.9375 Z M 4.578125 -5.984375 L 5.765625 -5.984375 C 6.347656 -5.984375 6.773438 -6.097656 7.046875 -6.328125 C 7.328125 -6.554688 7.46875 -6.863281 7.46875 -7.25 C 7.46875 -7.570312 7.359375 -7.800781 7.140625 -7.9375 C 6.929688 -8.070312 6.597656 -8.140625 6.140625 -8.140625 L 4.953125 -8.140625 Z M 3.84375 -1.796875 L 5.4375 -1.796875 C 6.09375 -1.796875 6.566406 -1.921875 6.859375 -2.171875 C 7.148438 -2.429688 7.296875 -2.757812 7.296875 -3.15625 C 7.296875 -3.507812 7.175781 -3.769531 6.9375 -3.9375 C 6.707031 -4.101562 6.347656 -4.1875 5.859375 -4.1875 L 4.25 -4.1875 Z M 3.84375 -1.796875 "/></g></g></g><g clip-path="url(#0d1bd6ebb9)"><path fill="#390726" d="M 8.554688 41.238281 L 222.503906 41.238281 L 222.503906 41.855469 L 8.554688 41.855469 Z M 8.554688 41.238281 " fill-opacity="1" fill-rule="nonzero"/></g><g clip-path="url(#8cbad3fde5)"><path fill="#390726" d="M -3.3125 41.238281 L 210.632812 41.238281 L 210.632812 41.855469 L -3.3125 41.855469 Z M -3.3125 41.238281 " fill-opacity="1" fill-rule="nonzero"/></g><g clip-path="url(#cfd37711fd)"><path fill="#390726" d="M 64.507812 41.238281 L 278.453125 41.238281 L 278.453125 41.855469 L 64.507812 41.855469 Z M 64.507812 41.238281 " fill-opacity="1" fill-rule="nonzero"/></g><g clip-path="url(#4dcf246200)"><path fill="#390726" d="M 52.636719 41.238281 L 266.585938 41.238281 L 266.585938 41.855469 L 52.636719 41.855469 Z M 52.636719 41.238281 " fill-opacity="1" fill-rule="nonzero"/></g><g clip-path="url(#53268df68b)"><path fill="#390726" d="M 114.261719 41.238281 L 328.207031 41.238281 L 328.207031 41.855469 L 114.261719 41.855469 Z M 114.261719 41.238281 " fill-opacity="1" fill-rule="nonzero"/></g><g clip-path="url(#b0a8917922)"><path fill="#390726" d="M 102.390625 41.238281 L 316.335938 41.238281 L 316.335938 41.855469 L 102.390625 41.855469 Z M 102.390625 41.238281 " fill-opacity="1" fill-rule="nonzero"/></g><g clip-path="url(#a51e133af1)"><path fill="#390726" d="M 167.34375 41.238281 L 381.289062 41.238281 L 381.289062 41.855469 L 167.34375 41.855469 Z M 167.34375 41.238281 " fill-opacity="1" fill-rule="nonzero"/></g><g clip-path="url(#58e5cecd14)"><path fill="#390726" d="M 155.472656 41.238281 L 369.417969 41.238281 L 369.417969 41.855469 L 155.472656 41.855469 Z M 155.472656 41.238281 " fill-opacity="1" fill-rule="nonzero"/></g><g clip-path="url(#33dbf000dc)"><path fill="#390726" d="M 223.21875 41.238281 L 437.164062 41.238281 L 437.164062 41.855469 L 223.21875 41.855469 Z M 223.21875 41.238281 " fill-opacity="1" fill-rule="nonzero"/></g><g clip-path="url(#5b03ff1800)"><path fill="#390726" d="M 211.351562 41.238281 L 425.296875 41.238281 L 425.296875 41.855469 L 211.351562 41.855469 Z M 211.351562 41.238281 " fill-opacity="1" fill-rule="nonzero"/></g><g clip-path="url(#fa3aa8b18b)"><path fill="#390726" d="M 250.765625 41.238281 L 464.710938 41.238281 L 464.710938 41.855469 L 250.765625 41.855469 Z M 250.765625 41.238281 " fill-opacity="1" fill-rule="nonzero"/></g><g clip-path="url(#bd3fdc068b)"><path fill="#390726" d="M 238.894531 41.238281 L 452.84375 41.238281 L 452.84375 41.855469 L 238.894531 41.855469 Z M 238.894531 41.238281 " fill-opacity="1" fill-rule="nonzero"/></g><g clip-path="url(#c1b1c9b5bc)"><path fill="#390726" d="M 306.714844 41.238281 L 520.664062 41.238281 L 520.664062 41.855469 L 306.714844 41.855469 Z M 306.714844 41.238281 " fill-opacity="1" fill-rule="nonzero"/></g><g clip-path="url(#04e957e5c8)"><path fill="#390726" d="M 294.847656 41.238281 L 508.792969 41.238281 L 508.792969 41.855469 L 294.847656 41.855469 Z M 294.847656 41.238281 " fill-opacity="1" fill-rule="nonzero"/></g><g clip-path="url(#3162c23960)"><path fill="#390726" d="M 356.46875 41.238281 L 570.414062 41.238281 L 570.414062 41.855469 L 356.46875 41.855469 Z M 356.46875 41.238281 " fill-opacity="1" fill-rule="nonzero"/></g><g clip-path="url(#f5dddc4f9a)"><path fill="#390726" d="M 344.601562 41.238281 L 558.546875 41.238281 L 558.546875 41.855469 L 344.601562 41.855469 Z M 344.601562 41.238281 " fill-opacity="1" fill-rule="nonzero"/></g><g clip-path="url(#58ff89f563)"><path fill="#390726" d="M 409.550781 41.238281 L 623.496094 41.238281 L 623.496094 41.855469 L 409.550781 41.855469 Z M 409.550781 41.238281 " fill-opacity="1" fill-rule="nonzero"/></g><g clip-path="url(#894b6ca66a)"><path fill="#390726" d="M 397.679688 41.238281 L 611.628906 41.238281 L 611.628906 41.855469 L 397.679688 41.855469 Z M 397.679688 41.238281 " fill-opacity="1" fill-rule="nonzero"/></g><g clip-path="url(#4de0fb606b)"><path fill="#390726" d="M 344.878906 38.863281 L 344.019531 38.863281 L 344.019531 6.191406 L 406.824219 6.191406 L 406.824219 38.863281 Z M 405.359375 38.003906 L 401.613281 34.257812 L 349.230469 34.257812 L 345.484375 38.003906 Z M 401.359375 33.398438 L 401.359375 11.65625 C 401.359375 11.65625 349.480469 11.65625 349.480469 11.65625 L 349.480469 33.398438 Z M 344.878906 37.394531 L 348.625 33.648438 L 348.625 11.402344 L 344.878906 7.65625 Z M 345.484375 7.050781 L 349.230469 10.796875 L 401.613281 10.796875 L 405.359375 7.050781 Z M 405.964844 7.050781 Z M 405.964844 7.65625 L 402.21875 11.402344 L 402.21875 33.648438 L 405.964844 37.394531 Z M 405.964844 7.65625 " fill-opacity="1" fill-rule="nonzero"/></g><g clip-path="url(#6435103deb)"><path fill="#f0ddba" d="M 290.996094 17.101562 C 289.804688 17.386719 288.570312 17.53125 287.367188 17.757812 C 286.160156 17.980469 284.960938 18.242188 283.761719 18.527344 C 283.617188 18.566406 283.554688 18.34375 283.699219 18.308594 C 284.914062 17.996094 286.128906 17.710938 287.359375 17.453125 C 288.535156 17.214844 289.753906 16.949219 290.957031 16.84375 C 291.105469 16.828125 291.136719 17.0625 290.996094 17.101562 Z M 276.875 25.429688 C 275.28125 25.179688 273.6875 24.914062 272.082031 24.726562 C 272 24.71875 271.976562 24.863281 272.0625 24.878906 C 273.65625 25.210938 275.269531 25.460938 276.878906 25.726562 C 278.492188 25.992188 280.101562 26.273438 281.714844 26.507812 C 281.898438 26.535156 281.980469 26.257812 281.789062 26.222656 C 280.15625 25.929688 278.511719 25.6875 276.875 25.429688 Z M 273.5 29.828125 C 272.304688 29.457031 271.117188 29.082031 269.929688 28.703125 C 269.773438 28.652344 269.710938 28.902344 269.867188 28.949219 C 271.039062 29.324219 272.210938 29.691406 273.386719 30.058594 C 273.949219 30.230469 274.511719 30.402344 275.078125 30.566406 C 275.765625 30.765625 276.46875 31.042969 277.171875 31.152344 C 277.257812 31.167969 277.324219 31.046875 277.230469 31.003906 C 276.609375 30.730469 275.910156 30.578125 275.261719 30.375 C 274.675781 30.191406 274.089844 30.011719 273.5 29.828125 Z M 269.9375 27.683594 C 269.796875 27.640625 269.738281 27.859375 269.878906 27.90625 C 272.265625 28.65625 274.65625 29.386719 277.046875 30.109375 C 277.15625 30.140625 277.199219 29.972656 277.09375 29.9375 C 274.707031 29.171875 272.328125 28.417969 269.9375 27.683594 Z M 281.675781 25.078125 C 278.34375 24.507812 275.011719 23.972656 271.679688 23.410156 C 271.554688 23.390625 271.5625 23.546875 271.6875 23.570312 C 271.6875 23.570312 278.296875 24.765625 281.613281 25.375 C 281.871094 25.421875 281.933594 25.125 281.675781 25.078125 Z M 290.984375 15.710938 C 288.46875 16.089844 285.964844 16.554688 283.472656 17.046875 C 283.367188 17.070312 283.414062 17.226562 283.519531 17.203125 C 286.023438 16.757812 288.535156 16.339844 291.050781 15.9375 C 291.203125 15.917969 291.136719 15.6875 290.984375 15.710938 Z M 294.003906 22.367188 C 293.988281 22.394531 293.96875 22.402344 293.941406 22.410156 C 293.917969 22.425781 293.890625 22.433594 293.859375 22.433594 C 293.578125 22.472656 293.296875 22.507812 293.019531 22.542969 C 293.457031 23.472656 293.609375 24.785156 292.9375 25.628906 C 292.925781 25.640625 292.917969 25.648438 292.90625 25.660156 C 292.886719 25.679688 292.855469 25.695312 292.816406 25.703125 C 292.511719 25.769531 292.203125 25.835938 291.902344 25.90625 C 292.421875 26.859375 292.386719 27.988281 291.890625 28.949219 C 291.875 28.984375 291.84375 29 291.816406 29.011719 C 291.796875 29.019531 291.777344 29.03125 291.75 29.035156 C 286.992188 30.214844 282.257812 31.480469 277.480469 32.578125 C 277.429688 32.605469 277.367188 32.609375 277.296875 32.589844 C 274.425781 31.765625 271.609375 30.78125 268.757812 29.910156 C 268.582031 29.859375 268.601562 29.625 268.734375 29.566406 C 269.429688 28.621094 269.398438 27.332031 268.625 26.429688 C 268.515625 26.300781 268.582031 26.140625 268.691406 26.070312 C 268.707031 26.054688 268.726562 26.046875 268.75 26.039062 C 269.453125 25.867188 270.140625 25.628906 270.84375 25.46875 C 271.0625 25.421875 271.15625 25.738281 270.9375 25.800781 C 270.390625 25.960938 269.832031 26.078125 269.273438 26.195312 C 270.582031 26.582031 271.890625 26.960938 273.191406 27.359375 C 273.917969 27.578125 274.636719 27.792969 275.359375 28.011719 C 275.714844 28.121094 276.074219 28.230469 276.425781 28.339844 C 276.675781 28.417969 276.941406 28.46875 277.183594 28.578125 C 278.445312 28.324219 279.703125 28.0625 280.96875 27.832031 C 279.683594 27.554688 278.390625 27.285156 277.105469 27.019531 C 276.136719 26.816406 275.167969 26.609375 274.199219 26.382812 C 273.238281 26.160156 272.300781 25.851562 271.347656 25.644531 C 271.34375 25.644531 271.335938 25.640625 271.332031 25.640625 C 271.265625 25.628906 271.203125 25.578125 271.171875 25.488281 C 271.0625 25.140625 271.070312 24.742188 271.046875 24.378906 L 270.957031 23.164062 C 270.941406 22.980469 271.253906 22.933594 271.28125 23.117188 C 271.34375 23.519531 271.40625 23.921875 271.46875 24.316406 C 271.523438 24.675781 271.628906 25.0625 271.601562 25.425781 C 271.601562 25.4375 271.597656 25.445312 271.597656 25.457031 C 272.519531 25.648438 273.472656 25.753906 274.402344 25.925781 C 275.347656 26.101562 276.300781 26.28125 277.25 26.457031 C 279.195312 26.828125 281.140625 27.15625 283.089844 27.484375 C 283.105469 27.488281 283.128906 27.488281 283.144531 27.492188 C 283.566406 26.648438 283.539062 25.664062 283.105469 24.828125 C 283.074219 24.789062 283.042969 24.753906 283.011719 24.722656 C 283.007812 24.71875 283.007812 24.71875 283.003906 24.710938 C 282.574219 24.6875 282.136719 24.59375 281.714844 24.535156 C 281.414062 24.492188 281.105469 24.445312 280.804688 24.398438 C 280.796875 24.398438 280.792969 24.398438 280.78125 24.398438 C 276.902344 23.757812 273.027344 23.09375 269.140625 22.460938 C 268.914062 22.425781 269.007812 22.097656 269.226562 22.128906 C 269.269531 22.132812 269.3125 22.136719 269.351562 22.144531 C 269.300781 21.257812 269.269531 20.378906 269.238281 19.492188 C 269.160156 19.480469 269.085938 19.464844 269.007812 19.457031 C 268.976562 19.449219 268.953125 19.441406 268.9375 19.417969 C 268.828125 19.355469 268.804688 19.152344 268.96875 19.105469 C 269.78125 18.867188 270.597656 18.617188 271.429688 18.464844 C 271.128906 18.054688 270.992188 17.476562 270.96875 17 C 270.925781 16.359375 271.085938 15.734375 271.410156 15.1875 C 271.414062 15.140625 271.445312 15.101562 271.507812 15.085938 C 272.890625 14.757812 274.28125 14.367188 275.683594 14.125 C 276.542969 13.921875 277.574219 13.730469 278.136719 13.605469 C 278.730469 13.472656 279.257812 13.394531 279.867188 13.378906 C 281.179688 13.347656 282.511719 13.484375 283.820312 13.542969 C 286.609375 13.671875 289.203125 13.851562 292.191406 14.195312 C 292.3125 14.210938 292.347656 14.320312 292.328125 14.40625 C 292.339844 14.507812 292.28125 14.605469 292.160156 14.601562 C 292.089844 14.609375 292.015625 14.625 291.941406 14.636719 C 291.824219 15.203125 291.761719 15.777344 291.792969 16.355469 C 291.816406 16.871094 291.9375 17.359375 292.050781 17.859375 C 292.136719 17.851562 292.21875 17.835938 292.300781 17.820312 C 292.515625 17.789062 292.621094 18.109375 292.394531 18.152344 C 291.621094 18.292969 290.839844 18.441406 290.0625 18.589844 C 291.363281 18.660156 292.640625 18.800781 293.925781 19.058594 C 293.957031 19.066406 293.980469 19.074219 294 19.089844 C 294.074219 19.117188 294.113281 19.191406 294.121094 19.261719 C 294.660156 20.242188 294.609375 21.417969 294.003906 22.367188 Z M 291.671875 14.683594 C 288.640625 15.179688 285.605469 15.671875 282.582031 16.210938 C 282.582031 16.214844 282.574219 16.226562 282.574219 16.230469 C 282.308594 16.835938 282.222656 17.496094 282.308594 18.152344 C 282.351562 18.445312 282.429688 18.726562 282.527344 19.003906 C 282.605469 19.210938 282.722656 19.398438 282.816406 19.601562 C 285.808594 18.988281 288.796875 18.375 291.816406 17.902344 C 291.425781 16.886719 291.457031 15.734375 291.671875 14.683594 Z M 272.433594 15.1875 C 275.707031 15.433594 278.984375 15.671875 282.261719 15.96875 C 282.273438 15.964844 282.285156 15.960938 282.300781 15.960938 C 285.105469 15.359375 287.945312 14.898438 290.785156 14.453125 C 290.859375 14.445312 290.925781 14.4375 291 14.429688 C 288.6875 14.203125 286.375 14.03125 284.050781 13.917969 C 282.714844 13.851562 281.382812 13.753906 280.042969 13.691406 C 279.84375 13.683594 279.652344 13.683594 279.464844 13.691406 C 278.636719 13.867188 277.808594 14.042969 276.980469 14.210938 C 276.386719 14.359375 275.734375 14.523438 275.300781 14.609375 C 274.34375 14.824219 273.386719 14.996094 272.433594 15.1875 Z M 282.253906 16.351562 C 280.890625 16.230469 279.53125 16.109375 278.171875 15.984375 C 277.976562 17.09375 278.03125 18.15625 278.4375 19.210938 C 279.703125 19.339844 280.96875 19.460938 282.242188 19.558594 C 282.011719 19.121094 281.929688 18.558594 281.910156 18.117188 C 281.882812 17.507812 282.003906 16.902344 282.253906 16.351562 Z M 277.789062 15.953125 C 276.847656 15.871094 275.910156 15.78125 274.972656 15.695312 C 274.699219 16.757812 274.792969 17.871094 275.265625 18.867188 C 276.207031 18.976562 277.152344 19.085938 278.09375 19.183594 C 277.65625 18.179688 277.511719 17.015625 277.789062 15.953125 Z M 271.835938 18.445312 C 272.828125 18.570312 273.816406 18.691406 274.8125 18.808594 C 274.371094 17.804688 274.277344 16.726562 274.558594 15.652344 C 273.566406 15.558594 272.578125 15.460938 271.585938 15.359375 C 271.566406 15.367188 271.539062 15.367188 271.523438 15.359375 C 271.289062 15.855469 271.191406 16.386719 271.25 16.933594 C 271.3125 17.523438 271.59375 17.945312 271.835938 18.445312 Z M 280.871094 21.210938 C 277.089844 20.664062 273.296875 20.148438 269.523438 19.535156 C 269.5625 20.414062 269.601562 21.292969 269.617188 22.175781 C 273.34375 22.695312 277.058594 23.238281 280.773438 23.828125 C 280.777344 23.804688 280.78125 23.789062 280.792969 23.769531 C 281.167969 22.960938 281.210938 22.042969 280.871094 21.210938 Z M 281.132812 20.746094 C 284.960938 20.117188 288.8125 19.652344 292.667969 19.222656 C 291.503906 19.035156 290.335938 18.847656 289.160156 18.773438 C 289.15625 18.773438 289.15625 18.773438 289.148438 18.773438 C 287.035156 19.191406 284.925781 19.628906 282.820312 20.066406 C 282.808594 20.066406 282.800781 20.066406 282.789062 20.070312 C 282.761719 20.082031 282.726562 20.085938 282.691406 20.082031 C 279.039062 19.777344 275.410156 19.277344 271.785156 18.757812 C 271.765625 18.761719 271.742188 18.757812 271.71875 18.753906 C 271.707031 18.757812 271.703125 18.757812 271.691406 18.761719 C 271.050781 18.929688 270.410156 19.082031 269.769531 19.242188 C 273.527344 19.699219 277.277344 20.175781 281.023438 20.707031 C 281.070312 20.710938 281.101562 20.726562 281.132812 20.746094 Z M 289.59375 22.582031 C 290.125 22.507812 290.648438 22.441406 291.183594 22.371094 C 291.402344 21.523438 291.359375 20.644531 290.972656 19.863281 C 290.441406 19.925781 289.910156 19.988281 289.378906 20.050781 C 289.75 20.824219 289.890625 21.761719 289.59375 22.582031 Z M 286.921875 22.957031 C 287.6875 22.847656 288.453125 22.738281 289.21875 22.632812 C 289.410156 21.773438 289.46875 20.949219 289.101562 20.117188 C 289.097656 20.105469 289.09375 20.089844 289.09375 20.082031 C 288.332031 20.167969 287.570312 20.261719 286.8125 20.355469 C 287.148438 21.167969 287.242188 22.128906 286.921875 22.957031 Z M 284.652344 23.300781 C 285.289062 23.203125 285.929688 23.101562 286.570312 23.007812 C 286.832031 22.113281 286.898438 21.261719 286.546875 20.386719 C 285.871094 20.464844 285.199219 20.550781 284.535156 20.628906 C 284.941406 21.464844 285.003906 22.433594 284.652344 23.300781 Z M 284.347656 23.351562 C 284.566406 22.457031 284.628906 21.539062 284.238281 20.667969 C 284.238281 20.667969 284.238281 20.667969 284.238281 20.664062 C 283.230469 20.785156 282.222656 20.898438 281.210938 21.007812 C 281.621094 21.929688 281.644531 22.957031 281.230469 23.882812 C 282.269531 23.695312 283.304688 23.519531 284.347656 23.351562 Z M 286.472656 23.460938 C 285.039062 23.671875 283.605469 23.878906 282.167969 24.082031 C 282.476562 24.109375 282.789062 24.128906 283.082031 24.191406 C 284.210938 23.941406 285.339844 23.695312 286.472656 23.460938 Z M 277.105469 29.105469 C 277.085938 29.082031 277.070312 29.0625 277.058594 29.035156 C 276.796875 28.988281 276.550781 28.886719 276.300781 28.808594 C 275.949219 28.691406 275.589844 28.582031 275.234375 28.472656 C 274.515625 28.25 273.796875 28.027344 273.074219 27.800781 C 271.796875 27.40625 270.523438 27 269.257812 26.582031 C 269.804688 27.546875 269.742188 28.714844 269.054688 29.613281 C 271.835938 30.375 274.589844 31.230469 277.359375 32.027344 C 277.792969 31.0625 277.921875 29.910156 277.105469 29.105469 Z M 282.597656 29.582031 C 282.535156 29.042969 282.363281 28.542969 282.085938 28.082031 C 280.605469 28.441406 279.101562 28.691406 277.609375 28.984375 C 278.382812 29.859375 278.230469 31.121094 277.796875 32.144531 C 279.371094 31.722656 280.945312 31.308594 282.519531 30.894531 C 282.523438 30.734375 282.574219 30.574219 282.597656 30.402344 C 282.628906 30.128906 282.621094 29.855469 282.597656 29.582031 Z M 287.707031 26.9375 C 287.222656 27.066406 286.738281 27.195312 286.253906 27.332031 C 285.769531 27.46875 285.285156 27.601562 284.800781 27.738281 C 284.324219 27.875 283.847656 28.011719 283.371094 28.15625 C 283.210938 28.203125 283.011719 28.238281 282.851562 28.203125 C 282.722656 28.171875 282.632812 28.152344 282.464844 28.109375 C 282.710938 28.519531 282.902344 29.019531 282.976562 29.496094 C 283.027344 29.828125 283.082031 30.375 282.964844 30.78125 C 284.675781 30.332031 286.382812 29.890625 288.09375 29.453125 C 288.234375 28.578125 288.140625 27.722656 287.707031 26.9375 Z M 291.785156 27.363281 C 291.777344 26.941406 291.628906 26.335938 291.28125 26.050781 C 290.1875 26.304688 289.09375 26.570312 288.003906 26.859375 C 288.429688 27.613281 288.617188 28.511719 288.457031 29.359375 C 289.484375 29.097656 290.507812 28.839844 291.542969 28.582031 C 291.71875 28.191406 291.796875 27.785156 291.785156 27.363281 Z M 292.894531 24.101562 C 292.894531 23.609375 292.78125 23.125 292.558594 22.679688 C 292.546875 22.664062 292.542969 22.644531 292.535156 22.628906 C 291.046875 22.957031 289.523438 23.1875 288.023438 23.488281 C 286.484375 23.800781 284.945312 24.128906 283.410156 24.46875 C 283.410156 24.476562 283.410156 24.484375 283.410156 24.492188 C 283.867188 25.222656 283.992188 26.09375 283.792969 26.90625 C 283.757812 27.179688 283.683594 27.445312 283.585938 27.714844 C 286.597656 26.820312 289.632812 26.046875 292.6875 25.3125 C 292.78125 24.910156 292.894531 24.523438 292.894531 24.101562 Z M 293.75 19.539062 C 292.933594 19.628906 292.109375 19.722656 291.292969 19.820312 C 291.6875 20.648438 291.722656 21.460938 291.515625 22.324219 C 292.292969 22.226562 293.074219 22.128906 293.847656 22.035156 C 293.847656 22.035156 293.855469 22.035156 293.855469 22.035156 C 294.175781 21.277344 294.222656 20.242188 293.75 19.539062 Z M 293.75 19.539062 " fill-opacity="1" fill-rule="nonzero"/></g><path fill="#f0ddba" d="M 136.632812 23.09375 C 136.632812 22.949219 136.515625 22.828125 136.367188 22.828125 L 134.179688 22.828125 C 134.035156 22.828125 133.914062 22.941406 133.914062 23.09375 L 133.914062 24.730469 C 133.914062 24.875 134.03125 24.996094 134.179688 24.996094 L 136.375 24.996094 C 136.515625 24.996094 136.636719 24.878906 136.636719 24.730469 L 136.636719 23.09375 Z M 136.117188 24.519531 L 134.4375 24.519531 L 134.4375 23.355469 L 136.117188 23.355469 Z M 136.117188 24.519531 " fill-opacity="1" fill-rule="nonzero"/><path fill="#f0ddba" d="M 140.71875 23.09375 C 140.71875 22.949219 140.605469 22.828125 140.457031 22.828125 L 138.261719 22.828125 C 138.117188 22.828125 137.996094 22.941406 137.996094 23.09375 L 137.996094 24.730469 C 137.996094 24.875 138.109375 24.996094 138.261719 24.996094 L 140.457031 24.996094 C 140.597656 24.996094 140.71875 24.878906 140.71875 24.730469 Z M 138.523438 23.351562 L 140.203125 23.351562 L 140.203125 24.515625 L 138.523438 24.515625 Z M 138.523438 23.351562 " fill-opacity="1" fill-rule="nonzero"/><path fill="#f0ddba" d="M 136.632812 26.140625 C 136.632812 26 136.515625 25.878906 136.367188 25.878906 L 134.179688 25.878906 C 134.035156 25.878906 133.914062 25.992188 133.914062 26.140625 L 133.914062 27.78125 C 133.914062 27.925781 134.03125 28.042969 134.179688 28.042969 L 136.375 28.042969 C 136.515625 28.042969 136.636719 27.929688 136.636719 27.78125 L 136.636719 26.140625 Z M 136.117188 27.515625 L 134.4375 27.515625 L 134.4375 26.40625 L 136.117188 26.40625 Z M 136.117188 27.515625 " fill-opacity="1" fill-rule="nonzero"/><path fill="#f0ddba" d="M 140.71875 26.140625 C 140.71875 26 140.605469 25.878906 140.457031 25.878906 L 138.261719 25.878906 C 138.117188 25.878906 137.996094 25.992188 137.996094 26.140625 L 137.996094 27.78125 C 137.996094 27.925781 138.109375 28.042969 138.261719 28.042969 L 140.457031 28.042969 C 140.597656 28.042969 140.71875 27.929688 140.71875 27.78125 Z M 138.523438 26.410156 L 140.203125 26.410156 L 140.203125 27.523438 L 138.523438 27.523438 Z M 138.523438 26.410156 " fill-opacity="1" fill-rule="nonzero"/><g clip-path="url(#7057df0c25)"><path fill="#f0ddba" d="M 147.257812 24.507812 L 142.398438 24.507812 L 142.398438 21.027344 C 142.394531 20.9375 142.351562 20.863281 142.273438 20.816406 L 137.589844 17.6875 L 137.589844 15.578125 L 140.769531 15.578125 C 140.910156 15.578125 141.023438 15.460938 141.023438 15.3125 C 141.023438 15.25 141 15.199219 140.964844 15.152344 L 140.210938 14.160156 L 140.964844 13.175781 C 141.027344 13.101562 141.035156 12.996094 140.996094 12.910156 C 140.949219 12.820312 140.855469 12.769531 140.757812 12.773438 L 137.320312 12.773438 C 137.175781 12.773438 137.054688 12.871094 137.054688 13.015625 L 137.054688 17.679688 L 132.367188 20.816406 C 132.292969 20.863281 132.253906 20.941406 132.242188 21.027344 L 132.242188 24.507812 L 127.378906 24.507812 C 127.238281 24.515625 127.117188 24.632812 127.128906 24.777344 L 127.128906 31.792969 C 127.128906 31.925781 127.230469 32.035156 127.363281 32.035156 C 127.363281 32.035156 127.367188 32.035156 127.375 32.035156 L 132.5 32.035156 L 132.5 32.046875 L 132.523438 32.035156 L 142.117188 32.035156 C 142.125 32.035156 142.140625 32.046875 142.140625 32.046875 L 142.140625 32.035156 L 147.257812 32.035156 C 147.398438 32.039062 147.507812 31.9375 147.511719 31.804688 C 147.511719 31.804688 147.511719 31.800781 147.511719 31.792969 L 147.511719 24.777344 C 147.519531 24.640625 147.398438 24.519531 147.257812 24.507812 Z M 132.253906 25.023438 L 132.253906 26.703125 L 127.648438 26.703125 L 127.648438 25.023438 Z M 127.648438 27.21875 L 132.253906 27.21875 L 132.253906 31.519531 L 127.648438 31.519531 Z M 137.582031 13.289062 L 140.242188 13.289062 L 139.6875 14.011719 C 139.617188 14.105469 139.617188 14.230469 139.6875 14.320312 L 140.242188 15.050781 L 137.582031 15.050781 Z M 138.523438 31.519531 L 136.117188 31.519531 L 136.117188 29.496094 L 138.523438 29.496094 Z M 141.882812 31.519531 L 139.050781 31.519531 L 139.050781 29.226562 C 139.058594 29.09375 138.960938 28.984375 138.832031 28.980469 C 138.828125 28.980469 138.820312 28.980469 138.808594 28.980469 L 135.839844 28.980469 C 135.710938 28.980469 135.605469 29.078125 135.601562 29.207031 C 135.601562 29.214844 135.601562 29.21875 135.601562 29.230469 L 135.601562 31.523438 L 132.773438 31.523438 L 132.773438 21.167969 L 137.324219 18.128906 L 141.878906 21.167969 Z M 147 25.023438 L 147 26.703125 L 142.398438 26.703125 L 142.398438 25.023438 Z M 142.394531 31.519531 L 142.394531 27.21875 L 146.996094 27.21875 L 146.996094 31.519531 Z M 142.394531 31.519531 " fill-opacity="1" fill-rule="nonzero"/></g></svg>